<?xml version="1.0" standalone="no"?>
 <!DOCTYPE svg PUBLIC "-//W3C//DTD SVG 1.1//EN" 
 "http://www.w3.org/Graphics/SVG/1.1/DTD/svg11.dtd"> 
<svg
  xmlns:svg="http://www.w3.org/2000/svg"
  xmlns="http://www.w3.org/2000/svg"
  xmlns:xlink="http://www.w3.org/1999/xlink"
  version="1.1"
  width="9.410700cm" height="8.110220cm" viewBox="0 0 94107000 81102200">
<title>SVG Picture created as miniaf1-brd.svg date 2022/06/07 09:57:52 </title>
  <desc>Picture generated by PCBNEW </desc>
<g style="fill:#000000; fill-opacity:1.000000;stroke:#000000; stroke-opacity:1.000000;
stroke-linecap:round; stroke-linejoin:round;"
 transform="translate(0 0) scale(1 1)">
</g>
<g style="fill:#000000; fill-opacity:0.0; 
stroke:#000000; stroke-width:0.000000; stroke-opacity:1; 
stroke-linecap:round; stroke-linejoin:round;">
</g>
<g style="fill:#C2C2C2; fill-opacity:0.0; 
stroke:#C2C2C2; stroke-width:0.000000; stroke-opacity:1; 
stroke-linecap:round; stroke-linejoin:round;">
</g>
<g style="fill:#C2C2C2; fill-opacity:0.0; 
stroke:#C2C2C2; stroke-width:150000.000000; stroke-opacity:1; 
stroke-linecap:round; stroke-linejoin:round;">
<path d="M17850000 52162000
L17850000 51662000
" />
<path d="M35960000 68952000
L35460000 68952000
" />
<path d="M8980000 31242000
L8480000 31242000
" />
<path d="M41657310 51601831
L41657310 52101831
" />
<path d="M9000000 71882000
L8500000 71882000
" />
<path d="M9000000 71882000
L9500000 71882000
" />
<path d="M13560000 27302000
L14060000 27302000
" />
<path d="M41657310 51601831
L42157310 51601831
" />
<path d="M62000000 41472000
L61500000 41472000
" />
<path d="M62000000 41472000
L62500000 41472000
" />
<path d="M35960000 68952000
L36460000 68952000
" />
<path d="M35859831 34295607
L35859831 33795607
" />
<path d="M62000000 41472000
L62000000 40972000
" />
<path d="M8980000 31242000
L9480000 31242000
" />
<path d="M61920000 72002000
L61920000 72502000
" />
<path d="M13560000 27302000
L13560000 27802000
" />
<path d="M17850000 52162000
L18350000 52162000
" />
<path d="M13560000 27302000
L13560000 26802000
" />
<path d="M35859831 34295607
L35859831 34795607
" />
<path d="M62000000 41472000
L62000000 41972000
" />
<path d="M9000000 71882000
L9000000 72382000
" />
<path d="M13560000 27302000
L13060000 27302000
" />
<path d="M35960000 68952000
L35960000 68452000
" />
<path d="M35960000 68952000
L35960000 69452000
" />
<path d="M35859831 34295607
L36359831 34295607
" />
<path d="M8980000 31242000
L8980000 31742000
" />
<path d="M41657310 51601831
L41657310 51101831
" />
<path d="M61920000 72002000
L61420000 72002000
" />
<path d="M9000000 71882000
L9000000 71382000
" />
<path d="M17850000 52162000
L17350000 52162000
" />
<path d="M8980000 31242000
L8980000 30742000
" />
<path d="M35859831 34295607
L35359831 34295607
" />
<path d="M61920000 72002000
L62420000 72002000
" />
<path d="M61920000 72002000
L61920000 71502000
" />
<path d="M17850000 52162000
L17850000 52662000
" />
<path d="M41657310 51601831
L41157310 51601831
" />
</g>
<g style="fill:#C2C2C2; fill-opacity:0.0; 
stroke:#C2C2C2; stroke-width:50000.000000; stroke-opacity:1; 
stroke-linecap:round; stroke-linejoin:round;">
<circle cx="17850000.000000" cy="52162000.000000" r="5000000.000000" /> 
<circle cx="17850000.000000" cy="52162000.000000" r="3001666.000000" /> 
<g >
</g>
<g >
</g>
<g >
</g>
<g >
</g>
<g >
</g>
<g >
</g>
<g >
</g>
<g >
</g>
<g >
</g>
<g >
</g>
<g >
</g>
<g >
</g>
<g >
</g>
<g >
</g>
<g >
</g>
<g >
</g>
<g >
</g>
<g >
</g>
<g >
</g>
<g >
</g>
<g >
</g>
<g >
</g>
<g >
</g>
<g >
</g>
<g >
</g>
<g >
</g>
<g >
</g>
<g >
</g>
<g >
</g>
<g >
</g>
<g >
</g>
<g >
</g>
<g >
</g>
<g >
</g>
<g >
</g>
<g >
</g>
<g >
</g>
<g >
</g>
<g >
</g>
<g >
</g>
<g >
</g>
<g >
</g>
<g >
</g>
<g >
</g>
<g >
</g>
<g >
</g>
<g >
</g>
<g >
</g>
<g >
</g>
<g >
</g>
<g >
</g>
<g >
</g>
<g >
</g>
</g>
<g style="fill:#000000; fill-opacity:0.0; 
stroke:#000000; stroke-width:50000.000000; stroke-opacity:1; 
stroke-linecap:round; stroke-linejoin:round;">
</g>
<g style="fill:#5994DC; fill-opacity:0.0; 
stroke:#5994DC; stroke-width:50000.000000; stroke-opacity:1; 
stroke-linecap:round; stroke-linejoin:round;">
</g>
<g style="fill:#5994DC; fill-opacity:0.0; 
stroke:#5994DC; stroke-width:150000.000000; stroke-opacity:1; 
stroke-linecap:round; stroke-linejoin:round;">
<path d="M56620000 22062000
L56620000 112000
" />
<path d="M21500000 22062000
L21500000 112000
" />
<g transform="rotate(-90.000000 1210000.000000 10885000.000000)">
<text x="1210000.000000" y="11385000.000000"
textLength="8864286.000000" font-size="1333333.000000" lengthAdjust="spacingAndGlyphs"
text-anchor="middle" opacity="0">SIDE PANEL</text>
</g>
<g class="stroked-text"><desc>SIDE PANEL</desc>
<path d="M1614761 15051666
L1662380 14908809
L1662380 14670714
L1614761 14575476
L1567142 14527857
L1471904 14480238
L1376666 14480238
L1281428 14527857
L1233809 14575476
L1186190 14670714
L1138571 14861190
L1090952 14956428
L1043333 15004047
L948095 15051666
L852857 15051666
L757619 15004047
L710000 14956428
L662380 14861190
L662380 14623095
L710000 14480238
" />
<path d="M1662380 14051666
L662380 14051666
" />
<path d="M1662380 13575476
L662380 13575476
L662380 13337380
L710000 13194523
L805238 13099285
L900476 13051666
L1090952 13004047
L1233809 13004047
L1424285 13051666
L1519523 13099285
L1614761 13194523
L1662380 13337380
L1662380 13575476
" />
<path d="M1138571 12575476
L1138571 12242142
" />
<path d="M1662380 12099285
L1662380 12575476
L662380 12575476
L662380 12099285
" />
<path d="M1662380 10908809
L662380 10908809
L662380 10527857
L710000 10432619
L757619 10385000
L852857 10337380
L995714 10337380
L1090952 10385000
L1138571 10432619
L1186190 10527857
L1186190 10908809
" />
<path d="M1376666 9956428
L1376666 9480238
" />
<path d="M1662380 10051666
L662380 9718333
L1662380 9385000
" />
<path d="M1662380 9051666
L662380 9051666
L1662380 8480238
L662380 8480238
" />
<path d="M1138571 8004047
L1138571 7670714
" />
<path d="M1662380 7527857
L1662380 8004047
L662380 8004047
L662380 7527857
" />
<path d="M1662380 6623095
L1662380 7099285
L662380 7099285
" />
</g><circle cx="8990000.000000" cy="31232000.000000" r="2200000.000000" /> 
<circle cx="61990000.000000" cy="41482000.000000" r="2200000.000000" /> 
</g>
<g style="fill:#5994DC; fill-opacity:0.0; 
stroke:#5994DC; stroke-width:120000.000000; stroke-opacity:1; 
stroke-linecap:round; stroke-linejoin:round;">
<path d="M85160000 71880000
L85160000 71380000
" />
<path d="M8460000 31260000
L8960000 31260000
" />
<path d="M85160000 31240000
L85160000 31740000
" />
<path d="M94060000 81060000
L60000 81060000
" />
<path d="M8960000 71880000
L9460000 71880000
" />
<path d="M94060000 22060000
L94060000 60000
" />
<path d="M80334000 78230000
L13786000 78230000
" />
<path d="M85160000 31240000
L85160000 30740000
" />
<path d="M94060000 22060000
L94060000 81060000
" />
<path d="M8960000 31260000
L8960000 30760000
" />
<path d="M84660000 71880000
L85160000 71880000
" />
<path d="M8960000 71880000
L8960000 72380000
" />
<path d="M60000 22060000
L94060000 22060000
" />
<path d="M85160000 31240000
L85660000 31240000
" />
<path d="M8960000 31260000
L8960000 31760000
" />
<path d="M60000 81060000
L60000 22060000
" />
<path d="M2610000 67054000
L2610000 36066000
" />
<path d="M8960000 71880000
L8960000 71380000
" />
<path d="M91510000 36066000
L91510000 67054000
" />
<path d="M13786000 24890000
L80334000 24890000
" />
<path d="M8960000 31260000
L9460000 31260000
" />
<path d="M60000 60000
L94060000 60000
" />
<path d="M84660000 31240000
L85160000 31240000
" />
<path d="M60000 22060000
L60000 60000
" />
<path d="M8460000 71880000
L8960000 71880000
" />
<path d="M85160000 71880000
L85160000 72380000
" />
<path d="M85160000 71880000
L85660000 71880000
" />
<path d="M80334000.000000 78230000.000000 A11176000.000000 11176000.000000 0.0 0 0 91510000.000000 67054000.000000" />
<path d="M13786000.000000 24890000.000000 A11176001.000000 11176001.000000 0.0 0 0 2610000.000000 36066000.000000" />
<path d="M2610000.000000 67054000.000000 A11176001.000000 11176001.000000 0.0 0 0 13786000.000000 78230000.000000" />
<path d="M91510000.000000 36066000.000000 A11176000.000000 11176000.000000 0.0 0 0 80334000.000000 24890000.000000" />
</g>
<g style="fill:#5994DC; fill-opacity:0.0; 
stroke:#5994DC; stroke-width:50000.000000; stroke-opacity:1; 
stroke-linecap:round; stroke-linejoin:round;">
<circle cx="85160000.000000" cy="31240000.000000" r="2341764.000000" /> 
<circle cx="85160000.000000" cy="71880000.000000" r="2341764.000000" /> 
<circle cx="8960000.000000" cy="31240000.000000" r="2341764.000000" /> 
<circle cx="8960000.000000" cy="71880000.000000" r="2396231.000000" /> 
</g>
<g style="fill:#5994DC; fill-opacity:0.0; 
stroke:#5994DC; stroke-width:150000.000000; stroke-opacity:1; 
stroke-linecap:round; stroke-linejoin:round;">
<circle cx="8990000.000000" cy="71882000.000000" r="2200000.000000" /> 
<circle cx="61920000.000000" cy="72012000.000000" r="2200000.000000" /> 
<g >
</g>
<g >
</g>
<g >
</g>
<g >
</g>
<g >
</g>
<g >
</g>
<g >
</g>
<g >
</g>
<g >
</g>
<g >
</g>
<g >
</g>
<g >
</g>
<g >
</g>
<g >
</g>
<g >
</g>
<g >
</g>
<g >
</g>
<g >
</g>
<g >
</g>
<g >
</g>
<g >
</g>
<g >
</g>
<g >
</g>
<g >
</g>
<g >
</g>
<g >
</g>
<g >
</g>
<g >
</g>
<g >
</g>
<g >
</g>
<g >
</g>
<g >
</g>
<g >
</g>
<g >
</g>
<g >
</g>
<g >
</g>
<g >
</g>
<g >
</g>
<g >
</g>
<g >
</g>
<g >
</g>
<g >
</g>
<g >
</g>
<g >
</g>
<g >
</g>
<g >
</g>
<g >
</g>
<g >
</g>
<g >
</g>
<g >
</g>
<g >
</g>
<g >
</g>
<g >
</g>
</g> 
</svg>
