M48
; DRILL file {KiCad (6.0.5)} date Mon May 30 10:59:32 2022
; FORMAT={-:-/ absolute / metric / decimal}
; #@! TF.CreationDate,2022-05-30T10:59:32+08:00
; #@! TF.GenerationSoftware,Kicad,Pcbnew,(6.0.5)
; #@! TF.FileFunction,MixedPlating,1,2
FMAT,2
METRIC
; #@! TA.AperFunction,Plated,PTH,ViaDrill
T1C0.400
; #@! TA.AperFunction,Plated,PTH,ComponentDrill
T2C0.762
; #@! TA.AperFunction,Plated,PTH,ComponentDrill
T3C0.800
; #@! TA.AperFunction,Plated,PTH,ComponentDrill
T4C0.900
; #@! TA.AperFunction,Plated,PTH,ComponentDrill
T5C1.000
; #@! TA.AperFunction,Plated,PTH,ComponentDrill
T6C1.200
; #@! TA.AperFunction,Plated,PTH,ComponentDrill
T7C2.200
; #@! TA.AperFunction,NonPlated,NPTH,ComponentDrill
T8C1.500
; #@! TA.AperFunction,NonPlated,NPTH,ComponentDrill
T9C3.600
; #@! TA.AperFunction,NonPlated,NPTH,ComponentDrill
T10C7.600
; #@! TA.AperFunction,NonPlated,NPTH,ComponentDrill
T11C18.000
%
G90
G05
T1
X81.28Y-81.026
X85.852Y-76.2
X86.614Y-72.136
X89.408Y-97.282
X89.916Y-94.742
X93.12Y-96.579
X93.602Y-59.011
X96.012Y-95.25
X97.126Y-101.36
X97.386Y-97.785
X97.543Y-100.16
X97.796Y-102.944
X100.104Y-67.315
X102.108Y-100.584
X102.305Y-105.24
X103.893Y-102.674
X103.918Y-104.384
X104.394Y-107.95
X105.918Y-78.486
X107.442Y-73.66
X107.442Y-102.616
X109.728Y-80.264
X112.522Y-90.678
X112.836Y-93.722
X116.078Y-87.376
X118.618Y-101.854
X122.221Y-103.262
X123.19Y-77.47
X123.698Y-72.644
X124.714Y-86.106
X125.222Y-74.676
X128.016Y-93.726
X128.778Y-84.582
X129.033Y-58.221
X129.794Y-93.726
X135.533Y-66.329
T2
X81.458Y-86.449
X82.039Y-88.655
X83.059Y-90.622
X84.289Y-92.552
X85.908Y-94.157
X90.975Y-70.332
X93.007Y-69.852
X95.053Y-69.726
X97.174Y-69.87
X99.31Y-70.369
X104.575Y-93.888
X106.093Y-92.318
X107.276Y-90.497
X108.148Y-88.476
X108.783Y-86.377
T3
X82.869Y-97.663
X85.09Y-67.285
X85.09Y-69.785
X85.369Y-97.663
X131.54Y-99.36
X133.31Y-70.858
X133.31Y-73.358
X134.04Y-99.36
X136.74Y-94.11
X139.24Y-94.11
T4
X89.535Y-58.801
X92.075Y-58.801
T5
X131.29Y-105.25
X133.83Y-105.25
X139.75Y-78.715
X139.75Y-81.255
T6
X127.207Y-60.786
X127.207Y-65.786
X127.207Y-70.786
X127.208Y-95.457
X127.208Y-100.457
X127.208Y-105.457
X133.021Y-78.058
X133.021Y-83.058
X133.021Y-88.058
X135.871Y-78.058
X135.871Y-83.058
X135.871Y-88.058
T7
X86.23Y-62.73
X86.23Y-103.38
X139.16Y-103.51
X139.23Y-72.98
T8
X98.729Y-57.767
X98.729Y-64.766
X133.858Y-57.767
X133.858Y-64.766
T9
X103.297Y-88.275
T10
X113.157Y-65.786
X113.158Y-100.457
X118.971Y-83.058
T11
X95.09Y-83.66
T8
G00X112.407Y-73.386
M15
G01X113.907Y-73.386
M16
G05
G00X112.408Y-108.057
M15
G01X113.908Y-108.057
M16
G05
G00X118.221Y-90.658
M15
G01X119.721Y-90.658
M16
G05
T0
M30
