G04 #@! TF.GenerationSoftware,KiCad,Pcbnew,(6.0.5)*
G04 #@! TF.CreationDate,2022-05-30T10:59:04+08:00*
G04 #@! TF.ProjectId,miniaf1,6d696e69-6166-4312-9e6b-696361645f70,rev?*
G04 #@! TF.SameCoordinates,Original*
G04 #@! TF.FileFunction,Legend,Bot*
G04 #@! TF.FilePolarity,Positive*
%FSLAX46Y46*%
G04 Gerber Fmt 4.6, Leading zero omitted, Abs format (unit mm)*
G04 Created by KiCad (PCBNEW (6.0.5)) date 2022-05-30 10:59:04*
%MOMM*%
%LPD*%
G01*
G04 APERTURE LIST*
%ADD10C,0.300000*%
%ADD11C,0.150000*%
%ADD12C,0.120000*%
%ADD13C,0.050000*%
G04 APERTURE END LIST*
D10*
X103782714Y-58209571D02*
X103782714Y-56709571D01*
X103068428Y-58209571D02*
X103068428Y-56709571D01*
X102211285Y-58209571D01*
X102211285Y-56709571D01*
X129897000Y-56836571D02*
X129611285Y-56836571D01*
X129468428Y-56908000D01*
X129325571Y-57050857D01*
X129254142Y-57336571D01*
X129254142Y-57836571D01*
X129325571Y-58122285D01*
X129468428Y-58265142D01*
X129611285Y-58336571D01*
X129897000Y-58336571D01*
X130039857Y-58265142D01*
X130182714Y-58122285D01*
X130254142Y-57836571D01*
X130254142Y-57336571D01*
X130182714Y-57050857D01*
X130039857Y-56908000D01*
X129897000Y-56836571D01*
X128611285Y-56836571D02*
X128611285Y-58050857D01*
X128539857Y-58193714D01*
X128468428Y-58265142D01*
X128325571Y-58336571D01*
X128039857Y-58336571D01*
X127897000Y-58265142D01*
X127825571Y-58193714D01*
X127754142Y-58050857D01*
X127754142Y-56836571D01*
X127254142Y-56836571D02*
X126397000Y-56836571D01*
X126825571Y-58336571D02*
X126825571Y-56836571D01*
D11*
X123805319Y-100171285D02*
X123757700Y-100218904D01*
X123710080Y-100314142D01*
X123710080Y-100552238D01*
X123757700Y-100647476D01*
X123805319Y-100695095D01*
X123900557Y-100742714D01*
X123995795Y-100742714D01*
X124138652Y-100695095D01*
X124710080Y-100123666D01*
X124710080Y-100742714D01*
X123810080Y-95123666D02*
X123810080Y-95742714D01*
X124191033Y-95409380D01*
X124191033Y-95552238D01*
X124238652Y-95647476D01*
X124286271Y-95695095D01*
X124381509Y-95742714D01*
X124619604Y-95742714D01*
X124714842Y-95695095D01*
X124762461Y-95647476D01*
X124810080Y-95552238D01*
X124810080Y-95266523D01*
X124762461Y-95171285D01*
X124714842Y-95123666D01*
X124710080Y-105742714D02*
X124710080Y-105171285D01*
X124710080Y-105457000D02*
X123710080Y-105457000D01*
X123852938Y-105361761D01*
X123948176Y-105266523D01*
X123995795Y-105171285D01*
X86175073Y-92853655D02*
X86460787Y-93348527D01*
X86317930Y-93101091D02*
X87183956Y-92601091D01*
X87107857Y-92754998D01*
X87072997Y-92885096D01*
X87079377Y-92991384D01*
X86731575Y-91817544D02*
X86683956Y-91735066D01*
X86595097Y-91676397D01*
X86530049Y-91658967D01*
X86423760Y-91665346D01*
X86234994Y-91719345D01*
X86028797Y-91838393D01*
X85887649Y-91974870D01*
X85828980Y-92063729D01*
X85811551Y-92128777D01*
X85817930Y-92235066D01*
X85865549Y-92317544D01*
X85954408Y-92376213D01*
X86019457Y-92393643D01*
X86125745Y-92387263D01*
X86314511Y-92333265D01*
X86520708Y-92214217D01*
X86661856Y-92077740D01*
X86720525Y-91988881D01*
X86737955Y-91923832D01*
X86731575Y-91817544D01*
X103576941Y-74861242D02*
X102999591Y-75194576D01*
X104025903Y-74876963D02*
X103526361Y-75440302D01*
X103216838Y-74904191D01*
X92843030Y-71793372D02*
X92860460Y-71728323D01*
X92854080Y-71622035D01*
X92735032Y-71415838D01*
X92646174Y-71357169D01*
X92581125Y-71339739D01*
X92474837Y-71346119D01*
X92392359Y-71393738D01*
X92292450Y-71506406D01*
X92083293Y-72286992D01*
X91773769Y-71750881D01*
X83061674Y-87261093D02*
X83347388Y-87755965D01*
X83204531Y-87508529D02*
X84070557Y-87008529D01*
X83994458Y-87162436D01*
X83959598Y-87292534D01*
X83965978Y-87398822D01*
X82585484Y-86436307D02*
X82871198Y-86931179D01*
X82728341Y-86683743D02*
X83594366Y-86183743D01*
X83518267Y-86337650D01*
X83483408Y-86467748D01*
X83489788Y-86574036D01*
X104279703Y-92611794D02*
X103946370Y-92034444D01*
X103294630Y-92905598D01*
X86008001Y-74964279D02*
X86293715Y-75459151D01*
X86150858Y-75211715D02*
X87016884Y-74711715D01*
X86940785Y-74865622D01*
X86905925Y-74995720D01*
X86912305Y-75102008D01*
X98246939Y-95819883D02*
X98335797Y-95878552D01*
X98400846Y-95895982D01*
X98507134Y-95889602D01*
X98548373Y-95865793D01*
X98607043Y-95776935D01*
X98624472Y-95711886D01*
X98618093Y-95605598D01*
X98522854Y-95440640D01*
X98433996Y-95381971D01*
X98368947Y-95364541D01*
X98262659Y-95370921D01*
X98221420Y-95394731D01*
X98162751Y-95483589D01*
X98145321Y-95548638D01*
X98151701Y-95654926D01*
X98246939Y-95819883D01*
X98253319Y-95926171D01*
X98235889Y-95991220D01*
X98177220Y-96080079D01*
X98012262Y-96175317D01*
X97905974Y-96181696D01*
X97840926Y-96164267D01*
X97752067Y-96105598D01*
X97656829Y-95940640D01*
X97650449Y-95834352D01*
X97667879Y-95769303D01*
X97726548Y-95680445D01*
X97891505Y-95585207D01*
X97997794Y-95578827D01*
X98062842Y-95596257D01*
X98151701Y-95654926D01*
X91646354Y-95930192D02*
X91551116Y-95765235D01*
X91544736Y-95658947D01*
X91562166Y-95593898D01*
X91638265Y-95439991D01*
X91779413Y-95303513D01*
X92109327Y-95113037D01*
X92215615Y-95106657D01*
X92280664Y-95124087D01*
X92369522Y-95182756D01*
X92464761Y-95347714D01*
X92471140Y-95454002D01*
X92453711Y-95519051D01*
X92395041Y-95607909D01*
X92188845Y-95726957D01*
X92082557Y-95733336D01*
X92017508Y-95715906D01*
X91928650Y-95657237D01*
X91833411Y-95492280D01*
X91827032Y-95385992D01*
X91844462Y-95320943D01*
X91903131Y-95232085D01*
X98556240Y-71898467D02*
X98246716Y-71362356D01*
X98083469Y-71841507D01*
X98012040Y-71717790D01*
X97923182Y-71659120D01*
X97858133Y-71641691D01*
X97751845Y-71648070D01*
X97545648Y-71767118D01*
X97486979Y-71855976D01*
X97469549Y-71921025D01*
X97475929Y-72027313D01*
X97618786Y-72274749D01*
X97707645Y-72333418D01*
X97772693Y-72350848D01*
X107367540Y-86760086D02*
X107462779Y-86925043D01*
X107469158Y-87031331D01*
X107451728Y-87096380D01*
X107375630Y-87250287D01*
X107234482Y-87386765D01*
X106904567Y-87577241D01*
X106798279Y-87583620D01*
X106733231Y-87566191D01*
X106644372Y-87507522D01*
X106549134Y-87342564D01*
X106542754Y-87236276D01*
X106560184Y-87171227D01*
X106618853Y-87082369D01*
X106825050Y-86963321D01*
X106931338Y-86956942D01*
X106996387Y-86974371D01*
X107085245Y-87033041D01*
X107180483Y-87197998D01*
X107186863Y-87304286D01*
X107169433Y-87369335D01*
X107110764Y-87458193D01*
X107265013Y-80182501D02*
X107503108Y-80594895D01*
X107114525Y-80874229D01*
X107131954Y-80809180D01*
X107125575Y-80702892D01*
X107006527Y-80496696D01*
X106917669Y-80438026D01*
X106852620Y-80420597D01*
X106746332Y-80426976D01*
X106540135Y-80546024D01*
X106481466Y-80634882D01*
X106464036Y-80699931D01*
X106470416Y-80806219D01*
X106589464Y-81012416D01*
X106678322Y-81071085D01*
X106743371Y-81088515D01*
X83232956Y-81157760D02*
X83518670Y-81652632D01*
X83375813Y-81405196D02*
X84241839Y-80905196D01*
X84165740Y-81059103D01*
X84130880Y-81189201D01*
X84137260Y-81295489D01*
X83826027Y-80375465D02*
X83843457Y-80310416D01*
X83837077Y-80204128D01*
X83718029Y-79997931D01*
X83629171Y-79939262D01*
X83564122Y-79921832D01*
X83457834Y-79928212D01*
X83375355Y-79975831D01*
X83275447Y-80088499D01*
X83066290Y-80869085D01*
X82756766Y-80332974D01*
X83874538Y-89678537D02*
X83857108Y-89743586D01*
X83887297Y-89891114D01*
X83934916Y-89973592D01*
X84047584Y-90073501D01*
X84177682Y-90108360D01*
X84283970Y-90101981D01*
X84472737Y-90047982D01*
X84596455Y-89976553D01*
X84737602Y-89840076D01*
X84796271Y-89751217D01*
X84831131Y-89621120D01*
X84800942Y-89473592D01*
X84753323Y-89391114D01*
X84640655Y-89291205D01*
X84575606Y-89273776D01*
X105836210Y-89860125D02*
X105723542Y-89760217D01*
X105658493Y-89742787D01*
X105552205Y-89749167D01*
X105428487Y-89820595D01*
X105369818Y-89909454D01*
X105352389Y-89974503D01*
X105358768Y-90080791D01*
X105549244Y-90410705D01*
X106415270Y-89910705D01*
X106248603Y-89622030D01*
X106159745Y-89563361D01*
X106094696Y-89545931D01*
X105988408Y-89552311D01*
X105905929Y-89599930D01*
X105847260Y-89688788D01*
X105829830Y-89753837D01*
X105836210Y-89860125D01*
X106002877Y-90148800D01*
X94984775Y-71541079D02*
X94746679Y-71128686D01*
X94784958Y-71766415D02*
X95484317Y-70977740D01*
X94451624Y-71189065D01*
X129818319Y-82772285D02*
X129770700Y-82819904D01*
X129723080Y-82915142D01*
X129723080Y-83153238D01*
X129770700Y-83248476D01*
X129818319Y-83296095D01*
X129913557Y-83343714D01*
X130008795Y-83343714D01*
X130151652Y-83296095D01*
X130723080Y-82724666D01*
X130723080Y-83343714D01*
X129823080Y-77624666D02*
X129823080Y-78243714D01*
X130204033Y-77910380D01*
X130204033Y-78053238D01*
X130251652Y-78148476D01*
X130299271Y-78196095D01*
X130394509Y-78243714D01*
X130632604Y-78243714D01*
X130727842Y-78196095D01*
X130775461Y-78148476D01*
X130823080Y-78053238D01*
X130823080Y-77767523D01*
X130775461Y-77672285D01*
X130727842Y-77624666D01*
X130723080Y-88443714D02*
X130723080Y-87872285D01*
X130723080Y-88158000D02*
X129723080Y-88158000D01*
X129865938Y-88062761D01*
X129961176Y-87967523D01*
X130008795Y-87872285D01*
X123804319Y-65500285D02*
X123756700Y-65547904D01*
X123709080Y-65643142D01*
X123709080Y-65881238D01*
X123756700Y-65976476D01*
X123804319Y-66024095D01*
X123899557Y-66071714D01*
X123994795Y-66071714D01*
X124137652Y-66024095D01*
X124709080Y-65452666D01*
X124709080Y-66071714D01*
X123809080Y-60452666D02*
X123809080Y-61071714D01*
X124190033Y-60738380D01*
X124190033Y-60881238D01*
X124237652Y-60976476D01*
X124285271Y-61024095D01*
X124380509Y-61071714D01*
X124618604Y-61071714D01*
X124713842Y-61024095D01*
X124761461Y-60976476D01*
X124809080Y-60881238D01*
X124809080Y-60595523D01*
X124761461Y-60500285D01*
X124713842Y-60452666D01*
X124709080Y-71071714D02*
X124709080Y-70500285D01*
X124709080Y-70786000D02*
X123709080Y-70786000D01*
X123851938Y-70690761D01*
X123947176Y-70595523D01*
X123994795Y-70500285D01*
X136858333Y-105497380D02*
X136858333Y-106211666D01*
X136905952Y-106354523D01*
X137001190Y-106449761D01*
X137144047Y-106497380D01*
X137239285Y-106497380D01*
X136429761Y-105592619D02*
X136382142Y-105545000D01*
X136286904Y-105497380D01*
X136048809Y-105497380D01*
X135953571Y-105545000D01*
X135905952Y-105592619D01*
X135858333Y-105687857D01*
X135858333Y-105783095D01*
X135905952Y-105925952D01*
X136477380Y-106497380D01*
X135858333Y-106497380D01*
X102312380Y-62216666D02*
X103026666Y-62216666D01*
X103169523Y-62169047D01*
X103264761Y-62073809D01*
X103312380Y-61930952D01*
X103312380Y-61835714D01*
X103312380Y-63216666D02*
X103312380Y-62645238D01*
X103312380Y-62930952D02*
X102312380Y-62930952D01*
X102455238Y-62835714D01*
X102550476Y-62740476D01*
X102598095Y-62645238D01*
X128646666Y-98627142D02*
X128694285Y-98674761D01*
X128837142Y-98722380D01*
X128932380Y-98722380D01*
X129075238Y-98674761D01*
X129170476Y-98579523D01*
X129218095Y-98484285D01*
X129265714Y-98293809D01*
X129265714Y-98150952D01*
X129218095Y-97960476D01*
X129170476Y-97865238D01*
X129075238Y-97770000D01*
X128932380Y-97722380D01*
X128837142Y-97722380D01*
X128694285Y-97770000D01*
X128646666Y-97817619D01*
X128265714Y-97817619D02*
X128218095Y-97770000D01*
X128122857Y-97722380D01*
X127884761Y-97722380D01*
X127789523Y-97770000D01*
X127741904Y-97817619D01*
X127694285Y-97912857D01*
X127694285Y-98008095D01*
X127741904Y-98150952D01*
X128313333Y-98722380D01*
X127694285Y-98722380D01*
X137432380Y-62196666D02*
X138146666Y-62196666D01*
X138289523Y-62149047D01*
X138384761Y-62053809D01*
X138432380Y-61910952D01*
X138432380Y-61815714D01*
X137432380Y-62577619D02*
X137432380Y-63196666D01*
X137813333Y-62863333D01*
X137813333Y-63006190D01*
X137860952Y-63101428D01*
X137908571Y-63149047D01*
X138003809Y-63196666D01*
X138241904Y-63196666D01*
X138337142Y-63149047D01*
X138384761Y-63101428D01*
X138432380Y-63006190D01*
X138432380Y-62720476D01*
X138384761Y-62625238D01*
X138337142Y-62577619D01*
X133836666Y-94897142D02*
X133884285Y-94944761D01*
X134027142Y-94992380D01*
X134122380Y-94992380D01*
X134265238Y-94944761D01*
X134360476Y-94849523D01*
X134408095Y-94754285D01*
X134455714Y-94563809D01*
X134455714Y-94420952D01*
X134408095Y-94230476D01*
X134360476Y-94135238D01*
X134265238Y-94040000D01*
X134122380Y-93992380D01*
X134027142Y-93992380D01*
X133884285Y-94040000D01*
X133836666Y-94087619D01*
X133503333Y-93992380D02*
X132884285Y-93992380D01*
X133217619Y-94373333D01*
X133074761Y-94373333D01*
X132979523Y-94420952D01*
X132931904Y-94468571D01*
X132884285Y-94563809D01*
X132884285Y-94801904D01*
X132931904Y-94897142D01*
X132979523Y-94944761D01*
X133074761Y-94992380D01*
X133360476Y-94992380D01*
X133455714Y-94944761D01*
X133503333Y-94897142D01*
X129607142Y-72827121D02*
X129654761Y-72779502D01*
X129702380Y-72636645D01*
X129702380Y-72541407D01*
X129654761Y-72398550D01*
X129559523Y-72303312D01*
X129464285Y-72255693D01*
X129273809Y-72208074D01*
X129130952Y-72208074D01*
X128940476Y-72255693D01*
X128845238Y-72303312D01*
X128750000Y-72398550D01*
X128702380Y-72541407D01*
X128702380Y-72636645D01*
X128750000Y-72779502D01*
X128797619Y-72827121D01*
X129702380Y-73779502D02*
X129702380Y-73208074D01*
X129702380Y-73493788D02*
X128702380Y-73493788D01*
X128845238Y-73398550D01*
X128940476Y-73303312D01*
X128988095Y-73208074D01*
X129702380Y-74731883D02*
X129702380Y-74160455D01*
X129702380Y-74446169D02*
X128702380Y-74446169D01*
X128845238Y-74350931D01*
X128940476Y-74255693D01*
X128988095Y-74160455D01*
X137355714Y-80398571D02*
X137212857Y-80446190D01*
X137165238Y-80493809D01*
X137117619Y-80589047D01*
X137117619Y-80731904D01*
X137165238Y-80827142D01*
X137212857Y-80874761D01*
X137308095Y-80922380D01*
X137689047Y-80922380D01*
X137689047Y-79922380D01*
X137355714Y-79922380D01*
X137260476Y-79970000D01*
X137212857Y-80017619D01*
X137165238Y-80112857D01*
X137165238Y-80208095D01*
X137212857Y-80303333D01*
X137260476Y-80350952D01*
X137355714Y-80398571D01*
X137689047Y-80398571D01*
X136831904Y-79922380D02*
X136260476Y-79922380D01*
X136546190Y-80922380D02*
X136546190Y-79922380D01*
X135403333Y-80922380D02*
X135974761Y-80922380D01*
X135689047Y-80922380D02*
X135689047Y-79922380D01*
X135784285Y-80065238D01*
X135879523Y-80160476D01*
X135974761Y-80208095D01*
X88907870Y-99417142D02*
X88955489Y-99464761D01*
X89098346Y-99512380D01*
X89193584Y-99512380D01*
X89336441Y-99464761D01*
X89431679Y-99369523D01*
X89479298Y-99274285D01*
X89526917Y-99083809D01*
X89526917Y-98940952D01*
X89479298Y-98750476D01*
X89431679Y-98655238D01*
X89336441Y-98560000D01*
X89193584Y-98512380D01*
X89098346Y-98512380D01*
X88955489Y-98560000D01*
X88907870Y-98607619D01*
X87955489Y-99512380D02*
X88526917Y-99512380D01*
X88241203Y-99512380D02*
X88241203Y-98512380D01*
X88336441Y-98655238D01*
X88431679Y-98750476D01*
X88526917Y-98798095D01*
X87336441Y-98512380D02*
X87241203Y-98512380D01*
X87145965Y-98560000D01*
X87098346Y-98607619D01*
X87050727Y-98702857D01*
X87003108Y-98893333D01*
X87003108Y-99131428D01*
X87050727Y-99321904D01*
X87098346Y-99417142D01*
X87145965Y-99464761D01*
X87241203Y-99512380D01*
X87336441Y-99512380D01*
X87431679Y-99464761D01*
X87479298Y-99417142D01*
X87526917Y-99321904D01*
X87574536Y-99131428D01*
X87574536Y-98893333D01*
X87526917Y-98702857D01*
X87479298Y-98607619D01*
X87431679Y-98560000D01*
X87336441Y-98512380D01*
X81700666Y-70207129D02*
X81748285Y-70254748D01*
X81891142Y-70302367D01*
X81986380Y-70302367D01*
X82129238Y-70254748D01*
X82224476Y-70159510D01*
X82272095Y-70064272D01*
X82319714Y-69873796D01*
X82319714Y-69730939D01*
X82272095Y-69540463D01*
X82224476Y-69445225D01*
X82129238Y-69349987D01*
X81986380Y-69302367D01*
X81891142Y-69302367D01*
X81748285Y-69349987D01*
X81700666Y-69397606D01*
X80748285Y-70302367D02*
X81319714Y-70302367D01*
X81034000Y-70302367D02*
X81034000Y-69302367D01*
X81129238Y-69445225D01*
X81224476Y-69540463D01*
X81319714Y-69588082D01*
D12*
X125657700Y-108257000D02*
X125657700Y-92657000D01*
X118307700Y-107207000D02*
X118307700Y-93707000D01*
X125657700Y-108257000D02*
X116557700Y-108257000D01*
X125657700Y-92657000D02*
X116557700Y-92657000D01*
D13*
X111607700Y-108857000D02*
X114707700Y-108857000D01*
X114707700Y-108857000D02*
X114707700Y-107257000D01*
X114707700Y-107257000D02*
X111607700Y-107257000D01*
X111607700Y-107257000D02*
X111607700Y-108857000D01*
D12*
X118307700Y-93707000D02*
G75*
G03*
X118307700Y-107207000I-5132819J-6750000D01*
G01*
D13*
X122007700Y-105407000D02*
G75*
G03*
X122007700Y-105407000I-500000J0D01*
G01*
X122057700Y-100457000D02*
G75*
G03*
X122057700Y-100457000I-500000J0D01*
G01*
X122667880Y-100457000D02*
G75*
G03*
X122667880Y-100457000I-1110180J0D01*
G01*
X122617880Y-105407000D02*
G75*
G03*
X122617880Y-105407000I-1110180J0D01*
G01*
X122057700Y-95457000D02*
G75*
G03*
X122057700Y-95457000I-500000J0D01*
G01*
X122667880Y-95457000D02*
G75*
G03*
X122667880Y-95457000I-1110180J0D01*
G01*
D12*
X108099612Y-83660000D02*
G75*
G03*
X108099612Y-83660000I-13009612J0D01*
G01*
X95371172Y-96379581D02*
G75*
G03*
X95371172Y-96379581I-212132J0D01*
G01*
X131470700Y-75258000D02*
X122370700Y-75258000D01*
X131470700Y-75258000D02*
X131470700Y-90858000D01*
X131470700Y-90858000D02*
X122370700Y-90858000D01*
X124120700Y-76308000D02*
X124120700Y-89808000D01*
X124120700Y-76308000D02*
G75*
G03*
X124120700Y-89808000I-5136350J-6750000D01*
G01*
D13*
X128430880Y-78108000D02*
G75*
G03*
X128430880Y-78108000I-1110180J0D01*
G01*
X128480880Y-83058000D02*
G75*
G03*
X128480880Y-83058000I-1110180J0D01*
G01*
X128480880Y-88058000D02*
G75*
G03*
X128480880Y-88058000I-1110180J0D01*
G01*
X127870700Y-83058000D02*
G75*
G03*
X127870700Y-83058000I-500000J0D01*
G01*
X127870700Y-88058000D02*
G75*
G03*
X127870700Y-88058000I-500000J0D01*
G01*
X127820700Y-78108000D02*
G75*
G03*
X127820700Y-78108000I-500000J0D01*
G01*
D12*
X125656700Y-57986000D02*
X116556700Y-57986000D01*
X118306700Y-72536000D02*
X118306700Y-59036000D01*
X125656700Y-73586000D02*
X125656700Y-57986000D01*
X125656700Y-73586000D02*
X116556700Y-73586000D01*
D13*
X111606700Y-74186000D02*
X114706700Y-74186000D01*
X114706700Y-74186000D02*
X114706700Y-72586000D01*
X114706700Y-72586000D02*
X111606700Y-72586000D01*
X111606700Y-72586000D02*
X111606700Y-74186000D01*
D12*
X118306700Y-59036000D02*
G75*
G03*
X118306700Y-72536000I-5132819J-6750000D01*
G01*
D13*
X122666880Y-60786000D02*
G75*
G03*
X122666880Y-60786000I-1110180J0D01*
G01*
X122666880Y-65786000D02*
G75*
G03*
X122666880Y-65786000I-1110180J0D01*
G01*
X122056700Y-65786000D02*
G75*
G03*
X122056700Y-65786000I-500000J0D01*
G01*
X122616880Y-70736000D02*
G75*
G03*
X122616880Y-70736000I-1110180J0D01*
G01*
X122006700Y-70736000D02*
G75*
G03*
X122006700Y-70736000I-500000J0D01*
G01*
X122056700Y-60786000D02*
G75*
G03*
X122056700Y-60786000I-500000J0D01*
G01*
D12*
X135160000Y-106580000D02*
X135160000Y-105250000D01*
X132560000Y-106580000D02*
X129960000Y-106580000D01*
X132560000Y-106580000D02*
X132560000Y-103920000D01*
X133830000Y-106580000D02*
X135160000Y-106580000D01*
X132560000Y-103920000D02*
X129960000Y-103920000D01*
X129960000Y-106580000D02*
X129960000Y-103920000D01*
X95629000Y-60191500D02*
X95629000Y-61541500D01*
X95629000Y-67141500D02*
X94229000Y-67141500D01*
X101229000Y-56166500D02*
X101229000Y-54166500D01*
X96229000Y-54166500D02*
X101229000Y-54166500D01*
X95629000Y-56166500D02*
X96229000Y-56166500D01*
X95629000Y-67141500D02*
X95629000Y-68266500D01*
X95629000Y-65591500D02*
X94229000Y-65591500D01*
X95629000Y-63191500D02*
X95629000Y-65591500D01*
X96229000Y-56166500D02*
X96229000Y-54166500D01*
X101229000Y-56166500D02*
X101829000Y-56166500D01*
X95629000Y-56166500D02*
X95629000Y-58541500D01*
X101829000Y-68266500D02*
X95629000Y-68266500D01*
X101829000Y-66691500D02*
X101829000Y-56166500D01*
X130789000Y-100400000D02*
X130789000Y-101908000D01*
X129869000Y-97928000D02*
X129869000Y-100792000D01*
X131069000Y-100400000D02*
X131069000Y-102102000D01*
X132510000Y-96142000D02*
X132510000Y-98320000D01*
X130629000Y-100400000D02*
X130629000Y-101776000D01*
X135975241Y-97206000D02*
X135975241Y-97836000D01*
X130829000Y-96782000D02*
X130829000Y-98320000D01*
X131229000Y-100400000D02*
X131229000Y-102194000D01*
X130789000Y-96812000D02*
X130789000Y-98320000D01*
X130029000Y-97646000D02*
X130029000Y-101074000D01*
X131309000Y-100400000D02*
X131309000Y-102236000D01*
X131989000Y-96229000D02*
X131989000Y-98320000D01*
X131469000Y-96408000D02*
X131469000Y-98320000D01*
X131749000Y-100400000D02*
X131749000Y-102421000D01*
X129789000Y-98098000D02*
X129789000Y-100622000D01*
X131829000Y-96274000D02*
X131829000Y-98320000D01*
X130869000Y-100400000D02*
X130869000Y-101967000D01*
X129989000Y-97710000D02*
X129989000Y-101010000D01*
X130429000Y-97136000D02*
X130429000Y-101584000D01*
X130469000Y-97095000D02*
X130469000Y-101625000D01*
X132630000Y-96133000D02*
X132630000Y-102587000D01*
X136290241Y-97521000D02*
X135660241Y-97521000D01*
X132470000Y-96145000D02*
X132470000Y-98320000D01*
X130949000Y-100400000D02*
X130949000Y-102024000D01*
X129829000Y-98010000D02*
X129829000Y-100710000D01*
X130389000Y-97178000D02*
X130389000Y-101542000D01*
X130749000Y-100400000D02*
X130749000Y-101876000D01*
X131509000Y-100400000D02*
X131509000Y-102330000D01*
X129629000Y-98558000D02*
X129629000Y-100162000D01*
X130109000Y-97526000D02*
X130109000Y-101194000D01*
X132029000Y-100400000D02*
X132029000Y-102501000D01*
X131029000Y-100400000D02*
X131029000Y-102076000D01*
X132110000Y-96201000D02*
X132110000Y-98320000D01*
X130349000Y-97223000D02*
X130349000Y-101497000D01*
X131149000Y-96570000D02*
X131149000Y-98320000D01*
X130229000Y-97365000D02*
X130229000Y-101355000D01*
X132350000Y-96159000D02*
X132350000Y-98320000D01*
X130909000Y-96724000D02*
X130909000Y-98320000D01*
X132230000Y-96178000D02*
X132230000Y-98320000D01*
X130949000Y-96696000D02*
X130949000Y-98320000D01*
X130509000Y-100400000D02*
X130509000Y-101665000D01*
X131669000Y-96327000D02*
X131669000Y-98320000D01*
X132350000Y-100400000D02*
X132350000Y-102561000D01*
X131109000Y-100400000D02*
X131109000Y-102126000D01*
X132069000Y-100400000D02*
X132069000Y-102510000D01*
X131429000Y-100400000D02*
X131429000Y-102294000D01*
X131869000Y-96262000D02*
X131869000Y-98320000D01*
X130909000Y-100400000D02*
X130909000Y-101996000D01*
X132750000Y-96130000D02*
X132750000Y-102590000D01*
X131669000Y-100400000D02*
X131669000Y-102393000D01*
X130709000Y-96876000D02*
X130709000Y-98320000D01*
X132510000Y-100400000D02*
X132510000Y-102578000D01*
X132029000Y-96219000D02*
X132029000Y-98320000D01*
X130309000Y-97268000D02*
X130309000Y-101452000D01*
X132270000Y-100400000D02*
X132270000Y-102549000D01*
X132590000Y-96136000D02*
X132590000Y-102584000D01*
X129709000Y-98301000D02*
X129709000Y-100419000D01*
X132390000Y-96154000D02*
X132390000Y-98320000D01*
X132230000Y-100400000D02*
X132230000Y-102542000D01*
X131309000Y-96484000D02*
X131309000Y-98320000D01*
X129749000Y-98195000D02*
X129749000Y-100525000D01*
X131389000Y-96444000D02*
X131389000Y-98320000D01*
X131909000Y-100400000D02*
X131909000Y-102470000D01*
X129549000Y-98958000D02*
X129549000Y-99762000D01*
X131869000Y-100400000D02*
X131869000Y-102458000D01*
X131469000Y-100400000D02*
X131469000Y-102312000D01*
X132110000Y-100400000D02*
X132110000Y-102519000D01*
X130669000Y-96910000D02*
X130669000Y-98320000D01*
X132790000Y-96130000D02*
X132790000Y-102590000D01*
X131749000Y-96299000D02*
X131749000Y-98320000D01*
X132150000Y-96193000D02*
X132150000Y-98320000D01*
X130869000Y-96753000D02*
X130869000Y-98320000D01*
X129949000Y-97779000D02*
X129949000Y-100941000D01*
X131429000Y-96426000D02*
X131429000Y-98320000D01*
X131149000Y-100400000D02*
X131149000Y-102150000D01*
X129589000Y-98727000D02*
X129589000Y-99993000D01*
X131709000Y-96313000D02*
X131709000Y-98320000D01*
X130549000Y-97017000D02*
X130549000Y-98320000D01*
X130189000Y-97416000D02*
X130189000Y-101304000D01*
X131789000Y-100400000D02*
X131789000Y-102434000D01*
X132310000Y-100400000D02*
X132310000Y-102555000D01*
X131269000Y-96504000D02*
X131269000Y-98320000D01*
X130509000Y-97055000D02*
X130509000Y-98320000D01*
X131069000Y-96618000D02*
X131069000Y-98320000D01*
X130709000Y-100400000D02*
X130709000Y-101844000D01*
X130549000Y-100400000D02*
X130549000Y-101703000D01*
X132430000Y-96149000D02*
X132430000Y-98320000D01*
X130989000Y-96670000D02*
X130989000Y-98320000D01*
X132390000Y-100400000D02*
X132390000Y-102566000D01*
X131029000Y-96644000D02*
X131029000Y-98320000D01*
X131349000Y-96464000D02*
X131349000Y-98320000D01*
X132550000Y-96138000D02*
X132550000Y-98320000D01*
X132310000Y-96165000D02*
X132310000Y-98320000D01*
X131949000Y-96239000D02*
X131949000Y-98320000D01*
X132470000Y-100400000D02*
X132470000Y-102575000D01*
X131269000Y-100400000D02*
X131269000Y-102216000D01*
X130589000Y-100400000D02*
X130589000Y-101740000D01*
X132150000Y-100400000D02*
X132150000Y-102527000D01*
X131589000Y-96358000D02*
X131589000Y-98320000D01*
X130749000Y-96844000D02*
X130749000Y-98320000D01*
X132069000Y-96210000D02*
X132069000Y-98320000D01*
X129669000Y-98420000D02*
X129669000Y-100300000D01*
X131509000Y-96390000D02*
X131509000Y-98320000D01*
X129909000Y-97851000D02*
X129909000Y-100869000D01*
X131189000Y-100400000D02*
X131189000Y-102172000D01*
X131589000Y-100400000D02*
X131589000Y-102362000D01*
X132270000Y-96171000D02*
X132270000Y-98320000D01*
X130669000Y-100400000D02*
X130669000Y-101810000D01*
X130829000Y-100400000D02*
X130829000Y-101938000D01*
X131789000Y-96286000D02*
X131789000Y-98320000D01*
X131229000Y-96526000D02*
X131229000Y-98320000D01*
X131629000Y-96342000D02*
X131629000Y-98320000D01*
X130589000Y-96980000D02*
X130589000Y-98320000D01*
X131629000Y-100400000D02*
X131629000Y-102378000D01*
X131109000Y-96594000D02*
X131109000Y-98320000D01*
X131949000Y-100400000D02*
X131949000Y-102481000D01*
X132710000Y-96130000D02*
X132710000Y-102590000D01*
X131349000Y-100400000D02*
X131349000Y-102256000D01*
X131189000Y-96548000D02*
X131189000Y-98320000D01*
X131909000Y-96250000D02*
X131909000Y-98320000D01*
X130069000Y-97584000D02*
X130069000Y-101136000D01*
X132190000Y-100400000D02*
X132190000Y-102535000D01*
X131829000Y-100400000D02*
X131829000Y-102446000D01*
X130269000Y-97316000D02*
X130269000Y-101404000D01*
X130149000Y-97470000D02*
X130149000Y-101250000D01*
X132550000Y-100400000D02*
X132550000Y-102582000D01*
X132670000Y-96132000D02*
X132670000Y-102588000D01*
X132430000Y-100400000D02*
X132430000Y-102571000D01*
X132190000Y-96185000D02*
X132190000Y-98320000D01*
X130629000Y-96944000D02*
X130629000Y-98320000D01*
X131989000Y-100400000D02*
X131989000Y-102491000D01*
X131549000Y-96374000D02*
X131549000Y-98320000D01*
X130989000Y-100400000D02*
X130989000Y-102050000D01*
X131709000Y-100400000D02*
X131709000Y-102407000D01*
X131549000Y-100400000D02*
X131549000Y-102346000D01*
X131389000Y-100400000D02*
X131389000Y-102276000D01*
X136060000Y-99360000D02*
G75*
G03*
X136060000Y-99360000I-3270000J0D01*
G01*
X131358000Y-56166500D02*
X131358000Y-54166500D01*
X130758000Y-60191500D02*
X130758000Y-61541500D01*
X130758000Y-56166500D02*
X130758000Y-58541500D01*
X136958000Y-68266500D02*
X130758000Y-68266500D01*
X136958000Y-66691500D02*
X136958000Y-56166500D01*
X130758000Y-63191500D02*
X130758000Y-65591500D01*
X130758000Y-67141500D02*
X130758000Y-68266500D01*
X130758000Y-65591500D02*
X129358000Y-65591500D01*
X130758000Y-56166500D02*
X131358000Y-56166500D01*
X131358000Y-54166500D02*
X136358000Y-54166500D01*
X136358000Y-56166500D02*
X136958000Y-56166500D01*
X130758000Y-67141500D02*
X129358000Y-67141500D01*
X136358000Y-56166500D02*
X136358000Y-54166500D01*
G36*
X90494838Y-106127552D02*
G01*
X90552565Y-106170825D01*
X90600395Y-106238300D01*
X90610849Y-106315687D01*
X90573855Y-106387734D01*
X90538491Y-106414579D01*
X90464459Y-106433195D01*
X90388730Y-106420726D01*
X90332004Y-106378005D01*
X90300708Y-106313073D01*
X90302150Y-106235242D01*
X90347933Y-106170374D01*
X90435201Y-106125455D01*
X90441412Y-106123737D01*
X90494838Y-106127552D01*
G37*
G36*
X97905442Y-106526172D02*
G01*
X97994636Y-106569981D01*
X98079430Y-106646909D01*
X98122760Y-106701496D01*
X98182686Y-106828243D01*
X98200922Y-106962493D01*
X98179624Y-107095260D01*
X98120946Y-107217559D01*
X98027043Y-107320404D01*
X97900071Y-107394809D01*
X97897948Y-107395648D01*
X97787066Y-107417387D01*
X97659860Y-107408975D01*
X97537582Y-107371765D01*
X97430943Y-107323370D01*
X97524686Y-107211223D01*
X97569115Y-107163217D01*
X97618422Y-107122515D01*
X97649856Y-107111912D01*
X97663116Y-107117322D01*
X97716436Y-107139012D01*
X97761346Y-107136289D01*
X97806712Y-107097378D01*
X97840798Y-107033595D01*
X97854241Y-106957288D01*
X97842943Y-106877278D01*
X97807102Y-106805260D01*
X97755056Y-106761087D01*
X97695421Y-106751634D01*
X97636809Y-106783775D01*
X97635916Y-106784672D01*
X97609283Y-106824017D01*
X97627014Y-106846075D01*
X97690756Y-106852958D01*
X97716281Y-106853755D01*
X97765911Y-106868021D01*
X97788397Y-106906662D01*
X97794272Y-106942840D01*
X97789821Y-106980786D01*
X97772243Y-106987270D01*
X97713600Y-106994473D01*
X97624594Y-106999389D01*
X97516065Y-107001207D01*
X97254929Y-107001207D01*
X97271148Y-106899780D01*
X97283507Y-106839265D01*
X97339091Y-106702564D01*
X97427720Y-106602563D01*
X97549788Y-106538911D01*
X97705688Y-106511257D01*
X97796196Y-106509801D01*
X97905442Y-106526172D01*
G37*
G36*
X101792817Y-106175836D02*
G01*
X101919305Y-106219936D01*
X102023854Y-106290575D01*
X102060150Y-106332679D01*
X102096762Y-106403445D01*
X102123267Y-106498755D01*
X102140797Y-106624747D01*
X102150485Y-106787561D01*
X102153463Y-106993337D01*
X102153463Y-107396537D01*
X101782840Y-107396537D01*
X101782840Y-107260642D01*
X101782313Y-107212967D01*
X101776858Y-107156149D01*
X101761982Y-107130646D01*
X101733424Y-107124747D01*
X101708715Y-107120832D01*
X101692690Y-107100595D01*
X101685603Y-107052995D01*
X101684008Y-106967026D01*
X101684982Y-106898944D01*
X101691196Y-106840032D01*
X101706192Y-106809818D01*
X101733424Y-106796382D01*
X101756337Y-106786518D01*
X101777251Y-106752516D01*
X101782840Y-106684078D01*
X101778728Y-106629613D01*
X101754164Y-106559023D01*
X101712022Y-106524580D01*
X101657584Y-106532670D01*
X101646790Y-106539381D01*
X101632237Y-106556036D01*
X101622093Y-106585454D01*
X101615572Y-106634966D01*
X101611887Y-106711903D01*
X101610253Y-106823593D01*
X101609883Y-106977368D01*
X101609883Y-107396537D01*
X101233403Y-107396537D01*
X101243199Y-106920230D01*
X101245776Y-106809781D01*
X101251944Y-106646861D01*
X101261800Y-106522071D01*
X101277326Y-106428174D01*
X101300502Y-106357936D01*
X101333309Y-106304118D01*
X101377728Y-106259487D01*
X101435739Y-106216806D01*
X101533065Y-106174657D01*
X101659150Y-106160126D01*
X101792817Y-106175836D01*
G37*
G36*
X103388871Y-107396537D02*
G01*
X103042957Y-107396537D01*
X103042957Y-106185837D01*
X103388871Y-106185837D01*
X103388871Y-107396537D01*
G37*
G36*
X104150038Y-106167002D02*
G01*
X104248707Y-106196083D01*
X104299715Y-106229001D01*
X104382151Y-106302260D01*
X104454123Y-106386943D01*
X104499224Y-106465412D01*
X104505219Y-106491927D01*
X104513357Y-106567752D01*
X104519757Y-106678038D01*
X104523946Y-106813725D01*
X104525447Y-106965753D01*
X104525447Y-107396537D01*
X104154825Y-107396537D01*
X104154825Y-107235934D01*
X104154785Y-107207513D01*
X104152783Y-107132926D01*
X104144550Y-107093481D01*
X104125707Y-107078007D01*
X104091875Y-107075331D01*
X104082185Y-107075274D01*
X104052140Y-107070873D01*
X104037204Y-107051261D01*
X104033283Y-107005064D01*
X104036282Y-106920905D01*
X104041107Y-106845612D01*
X104050530Y-106793053D01*
X104068374Y-106767989D01*
X104099231Y-106758583D01*
X104134761Y-106746386D01*
X104150989Y-106713678D01*
X104154825Y-106646161D01*
X104144689Y-106554626D01*
X104116487Y-106500324D01*
X104074063Y-106487776D01*
X104021261Y-106520595D01*
X104019653Y-106522186D01*
X103995529Y-106538575D01*
X103966014Y-106535989D01*
X103920040Y-106510467D01*
X103846539Y-106458046D01*
X103844970Y-106456885D01*
X103776958Y-106403815D01*
X103728530Y-106360829D01*
X103710078Y-106337136D01*
X103711886Y-106327777D01*
X103744032Y-106286886D01*
X103807184Y-106240920D01*
X103889323Y-106199133D01*
X103912672Y-106190231D01*
X104031075Y-106165110D01*
X104150038Y-106167002D01*
G37*
G36*
X105257506Y-106171257D02*
G01*
X105387153Y-106216321D01*
X105493671Y-106300158D01*
X105493856Y-106300356D01*
X105533950Y-106347665D01*
X105563947Y-106397199D01*
X105585282Y-106456820D01*
X105599383Y-106534389D01*
X105607684Y-106637768D01*
X105611615Y-106774817D01*
X105612607Y-106953399D01*
X105612607Y-107396537D01*
X105241984Y-107396537D01*
X105241984Y-107260642D01*
X105241457Y-107212967D01*
X105236002Y-107156149D01*
X105221125Y-107130646D01*
X105192568Y-107124747D01*
X105167092Y-107120437D01*
X105151552Y-107099518D01*
X105144692Y-107051060D01*
X105143152Y-106964144D01*
X105144478Y-106881349D01*
X105150914Y-106830843D01*
X105165825Y-106808547D01*
X105192568Y-106803541D01*
X105202281Y-106803176D01*
X105227687Y-106791980D01*
X105239247Y-106756013D01*
X105241984Y-106683026D01*
X105240968Y-106649356D01*
X105224274Y-106564795D01*
X105188787Y-106520730D01*
X105136702Y-106520550D01*
X105112805Y-106538720D01*
X105094974Y-106576379D01*
X105082457Y-106639494D01*
X105074478Y-106734044D01*
X105070260Y-106866006D01*
X105069027Y-107041357D01*
X105069027Y-107396537D01*
X104723113Y-107396537D01*
X104723113Y-106932317D01*
X104723410Y-106781477D01*
X104724914Y-106654593D01*
X104728431Y-106561296D01*
X104734765Y-106493279D01*
X104744720Y-106442237D01*
X104759099Y-106399863D01*
X104778706Y-106357852D01*
X104801577Y-106317697D01*
X104883798Y-106229104D01*
X104994343Y-106177759D01*
X105137768Y-106161167D01*
X105257506Y-106171257D01*
G37*
G36*
X96387513Y-106185987D02*
G01*
X96405524Y-106192001D01*
X96494502Y-106232478D01*
X96563974Y-106288282D01*
X96616061Y-106365017D01*
X96652883Y-106468287D01*
X96676560Y-106603694D01*
X96689211Y-106776843D01*
X96692957Y-106993337D01*
X96692957Y-107396537D01*
X96322334Y-107396537D01*
X96322334Y-107263524D01*
X96322121Y-107234961D01*
X96317127Y-107167740D01*
X96302185Y-107132925D01*
X96272918Y-107117588D01*
X96255345Y-107111102D01*
X96235128Y-107088512D01*
X96225777Y-107041244D01*
X96223502Y-106956985D01*
X96224134Y-106904302D01*
X96229924Y-106842370D01*
X96244923Y-106810502D01*
X96272918Y-106796382D01*
X96295832Y-106786518D01*
X96316745Y-106752516D01*
X96322334Y-106684078D01*
X96322216Y-106675575D01*
X96310288Y-106598252D01*
X96283507Y-106545870D01*
X96250764Y-106515721D01*
X96224760Y-106513345D01*
X96188204Y-106545870D01*
X96178538Y-106558305D01*
X96166342Y-106589731D01*
X96157965Y-106641382D01*
X96152769Y-106720550D01*
X96150119Y-106834531D01*
X96149377Y-106990617D01*
X96149377Y-107396537D01*
X95772898Y-107396537D01*
X95782693Y-106920230D01*
X95784755Y-106829182D01*
X95790491Y-106663650D01*
X95799443Y-106536848D01*
X95813451Y-106441457D01*
X95834356Y-106370157D01*
X95864000Y-106315627D01*
X95904222Y-106270548D01*
X95956864Y-106227600D01*
X95964563Y-106222222D01*
X96050220Y-106186406D01*
X96161880Y-106167210D01*
X96280620Y-106166460D01*
X96387513Y-106185987D01*
G37*
G36*
X90095875Y-107396537D02*
G01*
X89749082Y-107396537D01*
X89755699Y-106797364D01*
X89762315Y-106198191D01*
X90095875Y-106183579D01*
X90095875Y-107396537D01*
G37*
G36*
X95111634Y-106774111D02*
G01*
X95113627Y-106876541D01*
X95124748Y-106995945D01*
X95145962Y-107068557D01*
X95177638Y-107095413D01*
X95220147Y-107077550D01*
X95225346Y-107072722D01*
X95242349Y-107043438D01*
X95252931Y-106992376D01*
X95258355Y-106910347D01*
X95259883Y-106788162D01*
X95259883Y-106531751D01*
X95581089Y-106531751D01*
X95581089Y-106830692D01*
X95579160Y-106973446D01*
X95572486Y-107081405D01*
X95560086Y-107158521D01*
X95540981Y-107214156D01*
X95500547Y-107278437D01*
X95417072Y-107357407D01*
X95321653Y-107403140D01*
X95224204Y-107418760D01*
X95083234Y-107405168D01*
X94959317Y-107345480D01*
X94854470Y-107240399D01*
X94848283Y-107231765D01*
X94828182Y-107195584D01*
X94814277Y-107149260D01*
X94805058Y-107082974D01*
X94799016Y-106986908D01*
X94794641Y-106851245D01*
X94786501Y-106531751D01*
X95111634Y-106531751D01*
X95111634Y-106774111D01*
G37*
G36*
X89577004Y-106635137D02*
G01*
X89576882Y-106728131D01*
X89575694Y-106868062D01*
X89572587Y-106971606D01*
X89566773Y-107047243D01*
X89557460Y-107103451D01*
X89543859Y-107148707D01*
X89525180Y-107191490D01*
X89505022Y-107230199D01*
X89456998Y-107295520D01*
X89391443Y-107343901D01*
X89292860Y-107388481D01*
X89226801Y-107408887D01*
X89163142Y-107419366D01*
X89152112Y-107419516D01*
X89127452Y-107413741D01*
X89114099Y-107390340D01*
X89108612Y-107338721D01*
X89107548Y-107248288D01*
X89107918Y-107203753D01*
X89112479Y-107126684D01*
X89123652Y-107086738D01*
X89143210Y-107075331D01*
X89159946Y-107070952D01*
X89202604Y-107036812D01*
X89239851Y-106985113D01*
X89255797Y-106935580D01*
X89237219Y-106912934D01*
X89187850Y-106897838D01*
X89166389Y-106894888D01*
X89139707Y-106884272D01*
X89124821Y-106857438D01*
X89117282Y-106803329D01*
X89112643Y-106710886D01*
X89105384Y-106531751D01*
X89255797Y-106531751D01*
X89255797Y-106185837D01*
X89577004Y-106185837D01*
X89577004Y-106635137D01*
G37*
G36*
X99410856Y-107396537D02*
G01*
X99064941Y-107396537D01*
X99064941Y-106531751D01*
X99410856Y-106531751D01*
X99410856Y-107396537D01*
G37*
G36*
X93406074Y-106133954D02*
G01*
X93467224Y-106160036D01*
X93485845Y-106183136D01*
X93503682Y-106249562D01*
X93496556Y-106325129D01*
X93464711Y-106387734D01*
X93441391Y-106408101D01*
X93374289Y-106431035D01*
X93303071Y-106421398D01*
X93240983Y-106385503D01*
X93201273Y-106329667D01*
X93197188Y-106260203D01*
X93213869Y-106214489D01*
X93246616Y-106163188D01*
X93263808Y-106150150D01*
X93329966Y-106130777D01*
X93406074Y-106133954D01*
G37*
G36*
X91263105Y-106212105D02*
G01*
X91375670Y-106298076D01*
X91464199Y-106425515D01*
X91474551Y-106449658D01*
X91486783Y-106496585D01*
X91495289Y-106562549D01*
X91500648Y-106655140D01*
X91503439Y-106781949D01*
X91504241Y-106950563D01*
X91504241Y-107396537D01*
X91160685Y-107396537D01*
X91153329Y-107242111D01*
X91148503Y-107166819D01*
X91139080Y-107114259D01*
X91121236Y-107089196D01*
X91090379Y-107079790D01*
X91060483Y-107071399D01*
X91043559Y-107048905D01*
X91036317Y-107000613D01*
X91034786Y-106914728D01*
X91036252Y-106830002D01*
X91043358Y-106781146D01*
X91060077Y-106758299D01*
X91090379Y-106749666D01*
X91126304Y-106732532D01*
X91152525Y-106682049D01*
X91151592Y-106613307D01*
X91121358Y-106540781D01*
X91093468Y-106502904D01*
X91065231Y-106493898D01*
X91020567Y-106518347D01*
X91007348Y-106526779D01*
X90975969Y-106540437D01*
X90943567Y-106535849D01*
X90897497Y-106508961D01*
X90825115Y-106455722D01*
X90773033Y-106414094D01*
X90720183Y-106356817D01*
X90711978Y-106310282D01*
X90748564Y-106267619D01*
X90830089Y-106221958D01*
X90834215Y-106220014D01*
X90987075Y-106171372D01*
X91131806Y-106169303D01*
X91263105Y-106212105D01*
G37*
G36*
X98943662Y-106673823D02*
G01*
X98943128Y-106674945D01*
X98906292Y-106754262D01*
X98856376Y-106864241D01*
X98799865Y-106990496D01*
X98743241Y-107118636D01*
X98729709Y-107149194D01*
X98681131Y-107253996D01*
X98639566Y-107336322D01*
X98609061Y-107388481D01*
X98593666Y-107402780D01*
X98590737Y-107397998D01*
X98570551Y-107357678D01*
X98535534Y-107284122D01*
X98489647Y-107185949D01*
X98436847Y-107071778D01*
X98381096Y-106950228D01*
X98326351Y-106829920D01*
X98276572Y-106719473D01*
X98235719Y-106627505D01*
X98207751Y-106562637D01*
X98206999Y-106560547D01*
X98216748Y-106543669D01*
X98262944Y-106534604D01*
X98351938Y-106532003D01*
X98509008Y-106532254D01*
X98554552Y-106637012D01*
X98600097Y-106741771D01*
X98646195Y-106636761D01*
X98692292Y-106531751D01*
X99011283Y-106531751D01*
X98943662Y-106673823D01*
G37*
G36*
X93530311Y-107396537D02*
G01*
X93184397Y-107396537D01*
X93184397Y-106531751D01*
X93530311Y-106531751D01*
X93530311Y-107396537D01*
G37*
G36*
X100725587Y-106521326D02*
G01*
X100794351Y-106530708D01*
X100847931Y-106552251D01*
X100904136Y-106590653D01*
X100936636Y-106618613D01*
X101014764Y-106715589D01*
X101069454Y-106827909D01*
X101090469Y-106936570D01*
X101089019Y-106975324D01*
X101058127Y-107109932D01*
X100993024Y-107231984D01*
X100901539Y-107329586D01*
X100791499Y-107390844D01*
X100731343Y-107406569D01*
X100594340Y-107414602D01*
X100463578Y-107388338D01*
X100355700Y-107330094D01*
X100289515Y-107268828D01*
X100210115Y-107160316D01*
X100172682Y-107050623D01*
X100170903Y-107036263D01*
X100172470Y-107009362D01*
X100191631Y-106996368D01*
X100238966Y-106993577D01*
X100325058Y-106997285D01*
X100412785Y-107005085D01*
X100485178Y-107022927D01*
X100529863Y-107052879D01*
X100563319Y-107083830D01*
X100591634Y-107099702D01*
X100602746Y-107099204D01*
X100683183Y-107075360D01*
X100736254Y-107024212D01*
X100754735Y-106956884D01*
X100731400Y-106884503D01*
X100711877Y-106858038D01*
X100673202Y-106834752D01*
X100613183Y-106840513D01*
X100550663Y-106850642D01*
X100457720Y-106861211D01*
X100355943Y-106869655D01*
X100341824Y-106870580D01*
X100254297Y-106874745D01*
X100204433Y-106871895D01*
X100182012Y-106860220D01*
X100176809Y-106837907D01*
X100186499Y-106795066D01*
X100228180Y-106721082D01*
X100293039Y-106644296D01*
X100370436Y-106578940D01*
X100400288Y-106559965D01*
X100458538Y-106534762D01*
X100530550Y-106522572D01*
X100634023Y-106519397D01*
X100725587Y-106521326D01*
G37*
G36*
X100048111Y-106624407D02*
G01*
X100044808Y-106740458D01*
X100035019Y-106920771D01*
X100018347Y-107061461D01*
X99992297Y-107168829D01*
X99954375Y-107249174D01*
X99902084Y-107308795D01*
X99832930Y-107353992D01*
X99744416Y-107391064D01*
X99678961Y-107409487D01*
X99614698Y-107419295D01*
X99606485Y-107419472D01*
X99580313Y-107414634D01*
X99566133Y-107392699D01*
X99560323Y-107342899D01*
X99559261Y-107254465D01*
X99559342Y-107226205D01*
X99561915Y-107147448D01*
X99571810Y-107100399D01*
X99593982Y-107071101D01*
X99633386Y-107045595D01*
X99682932Y-107007179D01*
X99707626Y-106959085D01*
X99693260Y-106919141D01*
X99639406Y-106897838D01*
X99617945Y-106894888D01*
X99591263Y-106884272D01*
X99576377Y-106857438D01*
X99568839Y-106803329D01*
X99564199Y-106710886D01*
X99556940Y-106531751D01*
X99707354Y-106531751D01*
X99707354Y-106185837D01*
X100058068Y-106185837D01*
X100048111Y-106624407D01*
G37*
G36*
X94024474Y-106567205D02*
G01*
X94024553Y-106613654D01*
X94026825Y-106774732D01*
X94033139Y-106894433D01*
X94044710Y-106979166D01*
X94062751Y-107035336D01*
X94088476Y-107069352D01*
X94123102Y-107087620D01*
X94156318Y-107091815D01*
X94221856Y-107072212D01*
X94274610Y-107026914D01*
X94296264Y-106968516D01*
X94288690Y-106920567D01*
X94246159Y-106870131D01*
X94167782Y-106852958D01*
X94098599Y-106852958D01*
X94098599Y-106507043D01*
X94198659Y-106507043D01*
X94302198Y-106519872D01*
X94410563Y-106570974D01*
X94513856Y-106665974D01*
X94514055Y-106666201D01*
X94596257Y-106792545D01*
X94632939Y-106925852D01*
X94625780Y-107058477D01*
X94576456Y-107182772D01*
X94486649Y-107291090D01*
X94358035Y-107375786D01*
X94328442Y-107388482D01*
X94195123Y-107416307D01*
X94059401Y-107404089D01*
X93932622Y-107355746D01*
X93826135Y-107275195D01*
X93751288Y-107166353D01*
X93750243Y-107164038D01*
X93733138Y-107119498D01*
X93720774Y-107068162D01*
X93712407Y-107001506D01*
X93707288Y-106911009D01*
X93704671Y-106788150D01*
X93703811Y-106624407D01*
X93703268Y-106185837D01*
X94024474Y-106185837D01*
X94024474Y-106567205D01*
G37*
G36*
X92998939Y-107169685D02*
G01*
X92914472Y-107282639D01*
X92792252Y-107373083D01*
X92759376Y-107389077D01*
X92673005Y-107412073D01*
X92562750Y-107413963D01*
X92496020Y-107406420D01*
X92355775Y-107360080D01*
X92244560Y-107275861D01*
X92166419Y-107156390D01*
X92137267Y-107070936D01*
X92127117Y-106959913D01*
X92443152Y-106959913D01*
X92455791Y-107000061D01*
X92492568Y-107050623D01*
X92502942Y-107060879D01*
X92543324Y-107092447D01*
X92581838Y-107094010D01*
X92640817Y-107068217D01*
X92692515Y-107021668D01*
X92710179Y-106959034D01*
X92695068Y-106896148D01*
X92650829Y-106847667D01*
X92581111Y-106828249D01*
X92580718Y-106828250D01*
X92516599Y-106848943D01*
X92464590Y-106898703D01*
X92443152Y-106959913D01*
X92127117Y-106959913D01*
X92124398Y-106930166D01*
X92152066Y-106798022D01*
X92215530Y-106682070D01*
X92310047Y-106589878D01*
X92430877Y-106529013D01*
X92573278Y-106507043D01*
X92576264Y-106507049D01*
X92718320Y-106524429D01*
X92835952Y-106579340D01*
X92941983Y-106677718D01*
X93008070Y-106778161D01*
X93047512Y-106909206D01*
X93046152Y-106959034D01*
X93043876Y-107042460D01*
X92998939Y-107169685D01*
G37*
G36*
X87575303Y-106511803D02*
G01*
X87648963Y-106519878D01*
X87727393Y-106541564D01*
X87783931Y-106579542D01*
X87804596Y-106599810D01*
X87853743Y-106660667D01*
X87887372Y-106730936D01*
X87908123Y-106820554D01*
X87918638Y-106939461D01*
X87921556Y-107097596D01*
X87921556Y-107396537D01*
X87577314Y-107396537D01*
X87570301Y-107130924D01*
X87563288Y-106865312D01*
X87495340Y-106857493D01*
X87474394Y-106854710D01*
X87447545Y-106844693D01*
X87433555Y-106818955D01*
X87428235Y-106766264D01*
X87427393Y-106675389D01*
X87427393Y-106501104D01*
X87575303Y-106511803D01*
G37*
G36*
X90614747Y-107396537D02*
G01*
X90293541Y-107396537D01*
X90293541Y-106531751D01*
X90614747Y-106531751D01*
X90614747Y-107396537D01*
G37*
G36*
X88522405Y-106507051D02*
G01*
X88679876Y-106528117D01*
X88807803Y-106587645D01*
X88903114Y-106682596D01*
X88962738Y-106809932D01*
X88983601Y-106966614D01*
X88983255Y-107006212D01*
X88975632Y-107088094D01*
X88952917Y-107152314D01*
X88908359Y-107221764D01*
X88897705Y-107235776D01*
X88817543Y-107316113D01*
X88729224Y-107373177D01*
X88706817Y-107382525D01*
X88615968Y-107409563D01*
X88533583Y-107420703D01*
X88472930Y-107415035D01*
X88394699Y-107397393D01*
X88320275Y-107372698D01*
X88264637Y-107346013D01*
X88242762Y-107322402D01*
X88248392Y-107308271D01*
X88277489Y-107263121D01*
X88323064Y-107202761D01*
X88342494Y-107179543D01*
X88399689Y-107126884D01*
X88440428Y-107116909D01*
X88487873Y-107129768D01*
X88565164Y-107119681D01*
X88621819Y-107066496D01*
X88653808Y-106972931D01*
X88655086Y-106963703D01*
X88647068Y-106879794D01*
X88609203Y-106810731D01*
X88550939Y-106768031D01*
X88481724Y-106763208D01*
X88441547Y-106778800D01*
X88416672Y-106809952D01*
X88435390Y-106839909D01*
X88496021Y-106857569D01*
X88531458Y-106862751D01*
X88569833Y-106884366D01*
X88584141Y-106933259D01*
X88591959Y-107001207D01*
X88069805Y-107001207D01*
X88069805Y-106911915D01*
X88069821Y-106908521D01*
X88094020Y-106782829D01*
X88158877Y-106672770D01*
X88256554Y-106585409D01*
X88379212Y-106527812D01*
X88519014Y-106507043D01*
X88522405Y-106507051D01*
G37*
G36*
X99320495Y-106162489D02*
G01*
X99326186Y-106167139D01*
X99375944Y-106236205D01*
X99382801Y-106314289D01*
X99345256Y-106387734D01*
X99331800Y-106400373D01*
X99262373Y-106429244D01*
X99183204Y-106423498D01*
X99114358Y-106383502D01*
X99079457Y-106336414D01*
X99069162Y-106264276D01*
X99108181Y-106190721D01*
X99170530Y-106138814D01*
X99244130Y-106125985D01*
X99320495Y-106162489D01*
G37*
X135989000Y-95150000D02*
X135989000Y-96658000D01*
X136189000Y-95150000D02*
X136189000Y-96800000D01*
X141490241Y-92271000D02*
X140860241Y-92271000D01*
X137149000Y-90989000D02*
X137149000Y-93070000D01*
X137069000Y-95150000D02*
X137069000Y-97208000D01*
X137670000Y-90895000D02*
X137670000Y-93070000D01*
X135909000Y-95150000D02*
X135909000Y-96594000D01*
X134949000Y-92945000D02*
X134949000Y-95275000D01*
X134749000Y-93708000D02*
X134749000Y-94512000D01*
X136389000Y-91298000D02*
X136389000Y-93070000D01*
X135189000Y-92460000D02*
X135189000Y-95760000D01*
X135549000Y-91973000D02*
X135549000Y-96247000D01*
X134789000Y-93477000D02*
X134789000Y-94743000D01*
X137310000Y-95150000D02*
X137310000Y-97269000D01*
X136549000Y-95150000D02*
X136549000Y-97006000D01*
X137109000Y-91000000D02*
X137109000Y-93070000D01*
X136669000Y-95150000D02*
X136669000Y-97062000D01*
X136749000Y-95150000D02*
X136749000Y-97096000D01*
X135789000Y-95150000D02*
X135789000Y-96490000D01*
X137590000Y-90904000D02*
X137590000Y-93070000D01*
X136589000Y-91194000D02*
X136589000Y-93070000D01*
X136229000Y-91394000D02*
X136229000Y-93070000D01*
X136269000Y-91368000D02*
X136269000Y-93070000D01*
X137830000Y-90883000D02*
X137830000Y-97337000D01*
X137310000Y-90951000D02*
X137310000Y-93070000D01*
X136029000Y-91532000D02*
X136029000Y-93070000D01*
X137590000Y-95150000D02*
X137590000Y-97316000D01*
X136869000Y-95150000D02*
X136869000Y-97143000D01*
X135029000Y-92760000D02*
X135029000Y-95460000D01*
X136549000Y-91214000D02*
X136549000Y-93070000D01*
X135109000Y-92601000D02*
X135109000Y-95619000D01*
X136509000Y-91234000D02*
X136509000Y-93070000D01*
X135229000Y-92396000D02*
X135229000Y-95824000D01*
X135069000Y-92678000D02*
X135069000Y-95542000D01*
X137550000Y-95150000D02*
X137550000Y-97311000D01*
X137390000Y-90935000D02*
X137390000Y-93070000D01*
X137149000Y-95150000D02*
X137149000Y-97231000D01*
X134989000Y-92848000D02*
X134989000Y-95372000D01*
X136349000Y-91320000D02*
X136349000Y-93070000D01*
X135309000Y-92276000D02*
X135309000Y-95944000D01*
X137430000Y-95150000D02*
X137430000Y-97292000D01*
X136789000Y-95150000D02*
X136789000Y-97112000D01*
X136469000Y-95150000D02*
X136469000Y-96966000D01*
X136269000Y-95150000D02*
X136269000Y-96852000D01*
X135429000Y-92115000D02*
X135429000Y-96105000D01*
X137910000Y-90880000D02*
X137910000Y-97340000D01*
X137670000Y-95150000D02*
X137670000Y-97325000D01*
X141175241Y-91956000D02*
X141175241Y-92586000D01*
X135709000Y-91805000D02*
X135709000Y-93070000D01*
X136229000Y-95150000D02*
X136229000Y-96826000D01*
X136589000Y-95150000D02*
X136589000Y-97026000D01*
X137990000Y-90880000D02*
X137990000Y-97340000D01*
X136309000Y-95150000D02*
X136309000Y-96876000D01*
X136789000Y-91108000D02*
X136789000Y-93070000D01*
X135589000Y-91928000D02*
X135589000Y-96292000D01*
X135829000Y-95150000D02*
X135829000Y-96526000D01*
X137269000Y-95150000D02*
X137269000Y-97260000D01*
X136069000Y-95150000D02*
X136069000Y-96717000D01*
X135269000Y-92334000D02*
X135269000Y-95886000D01*
X136349000Y-95150000D02*
X136349000Y-96900000D01*
X137229000Y-95150000D02*
X137229000Y-97251000D01*
X137109000Y-95150000D02*
X137109000Y-97220000D01*
X135989000Y-91562000D02*
X135989000Y-93070000D01*
X137790000Y-90886000D02*
X137790000Y-97334000D01*
X137510000Y-90915000D02*
X137510000Y-93070000D01*
X137350000Y-90943000D02*
X137350000Y-93070000D01*
X135349000Y-92220000D02*
X135349000Y-96000000D01*
X137710000Y-90892000D02*
X137710000Y-93070000D01*
X136509000Y-95150000D02*
X136509000Y-96986000D01*
X136149000Y-91446000D02*
X136149000Y-93070000D01*
X135389000Y-92166000D02*
X135389000Y-96054000D01*
X136429000Y-95150000D02*
X136429000Y-96944000D01*
X136149000Y-95150000D02*
X136149000Y-96774000D01*
X135709000Y-95150000D02*
X135709000Y-96415000D01*
X135669000Y-91845000D02*
X135669000Y-96375000D01*
X137630000Y-90899000D02*
X137630000Y-93070000D01*
X136029000Y-95150000D02*
X136029000Y-96688000D01*
X137470000Y-95150000D02*
X137470000Y-97299000D01*
X135949000Y-91594000D02*
X135949000Y-93070000D01*
X136829000Y-91092000D02*
X136829000Y-93070000D01*
X137189000Y-95150000D02*
X137189000Y-97241000D01*
X135509000Y-92018000D02*
X135509000Y-96202000D01*
X136389000Y-95150000D02*
X136389000Y-96922000D01*
X135749000Y-91767000D02*
X135749000Y-93070000D01*
X136109000Y-95150000D02*
X136109000Y-96746000D01*
X135949000Y-95150000D02*
X135949000Y-96626000D01*
X137710000Y-95150000D02*
X137710000Y-97328000D01*
X137029000Y-91024000D02*
X137029000Y-93070000D01*
X135869000Y-91660000D02*
X135869000Y-93070000D01*
X136669000Y-91158000D02*
X136669000Y-93070000D01*
X135829000Y-91694000D02*
X135829000Y-93070000D01*
X136709000Y-95150000D02*
X136709000Y-97080000D01*
X137750000Y-95150000D02*
X137750000Y-97332000D01*
X135629000Y-91886000D02*
X135629000Y-96334000D01*
X137630000Y-95150000D02*
X137630000Y-97321000D01*
X134829000Y-93308000D02*
X134829000Y-94912000D01*
X137750000Y-90888000D02*
X137750000Y-93070000D01*
X137229000Y-90969000D02*
X137229000Y-93070000D01*
X135869000Y-95150000D02*
X135869000Y-96560000D01*
X136189000Y-91420000D02*
X136189000Y-93070000D01*
X136629000Y-95150000D02*
X136629000Y-97044000D01*
X135149000Y-92529000D02*
X135149000Y-95691000D01*
X137870000Y-90882000D02*
X137870000Y-97338000D01*
X135749000Y-95150000D02*
X135749000Y-96453000D01*
X136109000Y-91474000D02*
X136109000Y-93070000D01*
X137189000Y-90979000D02*
X137189000Y-93070000D01*
X137470000Y-90921000D02*
X137470000Y-93070000D01*
X136989000Y-95150000D02*
X136989000Y-97184000D01*
X137430000Y-90928000D02*
X137430000Y-93070000D01*
X134909000Y-93051000D02*
X134909000Y-95169000D01*
X137510000Y-95150000D02*
X137510000Y-97305000D01*
X136429000Y-91276000D02*
X136429000Y-93070000D01*
X137269000Y-90960000D02*
X137269000Y-93070000D01*
X134869000Y-93170000D02*
X134869000Y-95050000D01*
X137069000Y-91012000D02*
X137069000Y-93070000D01*
X136069000Y-91503000D02*
X136069000Y-93070000D01*
X136829000Y-95150000D02*
X136829000Y-97128000D01*
X135909000Y-91626000D02*
X135909000Y-93070000D01*
X137390000Y-95150000D02*
X137390000Y-97285000D01*
X136749000Y-91124000D02*
X136749000Y-93070000D01*
X136949000Y-91049000D02*
X136949000Y-93070000D01*
X136869000Y-91077000D02*
X136869000Y-93070000D01*
X136949000Y-95150000D02*
X136949000Y-97171000D01*
X136469000Y-91254000D02*
X136469000Y-93070000D01*
X135789000Y-91730000D02*
X135789000Y-93070000D01*
X137350000Y-95150000D02*
X137350000Y-97277000D01*
X137950000Y-90880000D02*
X137950000Y-97340000D01*
X137029000Y-95150000D02*
X137029000Y-97196000D01*
X136909000Y-95150000D02*
X136909000Y-97157000D01*
X136909000Y-91063000D02*
X136909000Y-93070000D01*
X136629000Y-91176000D02*
X136629000Y-93070000D01*
X136309000Y-91344000D02*
X136309000Y-93070000D01*
X137550000Y-90909000D02*
X137550000Y-93070000D01*
X136989000Y-91036000D02*
X136989000Y-93070000D01*
X135469000Y-92066000D02*
X135469000Y-96154000D01*
X136709000Y-91140000D02*
X136709000Y-93070000D01*
X141260000Y-94110000D02*
G75*
G03*
X141260000Y-94110000I-3270000J0D01*
G01*
X134350000Y-73948600D02*
X135974000Y-73948600D01*
X134350000Y-73628600D02*
X136166000Y-73628600D01*
X134350000Y-73508600D02*
X136226000Y-73508600D01*
X134350000Y-74348600D02*
X135653000Y-74348600D01*
X134350000Y-73868600D02*
X136026000Y-73868600D01*
X134350000Y-73348600D02*
X136296000Y-73348600D01*
X130544000Y-73788600D02*
X132270000Y-73788600D01*
X130109000Y-72547600D02*
X132270000Y-72547600D01*
X130340000Y-73388600D02*
X132270000Y-73388600D01*
X134350000Y-73268600D02*
X136328000Y-73268600D01*
X131660000Y-74908600D02*
X134960000Y-74908600D01*
X130894000Y-74268600D02*
X132270000Y-74268600D01*
X134350000Y-74108600D02*
X135858000Y-74108600D01*
X130099000Y-72467600D02*
X132270000Y-72467600D01*
X134350000Y-73028600D02*
X136408000Y-73028600D01*
X134350000Y-72707600D02*
X136485000Y-72707600D01*
X131086000Y-74468600D02*
X135534000Y-74468600D01*
X130179000Y-72908600D02*
X132270000Y-72908600D01*
X134350000Y-73188600D02*
X136357000Y-73188600D01*
X131878000Y-75028600D02*
X134742000Y-75028600D01*
X131534000Y-74828600D02*
X135086000Y-74828600D01*
X130135000Y-72707600D02*
X132270000Y-72707600D01*
X134350000Y-72948600D02*
X136431000Y-72948600D01*
X130115000Y-72587600D02*
X132270000Y-72587600D01*
X134350000Y-72507600D02*
X136516000Y-72507600D01*
X131471000Y-68607359D02*
X131471000Y-69237359D01*
X130794000Y-74148600D02*
X132270000Y-74148600D01*
X130930000Y-74308600D02*
X132270000Y-74308600D01*
X130358000Y-73428600D02*
X132270000Y-73428600D01*
X134350000Y-73428600D02*
X136262000Y-73428600D01*
X130121000Y-72627600D02*
X132270000Y-72627600D01*
X130082000Y-72227600D02*
X136538000Y-72227600D01*
X130826000Y-74188600D02*
X132270000Y-74188600D01*
X130083000Y-72267600D02*
X136537000Y-72267600D01*
X134350000Y-73108600D02*
X136384000Y-73108600D01*
X130292000Y-73268600D02*
X132270000Y-73268600D01*
X134350000Y-73588600D02*
X136186000Y-73588600D01*
X130263000Y-73188600D02*
X132270000Y-73188600D01*
X131315000Y-74668600D02*
X135305000Y-74668600D01*
X134350000Y-73148600D02*
X136371000Y-73148600D01*
X131156000Y-68922359D02*
X131786000Y-68922359D01*
X131960000Y-75068600D02*
X134660000Y-75068600D01*
X134350000Y-72908600D02*
X136441000Y-72908600D01*
X130080000Y-72187600D02*
X136540000Y-72187600D01*
X130095000Y-72427600D02*
X132270000Y-72427600D01*
X134350000Y-74388600D02*
X135615000Y-74388600D01*
X134350000Y-73708600D02*
X136122000Y-73708600D01*
X130703000Y-74028600D02*
X132270000Y-74028600D01*
X134350000Y-73548600D02*
X136206000Y-73548600D01*
X130434000Y-73588600D02*
X132270000Y-73588600D01*
X130277000Y-73228600D02*
X132270000Y-73228600D01*
X134350000Y-72988600D02*
X136420000Y-72988600D01*
X134350000Y-73068600D02*
X136396000Y-73068600D01*
X131218000Y-74588600D02*
X135402000Y-74588600D01*
X130498000Y-73708600D02*
X132270000Y-73708600D01*
X130520000Y-73748600D02*
X132270000Y-73748600D01*
X130104000Y-72507600D02*
X132270000Y-72507600D01*
X130414000Y-73548600D02*
X132270000Y-73548600D01*
X131128000Y-74508600D02*
X135492000Y-74508600D01*
X130088000Y-72347600D02*
X132270000Y-72347600D01*
X134350000Y-73308600D02*
X136312000Y-73308600D01*
X130200000Y-72988600D02*
X132270000Y-72988600D01*
X130086000Y-72307600D02*
X136534000Y-72307600D01*
X130568000Y-73828600D02*
X132270000Y-73828600D01*
X130236000Y-73108600D02*
X132270000Y-73108600D01*
X134350000Y-73468600D02*
X136244000Y-73468600D01*
X132251000Y-75188600D02*
X134369000Y-75188600D01*
X131266000Y-74628600D02*
X135354000Y-74628600D01*
X134350000Y-72347600D02*
X136532000Y-72347600D01*
X134350000Y-72467600D02*
X136521000Y-72467600D01*
X134350000Y-72587600D02*
X136505000Y-72587600D01*
X131173000Y-74548600D02*
X135447000Y-74548600D01*
X130080000Y-72107600D02*
X136540000Y-72107600D01*
X130454000Y-73628600D02*
X132270000Y-73628600D01*
X130151000Y-72787600D02*
X132270000Y-72787600D01*
X134350000Y-74268600D02*
X135726000Y-74268600D01*
X130620000Y-73908600D02*
X132270000Y-73908600D01*
X132677000Y-75308600D02*
X133943000Y-75308600D01*
X134350000Y-74228600D02*
X135760000Y-74228600D01*
X130594000Y-73868600D02*
X132270000Y-73868600D01*
X130189000Y-72948600D02*
X132270000Y-72948600D01*
X131596000Y-74868600D02*
X135024000Y-74868600D01*
X131005000Y-74388600D02*
X132270000Y-74388600D01*
X134350000Y-72868600D02*
X136451000Y-72868600D01*
X130646000Y-73948600D02*
X132270000Y-73948600D01*
X134350000Y-73988600D02*
X135946000Y-73988600D01*
X134350000Y-72547600D02*
X136511000Y-72547600D01*
X134350000Y-72427600D02*
X136525000Y-72427600D01*
X130476000Y-73668600D02*
X132270000Y-73668600D01*
X134350000Y-73788600D02*
X136076000Y-73788600D01*
X134350000Y-73828600D02*
X136052000Y-73828600D01*
X134350000Y-74188600D02*
X135794000Y-74188600D01*
X134350000Y-73908600D02*
X136000000Y-73908600D01*
X130128000Y-72667600D02*
X132270000Y-72667600D01*
X134350000Y-72787600D02*
X136469000Y-72787600D01*
X131801000Y-74988600D02*
X134819000Y-74988600D01*
X134350000Y-73748600D02*
X136100000Y-73748600D01*
X134350000Y-72667600D02*
X136492000Y-72667600D01*
X134350000Y-73388600D02*
X136280000Y-73388600D01*
X130860000Y-74228600D02*
X132270000Y-74228600D01*
X130324000Y-73348600D02*
X132270000Y-73348600D01*
X131476000Y-74788600D02*
X135144000Y-74788600D01*
X130212000Y-73028600D02*
X132270000Y-73028600D01*
X134350000Y-72747600D02*
X136477000Y-72747600D01*
X130762000Y-74108600D02*
X132270000Y-74108600D01*
X132370000Y-75228600D02*
X134250000Y-75228600D01*
X130143000Y-72747600D02*
X132270000Y-72747600D01*
X130308000Y-73308600D02*
X132270000Y-73308600D01*
X130160000Y-72828600D02*
X132270000Y-72828600D01*
X134350000Y-72627600D02*
X136499000Y-72627600D01*
X134350000Y-74148600D02*
X135826000Y-74148600D01*
X132908000Y-75348600D02*
X133712000Y-75348600D01*
X132048000Y-75108600D02*
X134572000Y-75108600D01*
X131729000Y-74948600D02*
X134891000Y-74948600D01*
X132145000Y-75148600D02*
X134475000Y-75148600D01*
X134350000Y-72387600D02*
X136528000Y-72387600D01*
X130092000Y-72387600D02*
X132270000Y-72387600D01*
X134350000Y-74308600D02*
X135690000Y-74308600D01*
X134350000Y-74028600D02*
X135917000Y-74028600D01*
X131420000Y-74748600D02*
X135200000Y-74748600D01*
X130169000Y-72868600D02*
X132270000Y-72868600D01*
X131045000Y-74428600D02*
X135575000Y-74428600D01*
X130967000Y-74348600D02*
X132270000Y-74348600D01*
X134350000Y-73228600D02*
X136343000Y-73228600D01*
X130080000Y-72147600D02*
X136540000Y-72147600D01*
X131366000Y-74708600D02*
X135254000Y-74708600D01*
X134350000Y-74068600D02*
X135888000Y-74068600D01*
X134350000Y-73668600D02*
X136144000Y-73668600D01*
X130674000Y-73988600D02*
X132270000Y-73988600D01*
X130249000Y-73148600D02*
X132270000Y-73148600D01*
X130376000Y-73468600D02*
X132270000Y-73468600D01*
X130224000Y-73068600D02*
X132270000Y-73068600D01*
X130732000Y-74068600D02*
X132270000Y-74068600D01*
X130394000Y-73508600D02*
X132270000Y-73508600D01*
X132508000Y-75268600D02*
X134112000Y-75268600D01*
X134350000Y-72828600D02*
X136460000Y-72828600D01*
X136580000Y-72107600D02*
G75*
G03*
X136580000Y-72107600I-3270000J0D01*
G01*
X138420000Y-77385000D02*
X141080000Y-77385000D01*
X138420000Y-82585000D02*
X139750000Y-82585000D01*
X141080000Y-79985000D02*
X141080000Y-77385000D01*
X138420000Y-79985000D02*
X138420000Y-77385000D01*
X138420000Y-79985000D02*
X141080000Y-79985000D01*
X138420000Y-81255000D02*
X138420000Y-82585000D01*
X85599900Y-99785000D02*
X85599900Y-98703000D01*
X86519900Y-98674000D02*
X86519900Y-96652000D01*
X86039900Y-96623000D02*
X86039900Y-95920000D01*
X85679900Y-96623000D02*
X85679900Y-95598000D01*
X84638900Y-100191000D02*
X84638900Y-98703000D01*
X84999900Y-100091000D02*
X84999900Y-98703000D01*
X86439900Y-98841000D02*
X86439900Y-96485000D01*
X85239900Y-99992000D02*
X85239900Y-98703000D01*
X85599900Y-96623000D02*
X85599900Y-95541000D01*
X86039900Y-99406000D02*
X86039900Y-98703000D01*
X84318900Y-100236000D02*
X84318900Y-95090000D01*
X86159900Y-99268000D02*
X86159900Y-98703000D01*
X84438900Y-100224000D02*
X84438900Y-98703000D01*
X85519900Y-99838000D02*
X85519900Y-98703000D01*
X84478900Y-100219000D02*
X84478900Y-98703000D01*
X84798900Y-100154000D02*
X84798900Y-98703000D01*
X86399900Y-96623000D02*
X86399900Y-96412000D01*
X84558900Y-100206000D02*
X84558900Y-98703000D01*
X85279900Y-96623000D02*
X85279900Y-95353000D01*
X86239900Y-96623000D02*
X86239900Y-96163000D01*
X86119900Y-99316000D02*
X86119900Y-98703000D01*
X85639900Y-96623000D02*
X85639900Y-95568000D01*
X84398900Y-96623000D02*
X84398900Y-95098000D01*
X85719900Y-99698000D02*
X85719900Y-98703000D01*
X85439900Y-96623000D02*
X85439900Y-95439000D01*
X85959900Y-99489000D02*
X85959900Y-98703000D01*
X84678900Y-100183000D02*
X84678900Y-98703000D01*
X85479900Y-99863000D02*
X85479900Y-98703000D01*
X84278900Y-100239000D02*
X84278900Y-95087000D01*
X85319900Y-96623000D02*
X85319900Y-95373000D01*
X85759900Y-99667000D02*
X85759900Y-98703000D01*
X85919900Y-96623000D02*
X85919900Y-95799000D01*
X84478900Y-96623000D02*
X84478900Y-95107000D01*
X86639900Y-98340000D02*
X86639900Y-96986000D01*
X86279900Y-96623000D02*
X86279900Y-96220000D01*
X84879900Y-96623000D02*
X84879900Y-95195000D01*
X85119900Y-96623000D02*
X85119900Y-95281000D01*
X84358900Y-96623000D02*
X84358900Y-95094000D01*
X85039900Y-100077000D02*
X85039900Y-98703000D01*
X85159900Y-96623000D02*
X85159900Y-95298000D01*
X86599900Y-98468000D02*
X86599900Y-96858000D01*
X85759900Y-96623000D02*
X85759900Y-95659000D01*
X84839900Y-96623000D02*
X84839900Y-95183000D01*
X85879900Y-96623000D02*
X85879900Y-95762000D01*
X85639900Y-99758000D02*
X85639900Y-98703000D01*
X84959900Y-100105000D02*
X84959900Y-98703000D01*
X85279900Y-99973000D02*
X85279900Y-98703000D01*
X86679900Y-98181000D02*
X86679900Y-97145000D01*
X84158900Y-100243000D02*
X84158900Y-95083000D01*
X84438900Y-96623000D02*
X84438900Y-95102000D01*
X85519900Y-96623000D02*
X85519900Y-95488000D01*
X85719900Y-96623000D02*
X85719900Y-95628000D01*
X85879900Y-99564000D02*
X85879900Y-98703000D01*
X84959900Y-96623000D02*
X84959900Y-95221000D01*
X85919900Y-99527000D02*
X85919900Y-98703000D01*
X85559900Y-96623000D02*
X85559900Y-95514000D01*
X84398900Y-100228000D02*
X84398900Y-98703000D01*
X85399900Y-96623000D02*
X85399900Y-95416000D01*
X86359900Y-98982000D02*
X86359900Y-98703000D01*
X85959900Y-96623000D02*
X85959900Y-95837000D01*
X84718900Y-96623000D02*
X84718900Y-95152000D01*
X85079900Y-100061000D02*
X85079900Y-98703000D01*
X84919900Y-100118000D02*
X84919900Y-98703000D01*
X86079900Y-99362000D02*
X86079900Y-98703000D01*
X85839900Y-96623000D02*
X85839900Y-95726000D01*
X86279900Y-99106000D02*
X86279900Y-98703000D01*
X84758900Y-100164000D02*
X84758900Y-98703000D01*
X84919900Y-96623000D02*
X84919900Y-95208000D01*
X85039900Y-96623000D02*
X85039900Y-95249000D01*
X86199900Y-99217000D02*
X86199900Y-98703000D01*
X85239900Y-96623000D02*
X85239900Y-95334000D01*
X85359900Y-96623000D02*
X85359900Y-95395000D01*
X85999900Y-99448000D02*
X85999900Y-98703000D01*
X84758900Y-96623000D02*
X84758900Y-95162000D01*
X85799900Y-96623000D02*
X85799900Y-95692000D01*
X85359900Y-99931000D02*
X85359900Y-98703000D01*
X85119900Y-100045000D02*
X85119900Y-98703000D01*
X84598900Y-100199000D02*
X84598900Y-98703000D01*
X85559900Y-99812000D02*
X85559900Y-98703000D01*
X85479900Y-96623000D02*
X85479900Y-95463000D01*
X84718900Y-100174000D02*
X84718900Y-98703000D01*
X86399900Y-98914000D02*
X86399900Y-98703000D01*
X84518900Y-96623000D02*
X84518900Y-95113000D01*
X85199900Y-100011000D02*
X85199900Y-98703000D01*
X86079900Y-96623000D02*
X86079900Y-95964000D01*
X85319900Y-99953000D02*
X85319900Y-98703000D01*
X84678900Y-96623000D02*
X84678900Y-95143000D01*
X85799900Y-99634000D02*
X85799900Y-98703000D01*
X84558900Y-96623000D02*
X84558900Y-95120000D01*
X86239900Y-99163000D02*
X86239900Y-98703000D01*
X84238900Y-100241000D02*
X84238900Y-95085000D01*
X85399900Y-99910000D02*
X85399900Y-98703000D01*
X81314125Y-99138000D02*
X81814125Y-99138000D01*
X84518900Y-100213000D02*
X84518900Y-98703000D01*
X84598900Y-96623000D02*
X84598900Y-95127000D01*
X84198900Y-100242000D02*
X84198900Y-95084000D01*
X84358900Y-100232000D02*
X84358900Y-98703000D01*
X85679900Y-99728000D02*
X85679900Y-98703000D01*
X86359900Y-96623000D02*
X86359900Y-96344000D01*
X84798900Y-96623000D02*
X84798900Y-95172000D01*
X84999900Y-96623000D02*
X84999900Y-95235000D01*
X84839900Y-100143000D02*
X84839900Y-98703000D01*
X81564125Y-99388000D02*
X81564125Y-98888000D01*
X86719900Y-97947000D02*
X86719900Y-97379000D01*
X84879900Y-100131000D02*
X84879900Y-98703000D01*
X84638900Y-96623000D02*
X84638900Y-95135000D01*
X86319900Y-99046000D02*
X86319900Y-98703000D01*
X85159900Y-100028000D02*
X85159900Y-98703000D01*
X86119900Y-96623000D02*
X86119900Y-96010000D01*
X86319900Y-96623000D02*
X86319900Y-96280000D01*
X86199900Y-96623000D02*
X86199900Y-96109000D01*
X86159900Y-96623000D02*
X86159900Y-96058000D01*
X85079900Y-96623000D02*
X85079900Y-95265000D01*
X86479900Y-98761000D02*
X86479900Y-96565000D01*
X85839900Y-99600000D02*
X85839900Y-98703000D01*
X86559900Y-98578000D02*
X86559900Y-96748000D01*
X85439900Y-99887000D02*
X85439900Y-98703000D01*
X85999900Y-96623000D02*
X85999900Y-95878000D01*
X84118900Y-100243000D02*
X84118900Y-95083000D01*
X85199900Y-96623000D02*
X85199900Y-95315000D01*
X86738900Y-97663000D02*
G75*
G03*
X86738900Y-97663000I-2620000J0D01*
G01*
X84050000Y-67374100D02*
X82780000Y-67374100D01*
X86954000Y-66734100D02*
X86130000Y-66734100D01*
X86188000Y-66174100D02*
X83992000Y-66174100D01*
X86789000Y-66574100D02*
X86130000Y-66574100D01*
X84050000Y-66734100D02*
X83226000Y-66734100D01*
X87651000Y-68215100D02*
X86130000Y-68215100D01*
X84050000Y-67734100D02*
X82635000Y-67734100D01*
X85767000Y-66014100D02*
X84413000Y-66014100D01*
X86005000Y-66094100D02*
X84175000Y-66094100D01*
X84050000Y-66854100D02*
X83119000Y-66854100D01*
X85895000Y-66054100D02*
X84285000Y-66054100D01*
X84050000Y-67174100D02*
X82890000Y-67174100D01*
X85374000Y-65934100D02*
X84806000Y-65934100D01*
X84050000Y-67694100D02*
X82648000Y-67694100D01*
X87610000Y-67975100D02*
X86130000Y-67975100D01*
X86916000Y-66694100D02*
X86130000Y-66694100D01*
X86473000Y-66334100D02*
X86130000Y-66334100D01*
X84050000Y-67534100D02*
X82708000Y-67534100D01*
X84050000Y-67094100D02*
X82941000Y-67094100D01*
X86409000Y-66294100D02*
X86130000Y-66294100D01*
X84050000Y-66894100D02*
X83086000Y-66894100D01*
X84050000Y-67254100D02*
X82843000Y-67254100D01*
X87400000Y-67374100D02*
X86130000Y-67374100D01*
X84050000Y-66574100D02*
X83391000Y-66574100D01*
X84050000Y-66814100D02*
X83153000Y-66814100D01*
X85608000Y-65974100D02*
X84572000Y-65974100D01*
X87472000Y-67534100D02*
X86130000Y-67534100D01*
X87668000Y-68415100D02*
X82512000Y-68415100D01*
X84050000Y-67614100D02*
X82676000Y-67614100D01*
X84050000Y-68215100D02*
X82529000Y-68215100D01*
X87094000Y-66894100D02*
X86130000Y-66894100D01*
X84050000Y-66934100D02*
X83055000Y-66934100D01*
X87518000Y-67654100D02*
X86130000Y-67654100D01*
X86533000Y-66374100D02*
X86130000Y-66374100D01*
X84050000Y-68055100D02*
X82554000Y-68055100D01*
X87640000Y-68135100D02*
X86130000Y-68135100D01*
X87666000Y-68375100D02*
X82514000Y-68375100D01*
X87626000Y-68055100D02*
X86130000Y-68055100D01*
X84050000Y-67574100D02*
X82692000Y-67574100D01*
X84050000Y-67774100D02*
X82622000Y-67774100D01*
X84050000Y-67454100D02*
X82742000Y-67454100D01*
X84050000Y-67494100D02*
X82725000Y-67494100D01*
X86743000Y-66534100D02*
X86130000Y-66534100D01*
X87265000Y-67134100D02*
X86130000Y-67134100D01*
X87061000Y-66854100D02*
X86130000Y-66854100D01*
X87185000Y-67014100D02*
X86130000Y-67014100D01*
X86268000Y-66214100D02*
X83912000Y-66214100D01*
X87337000Y-67254100D02*
X86130000Y-67254100D01*
X87663000Y-68335100D02*
X82517000Y-68335100D01*
X84050000Y-66654100D02*
X83305000Y-66654100D01*
X84050000Y-67975100D02*
X82570000Y-67975100D01*
X84050000Y-67214100D02*
X82866000Y-67214100D01*
X86991000Y-66774100D02*
X86130000Y-66774100D01*
X87155000Y-66974100D02*
X86130000Y-66974100D01*
X87669000Y-68455100D02*
X82511000Y-68455100D01*
X86815000Y-71089875D02*
X86315000Y-71089875D01*
X87601000Y-67935100D02*
X86130000Y-67935100D01*
X84050000Y-66614100D02*
X83347000Y-66614100D01*
X84050000Y-66454100D02*
X83536000Y-66454100D01*
X84050000Y-66694100D02*
X83264000Y-66694100D01*
X84050000Y-68175100D02*
X82534000Y-68175100D01*
X84050000Y-67414100D02*
X82761000Y-67414100D01*
X84050000Y-68015100D02*
X82562000Y-68015100D01*
X84050000Y-67855100D02*
X82599000Y-67855100D01*
X87659000Y-68295100D02*
X86130000Y-68295100D01*
X87570000Y-67814100D02*
X86130000Y-67814100D01*
X87581000Y-67855100D02*
X86130000Y-67855100D01*
X86590000Y-66414100D02*
X86130000Y-66414100D01*
X84050000Y-66774100D02*
X83189000Y-66774100D01*
X84050000Y-68095100D02*
X82547000Y-68095100D01*
X86565000Y-71339875D02*
X86565000Y-70839875D01*
X87358000Y-67294100D02*
X86130000Y-67294100D01*
X87455000Y-67494100D02*
X86130000Y-67494100D01*
X84050000Y-67814100D02*
X82610000Y-67814100D01*
X86341000Y-66254100D02*
X86130000Y-66254100D01*
X84050000Y-67014100D02*
X82995000Y-67014100D01*
X84050000Y-67054100D02*
X82968000Y-67054100D01*
X87125000Y-66934100D02*
X86130000Y-66934100D01*
X86101000Y-66134100D02*
X84079000Y-66134100D01*
X84050000Y-68255100D02*
X82525000Y-68255100D01*
X86695000Y-66494100D02*
X86130000Y-66494100D01*
X84050000Y-66334100D02*
X83707000Y-66334100D01*
X84050000Y-67294100D02*
X82822000Y-67294100D01*
X84050000Y-66534100D02*
X83437000Y-66534100D01*
X87558000Y-67774100D02*
X86130000Y-67774100D01*
X87212000Y-67054100D02*
X86130000Y-67054100D01*
X84050000Y-67935100D02*
X82579000Y-67935100D01*
X84050000Y-66414100D02*
X83590000Y-66414100D01*
X87239000Y-67094100D02*
X86130000Y-67094100D01*
X84050000Y-67895100D02*
X82589000Y-67895100D01*
X87314000Y-67214100D02*
X86130000Y-67214100D01*
X87419000Y-67414100D02*
X86130000Y-67414100D01*
X87633000Y-68095100D02*
X86130000Y-68095100D01*
X84050000Y-66974100D02*
X83025000Y-66974100D01*
X87646000Y-68175100D02*
X86130000Y-68175100D01*
X87591000Y-67895100D02*
X86130000Y-67895100D01*
X87670000Y-68495100D02*
X82510000Y-68495100D01*
X87438000Y-67454100D02*
X86130000Y-67454100D01*
X84050000Y-66254100D02*
X83839000Y-66254100D01*
X84050000Y-66374100D02*
X83647000Y-66374100D01*
X87655000Y-68255100D02*
X86130000Y-68255100D01*
X87290000Y-67174100D02*
X86130000Y-67174100D01*
X87488000Y-67574100D02*
X86130000Y-67574100D01*
X84050000Y-66294100D02*
X83771000Y-66294100D01*
X87670000Y-68535100D02*
X82510000Y-68535100D01*
X87380000Y-67334100D02*
X86130000Y-67334100D01*
X84050000Y-67654100D02*
X82662000Y-67654100D01*
X86875000Y-66654100D02*
X86130000Y-66654100D01*
X84050000Y-68135100D02*
X82540000Y-68135100D01*
X87545000Y-67734100D02*
X86130000Y-67734100D01*
X87532000Y-67694100D02*
X86130000Y-67694100D01*
X86833000Y-66614100D02*
X86130000Y-66614100D01*
X87618000Y-68015100D02*
X86130000Y-68015100D01*
X87027000Y-66814100D02*
X86130000Y-66814100D01*
X84050000Y-67334100D02*
X82800000Y-67334100D01*
X84050000Y-68295100D02*
X82521000Y-68295100D01*
X86644000Y-66454100D02*
X86130000Y-66454100D01*
X87504000Y-67614100D02*
X86130000Y-67614100D01*
X84050000Y-67134100D02*
X82915000Y-67134100D01*
X84050000Y-66494100D02*
X83485000Y-66494100D01*
X87710000Y-68535100D02*
G75*
G03*
X87710000Y-68535100I-2620000J0D01*
G01*
G36*
X154722298Y-57868196D02*
G01*
X154769324Y-57877534D01*
X154839887Y-57909545D01*
X154860204Y-57955340D01*
X154829027Y-58013223D01*
X154813454Y-58036107D01*
X154796811Y-58090038D01*
X154788019Y-58175801D01*
X154785450Y-58304258D01*
X154785568Y-58343707D01*
X154788577Y-58452692D01*
X154797592Y-58525985D01*
X154815198Y-58577601D01*
X154843980Y-58621551D01*
X154851820Y-58631549D01*
X154883945Y-58678045D01*
X154883617Y-58705306D01*
X154852282Y-58732689D01*
X154819602Y-58747119D01*
X154740005Y-58762491D01*
X154642476Y-58769385D01*
X154548247Y-58766642D01*
X154478547Y-58753103D01*
X154451075Y-58724671D01*
X154437064Y-58675310D01*
X154440777Y-58628782D01*
X154464455Y-58608148D01*
X154470601Y-58605813D01*
X154483926Y-58568063D01*
X154484614Y-58493915D01*
X154481422Y-58454975D01*
X154469538Y-58402414D01*
X154439042Y-58379923D01*
X154375555Y-58371340D01*
X154274762Y-58362998D01*
X154274762Y-58476737D01*
X154274799Y-58482105D01*
X154287578Y-58574702D01*
X154318789Y-58639125D01*
X154319832Y-58640286D01*
X154347640Y-58694305D01*
X154325301Y-58734933D01*
X154255088Y-58760521D01*
X154139277Y-58769418D01*
X154072353Y-58768004D01*
X153990242Y-58762079D01*
X153940981Y-58753103D01*
X153905005Y-58716695D01*
X153903831Y-58660971D01*
X153938783Y-58608148D01*
X153946777Y-58598167D01*
X153965136Y-58541083D01*
X153976994Y-58452622D01*
X153982352Y-58346909D01*
X153981210Y-58238065D01*
X153973568Y-58140214D01*
X153959426Y-58067479D01*
X153938783Y-58033983D01*
X153912946Y-58008445D01*
X153898465Y-57951691D01*
X153901778Y-57919008D01*
X153927879Y-57886267D01*
X153992719Y-57867187D01*
X154041128Y-57861036D01*
X154137109Y-57860897D01*
X154229694Y-57872671D01*
X154302147Y-57893725D01*
X154337731Y-57921428D01*
X154338422Y-57953875D01*
X154314088Y-58007493D01*
X154289919Y-58056196D01*
X154275617Y-58131058D01*
X154275591Y-58143280D01*
X154282782Y-58184565D01*
X154313285Y-58201624D01*
X154382275Y-58204973D01*
X154397168Y-58204915D01*
X154458791Y-58199847D01*
X154484581Y-58179328D01*
X154489788Y-58133174D01*
X154480010Y-58077178D01*
X154446211Y-58013223D01*
X154437985Y-58003464D01*
X154416282Y-57947851D01*
X154440352Y-57903109D01*
X154503706Y-57872646D01*
X154599851Y-57859872D01*
X154722298Y-57868196D01*
G37*
G36*
X149565465Y-57882476D02*
G01*
X149605573Y-57939127D01*
X149654606Y-58036119D01*
X149716768Y-58178724D01*
X149758537Y-58277265D01*
X149826097Y-58433575D01*
X149892695Y-58584625D01*
X149948597Y-58708183D01*
X149973608Y-58763961D01*
X150011923Y-58857802D01*
X150035339Y-58927370D01*
X150039527Y-58960642D01*
X150017488Y-58975212D01*
X149962937Y-58984444D01*
X149956397Y-58984272D01*
X149917042Y-58970708D01*
X149883382Y-58927480D01*
X149846095Y-58843333D01*
X149834123Y-58813385D01*
X149795274Y-58720034D01*
X149742435Y-58596140D01*
X149680994Y-58454280D01*
X149616340Y-58307032D01*
X149569817Y-58200960D01*
X149517767Y-58077718D01*
X149484959Y-57991182D01*
X149469102Y-57934241D01*
X149467906Y-57899782D01*
X149479082Y-57880692D01*
X149495207Y-57869111D01*
X149530078Y-57860895D01*
X149565465Y-57882476D01*
G37*
G36*
X155747176Y-58559758D02*
G01*
X155769768Y-58611750D01*
X155793514Y-58651000D01*
X155797489Y-58701221D01*
X155786572Y-58715893D01*
X155755085Y-58729139D01*
X155695853Y-58737289D01*
X155600216Y-58741403D01*
X155459515Y-58742539D01*
X155371792Y-58741936D01*
X155225418Y-58735964D01*
X155119615Y-58721622D01*
X155045635Y-58696498D01*
X154994727Y-58658178D01*
X154958143Y-58604250D01*
X154956021Y-58600105D01*
X154929185Y-58519168D01*
X155274036Y-58519168D01*
X155296281Y-58579485D01*
X155338407Y-58606772D01*
X155383458Y-58594465D01*
X155414900Y-58540106D01*
X155417814Y-58527157D01*
X155421370Y-58448628D01*
X155402138Y-58389556D01*
X155364813Y-58366243D01*
X155317972Y-58384128D01*
X155281748Y-58440301D01*
X155274036Y-58519168D01*
X154929185Y-58519168D01*
X154923340Y-58501540D01*
X154938601Y-58417867D01*
X155004036Y-58336039D01*
X155026014Y-58315243D01*
X155064198Y-58272334D01*
X155068577Y-58242357D01*
X155044353Y-58208906D01*
X155012736Y-58148686D01*
X155301498Y-58148686D01*
X155301534Y-58148989D01*
X155325009Y-58204296D01*
X155367662Y-58229819D01*
X155411681Y-58214862D01*
X155423957Y-58190023D01*
X155430154Y-58129893D01*
X155422536Y-58067204D01*
X155402473Y-58029536D01*
X155384987Y-58023407D01*
X155342388Y-58039340D01*
X155310144Y-58086308D01*
X155301498Y-58148686D01*
X155012736Y-58148686D01*
X155007687Y-58139069D01*
X155008043Y-58047574D01*
X155051811Y-57959326D01*
X155055148Y-57955253D01*
X155082660Y-57928002D01*
X155118488Y-57909962D01*
X155173991Y-57898688D01*
X155260528Y-57891735D01*
X155389460Y-57886658D01*
X155477746Y-57884663D01*
X155594914Y-57884695D01*
X155687641Y-57887871D01*
X155741300Y-57893890D01*
X155790373Y-57918846D01*
X155803779Y-57964278D01*
X155766508Y-58016825D01*
X155745385Y-58059080D01*
X155732694Y-58129893D01*
X155730647Y-58141312D01*
X155723539Y-58247496D01*
X155723979Y-58362631D01*
X155730212Y-58448628D01*
X155731885Y-58471719D01*
X155747176Y-58559758D01*
G37*
G36*
X147259524Y-58323063D02*
G01*
X147261500Y-58454623D01*
X147268508Y-58545058D01*
X147282031Y-58603011D01*
X147303551Y-58639125D01*
X147310273Y-58646756D01*
X147332636Y-58688893D01*
X147313699Y-58728596D01*
X147295263Y-58741810D01*
X147228249Y-58760761D01*
X147135323Y-58769631D01*
X147034477Y-58767256D01*
X146943703Y-58752477D01*
X146941731Y-58751928D01*
X146893888Y-58716910D01*
X146886979Y-58662917D01*
X146923545Y-58608148D01*
X146950008Y-58567894D01*
X146963862Y-58500672D01*
X146961372Y-58462696D01*
X146944638Y-58436793D01*
X146900501Y-58423240D01*
X146815825Y-58414380D01*
X146815445Y-58414348D01*
X146683457Y-58383858D01*
X146585730Y-58321827D01*
X146527118Y-58235404D01*
X146516420Y-58159664D01*
X146807851Y-58159664D01*
X146808713Y-58170989D01*
X146818898Y-58237822D01*
X146842326Y-58269005D01*
X146889947Y-58280674D01*
X146925954Y-58283294D01*
X146952071Y-58272574D01*
X146962179Y-58233986D01*
X146963862Y-58154588D01*
X146961200Y-58085039D01*
X146945178Y-58019830D01*
X146911234Y-57998909D01*
X146855443Y-58017310D01*
X146826765Y-58038230D01*
X146807893Y-58082034D01*
X146807851Y-58159664D01*
X146516420Y-58159664D01*
X146512476Y-58131737D01*
X146546655Y-58017973D01*
X146546785Y-58017721D01*
X146593032Y-57951029D01*
X146656473Y-57905989D01*
X146745944Y-57880032D01*
X146870281Y-57870592D01*
X147038321Y-57875099D01*
X147058578Y-57876261D01*
X147204342Y-57888770D01*
X147299868Y-57906732D01*
X147348187Y-57931600D01*
X147352331Y-57964827D01*
X147315332Y-58007866D01*
X147294945Y-58028266D01*
X147276339Y-58062344D01*
X147265615Y-58115032D01*
X147263273Y-58154588D01*
X147260701Y-58198036D01*
X147259524Y-58323063D01*
G37*
G36*
X149325914Y-58430996D02*
G01*
X149260456Y-58571762D01*
X149195764Y-58683206D01*
X149262458Y-58699946D01*
X149295738Y-58713940D01*
X149325591Y-58748187D01*
X149321634Y-58781392D01*
X149280616Y-58796296D01*
X149270905Y-58797195D01*
X149211886Y-58811307D01*
X149122695Y-58838985D01*
X149018553Y-58875624D01*
X148996270Y-58883688D01*
X148879622Y-58920109D01*
X148770317Y-58946022D01*
X148689459Y-58956259D01*
X148595385Y-58947544D01*
X148504487Y-58919287D01*
X148439879Y-58877651D01*
X148415291Y-58829010D01*
X148415311Y-58826946D01*
X148425180Y-58799750D01*
X148461975Y-58789487D01*
X148538716Y-58792286D01*
X148559763Y-58793715D01*
X148648022Y-58791105D01*
X148688361Y-58772206D01*
X148679169Y-58739008D01*
X148618833Y-58693497D01*
X148527903Y-58621319D01*
X148450378Y-58505112D01*
X148434983Y-58445780D01*
X148717675Y-58445780D01*
X148736185Y-58524439D01*
X148742323Y-58534337D01*
X148796882Y-58573486D01*
X148865130Y-58578084D01*
X148922328Y-58545351D01*
X148922866Y-58544697D01*
X148960339Y-58478068D01*
X148996124Y-58381524D01*
X149022936Y-58278253D01*
X149033492Y-58191446D01*
X149018621Y-58111616D01*
X148974210Y-58058533D01*
X148908056Y-58048389D01*
X148856614Y-58076454D01*
X148801025Y-58146263D01*
X148755641Y-58241329D01*
X148726009Y-58346289D01*
X148717675Y-58445780D01*
X148434983Y-58445780D01*
X148415259Y-58369765D01*
X148424878Y-58225655D01*
X148481570Y-58083160D01*
X148498944Y-58055818D01*
X148598035Y-57953303D01*
X148719809Y-57890477D01*
X148853957Y-57866570D01*
X148990171Y-57880814D01*
X149118144Y-57932441D01*
X149227569Y-58020683D01*
X149308138Y-58144772D01*
X149323124Y-58182270D01*
X149324857Y-58191446D01*
X149346350Y-58305226D01*
X149325914Y-58430996D01*
G37*
G36*
X153837501Y-58550644D02*
G01*
X153839932Y-58599793D01*
X153839217Y-58605865D01*
X153830444Y-58645083D01*
X153807511Y-58666826D01*
X153757226Y-58677438D01*
X153666400Y-58683265D01*
X153652853Y-58683925D01*
X153567385Y-58690075D01*
X153520213Y-58702135D01*
X153497558Y-58726764D01*
X153485643Y-58770619D01*
X153477387Y-58805034D01*
X153457641Y-58835497D01*
X153415258Y-58847777D01*
X153334693Y-58850052D01*
X153283973Y-58849482D01*
X153228016Y-58843017D01*
X153204451Y-58824058D01*
X153199629Y-58786148D01*
X153191456Y-58740906D01*
X153159312Y-58688783D01*
X153132108Y-58645598D01*
X153118995Y-58577135D01*
X153129209Y-58520004D01*
X153159312Y-58483476D01*
X153173363Y-58473479D01*
X153189124Y-58436244D01*
X153193761Y-58396423D01*
X153473174Y-58396423D01*
X153473703Y-58401831D01*
X153485265Y-58459381D01*
X153515778Y-58485365D01*
X153582645Y-58495537D01*
X153590013Y-58496112D01*
X153655409Y-58494481D01*
X153678280Y-58473460D01*
X153659217Y-58427826D01*
X153598808Y-58352359D01*
X153541291Y-58296812D01*
X153496836Y-58280902D01*
X153474034Y-58314140D01*
X153473174Y-58396423D01*
X153193761Y-58396423D01*
X153197458Y-58364674D01*
X153200041Y-58249134D01*
X153200276Y-58220872D01*
X153204308Y-58117624D01*
X153212260Y-58037219D01*
X153222749Y-57995108D01*
X153225853Y-57990641D01*
X153272278Y-57969712D01*
X153343108Y-57992890D01*
X153435156Y-58058498D01*
X153545236Y-58164859D01*
X153592032Y-58215218D01*
X153698030Y-58333579D01*
X153771184Y-58424378D01*
X153802666Y-58473460D01*
X153816130Y-58494452D01*
X153837501Y-58550644D01*
G37*
G36*
X150886116Y-58353528D02*
G01*
X150893760Y-58466411D01*
X150908944Y-58561037D01*
X150931592Y-58622667D01*
X150944727Y-58643861D01*
X150960186Y-58690852D01*
X150940801Y-58730366D01*
X150913770Y-58747990D01*
X150841563Y-58764032D01*
X150748554Y-58767417D01*
X150653189Y-58759032D01*
X150573914Y-58739768D01*
X150529174Y-58710515D01*
X150516502Y-58665016D01*
X150546527Y-58614324D01*
X150566972Y-58584329D01*
X150588934Y-58515504D01*
X150588715Y-58448467D01*
X150564378Y-58405833D01*
X150553543Y-58401008D01*
X150509423Y-58412303D01*
X150469212Y-58463461D01*
X150442279Y-58543887D01*
X150437690Y-58565831D01*
X150391665Y-58678770D01*
X150316491Y-58746715D01*
X150212420Y-58769418D01*
X150196383Y-58769126D01*
X150113725Y-58759852D01*
X150053101Y-58741594D01*
X150012850Y-58705768D01*
X150003879Y-58660314D01*
X150036336Y-58627260D01*
X150045470Y-58621073D01*
X150076216Y-58575432D01*
X150104319Y-58504405D01*
X150111571Y-58482963D01*
X150150305Y-58405905D01*
X150194917Y-58354554D01*
X150223751Y-58332659D01*
X150236782Y-58304432D01*
X150209662Y-58266227D01*
X150187565Y-58238150D01*
X150147832Y-58141542D01*
X150148193Y-58130663D01*
X150458453Y-58130663D01*
X150474357Y-58216214D01*
X150491043Y-58238968D01*
X150541553Y-58258730D01*
X150573213Y-58250109D01*
X150588578Y-58214776D01*
X150592434Y-58139364D01*
X150591554Y-58105285D01*
X150576966Y-58026644D01*
X150545184Y-57997069D01*
X150497182Y-58017802D01*
X150472045Y-58053744D01*
X150458453Y-58130663D01*
X150148193Y-58130663D01*
X150151098Y-58043039D01*
X150194809Y-57956777D01*
X150276409Y-57896892D01*
X150322104Y-57885182D01*
X150418756Y-57875025D01*
X150541401Y-57871262D01*
X150674335Y-57873867D01*
X150801854Y-57882808D01*
X150908254Y-57898058D01*
X150954336Y-57920687D01*
X150965414Y-57965070D01*
X150928412Y-58016825D01*
X150909199Y-58052697D01*
X150893758Y-58131933D01*
X150893216Y-58139364D01*
X150886089Y-58237123D01*
X150886116Y-58353528D01*
G37*
G36*
X148254997Y-58389339D02*
G01*
X148262388Y-58490445D01*
X148279393Y-58563126D01*
X148308793Y-58623230D01*
X148319647Y-58640916D01*
X148346227Y-58691140D01*
X148344512Y-58718262D01*
X148315513Y-58739818D01*
X148281241Y-58751757D01*
X148200666Y-58763732D01*
X148103522Y-58768474D01*
X148011708Y-58765194D01*
X147947119Y-58753103D01*
X147946970Y-58753046D01*
X147912724Y-58716615D01*
X147906411Y-58663129D01*
X147931481Y-58621587D01*
X147945984Y-58595504D01*
X147955784Y-58538097D01*
X147957581Y-58471393D01*
X147950994Y-58416149D01*
X147935647Y-58393121D01*
X147925600Y-58394770D01*
X147881767Y-58430425D01*
X147837483Y-58503291D01*
X147800779Y-58600990D01*
X147791633Y-58628724D01*
X147756055Y-58700344D01*
X147717274Y-58742101D01*
X147692487Y-58752052D01*
X147608441Y-58766749D01*
X147513368Y-58767480D01*
X147436431Y-58753103D01*
X147430947Y-58750668D01*
X147399224Y-58712064D01*
X147398793Y-58661779D01*
X147430839Y-58626608D01*
X147435264Y-58624310D01*
X147464267Y-58584339D01*
X147485595Y-58517384D01*
X147514433Y-58440107D01*
X147573858Y-58366928D01*
X147644289Y-58311527D01*
X147586298Y-58249798D01*
X147561765Y-58219065D01*
X147531816Y-58140290D01*
X147855706Y-58140290D01*
X147865911Y-58192641D01*
X147895801Y-58244937D01*
X147934373Y-58260861D01*
X147971489Y-58232353D01*
X147978111Y-58201232D01*
X147976323Y-58139289D01*
X147966678Y-58069897D01*
X147952182Y-58013455D01*
X147935838Y-57990358D01*
X147899780Y-57999510D01*
X147862559Y-58049685D01*
X147855706Y-58140290D01*
X147531816Y-58140290D01*
X147527017Y-58127667D01*
X147535419Y-58035242D01*
X147581335Y-57953823D01*
X147659128Y-57895448D01*
X147763162Y-57872151D01*
X147816599Y-57871569D01*
X148004901Y-57873862D01*
X148155549Y-57883100D01*
X148263272Y-57898826D01*
X148322799Y-57920585D01*
X148327059Y-57923707D01*
X148357506Y-57951163D01*
X148353854Y-57977693D01*
X148314497Y-58023111D01*
X148307263Y-58031022D01*
X148279454Y-58070652D01*
X148263318Y-58120978D01*
X148255843Y-58196332D01*
X148255765Y-58201232D01*
X148254021Y-58311046D01*
X148254997Y-58389339D01*
G37*
G36*
X152997113Y-58544067D02*
G01*
X153014001Y-58588981D01*
X153041176Y-58624584D01*
X153041903Y-58625363D01*
X153075670Y-58676592D01*
X153078622Y-58715750D01*
X153072363Y-58721010D01*
X153022245Y-58733182D01*
X152934724Y-58739891D01*
X152821853Y-58741555D01*
X152695689Y-58738589D01*
X152568286Y-58731412D01*
X152451702Y-58720441D01*
X152357990Y-58706092D01*
X152299206Y-58688783D01*
X152285110Y-58680701D01*
X152216982Y-58617746D01*
X152158095Y-58528537D01*
X152149938Y-58511665D01*
X152111715Y-58385465D01*
X152426778Y-58385465D01*
X152448743Y-58493657D01*
X152490330Y-58566966D01*
X152527772Y-58591534D01*
X152596275Y-58608148D01*
X152610230Y-58607541D01*
X152646136Y-58595046D01*
X152669523Y-58560423D01*
X152682273Y-58495823D01*
X152686273Y-58393395D01*
X152683407Y-58245291D01*
X152675502Y-58003386D01*
X152595068Y-58009339D01*
X152567121Y-58012957D01*
X152501242Y-58043653D01*
X152458225Y-58110515D01*
X152431675Y-58221862D01*
X152427181Y-58258549D01*
X152426778Y-58385465D01*
X152111715Y-58385465D01*
X152105843Y-58366077D01*
X152104068Y-58222333D01*
X152141798Y-58090939D01*
X152216221Y-57982404D01*
X152324520Y-57907235D01*
X152343923Y-57899590D01*
X152437279Y-57876674D01*
X152554414Y-57862318D01*
X152682502Y-57856394D01*
X152808713Y-57858774D01*
X152920219Y-57869330D01*
X153004193Y-57887934D01*
X153047806Y-57914458D01*
X153060532Y-57960026D01*
X153030510Y-58010648D01*
X153009193Y-58043925D01*
X152994370Y-58099060D01*
X152986754Y-58184886D01*
X152984603Y-58312870D01*
X152984875Y-58374966D01*
X152985472Y-58393395D01*
X152988181Y-58477008D01*
X152997113Y-58544067D01*
G37*
G36*
X151906143Y-57862567D02*
G01*
X151981128Y-57886886D01*
X152028069Y-57923207D01*
X152038398Y-57967772D01*
X152003545Y-58016825D01*
X151985537Y-58047666D01*
X151969031Y-58124638D01*
X151960987Y-58229238D01*
X151961246Y-58346939D01*
X151969651Y-58463211D01*
X151986043Y-58563527D01*
X152010264Y-58633360D01*
X152036506Y-58684582D01*
X152040746Y-58719120D01*
X152016984Y-58742640D01*
X152014317Y-58744189D01*
X151960665Y-58758065D01*
X151875345Y-58766434D01*
X151778365Y-58768757D01*
X151689730Y-58764493D01*
X151629447Y-58753103D01*
X151598406Y-58730488D01*
X151591894Y-58674599D01*
X151631244Y-58592383D01*
X151642498Y-58574402D01*
X151660092Y-58526643D01*
X151642378Y-58492535D01*
X151637348Y-58488259D01*
X151608824Y-58484558D01*
X151567345Y-58513670D01*
X151504064Y-58581269D01*
X151457658Y-58636730D01*
X151415242Y-58692811D01*
X151398856Y-58722381D01*
X151397716Y-58725266D01*
X151364715Y-58735905D01*
X151298485Y-58741357D01*
X151215789Y-58741889D01*
X151133387Y-58737766D01*
X151068044Y-58729255D01*
X151036520Y-58716623D01*
X151037934Y-58703471D01*
X151064622Y-58654669D01*
X151116204Y-58581736D01*
X151185809Y-58494877D01*
X151261779Y-58404739D01*
X151336793Y-58313335D01*
X151383855Y-58248910D01*
X151406708Y-58203268D01*
X151409090Y-58168219D01*
X151394743Y-58135569D01*
X151367407Y-58097125D01*
X151359336Y-58086837D01*
X151295933Y-58029309D01*
X151230439Y-57997939D01*
X151206729Y-57992222D01*
X151151101Y-57963326D01*
X151140180Y-57927598D01*
X151168904Y-57892650D01*
X151232215Y-57866098D01*
X151325052Y-57855555D01*
X151341026Y-57855731D01*
X151449307Y-57871441D01*
X151512790Y-57913723D01*
X151534069Y-57984173D01*
X151544787Y-58035452D01*
X151575863Y-58101504D01*
X151615508Y-58155648D01*
X151651716Y-58178095D01*
X151664726Y-58160624D01*
X151667216Y-58113781D01*
X151658586Y-58062053D01*
X151640688Y-58030264D01*
X151623684Y-58013752D01*
X151611814Y-57961244D01*
X151630404Y-57906071D01*
X151674286Y-57872496D01*
X151706321Y-57864956D01*
X151811684Y-57854005D01*
X151906143Y-57862567D01*
G37*
M02*
