G04 #@! TF.GenerationSoftware,KiCad,Pcbnew,(6.0.5)*
G04 #@! TF.CreationDate,2022-05-30T10:59:04+08:00*
G04 #@! TF.ProjectId,miniaf1,6d696e69-6166-4312-9e6b-696361645f70,rev?*
G04 #@! TF.SameCoordinates,Original*
G04 #@! TF.FileFunction,Legend,Top*
G04 #@! TF.FilePolarity,Positive*
%FSLAX46Y46*%
G04 Gerber Fmt 4.6, Leading zero omitted, Abs format (unit mm)*
G04 Created by KiCad (PCBNEW (6.0.5)) date 2022-05-30 10:59:04*
%MOMM*%
%LPD*%
G01*
G04 APERTURE LIST*
%ADD10C,0.150000*%
%ADD11C,0.127000*%
%ADD12C,0.120000*%
%ADD13C,0.203200*%
%ADD14C,0.050000*%
G04 APERTURE END LIST*
D10*
X118268857Y-77652571D02*
X118411714Y-77700190D01*
X118459333Y-77747809D01*
X118506952Y-77843047D01*
X118506952Y-77985904D01*
X118459333Y-78081142D01*
X118411714Y-78128761D01*
X118316476Y-78176380D01*
X117935523Y-78176380D01*
X117935523Y-77176380D01*
X118268857Y-77176380D01*
X118364095Y-77224000D01*
X118411714Y-77271619D01*
X118459333Y-77366857D01*
X118459333Y-77462095D01*
X118411714Y-77557333D01*
X118364095Y-77604952D01*
X118268857Y-77652571D01*
X117935523Y-77652571D01*
X118935523Y-78176380D02*
X118935523Y-77176380D01*
X119316476Y-77176380D01*
X119411714Y-77224000D01*
X119459333Y-77271619D01*
X119506952Y-77366857D01*
X119506952Y-77509714D01*
X119459333Y-77604952D01*
X119411714Y-77652571D01*
X119316476Y-77700190D01*
X118935523Y-77700190D01*
X120268857Y-77652571D02*
X119935523Y-77652571D01*
X119935523Y-78176380D02*
X119935523Y-77176380D01*
X120411714Y-77176380D01*
X112791952Y-60904380D02*
X112315761Y-60904380D01*
X112315761Y-59904380D01*
X113125285Y-60904380D02*
X113125285Y-59904380D01*
X113506238Y-59904380D01*
X113601476Y-59952000D01*
X113649095Y-59999619D01*
X113696714Y-60094857D01*
X113696714Y-60237714D01*
X113649095Y-60332952D01*
X113601476Y-60380571D01*
X113506238Y-60428190D01*
X113125285Y-60428190D01*
X114458619Y-60380571D02*
X114125285Y-60380571D01*
X114125285Y-60904380D02*
X114125285Y-59904380D01*
X114601476Y-59904380D01*
X110418904Y-95162666D02*
X110895095Y-95162666D01*
X110323666Y-95448380D02*
X110657000Y-94448380D01*
X110990333Y-95448380D01*
X111657000Y-94924571D02*
X111323666Y-94924571D01*
X111323666Y-95448380D02*
X111323666Y-94448380D01*
X111799857Y-94448380D01*
X113466523Y-94496000D02*
X113371285Y-94448380D01*
X113228428Y-94448380D01*
X113085571Y-94496000D01*
X112990333Y-94591238D01*
X112942714Y-94686476D01*
X112895095Y-94876952D01*
X112895095Y-95019809D01*
X112942714Y-95210285D01*
X112990333Y-95305523D01*
X113085571Y-95400761D01*
X113228428Y-95448380D01*
X113323666Y-95448380D01*
X113466523Y-95400761D01*
X113514142Y-95353142D01*
X113514142Y-95019809D01*
X113323666Y-95019809D01*
X113895095Y-95162666D02*
X114371285Y-95162666D01*
X113799857Y-95448380D02*
X114133190Y-94448380D01*
X114466523Y-95448380D01*
X114799857Y-95448380D02*
X114799857Y-94448380D01*
X115276047Y-95448380D02*
X115276047Y-94448380D01*
X115847476Y-95448380D01*
X115847476Y-94448380D01*
X88659047Y-72762380D02*
X88849523Y-72762380D01*
X88944761Y-72810000D01*
X89040000Y-72905238D01*
X89087619Y-73095714D01*
X89087619Y-73429047D01*
X89040000Y-73619523D01*
X88944761Y-73714761D01*
X88849523Y-73762380D01*
X88659047Y-73762380D01*
X88563809Y-73714761D01*
X88468571Y-73619523D01*
X88420952Y-73429047D01*
X88420952Y-73095714D01*
X88468571Y-72905238D01*
X88563809Y-72810000D01*
X88659047Y-72762380D01*
X89849523Y-73238571D02*
X89516190Y-73238571D01*
X89516190Y-73762380D02*
X89516190Y-72762380D01*
X89992380Y-72762380D01*
X90706666Y-73238571D02*
X90373333Y-73238571D01*
X90373333Y-73762380D02*
X90373333Y-72762380D01*
X90849523Y-72762380D01*
X91944761Y-72714761D02*
X91087619Y-74000476D01*
X92754285Y-73762380D02*
X92278095Y-73762380D01*
X92278095Y-72762380D01*
X93087619Y-73762380D02*
X93087619Y-72762380D01*
X93468571Y-72762380D01*
X93563809Y-72810000D01*
X93611428Y-72857619D01*
X93659047Y-72952857D01*
X93659047Y-73095714D01*
X93611428Y-73190952D01*
X93563809Y-73238571D01*
X93468571Y-73286190D01*
X93087619Y-73286190D01*
X94801904Y-72714761D02*
X93944761Y-74000476D01*
X95468571Y-73238571D02*
X95611428Y-73286190D01*
X95659047Y-73333809D01*
X95706666Y-73429047D01*
X95706666Y-73571904D01*
X95659047Y-73667142D01*
X95611428Y-73714761D01*
X95516190Y-73762380D01*
X95135238Y-73762380D01*
X95135238Y-72762380D01*
X95468571Y-72762380D01*
X95563809Y-72810000D01*
X95611428Y-72857619D01*
X95659047Y-72952857D01*
X95659047Y-73048095D01*
X95611428Y-73143333D01*
X95563809Y-73190952D01*
X95468571Y-73238571D01*
X95135238Y-73238571D01*
X96135238Y-73762380D02*
X96135238Y-72762380D01*
X96516190Y-72762380D01*
X96611428Y-72810000D01*
X96659047Y-72857619D01*
X96706666Y-72952857D01*
X96706666Y-73095714D01*
X96659047Y-73190952D01*
X96611428Y-73238571D01*
X96516190Y-73286190D01*
X96135238Y-73286190D01*
X97659047Y-73762380D02*
X97087619Y-73762380D01*
X97373333Y-73762380D02*
X97373333Y-72762380D01*
X97278095Y-72905238D01*
X97182857Y-73000476D01*
X97087619Y-73048095D01*
X98801904Y-72714761D02*
X97944761Y-74000476D01*
X99468571Y-73238571D02*
X99611428Y-73286190D01*
X99659047Y-73333809D01*
X99706666Y-73429047D01*
X99706666Y-73571904D01*
X99659047Y-73667142D01*
X99611428Y-73714761D01*
X99516190Y-73762380D01*
X99135238Y-73762380D01*
X99135238Y-72762380D01*
X99468571Y-72762380D01*
X99563809Y-72810000D01*
X99611428Y-72857619D01*
X99659047Y-72952857D01*
X99659047Y-73048095D01*
X99611428Y-73143333D01*
X99563809Y-73190952D01*
X99468571Y-73238571D01*
X99135238Y-73238571D01*
X100135238Y-73762380D02*
X100135238Y-72762380D01*
X100516190Y-72762380D01*
X100611428Y-72810000D01*
X100659047Y-72857619D01*
X100706666Y-72952857D01*
X100706666Y-73095714D01*
X100659047Y-73190952D01*
X100611428Y-73238571D01*
X100516190Y-73286190D01*
X100135238Y-73286190D01*
X101087619Y-72857619D02*
X101135238Y-72810000D01*
X101230476Y-72762380D01*
X101468571Y-72762380D01*
X101563809Y-72810000D01*
X101611428Y-72857619D01*
X101659047Y-72952857D01*
X101659047Y-73048095D01*
X101611428Y-73190952D01*
X101040000Y-73762380D01*
X101659047Y-73762380D01*
X120102333Y-66492380D02*
X119769000Y-66016190D01*
X119530904Y-66492380D02*
X119530904Y-65492380D01*
X119911857Y-65492380D01*
X120007095Y-65540000D01*
X120054714Y-65587619D01*
X120102333Y-65682857D01*
X120102333Y-65825714D01*
X120054714Y-65920952D01*
X120007095Y-65968571D01*
X119911857Y-66016190D01*
X119530904Y-66016190D01*
X120959476Y-65492380D02*
X120769000Y-65492380D01*
X120673761Y-65540000D01*
X120626142Y-65587619D01*
X120530904Y-65730476D01*
X120483285Y-65920952D01*
X120483285Y-66301904D01*
X120530904Y-66397142D01*
X120578523Y-66444761D01*
X120673761Y-66492380D01*
X120864238Y-66492380D01*
X120959476Y-66444761D01*
X121007095Y-66397142D01*
X121054714Y-66301904D01*
X121054714Y-66063809D01*
X121007095Y-65968571D01*
X120959476Y-65920952D01*
X120864238Y-65873333D01*
X120673761Y-65873333D01*
X120578523Y-65920952D01*
X120530904Y-65968571D01*
X120483285Y-66063809D01*
X81224380Y-97416857D02*
X80748190Y-97750190D01*
X81224380Y-97988285D02*
X80224380Y-97988285D01*
X80224380Y-97607333D01*
X80272000Y-97512095D01*
X80319619Y-97464476D01*
X80414857Y-97416857D01*
X80557714Y-97416857D01*
X80652952Y-97464476D01*
X80700571Y-97512095D01*
X80748190Y-97607333D01*
X80748190Y-97988285D01*
X81224380Y-96464476D02*
X81224380Y-97035904D01*
X81224380Y-96750190D02*
X80224380Y-96750190D01*
X80367238Y-96845428D01*
X80462476Y-96940666D01*
X80510095Y-97035904D01*
X80557714Y-95607333D02*
X81224380Y-95607333D01*
X80176761Y-95845428D02*
X80891047Y-96083523D01*
X80891047Y-95464476D01*
X102084333Y-106497380D02*
X101751000Y-106021190D01*
X101512904Y-106497380D02*
X101512904Y-105497380D01*
X101893857Y-105497380D01*
X101989095Y-105545000D01*
X102036714Y-105592619D01*
X102084333Y-105687857D01*
X102084333Y-105830714D01*
X102036714Y-105925952D01*
X101989095Y-105973571D01*
X101893857Y-106021190D01*
X101512904Y-106021190D01*
X102417666Y-105497380D02*
X103084333Y-105497380D01*
X102655761Y-106497380D01*
X108799333Y-105862380D02*
X108466000Y-105386190D01*
X108227904Y-105862380D02*
X108227904Y-104862380D01*
X108608857Y-104862380D01*
X108704095Y-104910000D01*
X108751714Y-104957619D01*
X108799333Y-105052857D01*
X108799333Y-105195714D01*
X108751714Y-105290952D01*
X108704095Y-105338571D01*
X108608857Y-105386190D01*
X108227904Y-105386190D01*
X109132666Y-104862380D02*
X109751714Y-104862380D01*
X109418380Y-105243333D01*
X109561238Y-105243333D01*
X109656476Y-105290952D01*
X109704095Y-105338571D01*
X109751714Y-105433809D01*
X109751714Y-105671904D01*
X109704095Y-105767142D01*
X109656476Y-105814761D01*
X109561238Y-105862380D01*
X109275523Y-105862380D01*
X109180285Y-105814761D01*
X109132666Y-105767142D01*
D11*
X153860714Y-89949457D02*
X153947800Y-89978485D01*
X153976828Y-90007514D01*
X154005857Y-90065571D01*
X154005857Y-90152657D01*
X153976828Y-90210714D01*
X153947800Y-90239742D01*
X153889742Y-90268771D01*
X153657514Y-90268771D01*
X153657514Y-89659171D01*
X153860714Y-89659171D01*
X153918771Y-89688200D01*
X153947800Y-89717228D01*
X153976828Y-89775285D01*
X153976828Y-89833342D01*
X153947800Y-89891400D01*
X153918771Y-89920428D01*
X153860714Y-89949457D01*
X153657514Y-89949457D01*
X154528371Y-90268771D02*
X154528371Y-89949457D01*
X154499342Y-89891400D01*
X154441285Y-89862371D01*
X154325171Y-89862371D01*
X154267114Y-89891400D01*
X154528371Y-90239742D02*
X154470314Y-90268771D01*
X154325171Y-90268771D01*
X154267114Y-90239742D01*
X154238085Y-90181685D01*
X154238085Y-90123628D01*
X154267114Y-90065571D01*
X154325171Y-90036542D01*
X154470314Y-90036542D01*
X154528371Y-90007514D01*
X154731571Y-89862371D02*
X154963800Y-89862371D01*
X154818657Y-89659171D02*
X154818657Y-90181685D01*
X154847685Y-90239742D01*
X154905742Y-90268771D01*
X154963800Y-90268771D01*
X155079914Y-89862371D02*
X155312142Y-89862371D01*
X155167000Y-89659171D02*
X155167000Y-90181685D01*
X155196028Y-90239742D01*
X155254085Y-90268771D01*
X155312142Y-90268771D01*
X155747571Y-90239742D02*
X155689514Y-90268771D01*
X155573400Y-90268771D01*
X155515342Y-90239742D01*
X155486314Y-90181685D01*
X155486314Y-89949457D01*
X155515342Y-89891400D01*
X155573400Y-89862371D01*
X155689514Y-89862371D01*
X155747571Y-89891400D01*
X155776600Y-89949457D01*
X155776600Y-90007514D01*
X155486314Y-90065571D01*
X156037857Y-90268771D02*
X156037857Y-89862371D01*
X156037857Y-89978485D02*
X156066885Y-89920428D01*
X156095914Y-89891400D01*
X156153971Y-89862371D01*
X156212028Y-89862371D01*
X156357171Y-89862371D02*
X156502314Y-90268771D01*
X156647457Y-89862371D02*
X156502314Y-90268771D01*
X156444257Y-90413914D01*
X156415228Y-90442942D01*
X156357171Y-90471971D01*
X156908714Y-90268771D02*
X157024828Y-90268771D01*
X157082885Y-90239742D01*
X157111914Y-90210714D01*
X157169971Y-90123628D01*
X157199000Y-90007514D01*
X157199000Y-89775285D01*
X157169971Y-89717228D01*
X157140942Y-89688200D01*
X157082885Y-89659171D01*
X156966771Y-89659171D01*
X156908714Y-89688200D01*
X156879685Y-89717228D01*
X156850657Y-89775285D01*
X156850657Y-89920428D01*
X156879685Y-89978485D01*
X156908714Y-90007514D01*
X156966771Y-90036542D01*
X157082885Y-90036542D01*
X157140942Y-90007514D01*
X157169971Y-89978485D01*
X157199000Y-89920428D01*
X157373171Y-89659171D02*
X157576371Y-90268771D01*
X157779571Y-89659171D01*
X152685942Y-83853971D02*
X152685942Y-83244371D01*
X152918171Y-83244371D01*
X152976228Y-83273400D01*
X153005257Y-83302428D01*
X153034285Y-83360485D01*
X153034285Y-83447571D01*
X153005257Y-83505628D01*
X152976228Y-83534657D01*
X152918171Y-83563685D01*
X152685942Y-83563685D01*
X153382628Y-83853971D02*
X153324571Y-83824942D01*
X153295542Y-83766885D01*
X153295542Y-83244371D01*
X153876114Y-83853971D02*
X153876114Y-83534657D01*
X153847085Y-83476600D01*
X153789028Y-83447571D01*
X153672914Y-83447571D01*
X153614857Y-83476600D01*
X153876114Y-83824942D02*
X153818057Y-83853971D01*
X153672914Y-83853971D01*
X153614857Y-83824942D01*
X153585828Y-83766885D01*
X153585828Y-83708828D01*
X153614857Y-83650771D01*
X153672914Y-83621742D01*
X153818057Y-83621742D01*
X153876114Y-83592714D01*
X154427657Y-83824942D02*
X154369600Y-83853971D01*
X154253485Y-83853971D01*
X154195428Y-83824942D01*
X154166400Y-83795914D01*
X154137371Y-83737857D01*
X154137371Y-83563685D01*
X154166400Y-83505628D01*
X154195428Y-83476600D01*
X154253485Y-83447571D01*
X154369600Y-83447571D01*
X154427657Y-83476600D01*
X154921142Y-83824942D02*
X154863085Y-83853971D01*
X154746971Y-83853971D01*
X154688914Y-83824942D01*
X154659885Y-83766885D01*
X154659885Y-83534657D01*
X154688914Y-83476600D01*
X154746971Y-83447571D01*
X154863085Y-83447571D01*
X154921142Y-83476600D01*
X154950171Y-83534657D01*
X154950171Y-83592714D01*
X154659885Y-83650771D01*
X155211428Y-83853971D02*
X155211428Y-83244371D01*
X155211428Y-83534657D02*
X155559771Y-83534657D01*
X155559771Y-83853971D02*
X155559771Y-83244371D01*
X155937142Y-83853971D02*
X155879085Y-83824942D01*
X155850057Y-83795914D01*
X155821028Y-83737857D01*
X155821028Y-83563685D01*
X155850057Y-83505628D01*
X155879085Y-83476600D01*
X155937142Y-83447571D01*
X156024228Y-83447571D01*
X156082285Y-83476600D01*
X156111314Y-83505628D01*
X156140342Y-83563685D01*
X156140342Y-83737857D01*
X156111314Y-83795914D01*
X156082285Y-83824942D01*
X156024228Y-83853971D01*
X155937142Y-83853971D01*
X156488685Y-83853971D02*
X156430628Y-83824942D01*
X156401600Y-83766885D01*
X156401600Y-83244371D01*
X156982171Y-83853971D02*
X156982171Y-83244371D01*
X156982171Y-83824942D02*
X156924114Y-83853971D01*
X156808000Y-83853971D01*
X156749942Y-83824942D01*
X156720914Y-83795914D01*
X156691885Y-83737857D01*
X156691885Y-83563685D01*
X156720914Y-83505628D01*
X156749942Y-83476600D01*
X156808000Y-83447571D01*
X156924114Y-83447571D01*
X156982171Y-83476600D01*
X157504685Y-83824942D02*
X157446628Y-83853971D01*
X157330514Y-83853971D01*
X157272457Y-83824942D01*
X157243428Y-83766885D01*
X157243428Y-83534657D01*
X157272457Y-83476600D01*
X157330514Y-83447571D01*
X157446628Y-83447571D01*
X157504685Y-83476600D01*
X157533714Y-83534657D01*
X157533714Y-83592714D01*
X157243428Y-83650771D01*
X157794971Y-83853971D02*
X157794971Y-83447571D01*
X157794971Y-83563685D02*
X157824000Y-83505628D01*
X157853028Y-83476600D01*
X157911085Y-83447571D01*
X157969142Y-83447571D01*
D10*
X128703333Y-87072380D02*
X128370000Y-86596190D01*
X128131904Y-87072380D02*
X128131904Y-86072380D01*
X128512857Y-86072380D01*
X128608095Y-86120000D01*
X128655714Y-86167619D01*
X128703333Y-86262857D01*
X128703333Y-86405714D01*
X128655714Y-86500952D01*
X128608095Y-86548571D01*
X128512857Y-86596190D01*
X128131904Y-86596190D01*
X129179523Y-87072380D02*
X129370000Y-87072380D01*
X129465238Y-87024761D01*
X129512857Y-86977142D01*
X129608095Y-86834285D01*
X129655714Y-86643809D01*
X129655714Y-86262857D01*
X129608095Y-86167619D01*
X129560476Y-86120000D01*
X129465238Y-86072380D01*
X129274761Y-86072380D01*
X129179523Y-86120000D01*
X129131904Y-86167619D01*
X129084285Y-86262857D01*
X129084285Y-86500952D01*
X129131904Y-86596190D01*
X129179523Y-86643809D01*
X129274761Y-86691428D01*
X129465238Y-86691428D01*
X129560476Y-86643809D01*
X129608095Y-86596190D01*
X129655714Y-86500952D01*
X91273333Y-67622380D02*
X90940000Y-67146190D01*
X90701904Y-67622380D02*
X90701904Y-66622380D01*
X91082857Y-66622380D01*
X91178095Y-66670000D01*
X91225714Y-66717619D01*
X91273333Y-66812857D01*
X91273333Y-66955714D01*
X91225714Y-67050952D01*
X91178095Y-67098571D01*
X91082857Y-67146190D01*
X90701904Y-67146190D01*
X92130476Y-66955714D02*
X92130476Y-67622380D01*
X91892380Y-66574761D02*
X91654285Y-67289047D01*
X92273333Y-67289047D01*
X119848333Y-93067142D02*
X119800714Y-93114761D01*
X119657857Y-93162380D01*
X119562619Y-93162380D01*
X119419761Y-93114761D01*
X119324523Y-93019523D01*
X119276904Y-92924285D01*
X119229285Y-92733809D01*
X119229285Y-92590952D01*
X119276904Y-92400476D01*
X119324523Y-92305238D01*
X119419761Y-92210000D01*
X119562619Y-92162380D01*
X119657857Y-92162380D01*
X119800714Y-92210000D01*
X119848333Y-92257619D01*
X120181666Y-92162380D02*
X120848333Y-92162380D01*
X120419761Y-93162380D01*
X91656142Y-101926666D02*
X91703761Y-101974285D01*
X91751380Y-102117142D01*
X91751380Y-102212380D01*
X91703761Y-102355238D01*
X91608523Y-102450476D01*
X91513285Y-102498095D01*
X91322809Y-102545714D01*
X91179952Y-102545714D01*
X90989476Y-102498095D01*
X90894238Y-102450476D01*
X90799000Y-102355238D01*
X90751380Y-102212380D01*
X90751380Y-102117142D01*
X90799000Y-101974285D01*
X90846619Y-101926666D01*
X91084714Y-101069523D02*
X91751380Y-101069523D01*
X90703761Y-101307619D02*
X91418047Y-101545714D01*
X91418047Y-100926666D01*
X136881904Y-86472380D02*
X136881904Y-85472380D01*
X137120000Y-85472380D01*
X137262857Y-85520000D01*
X137358095Y-85615238D01*
X137405714Y-85710476D01*
X137453333Y-85900952D01*
X137453333Y-86043809D01*
X137405714Y-86234285D01*
X137358095Y-86329523D01*
X137262857Y-86424761D01*
X137120000Y-86472380D01*
X136881904Y-86472380D01*
X138405714Y-86472380D02*
X137834285Y-86472380D01*
X138120000Y-86472380D02*
X138120000Y-85472380D01*
X138024761Y-85615238D01*
X137929523Y-85710476D01*
X137834285Y-85758095D01*
X104005142Y-102432380D02*
X103671809Y-101956190D01*
X103433714Y-102432380D02*
X103433714Y-101432380D01*
X103814666Y-101432380D01*
X103909904Y-101480000D01*
X103957523Y-101527619D01*
X104005142Y-101622857D01*
X104005142Y-101765714D01*
X103957523Y-101860952D01*
X103909904Y-101908571D01*
X103814666Y-101956190D01*
X103433714Y-101956190D01*
X104957523Y-102432380D02*
X104386095Y-102432380D01*
X104671809Y-102432380D02*
X104671809Y-101432380D01*
X104576571Y-101575238D01*
X104481333Y-101670476D01*
X104386095Y-101718095D01*
X105290857Y-101432380D02*
X105909904Y-101432380D01*
X105576571Y-101813333D01*
X105719428Y-101813333D01*
X105814666Y-101860952D01*
X105862285Y-101908571D01*
X105909904Y-102003809D01*
X105909904Y-102241904D01*
X105862285Y-102337142D01*
X105814666Y-102384761D01*
X105719428Y-102432380D01*
X105433714Y-102432380D01*
X105338476Y-102384761D01*
X105290857Y-102337142D01*
X112158571Y-105952380D02*
X111825238Y-105476190D01*
X111587142Y-105952380D02*
X111587142Y-104952380D01*
X111968095Y-104952380D01*
X112063333Y-105000000D01*
X112110952Y-105047619D01*
X112158571Y-105142857D01*
X112158571Y-105285714D01*
X112110952Y-105380952D01*
X112063333Y-105428571D01*
X111968095Y-105476190D01*
X111587142Y-105476190D01*
X112444285Y-104952380D02*
X112777619Y-105952380D01*
X113110952Y-104952380D01*
X113968095Y-105952380D02*
X113396666Y-105952380D01*
X113682380Y-105952380D02*
X113682380Y-104952380D01*
X113587142Y-105095238D01*
X113491904Y-105190476D01*
X113396666Y-105238095D01*
X114872857Y-104952380D02*
X114396666Y-104952380D01*
X114349047Y-105428571D01*
X114396666Y-105380952D01*
X114491904Y-105333333D01*
X114730000Y-105333333D01*
X114825238Y-105380952D01*
X114872857Y-105428571D01*
X114920476Y-105523809D01*
X114920476Y-105761904D01*
X114872857Y-105857142D01*
X114825238Y-105904761D01*
X114730000Y-105952380D01*
X114491904Y-105952380D01*
X114396666Y-105904761D01*
X114349047Y-105857142D01*
X86621904Y-59252380D02*
X86621904Y-58252380D01*
X86860000Y-58252380D01*
X87002857Y-58300000D01*
X87098095Y-58395238D01*
X87145714Y-58490476D01*
X87193333Y-58680952D01*
X87193333Y-58823809D01*
X87145714Y-59014285D01*
X87098095Y-59109523D01*
X87002857Y-59204761D01*
X86860000Y-59252380D01*
X86621904Y-59252380D01*
X87526666Y-58252380D02*
X88145714Y-58252380D01*
X87812380Y-58633333D01*
X87955238Y-58633333D01*
X88050476Y-58680952D01*
X88098095Y-58728571D01*
X88145714Y-58823809D01*
X88145714Y-59061904D01*
X88098095Y-59157142D01*
X88050476Y-59204761D01*
X87955238Y-59252380D01*
X87669523Y-59252380D01*
X87574285Y-59204761D01*
X87526666Y-59157142D01*
X124888380Y-73151904D02*
X125697904Y-73151904D01*
X125793142Y-73104285D01*
X125840761Y-73056666D01*
X125888380Y-72961428D01*
X125888380Y-72770952D01*
X125840761Y-72675714D01*
X125793142Y-72628095D01*
X125697904Y-72580476D01*
X124888380Y-72580476D01*
X124983619Y-72151904D02*
X124936000Y-72104285D01*
X124888380Y-72009047D01*
X124888380Y-71770952D01*
X124936000Y-71675714D01*
X124983619Y-71628095D01*
X125078857Y-71580476D01*
X125174095Y-71580476D01*
X125316952Y-71628095D01*
X125888380Y-72199523D01*
X125888380Y-71580476D01*
X81256142Y-78112857D02*
X81303761Y-78160476D01*
X81351380Y-78303333D01*
X81351380Y-78398571D01*
X81303761Y-78541428D01*
X81208523Y-78636666D01*
X81113285Y-78684285D01*
X80922809Y-78731904D01*
X80779952Y-78731904D01*
X80589476Y-78684285D01*
X80494238Y-78636666D01*
X80399000Y-78541428D01*
X80351380Y-78398571D01*
X80351380Y-78303333D01*
X80399000Y-78160476D01*
X80446619Y-78112857D01*
X81351380Y-77160476D02*
X81351380Y-77731904D01*
X81351380Y-77446190D02*
X80351380Y-77446190D01*
X80494238Y-77541428D01*
X80589476Y-77636666D01*
X80637095Y-77731904D01*
X80351380Y-76827142D02*
X80351380Y-76208095D01*
X80732333Y-76541428D01*
X80732333Y-76398571D01*
X80779952Y-76303333D01*
X80827571Y-76255714D01*
X80922809Y-76208095D01*
X81160904Y-76208095D01*
X81256142Y-76255714D01*
X81303761Y-76303333D01*
X81351380Y-76398571D01*
X81351380Y-76684285D01*
X81303761Y-76779523D01*
X81256142Y-76827142D01*
X121687142Y-58142380D02*
X121353809Y-57666190D01*
X121115714Y-58142380D02*
X121115714Y-57142380D01*
X121496666Y-57142380D01*
X121591904Y-57190000D01*
X121639523Y-57237619D01*
X121687142Y-57332857D01*
X121687142Y-57475714D01*
X121639523Y-57570952D01*
X121591904Y-57618571D01*
X121496666Y-57666190D01*
X121115714Y-57666190D01*
X122639523Y-58142380D02*
X122068095Y-58142380D01*
X122353809Y-58142380D02*
X122353809Y-57142380D01*
X122258571Y-57285238D01*
X122163333Y-57380476D01*
X122068095Y-57428095D01*
X123496666Y-57142380D02*
X123306190Y-57142380D01*
X123210952Y-57190000D01*
X123163333Y-57237619D01*
X123068095Y-57380476D01*
X123020476Y-57570952D01*
X123020476Y-57951904D01*
X123068095Y-58047142D01*
X123115714Y-58094761D01*
X123210952Y-58142380D01*
X123401428Y-58142380D01*
X123496666Y-58094761D01*
X123544285Y-58047142D01*
X123591904Y-57951904D01*
X123591904Y-57713809D01*
X123544285Y-57618571D01*
X123496666Y-57570952D01*
X123401428Y-57523333D01*
X123210952Y-57523333D01*
X123115714Y-57570952D01*
X123068095Y-57618571D01*
X123020476Y-57713809D01*
X97243095Y-95602380D02*
X97243095Y-96411904D01*
X97290714Y-96507142D01*
X97338333Y-96554761D01*
X97433571Y-96602380D01*
X97624047Y-96602380D01*
X97719285Y-96554761D01*
X97766904Y-96507142D01*
X97814523Y-96411904D01*
X97814523Y-95602380D01*
X98814523Y-96602380D02*
X98243095Y-96602380D01*
X98528809Y-96602380D02*
X98528809Y-95602380D01*
X98433571Y-95745238D01*
X98338333Y-95840476D01*
X98243095Y-95888095D01*
X138206904Y-108527380D02*
X138206904Y-107527380D01*
X138445000Y-107527380D01*
X138587857Y-107575000D01*
X138683095Y-107670238D01*
X138730714Y-107765476D01*
X138778333Y-107955952D01*
X138778333Y-108098809D01*
X138730714Y-108289285D01*
X138683095Y-108384523D01*
X138587857Y-108479761D01*
X138445000Y-108527380D01*
X138206904Y-108527380D01*
X139159285Y-107622619D02*
X139206904Y-107575000D01*
X139302142Y-107527380D01*
X139540238Y-107527380D01*
X139635476Y-107575000D01*
X139683095Y-107622619D01*
X139730714Y-107717857D01*
X139730714Y-107813095D01*
X139683095Y-107955952D01*
X139111666Y-108527380D01*
X139730714Y-108527380D01*
X100387680Y-92947200D02*
X100535207Y-92917011D01*
X100741404Y-92797963D01*
X100800073Y-92709105D01*
X100817503Y-92644056D01*
X100811123Y-92537768D01*
X100763504Y-92455289D01*
X100674646Y-92396620D01*
X100609597Y-92379191D01*
X100503309Y-92385570D01*
X100314542Y-92439569D01*
X100208254Y-92445949D01*
X100143205Y-92428519D01*
X100054347Y-92369850D01*
X100006728Y-92287371D01*
X100000348Y-92181083D01*
X100017778Y-92116034D01*
X100076447Y-92027176D01*
X100282643Y-91908128D01*
X100430171Y-91877939D01*
X100695036Y-91670033D02*
X101401233Y-92417011D01*
X101209047Y-91703183D01*
X101731147Y-92226535D01*
X101437344Y-91241462D01*
X102720891Y-91655106D02*
X102226019Y-91940821D01*
X102473455Y-91797963D02*
X101973455Y-90931938D01*
X101962405Y-91103275D01*
X101927545Y-91233373D01*
X101868876Y-91322231D01*
X126833333Y-92908380D02*
X126500000Y-92432190D01*
X126261904Y-92908380D02*
X126261904Y-91908380D01*
X126642857Y-91908380D01*
X126738095Y-91956000D01*
X126785714Y-92003619D01*
X126833333Y-92098857D01*
X126833333Y-92241714D01*
X126785714Y-92336952D01*
X126738095Y-92384571D01*
X126642857Y-92432190D01*
X126261904Y-92432190D01*
X127404761Y-92336952D02*
X127309523Y-92289333D01*
X127261904Y-92241714D01*
X127214285Y-92146476D01*
X127214285Y-92098857D01*
X127261904Y-92003619D01*
X127309523Y-91956000D01*
X127404761Y-91908380D01*
X127595238Y-91908380D01*
X127690476Y-91956000D01*
X127738095Y-92003619D01*
X127785714Y-92098857D01*
X127785714Y-92146476D01*
X127738095Y-92241714D01*
X127690476Y-92289333D01*
X127595238Y-92336952D01*
X127404761Y-92336952D01*
X127309523Y-92384571D01*
X127261904Y-92432190D01*
X127214285Y-92527428D01*
X127214285Y-92717904D01*
X127261904Y-92813142D01*
X127309523Y-92860761D01*
X127404761Y-92908380D01*
X127595238Y-92908380D01*
X127690476Y-92860761D01*
X127738095Y-92813142D01*
X127785714Y-92717904D01*
X127785714Y-92527428D01*
X127738095Y-92432190D01*
X127690476Y-92384571D01*
X127595238Y-92336952D01*
X104035833Y-96179142D02*
X103988214Y-96226761D01*
X103845357Y-96274380D01*
X103750119Y-96274380D01*
X103607261Y-96226761D01*
X103512023Y-96131523D01*
X103464404Y-96036285D01*
X103416785Y-95845809D01*
X103416785Y-95702952D01*
X103464404Y-95512476D01*
X103512023Y-95417238D01*
X103607261Y-95322000D01*
X103750119Y-95274380D01*
X103845357Y-95274380D01*
X103988214Y-95322000D01*
X104035833Y-95369619D01*
X104512023Y-96274380D02*
X104702500Y-96274380D01*
X104797738Y-96226761D01*
X104845357Y-96179142D01*
X104940595Y-96036285D01*
X104988214Y-95845809D01*
X104988214Y-95464857D01*
X104940595Y-95369619D01*
X104892976Y-95322000D01*
X104797738Y-95274380D01*
X104607261Y-95274380D01*
X104512023Y-95322000D01*
X104464404Y-95369619D01*
X104416785Y-95464857D01*
X104416785Y-95702952D01*
X104464404Y-95798190D01*
X104512023Y-95845809D01*
X104607261Y-95893428D01*
X104797738Y-95893428D01*
X104892976Y-95845809D01*
X104940595Y-95798190D01*
X104988214Y-95702952D01*
X109450142Y-96686666D02*
X109497761Y-96734285D01*
X109545380Y-96877142D01*
X109545380Y-96972380D01*
X109497761Y-97115238D01*
X109402523Y-97210476D01*
X109307285Y-97258095D01*
X109116809Y-97305714D01*
X108973952Y-97305714D01*
X108783476Y-97258095D01*
X108688238Y-97210476D01*
X108593000Y-97115238D01*
X108545380Y-96972380D01*
X108545380Y-96877142D01*
X108593000Y-96734285D01*
X108640619Y-96686666D01*
X108973952Y-96115238D02*
X108926333Y-96210476D01*
X108878714Y-96258095D01*
X108783476Y-96305714D01*
X108735857Y-96305714D01*
X108640619Y-96258095D01*
X108593000Y-96210476D01*
X108545380Y-96115238D01*
X108545380Y-95924761D01*
X108593000Y-95829523D01*
X108640619Y-95781904D01*
X108735857Y-95734285D01*
X108783476Y-95734285D01*
X108878714Y-95781904D01*
X108926333Y-95829523D01*
X108973952Y-95924761D01*
X108973952Y-96115238D01*
X109021571Y-96210476D01*
X109069190Y-96258095D01*
X109164428Y-96305714D01*
X109354904Y-96305714D01*
X109450142Y-96258095D01*
X109497761Y-96210476D01*
X109545380Y-96115238D01*
X109545380Y-95924761D01*
X109497761Y-95829523D01*
X109450142Y-95781904D01*
X109354904Y-95734285D01*
X109164428Y-95734285D01*
X109069190Y-95781904D01*
X109021571Y-95829523D01*
X108973952Y-95924761D01*
X121847142Y-61652857D02*
X121894761Y-61700476D01*
X121942380Y-61843333D01*
X121942380Y-61938571D01*
X121894761Y-62081428D01*
X121799523Y-62176666D01*
X121704285Y-62224285D01*
X121513809Y-62271904D01*
X121370952Y-62271904D01*
X121180476Y-62224285D01*
X121085238Y-62176666D01*
X120990000Y-62081428D01*
X120942380Y-61938571D01*
X120942380Y-61843333D01*
X120990000Y-61700476D01*
X121037619Y-61652857D01*
X121942380Y-60700476D02*
X121942380Y-61271904D01*
X121942380Y-60986190D02*
X120942380Y-60986190D01*
X121085238Y-61081428D01*
X121180476Y-61176666D01*
X121228095Y-61271904D01*
X121037619Y-60319523D02*
X120990000Y-60271904D01*
X120942380Y-60176666D01*
X120942380Y-59938571D01*
X120990000Y-59843333D01*
X121037619Y-59795714D01*
X121132857Y-59748095D01*
X121228095Y-59748095D01*
X121370952Y-59795714D01*
X121942380Y-60367142D01*
X121942380Y-59748095D01*
X81351380Y-73191666D02*
X80875190Y-73525000D01*
X81351380Y-73763095D02*
X80351380Y-73763095D01*
X80351380Y-73382142D01*
X80399000Y-73286904D01*
X80446619Y-73239285D01*
X80541857Y-73191666D01*
X80684714Y-73191666D01*
X80779952Y-73239285D01*
X80827571Y-73286904D01*
X80875190Y-73382142D01*
X80875190Y-73763095D01*
X81351380Y-72239285D02*
X81351380Y-72810714D01*
X81351380Y-72525000D02*
X80351380Y-72525000D01*
X80494238Y-72620238D01*
X80589476Y-72715476D01*
X80637095Y-72810714D01*
X94321333Y-108148380D02*
X93988000Y-107672190D01*
X93749904Y-108148380D02*
X93749904Y-107148380D01*
X94130857Y-107148380D01*
X94226095Y-107196000D01*
X94273714Y-107243619D01*
X94321333Y-107338857D01*
X94321333Y-107481714D01*
X94273714Y-107576952D01*
X94226095Y-107624571D01*
X94130857Y-107672190D01*
X93749904Y-107672190D01*
X94702285Y-107243619D02*
X94749904Y-107196000D01*
X94845142Y-107148380D01*
X95083238Y-107148380D01*
X95178476Y-107196000D01*
X95226095Y-107243619D01*
X95273714Y-107338857D01*
X95273714Y-107434095D01*
X95226095Y-107576952D01*
X94654666Y-108148380D01*
X95273714Y-108148380D01*
X123023333Y-107672142D02*
X122975714Y-107719761D01*
X122832857Y-107767380D01*
X122737619Y-107767380D01*
X122594761Y-107719761D01*
X122499523Y-107624523D01*
X122451904Y-107529285D01*
X122404285Y-107338809D01*
X122404285Y-107195952D01*
X122451904Y-107005476D01*
X122499523Y-106910238D01*
X122594761Y-106815000D01*
X122737619Y-106767380D01*
X122832857Y-106767380D01*
X122975714Y-106815000D01*
X123023333Y-106862619D01*
X123928095Y-106767380D02*
X123451904Y-106767380D01*
X123404285Y-107243571D01*
X123451904Y-107195952D01*
X123547142Y-107148333D01*
X123785238Y-107148333D01*
X123880476Y-107195952D01*
X123928095Y-107243571D01*
X123975714Y-107338809D01*
X123975714Y-107576904D01*
X123928095Y-107672142D01*
X123880476Y-107719761D01*
X123785238Y-107767380D01*
X123547142Y-107767380D01*
X123451904Y-107719761D01*
X123404285Y-107672142D01*
X120007142Y-100147380D02*
X119673809Y-99671190D01*
X119435714Y-100147380D02*
X119435714Y-99147380D01*
X119816666Y-99147380D01*
X119911904Y-99195000D01*
X119959523Y-99242619D01*
X120007142Y-99337857D01*
X120007142Y-99480714D01*
X119959523Y-99575952D01*
X119911904Y-99623571D01*
X119816666Y-99671190D01*
X119435714Y-99671190D01*
X120959523Y-100147380D02*
X120388095Y-100147380D01*
X120673809Y-100147380D02*
X120673809Y-99147380D01*
X120578571Y-99290238D01*
X120483333Y-99385476D01*
X120388095Y-99433095D01*
X121911904Y-100147380D02*
X121340476Y-100147380D01*
X121626190Y-100147380D02*
X121626190Y-99147380D01*
X121530952Y-99290238D01*
X121435714Y-99385476D01*
X121340476Y-99433095D01*
X90797142Y-63698380D02*
X90463809Y-63222190D01*
X90225714Y-63698380D02*
X90225714Y-62698380D01*
X90606666Y-62698380D01*
X90701904Y-62746000D01*
X90749523Y-62793619D01*
X90797142Y-62888857D01*
X90797142Y-63031714D01*
X90749523Y-63126952D01*
X90701904Y-63174571D01*
X90606666Y-63222190D01*
X90225714Y-63222190D01*
X91749523Y-63698380D02*
X91178095Y-63698380D01*
X91463809Y-63698380D02*
X91463809Y-62698380D01*
X91368571Y-62841238D01*
X91273333Y-62936476D01*
X91178095Y-62984095D01*
X92320952Y-63126952D02*
X92225714Y-63079333D01*
X92178095Y-63031714D01*
X92130476Y-62936476D01*
X92130476Y-62888857D01*
X92178095Y-62793619D01*
X92225714Y-62746000D01*
X92320952Y-62698380D01*
X92511428Y-62698380D01*
X92606666Y-62746000D01*
X92654285Y-62793619D01*
X92701904Y-62888857D01*
X92701904Y-62936476D01*
X92654285Y-63031714D01*
X92606666Y-63079333D01*
X92511428Y-63126952D01*
X92320952Y-63126952D01*
X92225714Y-63174571D01*
X92178095Y-63222190D01*
X92130476Y-63317428D01*
X92130476Y-63507904D01*
X92178095Y-63603142D01*
X92225714Y-63650761D01*
X92320952Y-63698380D01*
X92511428Y-63698380D01*
X92606666Y-63650761D01*
X92654285Y-63603142D01*
X92701904Y-63507904D01*
X92701904Y-63317428D01*
X92654285Y-63222190D01*
X92606666Y-63174571D01*
X92511428Y-63126952D01*
X111577536Y-83510380D02*
X111244203Y-83034190D01*
X111006107Y-83510380D02*
X111006107Y-82510380D01*
X111387060Y-82510380D01*
X111482298Y-82558000D01*
X111529917Y-82605619D01*
X111577536Y-82700857D01*
X111577536Y-82843714D01*
X111529917Y-82938952D01*
X111482298Y-82986571D01*
X111387060Y-83034190D01*
X111006107Y-83034190D01*
X111863250Y-82510380D02*
X112196584Y-83510380D01*
X112529917Y-82510380D01*
X113387060Y-83510380D02*
X112815631Y-83510380D01*
X113101345Y-83510380D02*
X113101345Y-82510380D01*
X113006107Y-82653238D01*
X112910869Y-82748476D01*
X112815631Y-82796095D01*
X114006107Y-82510380D02*
X114101345Y-82510380D01*
X114196584Y-82558000D01*
X114244203Y-82605619D01*
X114291822Y-82700857D01*
X114339441Y-82891333D01*
X114339441Y-83129428D01*
X114291822Y-83319904D01*
X114244203Y-83415142D01*
X114196584Y-83462761D01*
X114101345Y-83510380D01*
X114006107Y-83510380D01*
X113910869Y-83462761D01*
X113863250Y-83415142D01*
X113815631Y-83319904D01*
X113768012Y-83129428D01*
X113768012Y-82891333D01*
X113815631Y-82700857D01*
X113863250Y-82605619D01*
X113910869Y-82558000D01*
X114006107Y-82510380D01*
X123452142Y-95702380D02*
X123118809Y-95226190D01*
X122880714Y-95702380D02*
X122880714Y-94702380D01*
X123261666Y-94702380D01*
X123356904Y-94750000D01*
X123404523Y-94797619D01*
X123452142Y-94892857D01*
X123452142Y-95035714D01*
X123404523Y-95130952D01*
X123356904Y-95178571D01*
X123261666Y-95226190D01*
X122880714Y-95226190D01*
X124404523Y-95702380D02*
X123833095Y-95702380D01*
X124118809Y-95702380D02*
X124118809Y-94702380D01*
X124023571Y-94845238D01*
X123928333Y-94940476D01*
X123833095Y-94988095D01*
X124737857Y-94702380D02*
X125404523Y-94702380D01*
X124975952Y-95702380D01*
X110196333Y-108053142D02*
X110148714Y-108100761D01*
X110005857Y-108148380D01*
X109910619Y-108148380D01*
X109767761Y-108100761D01*
X109672523Y-108005523D01*
X109624904Y-107910285D01*
X109577285Y-107719809D01*
X109577285Y-107576952D01*
X109624904Y-107386476D01*
X109672523Y-107291238D01*
X109767761Y-107196000D01*
X109910619Y-107148380D01*
X110005857Y-107148380D01*
X110148714Y-107196000D01*
X110196333Y-107243619D01*
X111053476Y-107148380D02*
X110863000Y-107148380D01*
X110767761Y-107196000D01*
X110720142Y-107243619D01*
X110624904Y-107386476D01*
X110577285Y-107576952D01*
X110577285Y-107957904D01*
X110624904Y-108053142D01*
X110672523Y-108100761D01*
X110767761Y-108148380D01*
X110958238Y-108148380D01*
X111053476Y-108100761D01*
X111101095Y-108053142D01*
X111148714Y-107957904D01*
X111148714Y-107719809D01*
X111101095Y-107624571D01*
X111053476Y-107576952D01*
X110958238Y-107529333D01*
X110767761Y-107529333D01*
X110672523Y-107576952D01*
X110624904Y-107624571D01*
X110577285Y-107719809D01*
X106846726Y-66238380D02*
X106513393Y-65762190D01*
X106275298Y-66238380D02*
X106275298Y-65238380D01*
X106656250Y-65238380D01*
X106751488Y-65286000D01*
X106799107Y-65333619D01*
X106846726Y-65428857D01*
X106846726Y-65571714D01*
X106799107Y-65666952D01*
X106751488Y-65714571D01*
X106656250Y-65762190D01*
X106275298Y-65762190D01*
X107132441Y-65238380D02*
X107465774Y-66238380D01*
X107799107Y-65238380D01*
X108608631Y-65238380D02*
X108132441Y-65238380D01*
X108084822Y-65714571D01*
X108132441Y-65666952D01*
X108227679Y-65619333D01*
X108465774Y-65619333D01*
X108561012Y-65666952D01*
X108608631Y-65714571D01*
X108656250Y-65809809D01*
X108656250Y-66047904D01*
X108608631Y-66143142D01*
X108561012Y-66190761D01*
X108465774Y-66238380D01*
X108227679Y-66238380D01*
X108132441Y-66190761D01*
X108084822Y-66143142D01*
X130807142Y-92922380D02*
X130473809Y-92446190D01*
X130235714Y-92922380D02*
X130235714Y-91922380D01*
X130616666Y-91922380D01*
X130711904Y-91970000D01*
X130759523Y-92017619D01*
X130807142Y-92112857D01*
X130807142Y-92255714D01*
X130759523Y-92350952D01*
X130711904Y-92398571D01*
X130616666Y-92446190D01*
X130235714Y-92446190D01*
X131759523Y-92922380D02*
X131188095Y-92922380D01*
X131473809Y-92922380D02*
X131473809Y-91922380D01*
X131378571Y-92065238D01*
X131283333Y-92160476D01*
X131188095Y-92208095D01*
X132140476Y-92017619D02*
X132188095Y-91970000D01*
X132283333Y-91922380D01*
X132521428Y-91922380D01*
X132616666Y-91970000D01*
X132664285Y-92017619D01*
X132711904Y-92112857D01*
X132711904Y-92208095D01*
X132664285Y-92350952D01*
X132092857Y-92922380D01*
X132711904Y-92922380D01*
D12*
X122962936Y-65305000D02*
X123417064Y-65305000D01*
X122962936Y-66775000D02*
X123417064Y-66775000D01*
X82015000Y-93117936D02*
X82015000Y-93572064D01*
X80545000Y-93117936D02*
X80545000Y-93572064D01*
X101573064Y-108431000D02*
X101118936Y-108431000D01*
X101573064Y-106961000D02*
X101118936Y-106961000D01*
X106272064Y-104675000D02*
X105817936Y-104675000D01*
X106272064Y-106145000D02*
X105817936Y-106145000D01*
D13*
X145575000Y-57693000D02*
X165575000Y-57693000D01*
X168575000Y-106693000D02*
X142575000Y-106693000D01*
X142575000Y-106693000D02*
X142575000Y-60693000D01*
X168575000Y-60693000D02*
X168575000Y-106693000D01*
X142575000Y-60693000D02*
X168575000Y-60693000D01*
D12*
X165625000Y-57693000D02*
X165625000Y-60693000D01*
X145525000Y-57693000D02*
X145525000Y-60693000D01*
X129132064Y-87530000D02*
X128677936Y-87530000D01*
X129132064Y-89000000D02*
X128677936Y-89000000D01*
X91212936Y-64670000D02*
X91667064Y-64670000D01*
X91212936Y-66140000D02*
X91667064Y-66140000D01*
X122696248Y-91975000D02*
X123218752Y-91975000D01*
X122696248Y-93445000D02*
X123218752Y-93445000D01*
X92215000Y-101498748D02*
X92215000Y-102021252D01*
X93685000Y-101498748D02*
X93685000Y-102021252D01*
X138750000Y-88280000D02*
X138750000Y-84380000D01*
X138750000Y-88280000D02*
X140750000Y-88280000D01*
X140750000Y-88280000D02*
X140750000Y-84380000D01*
X104875064Y-99595000D02*
X104420936Y-99595000D01*
X104875064Y-101065000D02*
X104420936Y-101065000D01*
D14*
X111607700Y-108857000D02*
X114707700Y-108857000D01*
X114707700Y-108857000D02*
X114707700Y-107257000D01*
X114707700Y-107257000D02*
X111607700Y-107257000D01*
X111607700Y-107257000D02*
X111607700Y-108857000D01*
X117257700Y-100457000D02*
G75*
G03*
X117257700Y-100457000I-4100000J0D01*
G01*
D12*
X90995000Y-57741000D02*
X90264000Y-57741000D01*
X90995000Y-59861000D02*
X90264000Y-59861000D01*
X119320000Y-72390000D02*
X119320000Y-75840000D01*
X119320000Y-72390000D02*
X119320000Y-70440000D01*
X124440000Y-72390000D02*
X124440000Y-74340000D01*
X124440000Y-72390000D02*
X124440000Y-70440000D01*
X81815000Y-77208748D02*
X81815000Y-77731252D01*
X83285000Y-77208748D02*
X83285000Y-77731252D01*
X125957064Y-58520000D02*
X125502936Y-58520000D01*
X125957064Y-57050000D02*
X125502936Y-57050000D01*
X98005000Y-105865000D02*
X96055000Y-105865000D01*
X98005000Y-105865000D02*
X99955000Y-105865000D01*
X98005000Y-96995000D02*
X94555000Y-96995000D01*
X98005000Y-96995000D02*
X99955000Y-96995000D01*
X137660000Y-109290000D02*
X133760000Y-109290000D01*
X137660000Y-109290000D02*
X137660000Y-107290000D01*
X137660000Y-107290000D02*
X133760000Y-107290000D01*
X104158368Y-86294146D02*
G75*
G03*
X102083210Y-90005789I-9068368J2634146D01*
G01*
X102083210Y-90005788D02*
G75*
G03*
X104156476Y-86293597I1251023J1736358D01*
G01*
X126772936Y-90070000D02*
X127227064Y-90070000D01*
X126772936Y-91540000D02*
X127227064Y-91540000D01*
X104463752Y-96865000D02*
X103941248Y-96865000D01*
X104463752Y-98335000D02*
X103941248Y-98335000D01*
X108050000Y-96781252D02*
X108050000Y-96258748D01*
X106580000Y-96781252D02*
X106580000Y-96258748D01*
X122455000Y-61221252D02*
X122455000Y-60698748D01*
X123925000Y-61221252D02*
X123925000Y-60698748D01*
X83285000Y-72797936D02*
X83285000Y-73252064D01*
X81815000Y-72797936D02*
X81815000Y-73252064D01*
X97509064Y-106961000D02*
X97054936Y-106961000D01*
X97509064Y-108431000D02*
X97054936Y-108431000D01*
X123451252Y-106145000D02*
X122928748Y-106145000D01*
X123451252Y-104675000D02*
X122928748Y-104675000D01*
X120422936Y-97055000D02*
X120877064Y-97055000D01*
X120422936Y-98525000D02*
X120877064Y-98525000D01*
X91212936Y-60733000D02*
X91667064Y-60733000D01*
X91212936Y-62203000D02*
X91667064Y-62203000D01*
D14*
X117420700Y-91458000D02*
X120520700Y-91458000D01*
X120520700Y-91458000D02*
X120520700Y-89858000D01*
X120520700Y-89858000D02*
X117420700Y-89858000D01*
X117420700Y-89858000D02*
X117420700Y-91458000D01*
D12*
X123170700Y-83058000D02*
G75*
G03*
X123170700Y-83058000I-4200000J0D01*
G01*
G36*
X147119450Y-107792572D02*
G01*
X147191462Y-107804762D01*
X147249712Y-107829965D01*
X147279564Y-107848940D01*
X147356961Y-107914296D01*
X147421820Y-107991082D01*
X147463501Y-108065066D01*
X147473191Y-108107907D01*
X147467988Y-108130220D01*
X147445567Y-108141895D01*
X147395703Y-108144745D01*
X147308176Y-108140580D01*
X147294057Y-108139655D01*
X147192280Y-108131211D01*
X147099337Y-108120642D01*
X147036817Y-108110513D01*
X146976798Y-108104752D01*
X146938123Y-108128038D01*
X146918600Y-108154503D01*
X146895265Y-108226884D01*
X146913746Y-108294212D01*
X146966817Y-108345360D01*
X147047254Y-108369204D01*
X147058366Y-108369702D01*
X147086681Y-108353830D01*
X147120137Y-108322879D01*
X147164822Y-108292927D01*
X147237215Y-108275085D01*
X147324942Y-108267285D01*
X147411034Y-108263577D01*
X147458369Y-108266368D01*
X147477530Y-108279362D01*
X147479097Y-108306263D01*
X147477318Y-108320623D01*
X147439885Y-108430316D01*
X147360485Y-108538828D01*
X147294300Y-108600094D01*
X147186422Y-108658338D01*
X147055660Y-108684602D01*
X146918657Y-108676569D01*
X146858501Y-108660844D01*
X146748461Y-108599586D01*
X146656976Y-108501984D01*
X146591873Y-108379932D01*
X146560981Y-108245324D01*
X146559531Y-108206570D01*
X146580546Y-108097909D01*
X146635236Y-107985589D01*
X146713364Y-107888613D01*
X146745864Y-107860653D01*
X146802069Y-107822251D01*
X146855649Y-107800708D01*
X146924413Y-107791326D01*
X147015977Y-107789397D01*
X147119450Y-107792572D01*
G37*
G36*
X144607043Y-108666537D02*
G01*
X144261129Y-108666537D01*
X144261129Y-107455837D01*
X144607043Y-107455837D01*
X144607043Y-108666537D01*
G37*
G36*
X143737328Y-107460231D02*
G01*
X143760677Y-107469133D01*
X143842816Y-107510920D01*
X143905968Y-107556886D01*
X143938114Y-107597777D01*
X143939922Y-107607136D01*
X143921470Y-107630829D01*
X143873042Y-107673815D01*
X143805030Y-107726885D01*
X143803461Y-107728046D01*
X143729960Y-107780467D01*
X143683986Y-107805989D01*
X143654471Y-107808575D01*
X143630347Y-107792186D01*
X143628739Y-107790595D01*
X143575937Y-107757776D01*
X143533513Y-107770324D01*
X143505311Y-107824626D01*
X143495175Y-107916161D01*
X143499011Y-107983678D01*
X143515239Y-108016386D01*
X143550769Y-108028583D01*
X143581626Y-108037989D01*
X143599470Y-108063053D01*
X143608893Y-108115612D01*
X143613718Y-108190905D01*
X143616717Y-108275064D01*
X143612796Y-108321261D01*
X143597860Y-108340873D01*
X143567815Y-108345274D01*
X143558125Y-108345331D01*
X143524293Y-108348007D01*
X143505450Y-108363481D01*
X143497217Y-108402926D01*
X143495215Y-108477513D01*
X143495175Y-108505934D01*
X143495175Y-108666537D01*
X143124553Y-108666537D01*
X143124553Y-108235753D01*
X143126054Y-108083725D01*
X143130243Y-107948038D01*
X143136643Y-107837752D01*
X143144781Y-107761927D01*
X143150776Y-107735412D01*
X143195877Y-107656943D01*
X143267849Y-107572260D01*
X143350285Y-107499001D01*
X143401293Y-107466083D01*
X143499962Y-107437002D01*
X143618925Y-107435110D01*
X143737328Y-107460231D01*
G37*
G36*
X154641930Y-108048161D02*
G01*
X154708017Y-107947718D01*
X154814048Y-107849340D01*
X154931680Y-107794429D01*
X155073736Y-107777049D01*
X155076722Y-107777043D01*
X155219123Y-107799013D01*
X155339953Y-107859878D01*
X155434470Y-107952070D01*
X155497934Y-108068022D01*
X155525602Y-108200166D01*
X155512733Y-108340936D01*
X155483581Y-108426390D01*
X155405440Y-108545861D01*
X155294225Y-108630080D01*
X155153980Y-108676420D01*
X155087250Y-108683963D01*
X154976995Y-108682073D01*
X154890624Y-108659077D01*
X154857748Y-108643083D01*
X154735528Y-108552639D01*
X154651061Y-108439685D01*
X154606124Y-108312460D01*
X154603848Y-108229034D01*
X154939821Y-108229034D01*
X154957485Y-108291668D01*
X155009183Y-108338217D01*
X155068162Y-108364010D01*
X155106676Y-108362447D01*
X155147058Y-108330879D01*
X155157432Y-108320623D01*
X155194209Y-108270061D01*
X155206848Y-108229913D01*
X155185410Y-108168703D01*
X155133401Y-108118943D01*
X155069282Y-108098250D01*
X155068889Y-108098249D01*
X154999171Y-108117667D01*
X154954932Y-108166148D01*
X154939821Y-108229034D01*
X154603848Y-108229034D01*
X154602488Y-108179206D01*
X154641930Y-108048161D01*
G37*
G36*
X154386192Y-107420150D02*
G01*
X154403384Y-107433188D01*
X154436131Y-107484489D01*
X154452812Y-107530203D01*
X154448727Y-107599667D01*
X154409017Y-107655503D01*
X154346929Y-107691398D01*
X154275711Y-107701035D01*
X154208609Y-107678101D01*
X154185289Y-107657734D01*
X154153444Y-107595129D01*
X154146318Y-107519562D01*
X154164155Y-107453136D01*
X154182776Y-107430036D01*
X154243926Y-107403954D01*
X154320034Y-107400777D01*
X154386192Y-107420150D01*
G37*
G36*
X148479470Y-107408814D02*
G01*
X148541819Y-107460721D01*
X148580838Y-107534276D01*
X148570543Y-107606414D01*
X148535642Y-107653502D01*
X148466796Y-107693498D01*
X148387627Y-107699244D01*
X148318200Y-107670373D01*
X148304744Y-107657734D01*
X148267199Y-107584289D01*
X148274056Y-107506205D01*
X148323814Y-107437139D01*
X148329505Y-107432489D01*
X148405870Y-107395985D01*
X148479470Y-107408814D01*
G37*
G36*
X157356459Y-108666537D02*
G01*
X157035253Y-108666537D01*
X157035253Y-107801751D01*
X157356459Y-107801751D01*
X157356459Y-108666537D01*
G37*
G36*
X157887685Y-107468191D02*
G01*
X157894301Y-108067364D01*
X157900918Y-108666537D01*
X157554125Y-108666537D01*
X157554125Y-107453579D01*
X157887685Y-107468191D01*
G37*
G36*
X158394203Y-107801751D02*
G01*
X158544616Y-107801751D01*
X158537357Y-107980886D01*
X158532718Y-108073329D01*
X158525179Y-108127438D01*
X158510293Y-108154272D01*
X158483611Y-108164888D01*
X158462150Y-108167838D01*
X158412781Y-108182934D01*
X158394203Y-108205580D01*
X158410149Y-108255113D01*
X158447396Y-108306812D01*
X158490054Y-108340952D01*
X158506790Y-108345331D01*
X158526348Y-108356738D01*
X158537521Y-108396684D01*
X158542082Y-108473753D01*
X158542452Y-108518288D01*
X158541388Y-108608721D01*
X158535901Y-108660340D01*
X158522548Y-108683741D01*
X158497888Y-108689516D01*
X158486858Y-108689366D01*
X158423199Y-108678887D01*
X158357140Y-108658481D01*
X158258557Y-108613901D01*
X158193002Y-108565520D01*
X158144978Y-108500199D01*
X158124820Y-108461490D01*
X158106141Y-108418707D01*
X158092540Y-108373451D01*
X158083227Y-108317243D01*
X158077413Y-108241606D01*
X158074306Y-108138062D01*
X158073118Y-107998131D01*
X158072996Y-107905137D01*
X158072996Y-107455837D01*
X158394203Y-107455837D01*
X158394203Y-107801751D01*
G37*
G36*
X154465603Y-108666537D02*
G01*
X154119689Y-108666537D01*
X154119689Y-107801751D01*
X154465603Y-107801751D01*
X154465603Y-108666537D01*
G37*
G36*
X149003805Y-107906761D02*
G01*
X149049903Y-108011771D01*
X149095448Y-107907012D01*
X149140992Y-107802254D01*
X149298062Y-107802003D01*
X149387056Y-107804604D01*
X149433252Y-107813669D01*
X149443001Y-107830547D01*
X149442249Y-107832637D01*
X149414281Y-107897505D01*
X149373428Y-107989473D01*
X149323649Y-108099920D01*
X149268904Y-108220228D01*
X149213153Y-108341778D01*
X149160353Y-108455949D01*
X149114466Y-108554122D01*
X149079449Y-108627678D01*
X149059263Y-108667998D01*
X149056334Y-108672780D01*
X149040939Y-108658481D01*
X149010434Y-108606322D01*
X148968869Y-108523996D01*
X148920291Y-108419194D01*
X148906759Y-108388636D01*
X148850135Y-108260496D01*
X148793624Y-108134241D01*
X148743708Y-108024262D01*
X148706872Y-107944945D01*
X148706338Y-107943823D01*
X148638717Y-107801751D01*
X148957708Y-107801751D01*
X149003805Y-107906761D01*
G37*
G36*
X160222607Y-107945389D02*
G01*
X160221765Y-108036264D01*
X160216445Y-108088955D01*
X160202455Y-108114693D01*
X160175606Y-108124710D01*
X160154660Y-108127493D01*
X160086712Y-108135312D01*
X160079699Y-108400924D01*
X160072686Y-108666537D01*
X159728444Y-108666537D01*
X159728444Y-108367596D01*
X159731362Y-108209461D01*
X159741877Y-108090554D01*
X159762628Y-108000936D01*
X159796257Y-107930667D01*
X159845404Y-107869810D01*
X159866069Y-107849542D01*
X159922607Y-107811564D01*
X160001037Y-107789878D01*
X160074697Y-107781803D01*
X160222607Y-107771104D01*
X160222607Y-107945389D01*
G37*
G36*
X156662925Y-107441372D02*
G01*
X156815785Y-107490014D01*
X156819911Y-107491958D01*
X156901436Y-107537619D01*
X156938022Y-107580282D01*
X156929817Y-107626817D01*
X156876967Y-107684094D01*
X156824885Y-107725722D01*
X156752503Y-107778961D01*
X156706433Y-107805849D01*
X156674031Y-107810437D01*
X156642652Y-107796779D01*
X156629433Y-107788347D01*
X156584769Y-107763898D01*
X156556532Y-107772904D01*
X156528642Y-107810781D01*
X156498408Y-107883307D01*
X156497475Y-107952049D01*
X156523696Y-108002532D01*
X156559621Y-108019666D01*
X156589923Y-108028299D01*
X156606642Y-108051146D01*
X156613748Y-108100002D01*
X156615214Y-108184728D01*
X156613683Y-108270613D01*
X156606441Y-108318905D01*
X156589517Y-108341399D01*
X156559621Y-108349790D01*
X156528764Y-108359196D01*
X156510920Y-108384259D01*
X156501497Y-108436819D01*
X156496671Y-108512111D01*
X156489315Y-108666537D01*
X156145759Y-108666537D01*
X156145759Y-108220563D01*
X156146561Y-108051949D01*
X156149352Y-107925140D01*
X156154711Y-107832549D01*
X156163217Y-107766585D01*
X156175449Y-107719658D01*
X156185801Y-107695515D01*
X156274330Y-107568076D01*
X156386895Y-107482105D01*
X156518194Y-107439303D01*
X156662925Y-107441372D01*
G37*
G36*
X157214799Y-107395455D02*
G01*
X157302067Y-107440374D01*
X157347850Y-107505242D01*
X157349292Y-107583073D01*
X157317996Y-107648005D01*
X157261270Y-107690726D01*
X157185541Y-107703195D01*
X157111509Y-107684579D01*
X157076145Y-107657734D01*
X157039151Y-107585687D01*
X157049605Y-107508300D01*
X157097435Y-107440825D01*
X157155162Y-107397552D01*
X157208588Y-107393737D01*
X157214799Y-107395455D01*
G37*
G36*
X151488120Y-107437210D02*
G01*
X151599780Y-107456406D01*
X151685437Y-107492222D01*
X151693136Y-107497600D01*
X151745778Y-107540548D01*
X151786000Y-107585627D01*
X151815644Y-107640157D01*
X151836549Y-107711457D01*
X151850557Y-107806848D01*
X151859509Y-107933650D01*
X151865245Y-108099182D01*
X151867307Y-108190230D01*
X151877102Y-108666537D01*
X151500623Y-108666537D01*
X151500623Y-108260617D01*
X151499881Y-108104531D01*
X151497231Y-107990550D01*
X151492035Y-107911382D01*
X151483658Y-107859731D01*
X151471462Y-107828305D01*
X151461796Y-107815870D01*
X151425240Y-107783345D01*
X151399236Y-107785721D01*
X151366493Y-107815870D01*
X151339712Y-107868252D01*
X151327784Y-107945575D01*
X151327666Y-107954078D01*
X151333255Y-108022516D01*
X151354168Y-108056518D01*
X151377082Y-108066382D01*
X151405077Y-108080502D01*
X151420076Y-108112370D01*
X151425866Y-108174302D01*
X151426498Y-108226985D01*
X151424223Y-108311244D01*
X151414872Y-108358512D01*
X151394655Y-108381102D01*
X151377082Y-108387588D01*
X151347815Y-108402925D01*
X151332873Y-108437740D01*
X151327879Y-108504961D01*
X151327666Y-108533524D01*
X151327666Y-108666537D01*
X150957043Y-108666537D01*
X150957043Y-108263337D01*
X150960789Y-108046843D01*
X150973440Y-107873694D01*
X150997117Y-107738287D01*
X151033939Y-107635017D01*
X151086026Y-107558282D01*
X151155498Y-107502478D01*
X151244476Y-107462001D01*
X151262487Y-107455987D01*
X151369380Y-107436460D01*
X151488120Y-107437210D01*
G37*
G36*
X148585059Y-108666537D02*
G01*
X148239144Y-108666537D01*
X148239144Y-107801751D01*
X148585059Y-107801751D01*
X148585059Y-108666537D01*
G37*
G36*
X147942646Y-107801751D02*
G01*
X148093060Y-107801751D01*
X148085801Y-107980886D01*
X148081161Y-108073329D01*
X148073623Y-108127438D01*
X148058737Y-108154272D01*
X148032055Y-108164888D01*
X148010594Y-108167838D01*
X147956740Y-108189141D01*
X147942374Y-108229085D01*
X147967068Y-108277179D01*
X148016614Y-108315595D01*
X148056018Y-108341101D01*
X148078190Y-108370399D01*
X148088085Y-108417448D01*
X148090658Y-108496205D01*
X148090739Y-108524465D01*
X148089677Y-108612899D01*
X148083867Y-108662699D01*
X148069687Y-108684634D01*
X148043515Y-108689472D01*
X148035302Y-108689295D01*
X147971039Y-108679487D01*
X147905584Y-108661064D01*
X147817070Y-108623992D01*
X147747916Y-108578795D01*
X147695625Y-108519174D01*
X147657703Y-108438829D01*
X147631653Y-108331461D01*
X147614981Y-108190771D01*
X147605192Y-108010458D01*
X147601889Y-107894407D01*
X147591932Y-107455837D01*
X147942646Y-107455837D01*
X147942646Y-107801751D01*
G37*
G36*
X146116935Y-107444657D02*
G01*
X146214261Y-107486806D01*
X146272272Y-107529487D01*
X146316691Y-107574118D01*
X146349498Y-107627936D01*
X146372674Y-107698174D01*
X146388200Y-107792071D01*
X146398056Y-107916861D01*
X146404224Y-108079781D01*
X146406801Y-108190230D01*
X146416597Y-108666537D01*
X146040117Y-108666537D01*
X146040117Y-108247368D01*
X146039747Y-108093593D01*
X146038113Y-107981903D01*
X146034428Y-107904966D01*
X146027907Y-107855454D01*
X146017763Y-107826036D01*
X146003210Y-107809381D01*
X145992416Y-107802670D01*
X145937978Y-107794580D01*
X145895836Y-107829023D01*
X145871272Y-107899613D01*
X145867160Y-107954078D01*
X145872749Y-108022516D01*
X145893663Y-108056518D01*
X145916576Y-108066382D01*
X145943808Y-108079818D01*
X145958804Y-108110032D01*
X145965018Y-108168944D01*
X145965992Y-108237026D01*
X145964397Y-108322995D01*
X145957310Y-108370595D01*
X145941285Y-108390832D01*
X145916576Y-108394747D01*
X145888018Y-108400646D01*
X145873142Y-108426149D01*
X145867687Y-108482967D01*
X145867160Y-108530642D01*
X145867160Y-108666537D01*
X145496537Y-108666537D01*
X145496537Y-108263337D01*
X145499515Y-108057561D01*
X145509203Y-107894747D01*
X145526733Y-107768755D01*
X145553238Y-107673445D01*
X145589850Y-107602679D01*
X145626146Y-107560575D01*
X145730695Y-107489936D01*
X145857183Y-107445836D01*
X145990850Y-107430126D01*
X146116935Y-107444657D01*
G37*
G36*
X159270788Y-107797812D02*
G01*
X159393446Y-107855409D01*
X159491123Y-107942770D01*
X159555980Y-108052829D01*
X159580179Y-108178521D01*
X159580195Y-108181915D01*
X159580195Y-108271207D01*
X159058041Y-108271207D01*
X159065859Y-108203259D01*
X159080167Y-108154366D01*
X159118542Y-108132751D01*
X159153979Y-108127569D01*
X159214610Y-108109909D01*
X159233328Y-108079952D01*
X159208453Y-108048800D01*
X159168276Y-108033208D01*
X159099061Y-108038031D01*
X159040797Y-108080731D01*
X159002932Y-108149794D01*
X158994914Y-108233703D01*
X158996192Y-108242931D01*
X159028181Y-108336496D01*
X159084836Y-108389681D01*
X159162127Y-108399768D01*
X159209572Y-108386909D01*
X159250311Y-108396884D01*
X159307506Y-108449543D01*
X159326936Y-108472761D01*
X159372511Y-108533121D01*
X159401608Y-108578271D01*
X159407238Y-108592402D01*
X159385363Y-108616013D01*
X159329725Y-108642698D01*
X159255301Y-108667393D01*
X159177070Y-108685035D01*
X159116417Y-108690703D01*
X159034032Y-108679563D01*
X158943183Y-108652525D01*
X158920776Y-108643177D01*
X158832457Y-108586113D01*
X158752295Y-108505776D01*
X158741641Y-108491764D01*
X158697083Y-108422314D01*
X158674368Y-108358094D01*
X158666745Y-108276212D01*
X158666399Y-108236614D01*
X158687262Y-108079932D01*
X158746886Y-107952596D01*
X158842197Y-107857645D01*
X158970124Y-107798117D01*
X159127595Y-107777051D01*
X159130986Y-107777043D01*
X159270788Y-107797812D01*
G37*
G36*
X153946189Y-107894407D02*
G01*
X153945329Y-108058150D01*
X153942712Y-108181009D01*
X153937593Y-108271506D01*
X153929226Y-108338162D01*
X153916862Y-108389498D01*
X153899757Y-108434038D01*
X153898712Y-108436353D01*
X153823865Y-108545195D01*
X153717378Y-108625746D01*
X153590599Y-108674089D01*
X153454877Y-108686307D01*
X153321558Y-108658482D01*
X153291965Y-108645786D01*
X153163351Y-108561090D01*
X153073544Y-108452772D01*
X153024220Y-108328477D01*
X153017061Y-108195852D01*
X153053743Y-108062545D01*
X153135945Y-107936201D01*
X153136144Y-107935974D01*
X153239437Y-107840974D01*
X153347802Y-107789872D01*
X153451341Y-107777043D01*
X153551401Y-107777043D01*
X153551401Y-108122958D01*
X153482218Y-108122958D01*
X153403841Y-108140131D01*
X153361310Y-108190567D01*
X153353736Y-108238516D01*
X153375390Y-108296914D01*
X153428144Y-108342212D01*
X153493682Y-108361815D01*
X153526898Y-108357620D01*
X153561524Y-108339352D01*
X153587249Y-108305336D01*
X153605290Y-108249166D01*
X153616861Y-108164433D01*
X153623175Y-108044732D01*
X153625447Y-107883654D01*
X153625526Y-107837205D01*
X153625526Y-107455837D01*
X153946732Y-107455837D01*
X153946189Y-107894407D01*
G37*
G36*
X152390117Y-108058162D02*
G01*
X152391645Y-108180347D01*
X152397069Y-108262376D01*
X152407651Y-108313438D01*
X152424654Y-108342722D01*
X152429853Y-108347550D01*
X152472362Y-108365413D01*
X152504038Y-108338557D01*
X152525252Y-108265945D01*
X152536373Y-108146541D01*
X152538366Y-108044111D01*
X152538366Y-107801751D01*
X152863499Y-107801751D01*
X152855359Y-108121245D01*
X152850984Y-108256908D01*
X152844942Y-108352974D01*
X152835723Y-108419260D01*
X152821818Y-108465584D01*
X152801717Y-108501765D01*
X152795530Y-108510399D01*
X152690683Y-108615480D01*
X152566766Y-108675168D01*
X152425796Y-108688760D01*
X152328347Y-108673140D01*
X152232928Y-108627407D01*
X152149453Y-108548437D01*
X152109019Y-108484156D01*
X152089914Y-108428521D01*
X152077514Y-108351405D01*
X152070840Y-108243446D01*
X152068911Y-108100692D01*
X152068911Y-107801751D01*
X152390117Y-107801751D01*
X152390117Y-108058162D01*
G37*
G36*
X142655657Y-107447759D02*
G01*
X142766202Y-107499104D01*
X142848423Y-107587697D01*
X142871294Y-107627852D01*
X142890901Y-107669863D01*
X142905280Y-107712237D01*
X142915235Y-107763279D01*
X142921569Y-107831296D01*
X142925086Y-107924593D01*
X142926590Y-108051477D01*
X142926887Y-108202317D01*
X142926887Y-108666537D01*
X142580973Y-108666537D01*
X142580973Y-108311357D01*
X142579740Y-108136006D01*
X142575522Y-108004044D01*
X142567543Y-107909494D01*
X142555026Y-107846379D01*
X142537195Y-107808720D01*
X142513298Y-107790550D01*
X142461213Y-107790730D01*
X142425726Y-107834795D01*
X142409032Y-107919356D01*
X142408016Y-107953026D01*
X142410753Y-108026013D01*
X142422313Y-108061980D01*
X142447719Y-108073176D01*
X142457432Y-108073541D01*
X142484175Y-108078547D01*
X142499086Y-108100843D01*
X142505522Y-108151349D01*
X142506848Y-108234144D01*
X142505308Y-108321060D01*
X142498448Y-108369518D01*
X142482908Y-108390437D01*
X142457432Y-108394747D01*
X142428875Y-108400646D01*
X142413998Y-108426149D01*
X142408543Y-108482967D01*
X142408016Y-108530642D01*
X142408016Y-108666537D01*
X142037393Y-108666537D01*
X142037393Y-108223399D01*
X142038385Y-108044817D01*
X142042316Y-107907768D01*
X142050617Y-107804389D01*
X142064718Y-107726820D01*
X142086053Y-107667199D01*
X142116050Y-107617665D01*
X142156144Y-107570356D01*
X142156329Y-107570158D01*
X142262847Y-107486321D01*
X142392494Y-107441257D01*
X142512232Y-107431167D01*
X142655657Y-107447759D01*
G37*
G36*
X149944312Y-107781257D02*
G01*
X150100212Y-107808911D01*
X150222280Y-107872563D01*
X150310909Y-107972564D01*
X150366493Y-108109265D01*
X150378852Y-108169780D01*
X150395071Y-108271207D01*
X150133935Y-108271207D01*
X150025406Y-108269389D01*
X149936400Y-108264473D01*
X149877757Y-108257270D01*
X149860179Y-108250786D01*
X149855728Y-108212840D01*
X149861603Y-108176662D01*
X149884089Y-108138021D01*
X149933719Y-108123755D01*
X149959244Y-108122958D01*
X150022986Y-108116075D01*
X150040717Y-108094017D01*
X150014084Y-108054672D01*
X150013191Y-108053775D01*
X149954579Y-108021634D01*
X149894944Y-108031087D01*
X149842898Y-108075260D01*
X149807057Y-108147278D01*
X149795759Y-108227288D01*
X149809202Y-108303595D01*
X149843288Y-108367378D01*
X149888654Y-108406289D01*
X149933564Y-108409012D01*
X149986884Y-108387322D01*
X150000144Y-108381912D01*
X150031578Y-108392515D01*
X150080885Y-108433217D01*
X150125314Y-108481223D01*
X150219057Y-108593370D01*
X150112418Y-108641765D01*
X149990140Y-108678975D01*
X149862934Y-108687387D01*
X149752052Y-108665648D01*
X149749929Y-108664809D01*
X149622957Y-108590404D01*
X149529054Y-108487559D01*
X149470376Y-108365260D01*
X149449078Y-108232493D01*
X149467314Y-108098243D01*
X149527240Y-107971496D01*
X149570570Y-107916909D01*
X149655364Y-107839981D01*
X149744558Y-107796172D01*
X149853804Y-107779801D01*
X149944312Y-107781257D01*
G37*
X120877064Y-95985000D02*
X120422936Y-95985000D01*
X120877064Y-94515000D02*
X120422936Y-94515000D01*
X107703252Y-108431000D02*
X107180748Y-108431000D01*
X107703252Y-106961000D02*
X107180748Y-106961000D01*
D14*
X111606700Y-74186000D02*
X114706700Y-74186000D01*
X114706700Y-74186000D02*
X114706700Y-72586000D01*
X114706700Y-72586000D02*
X111606700Y-72586000D01*
X111606700Y-72586000D02*
X111606700Y-74186000D01*
X117256700Y-65786000D02*
G75*
G03*
X117256700Y-65786000I-4100000J0D01*
G01*
D12*
X131672064Y-91540000D02*
X131217936Y-91540000D01*
X131672064Y-90070000D02*
X131217936Y-90070000D01*
M02*
