G04 #@! TF.GenerationSoftware,KiCad,Pcbnew,(6.0.5)*
G04 #@! TF.CreationDate,2022-05-30T10:59:04+08:00*
G04 #@! TF.ProjectId,miniaf1,6d696e69-6166-4312-9e6b-696361645f70,rev?*
G04 #@! TF.SameCoordinates,Original*
G04 #@! TF.FileFunction,Soldermask,Top*
G04 #@! TF.FilePolarity,Negative*
%FSLAX46Y46*%
G04 Gerber Fmt 4.6, Leading zero omitted, Abs format (unit mm)*
G04 Created by KiCad (PCBNEW (6.0.5)) date 2022-05-30 10:59:04*
%MOMM*%
%LPD*%
G01*
G04 APERTURE LIST*
G04 Aperture macros list*
%AMRoundRect*
0 Rectangle with rounded corners*
0 $1 Rounding radius*
0 $2 $3 $4 $5 $6 $7 $8 $9 X,Y pos of 4 corners*
0 Add a 4 corners polygon primitive as box body*
4,1,4,$2,$3,$4,$5,$6,$7,$8,$9,$2,$3,0*
0 Add four circle primitives for the rounded corners*
1,1,$1+$1,$2,$3*
1,1,$1+$1,$4,$5*
1,1,$1+$1,$6,$7*
1,1,$1+$1,$8,$9*
0 Add four rect primitives between the rounded corners*
20,1,$1+$1,$2,$3,$4,$5,0*
20,1,$1+$1,$4,$5,$6,$7,0*
20,1,$1+$1,$6,$7,$8,$9,0*
20,1,$1+$1,$8,$9,$2,$3,0*%
G04 Aperture macros list end*
%ADD10RoundRect,0.250000X-0.350000X-0.450000X0.350000X-0.450000X0.350000X0.450000X-0.350000X0.450000X0*%
%ADD11RoundRect,0.250000X-0.450000X0.350000X-0.450000X-0.350000X0.450000X-0.350000X0.450000X0.350000X0*%
%ADD12RoundRect,0.250000X0.350000X0.450000X-0.350000X0.450000X-0.350000X-0.450000X0.350000X-0.450000X0*%
%ADD13C,4.400000*%
%ADD14RoundRect,0.250000X-0.337500X-0.475000X0.337500X-0.475000X0.337500X0.475000X-0.337500X0.475000X0*%
%ADD15RoundRect,0.250000X-0.475000X0.337500X-0.475000X-0.337500X0.475000X-0.337500X0.475000X0.337500X0*%
%ADD16R,1.200000X0.900000*%
%ADD17O,3.000000X1.500000*%
%ADD18C,7.600000*%
%ADD19C,2.400000*%
%ADD20R,1.800000X1.800000*%
%ADD21C,1.800000*%
%ADD22RoundRect,0.150000X0.150000X-0.825000X0.150000X0.825000X-0.150000X0.825000X-0.150000X-0.825000X0*%
%ADD23RoundRect,0.150000X-0.825000X-0.150000X0.825000X-0.150000X0.825000X0.150000X-0.825000X0.150000X0*%
%ADD24R,0.900000X1.200000*%
%ADD25C,3.600000*%
%ADD26C,18.000000*%
%ADD27C,1.524000*%
%ADD28RoundRect,0.250000X0.337500X0.475000X-0.337500X0.475000X-0.337500X-0.475000X0.337500X-0.475000X0*%
%ADD29RoundRect,0.250000X0.475000X-0.337500X0.475000X0.337500X-0.475000X0.337500X-0.475000X-0.337500X0*%
%ADD30R,1.700000X1.700000*%
%ADD31O,1.700000X1.700000*%
%ADD32C,1.500000*%
%ADD33R,1.600000X1.600000*%
%ADD34C,1.600000*%
G04 APERTURE END LIST*
D10*
X122190000Y-66040000D03*
X124190000Y-66040000D03*
D11*
X81280000Y-92345000D03*
X81280000Y-94345000D03*
D12*
X102346000Y-107696000D03*
X100346000Y-107696000D03*
D13*
X86230000Y-62730000D03*
D12*
X107045000Y-105410000D03*
X105045000Y-105410000D03*
X129905000Y-88265000D03*
X127905000Y-88265000D03*
D10*
X90440000Y-65405000D03*
X92440000Y-65405000D03*
D13*
X139230000Y-72980000D03*
D14*
X121920000Y-92710000D03*
X123995000Y-92710000D03*
D15*
X92950000Y-100722500D03*
X92950000Y-102797500D03*
D16*
X139750000Y-87680000D03*
X139750000Y-84380000D03*
D12*
X105648000Y-100330000D03*
X103648000Y-100330000D03*
D17*
X113157700Y-108057000D03*
D18*
X113157700Y-100457000D03*
D19*
X127207700Y-105457000D03*
X127207700Y-100457000D03*
X127207700Y-95457000D03*
D20*
X92075000Y-58801000D03*
D21*
X89535000Y-58801000D03*
D22*
X119975000Y-74865000D03*
X121245000Y-74865000D03*
X122515000Y-74865000D03*
X123785000Y-74865000D03*
X123785000Y-69915000D03*
X122515000Y-69915000D03*
X121245000Y-69915000D03*
X119975000Y-69915000D03*
D15*
X82550000Y-76432500D03*
X82550000Y-78507500D03*
D12*
X126730000Y-57785000D03*
X124730000Y-57785000D03*
D23*
X95530000Y-97620000D03*
X95530000Y-98890000D03*
X95530000Y-100160000D03*
X95530000Y-101430000D03*
X95530000Y-102700000D03*
X95530000Y-103970000D03*
X95530000Y-105240000D03*
X100480000Y-105240000D03*
X100480000Y-103970000D03*
X100480000Y-102700000D03*
X100480000Y-101430000D03*
X100480000Y-100160000D03*
X100480000Y-98890000D03*
X100480000Y-97620000D03*
D24*
X137060000Y-108290000D03*
X133760000Y-108290000D03*
D25*
X103296922Y-88274806D03*
D26*
X95090000Y-83660000D03*
D27*
X90974679Y-70332055D03*
X93006730Y-69851670D03*
X97174421Y-69870323D03*
X99310062Y-70369361D03*
X108783267Y-86377434D03*
X108147626Y-88476472D03*
X106093332Y-92318330D03*
X104574679Y-93887945D03*
X85908465Y-94157114D03*
X84288849Y-92551858D03*
X82038849Y-88654744D03*
X81458465Y-86449488D03*
X95052886Y-69725717D03*
X107276091Y-90496929D03*
X83059247Y-90622124D03*
D10*
X126000000Y-90805000D03*
X128000000Y-90805000D03*
D28*
X105240000Y-97600000D03*
X103165000Y-97600000D03*
D29*
X107315000Y-97557500D03*
X107315000Y-95482500D03*
X123190000Y-61997500D03*
X123190000Y-59922500D03*
D11*
X82550000Y-72025000D03*
X82550000Y-74025000D03*
D12*
X98282000Y-107696000D03*
X96282000Y-107696000D03*
D28*
X124227500Y-105410000D03*
X122152500Y-105410000D03*
D10*
X119650000Y-97790000D03*
X121650000Y-97790000D03*
X90440000Y-61468000D03*
X92440000Y-61468000D03*
D18*
X118970700Y-83058000D03*
D17*
X118970700Y-90658000D03*
D19*
X133020700Y-88058000D03*
X133020700Y-83058000D03*
X133020700Y-78058000D03*
X135870700Y-88058000D03*
X135870700Y-83058000D03*
X135870700Y-78058000D03*
D12*
X121650000Y-95250000D03*
X119650000Y-95250000D03*
D13*
X86230000Y-103380000D03*
X139160000Y-103510000D03*
D28*
X106404500Y-107696000D03*
X108479500Y-107696000D03*
D17*
X113156700Y-73386000D03*
D18*
X113156700Y-65786000D03*
D19*
X127206700Y-70786000D03*
X127206700Y-65786000D03*
X127206700Y-60786000D03*
D12*
X132445000Y-90805000D03*
X130445000Y-90805000D03*
D30*
X133830000Y-105250000D03*
D31*
X131290000Y-105250000D03*
D32*
X98729000Y-64766500D03*
X98729000Y-57766500D03*
D33*
X134040000Y-99360000D03*
D34*
X131540000Y-99360000D03*
D32*
X133858000Y-57766500D03*
X133858000Y-64766500D03*
D33*
X139240000Y-94110000D03*
D34*
X136740000Y-94110000D03*
D33*
X133310000Y-70857600D03*
D34*
X133310000Y-73357600D03*
D30*
X139750000Y-81255000D03*
D31*
X139750000Y-78715000D03*
D33*
X82868900Y-97663000D03*
D34*
X85368900Y-97663000D03*
D33*
X85090000Y-69785100D03*
D34*
X85090000Y-67285100D03*
M02*
