G04 #@! TF.GenerationSoftware,KiCad,Pcbnew,(6.0.5)*
G04 #@! TF.CreationDate,2022-05-30T10:59:04+08:00*
G04 #@! TF.ProjectId,miniaf1,6d696e69-6166-4312-9e6b-696361645f70,rev?*
G04 #@! TF.SameCoordinates,Original*
G04 #@! TF.FileFunction,Copper,L2,Bot*
G04 #@! TF.FilePolarity,Positive*
%FSLAX46Y46*%
G04 Gerber Fmt 4.6, Leading zero omitted, Abs format (unit mm)*
G04 Created by KiCad (PCBNEW (6.0.5)) date 2022-05-30 10:59:04*
%MOMM*%
%LPD*%
G01*
G04 APERTURE LIST*
G04 #@! TA.AperFunction,ComponentPad*
%ADD10C,4.400000*%
G04 #@! TD*
G04 #@! TA.AperFunction,ComponentPad*
%ADD11C,2.400000*%
G04 #@! TD*
G04 #@! TA.AperFunction,ComponentPad*
%ADD12R,1.800000X1.800000*%
G04 #@! TD*
G04 #@! TA.AperFunction,ComponentPad*
%ADD13C,1.800000*%
G04 #@! TD*
G04 #@! TA.AperFunction,ComponentPad*
%ADD14C,1.524000*%
G04 #@! TD*
G04 #@! TA.AperFunction,ComponentPad*
%ADD15R,1.700000X1.700000*%
G04 #@! TD*
G04 #@! TA.AperFunction,ComponentPad*
%ADD16O,1.700000X1.700000*%
G04 #@! TD*
G04 #@! TA.AperFunction,SMDPad,CuDef*
%ADD17R,2.500000X1.200000*%
G04 #@! TD*
G04 #@! TA.AperFunction,ComponentPad*
%ADD18R,1.600000X1.600000*%
G04 #@! TD*
G04 #@! TA.AperFunction,ComponentPad*
%ADD19C,1.600000*%
G04 #@! TD*
G04 #@! TA.AperFunction,ViaPad*
%ADD20C,0.800000*%
G04 #@! TD*
G04 #@! TA.AperFunction,Conductor*
%ADD21C,0.250000*%
G04 #@! TD*
G04 APERTURE END LIST*
D10*
X86230000Y-62730000D03*
X139230000Y-72980000D03*
D11*
X127207700Y-105457000D03*
X127207700Y-100457000D03*
X127207700Y-95457000D03*
D12*
X92075000Y-58801000D03*
D13*
X89535000Y-58801000D03*
D14*
X90974679Y-70332055D03*
X93006730Y-69851670D03*
X97174421Y-69870323D03*
X99310062Y-70369361D03*
X108783267Y-86377434D03*
X108147626Y-88476472D03*
X106093332Y-92318330D03*
X104574679Y-93887945D03*
X85908465Y-94157114D03*
X84288849Y-92551858D03*
X82038849Y-88654744D03*
X81458465Y-86449488D03*
X95052886Y-69725717D03*
X107276091Y-90496929D03*
X83059247Y-90622124D03*
D11*
X133020700Y-88058000D03*
X133020700Y-83058000D03*
X133020700Y-78058000D03*
X135870700Y-88058000D03*
X135870700Y-83058000D03*
X135870700Y-78058000D03*
D10*
X86230000Y-103380000D03*
X139160000Y-103510000D03*
D11*
X127206700Y-70786000D03*
X127206700Y-65786000D03*
X127206700Y-60786000D03*
D15*
X133830000Y-105250000D03*
D16*
X131290000Y-105250000D03*
D17*
X95479000Y-62366500D03*
X95479000Y-59366500D03*
X101979000Y-67466500D03*
X95479000Y-66366500D03*
D18*
X134040000Y-99360000D03*
D19*
X131540000Y-99360000D03*
D17*
X130608000Y-62366500D03*
X130608000Y-59366500D03*
X137108000Y-67466500D03*
X130608000Y-66366500D03*
D18*
X139240000Y-94110000D03*
D19*
X136740000Y-94110000D03*
D18*
X133310000Y-70857600D03*
D19*
X133310000Y-73357600D03*
D15*
X139750000Y-81255000D03*
D16*
X139750000Y-78715000D03*
D18*
X82868900Y-97663000D03*
D19*
X85368900Y-97663000D03*
D18*
X85090000Y-69785100D03*
D19*
X85090000Y-67285100D03*
D20*
X124714000Y-86106000D03*
X81280000Y-81026000D03*
X107442000Y-73660000D03*
X85852000Y-76200000D03*
X86614000Y-72136000D03*
X107442000Y-102616000D03*
X89916000Y-94742000D03*
X89408000Y-97282000D03*
X96012000Y-95250000D03*
X102108000Y-100584000D03*
X118618000Y-101854000D03*
X104394000Y-107950000D03*
X123190000Y-77470000D03*
X125222000Y-74676000D03*
X123698000Y-72644000D03*
X112522000Y-90678000D03*
X128016000Y-93726000D03*
X129794000Y-93726000D03*
X116078000Y-87376000D03*
X105918000Y-78486000D03*
X109728000Y-80264000D03*
X128778000Y-84582000D03*
X97385900Y-97785500D03*
X102304900Y-105240000D03*
X93119900Y-96579400D03*
X112835700Y-93721700D03*
X103893300Y-102674000D03*
X122221100Y-103261800D03*
X97796100Y-102944400D03*
X97543200Y-100160000D03*
X103917700Y-104384100D03*
X97125500Y-101359800D03*
X129032700Y-58221400D03*
X100104000Y-67315400D03*
X93602000Y-59010900D03*
X135532700Y-66329500D03*
D21*
X90800000Y-107950000D02*
X86230000Y-103380000D01*
X104394000Y-107950000D02*
X90800000Y-107950000D01*
X128778000Y-98886700D02*
X128778000Y-84582000D01*
X127207700Y-100457000D02*
X128778000Y-98886700D01*
X123375800Y-72966200D02*
X123698000Y-72644000D01*
X121413800Y-72966200D02*
X123375800Y-72966200D01*
X113800000Y-80580000D02*
X121413800Y-72966200D01*
X113800000Y-86878700D02*
X113800000Y-80580000D01*
X102893200Y-97785500D02*
X113800000Y-86878700D01*
X132183300Y-66366500D02*
X131395700Y-66366500D01*
X134443400Y-68626600D02*
X132183300Y-66366500D01*
X134443400Y-73835900D02*
X134443400Y-68626600D01*
X133741600Y-74537700D02*
X134443400Y-73835900D01*
X132876800Y-74537700D02*
X133741600Y-74537700D01*
X129585500Y-71002400D02*
X129585500Y-71246400D01*
X127800800Y-69217700D02*
X129585500Y-71002400D01*
X124498018Y-69217700D02*
X127800800Y-69217700D01*
X113294600Y-80421118D02*
X124498018Y-69217700D01*
X113294600Y-86744600D02*
X105037000Y-95002200D01*
X113294600Y-86744600D02*
X113294600Y-80421118D01*
X129585500Y-71246400D02*
X132876800Y-74537700D01*
X124344100Y-68735900D02*
X128688300Y-68735900D01*
X128688300Y-68735900D02*
X133310000Y-73357600D01*
X110446700Y-82633300D02*
X124344100Y-68735900D01*
X110446700Y-86305000D02*
X110446700Y-82633300D01*
X108211400Y-88540300D02*
X110446700Y-86305000D01*
X84795114Y-87230000D02*
X96131800Y-98566686D01*
X84680000Y-87230000D02*
X84795114Y-87230000D01*
X96131800Y-99851800D02*
X96131800Y-100366100D01*
X96131800Y-98566686D02*
X96131800Y-99851800D01*
X84680000Y-80098603D02*
X84680000Y-87230000D01*
X95052886Y-69725717D02*
X84680000Y-80098603D01*
X127206700Y-60786000D02*
X127206700Y-65786000D01*
X97385900Y-97785500D02*
X102893200Y-97785500D01*
X130608000Y-66366500D02*
X131395700Y-66366500D01*
X132183300Y-65578900D02*
X132183300Y-62366500D01*
X131395700Y-66366500D02*
X132183300Y-65578900D01*
X130608000Y-62366500D02*
X132183300Y-62366500D01*
X106341100Y-90496900D02*
X107276100Y-90496900D01*
X103441200Y-93396800D02*
X106341100Y-90496900D01*
X103441200Y-94339700D02*
X103441200Y-93396800D01*
X104103700Y-95002200D02*
X103441200Y-94339700D01*
X105037000Y-95002200D02*
X104103700Y-95002200D01*
X82647900Y-88654700D02*
X82038800Y-88654700D01*
X97070800Y-103077600D02*
X82647900Y-88654700D01*
X97070800Y-103244800D02*
X97070800Y-103077600D01*
X99066000Y-105240000D02*
X97070800Y-103244800D01*
X102304900Y-105240000D02*
X99066000Y-105240000D01*
X106093300Y-92369300D02*
X104574700Y-93887900D01*
X106093300Y-92318300D02*
X106093300Y-92369300D01*
X108402900Y-88731800D02*
X108211400Y-88540300D01*
X108402900Y-90999400D02*
X108402900Y-88731800D01*
X107084000Y-92318300D02*
X108402900Y-90999400D01*
X106093300Y-92318300D02*
X107084000Y-92318300D01*
X108211400Y-88540300D02*
X108147600Y-88476500D01*
X124557700Y-98107000D02*
X127207700Y-95457000D01*
X124557700Y-102015600D02*
X124557700Y-98107000D01*
X120598000Y-105975300D02*
X124557700Y-102015600D01*
X93681200Y-105975300D02*
X120598000Y-105975300D01*
X85368900Y-97663000D02*
X93681200Y-105975300D01*
X82990000Y-86449500D02*
X81458500Y-86449500D01*
X93119900Y-96579400D02*
X82990000Y-86449500D01*
X103893300Y-102664100D02*
X103893300Y-102674000D01*
X112835700Y-93721700D02*
X103893300Y-102664100D01*
X101413300Y-102944400D02*
X97796100Y-102944400D01*
X103611300Y-105142400D02*
X101413300Y-102944400D01*
X120340500Y-105142400D02*
X103611300Y-105142400D01*
X122221100Y-103261800D02*
X120340500Y-105142400D01*
X122221100Y-94124400D02*
X122221100Y-103261800D01*
X126955100Y-89390400D02*
X122221100Y-94124400D01*
X126955100Y-71037600D02*
X126955100Y-89390400D01*
X127206700Y-70786000D02*
X126955100Y-71037600D01*
X99693600Y-100160000D02*
X97543200Y-100160000D01*
X103917700Y-104384100D02*
X99693600Y-100160000D01*
X96131800Y-100366100D02*
X97125500Y-101359800D01*
X108783300Y-78095500D02*
X108783300Y-86377400D01*
X97054300Y-66366500D02*
X108783300Y-78095500D01*
X95479000Y-66366500D02*
X97054300Y-66366500D01*
X95479000Y-66366500D02*
X94691400Y-66366500D01*
X95479000Y-62366500D02*
X93903700Y-62366500D01*
X92197400Y-67285100D02*
X93903700Y-65578800D01*
X85090000Y-67285100D02*
X92197400Y-67285100D01*
X94691400Y-66366500D02*
X93903700Y-65578800D01*
X93903700Y-65578800D02*
X93903700Y-62366500D01*
X130608000Y-59366500D02*
X129032700Y-59366500D01*
X129032700Y-59366500D02*
X129032700Y-58221400D01*
X100252600Y-67315400D02*
X100403700Y-67466500D01*
X100104000Y-67315400D02*
X100252600Y-67315400D01*
X101979000Y-67466500D02*
X100403700Y-67466500D01*
X93903700Y-59312600D02*
X93903700Y-59366500D01*
X93602000Y-59010900D02*
X93903700Y-59312600D01*
X95479000Y-59366500D02*
X93903700Y-59366500D01*
X137108000Y-67466500D02*
X135532700Y-67466500D01*
X135532700Y-67466500D02*
X135532700Y-66329500D01*
G04 #@! TA.AperFunction,Conductor*
G36*
X97620854Y-56928502D02*
G01*
X97667347Y-56982158D01*
X97677451Y-57052432D01*
X97657315Y-57104776D01*
X97624836Y-57153109D01*
X97624833Y-57153115D01*
X97621710Y-57157762D01*
X97531412Y-57363467D01*
X97530103Y-57368918D01*
X97530102Y-57368922D01*
X97490779Y-57532715D01*
X97478968Y-57581911D01*
X97478645Y-57587516D01*
X97467286Y-57784533D01*
X97466037Y-57806190D01*
X97493025Y-58029215D01*
X97559082Y-58243935D01*
X97561652Y-58248915D01*
X97561654Y-58248919D01*
X97651834Y-58423639D01*
X97662118Y-58443564D01*
X97798877Y-58621792D01*
X97965036Y-58772985D01*
X97969783Y-58775963D01*
X97969786Y-58775965D01*
X98098229Y-58856536D01*
X98155344Y-58892364D01*
X98363783Y-58976156D01*
X98583767Y-59021713D01*
X98588378Y-59021979D01*
X98588379Y-59021979D01*
X98638952Y-59024895D01*
X98638956Y-59024895D01*
X98640775Y-59025000D01*
X98785999Y-59025000D01*
X98788786Y-59024751D01*
X98788792Y-59024751D01*
X98858929Y-59018491D01*
X98952762Y-59010117D01*
X98958176Y-59008636D01*
X98958181Y-59008635D01*
X99085912Y-58973691D01*
X99169451Y-58950837D01*
X99174509Y-58948425D01*
X99174513Y-58948423D01*
X99292042Y-58892364D01*
X99372218Y-58854122D01*
X99554654Y-58723029D01*
X99657067Y-58617347D01*
X99707089Y-58565729D01*
X99707091Y-58565726D01*
X99710992Y-58561701D01*
X99836290Y-58375238D01*
X99926588Y-58169533D01*
X99935328Y-58133131D01*
X99977722Y-57956546D01*
X99977722Y-57956545D01*
X99979032Y-57951089D01*
X99987821Y-57798648D01*
X99991640Y-57732417D01*
X99991640Y-57732414D01*
X99991963Y-57726810D01*
X99964975Y-57503785D01*
X99898918Y-57289065D01*
X99833798Y-57162896D01*
X99797355Y-57092290D01*
X99783886Y-57022583D01*
X99810241Y-56956659D01*
X99868054Y-56915450D01*
X99909321Y-56908500D01*
X132681733Y-56908500D01*
X132749854Y-56928502D01*
X132796347Y-56982158D01*
X132806451Y-57052432D01*
X132786315Y-57104776D01*
X132753836Y-57153109D01*
X132753833Y-57153115D01*
X132750710Y-57157762D01*
X132660412Y-57363467D01*
X132659103Y-57368918D01*
X132659102Y-57368922D01*
X132619779Y-57532715D01*
X132607968Y-57581911D01*
X132607645Y-57587516D01*
X132596286Y-57784533D01*
X132595037Y-57806190D01*
X132622025Y-58029215D01*
X132688082Y-58243935D01*
X132690652Y-58248915D01*
X132690654Y-58248919D01*
X132780834Y-58423639D01*
X132791118Y-58443564D01*
X132927877Y-58621792D01*
X133094036Y-58772985D01*
X133098783Y-58775963D01*
X133098786Y-58775965D01*
X133227229Y-58856536D01*
X133284344Y-58892364D01*
X133492783Y-58976156D01*
X133712767Y-59021713D01*
X133717378Y-59021979D01*
X133717379Y-59021979D01*
X133767952Y-59024895D01*
X133767956Y-59024895D01*
X133769775Y-59025000D01*
X133914999Y-59025000D01*
X133917786Y-59024751D01*
X133917792Y-59024751D01*
X133987929Y-59018491D01*
X134081762Y-59010117D01*
X134087176Y-59008636D01*
X134087181Y-59008635D01*
X134214912Y-58973691D01*
X134298451Y-58950837D01*
X134303509Y-58948425D01*
X134303513Y-58948423D01*
X134421042Y-58892364D01*
X134501218Y-58854122D01*
X134683654Y-58723029D01*
X134786067Y-58617347D01*
X134836089Y-58565729D01*
X134836091Y-58565726D01*
X134839992Y-58561701D01*
X134965290Y-58375238D01*
X135055588Y-58169533D01*
X135064328Y-58133131D01*
X135106722Y-57956546D01*
X135106722Y-57956545D01*
X135108032Y-57951089D01*
X135116821Y-57798648D01*
X135120640Y-57732417D01*
X135120640Y-57732414D01*
X135120963Y-57726810D01*
X135093975Y-57503785D01*
X135027918Y-57289065D01*
X134962798Y-57162896D01*
X134926355Y-57092290D01*
X134912886Y-57022583D01*
X134939241Y-56956659D01*
X134997054Y-56915450D01*
X135038321Y-56908500D01*
X157750561Y-56908500D01*
X157769976Y-56910005D01*
X157784736Y-56912307D01*
X157784737Y-56912307D01*
X157793605Y-56913690D01*
X157817144Y-56910618D01*
X157837204Y-56909615D01*
X158081774Y-56916916D01*
X158406812Y-56926619D01*
X158414227Y-56927060D01*
X158885252Y-56969124D01*
X159015324Y-56980740D01*
X159022733Y-56981624D01*
X159619553Y-57070783D01*
X159626896Y-57072103D01*
X159722775Y-57092290D01*
X160217422Y-57196437D01*
X160224658Y-57198186D01*
X160504985Y-57274787D01*
X160806786Y-57357256D01*
X160813923Y-57359435D01*
X161385596Y-57552676D01*
X161392569Y-57555265D01*
X161912815Y-57766196D01*
X161951841Y-57782019D01*
X161958670Y-57785027D01*
X162503489Y-58044464D01*
X162510127Y-58047869D01*
X163038676Y-58339121D01*
X163045080Y-58342902D01*
X163169764Y-58421571D01*
X163555449Y-58664920D01*
X163561632Y-58669081D01*
X164052073Y-59020762D01*
X164057959Y-59025253D01*
X164526708Y-59405335D01*
X164532358Y-59410201D01*
X164739174Y-59599247D01*
X164814280Y-59667900D01*
X164851065Y-59728624D01*
X164849180Y-59799595D01*
X164809225Y-59858282D01*
X164743884Y-59886050D01*
X164728875Y-59886900D01*
X142211236Y-59816532D01*
X142210591Y-59816529D01*
X142140339Y-59815950D01*
X142131367Y-59815876D01*
X142107758Y-59822569D01*
X142103217Y-59823856D01*
X142086326Y-59827415D01*
X142066245Y-59830227D01*
X142066244Y-59830227D01*
X142057355Y-59831472D01*
X142034484Y-59841785D01*
X142033669Y-59842152D01*
X142016243Y-59848512D01*
X141991232Y-59855603D01*
X141966450Y-59871166D01*
X141951242Y-59879319D01*
X141932756Y-59887654D01*
X141932751Y-59887657D01*
X141924572Y-59891345D01*
X141917757Y-59897180D01*
X141917751Y-59897184D01*
X141904827Y-59908250D01*
X141889896Y-59919239D01*
X141867879Y-59933065D01*
X141861923Y-59939780D01*
X141861917Y-59939785D01*
X141848462Y-59954954D01*
X141836152Y-59967051D01*
X141820749Y-59980240D01*
X141813930Y-59986079D01*
X141809025Y-59993595D01*
X141809024Y-59993596D01*
X141799727Y-60007842D01*
X141788473Y-60022588D01*
X141777183Y-60035317D01*
X141777181Y-60035320D01*
X141771226Y-60042034D01*
X141758735Y-60068492D01*
X141750317Y-60083553D01*
X141734324Y-60108059D01*
X141731726Y-60116649D01*
X141726801Y-60132932D01*
X141720137Y-60150245D01*
X141712875Y-60165628D01*
X141712874Y-60165632D01*
X141709041Y-60173750D01*
X141707641Y-60182615D01*
X141707641Y-60182616D01*
X141704479Y-60202644D01*
X141700625Y-60219470D01*
X141695006Y-60238050D01*
X141692154Y-60247479D01*
X141692071Y-60256451D01*
X141692071Y-60256452D01*
X141691835Y-60281995D01*
X141691790Y-60283004D01*
X141691586Y-60284299D01*
X141691579Y-60287777D01*
X141691518Y-60315969D01*
X141691513Y-60316861D01*
X141691348Y-60334785D01*
X141690809Y-60393130D01*
X141691245Y-60394674D01*
X141691346Y-60396217D01*
X141679920Y-65741151D01*
X141668010Y-71312191D01*
X141667958Y-71336386D01*
X141647810Y-71404464D01*
X141594055Y-71450842D01*
X141523760Y-71460796D01*
X141459242Y-71431165D01*
X141442601Y-71413604D01*
X141327991Y-71266647D01*
X141316199Y-71258178D01*
X141304486Y-71264725D01*
X139602020Y-72967190D01*
X139594408Y-72981131D01*
X139594539Y-72982966D01*
X139598790Y-72989580D01*
X141303285Y-74694074D01*
X141316408Y-74701240D01*
X141326709Y-74693851D01*
X141430751Y-74566055D01*
X141432579Y-74563511D01*
X141488574Y-74519864D01*
X141559278Y-74513420D01*
X141622241Y-74546223D01*
X141657475Y-74607860D01*
X141660900Y-74637308D01*
X141602674Y-101872434D01*
X141582526Y-101940512D01*
X141528771Y-101986890D01*
X141458476Y-101996844D01*
X141393958Y-101967213D01*
X141377317Y-101949652D01*
X141257991Y-101796647D01*
X141246199Y-101788178D01*
X141234486Y-101794725D01*
X139532020Y-103497190D01*
X139524408Y-103511131D01*
X139524539Y-103512966D01*
X139528790Y-103519580D01*
X141233285Y-105224074D01*
X141246408Y-105231240D01*
X141256709Y-105223851D01*
X141360751Y-105096055D01*
X141367324Y-105086908D01*
X141423320Y-105043261D01*
X141494023Y-105036817D01*
X141556987Y-105069621D01*
X141592220Y-105131258D01*
X141595644Y-105160701D01*
X141591553Y-107074628D01*
X141591518Y-107090892D01*
X141591513Y-107091755D01*
X141590815Y-107168179D01*
X141598129Y-107194065D01*
X141598932Y-107196908D01*
X141602444Y-107213570D01*
X141606613Y-107243133D01*
X141610313Y-107251316D01*
X141610313Y-107251317D01*
X141617072Y-107266267D01*
X141623516Y-107283921D01*
X141627977Y-107299713D01*
X141627979Y-107299718D01*
X141630418Y-107308350D01*
X141635184Y-107315954D01*
X141646270Y-107333643D01*
X141654316Y-107348648D01*
X141662918Y-107367674D01*
X141666617Y-107375856D01*
X141672458Y-107382665D01*
X141672463Y-107382672D01*
X141683158Y-107395138D01*
X141694288Y-107410261D01*
X141707770Y-107431772D01*
X141714480Y-107437734D01*
X141714484Y-107437739D01*
X141730086Y-107451602D01*
X141742024Y-107463749D01*
X141761460Y-107486404D01*
X141768976Y-107491298D01*
X141768980Y-107491302D01*
X141782737Y-107500260D01*
X141797673Y-107511657D01*
X141816652Y-107528522D01*
X141824764Y-107532361D01*
X141824768Y-107532363D01*
X141843633Y-107541289D01*
X141858501Y-107549598D01*
X141875993Y-107560990D01*
X141875996Y-107560991D01*
X141883518Y-107565890D01*
X141907836Y-107573220D01*
X141925358Y-107579963D01*
X141940194Y-107586983D01*
X141940199Y-107586985D01*
X141948313Y-107590824D01*
X141977798Y-107595506D01*
X141994391Y-107599306D01*
X142022980Y-107607923D01*
X142031952Y-107607997D01*
X142034391Y-107608017D01*
X142057336Y-107608206D01*
X142057931Y-107608233D01*
X142058846Y-107608378D01*
X142061377Y-107608386D01*
X142061385Y-107608386D01*
X142088905Y-107608469D01*
X142089563Y-107608472D01*
X142165202Y-107609096D01*
X142165206Y-107609096D01*
X142168633Y-107609124D01*
X142169794Y-107608795D01*
X142170967Y-107608718D01*
X160581407Y-107664469D01*
X162749579Y-107671035D01*
X162817638Y-107691243D01*
X162863969Y-107745039D01*
X162873860Y-107815343D01*
X162844171Y-107879834D01*
X162808727Y-107908084D01*
X162461206Y-108094379D01*
X162454682Y-108097637D01*
X162296651Y-108170918D01*
X161913773Y-108348463D01*
X161907100Y-108351326D01*
X161503098Y-108510964D01*
X161352590Y-108570436D01*
X161345733Y-108572919D01*
X160779481Y-108759578D01*
X160772492Y-108761660D01*
X160716929Y-108776473D01*
X160196378Y-108915250D01*
X160189298Y-108916920D01*
X159605245Y-109036926D01*
X159598080Y-109038182D01*
X159071112Y-109115005D01*
X159008100Y-109124191D01*
X159000858Y-109125034D01*
X158406869Y-109176768D01*
X158399593Y-109177190D01*
X157979625Y-109189368D01*
X157844890Y-109193275D01*
X157821858Y-109191829D01*
X157815124Y-109190781D01*
X157806253Y-109189400D01*
X157797354Y-109190564D01*
X157797347Y-109190564D01*
X157774716Y-109193525D01*
X157758371Y-109194590D01*
X114857368Y-109192607D01*
X114789249Y-109172602D01*
X114742759Y-109118944D01*
X114732658Y-109048670D01*
X114766891Y-108978922D01*
X114885789Y-108856229D01*
X114885791Y-108856226D01*
X114889692Y-108852201D01*
X115014990Y-108665738D01*
X115105288Y-108460033D01*
X115108091Y-108448360D01*
X115156422Y-108247046D01*
X115156422Y-108247045D01*
X115157732Y-108241589D01*
X115166410Y-108091083D01*
X115170340Y-108022917D01*
X115170340Y-108022914D01*
X115170663Y-108017310D01*
X115143675Y-107794285D01*
X115077618Y-107579565D01*
X115074343Y-107573218D01*
X114977154Y-107384919D01*
X114977154Y-107384918D01*
X114974582Y-107379936D01*
X114837823Y-107201708D01*
X114671664Y-107050515D01*
X114666917Y-107047537D01*
X114666914Y-107047535D01*
X114486105Y-106934115D01*
X114481356Y-106931136D01*
X114283770Y-106851707D01*
X114256703Y-106830359D01*
X126199086Y-106830359D01*
X126207799Y-106841879D01*
X126296286Y-106906760D01*
X126304205Y-106911708D01*
X126520577Y-107025547D01*
X126529151Y-107029275D01*
X126759982Y-107109885D01*
X126768991Y-107112299D01*
X127009218Y-107157908D01*
X127018475Y-107158962D01*
X127262807Y-107168563D01*
X127272120Y-107168237D01*
X127515178Y-107141618D01*
X127524355Y-107139917D01*
X127760807Y-107077665D01*
X127769626Y-107074628D01*
X127994284Y-106978107D01*
X128002556Y-106973800D01*
X128210477Y-106845135D01*
X128212320Y-106843796D01*
X128219738Y-106832541D01*
X128213674Y-106822184D01*
X127220512Y-105829022D01*
X127206568Y-105821408D01*
X127204735Y-105821539D01*
X127198120Y-105825790D01*
X126205744Y-106818166D01*
X126199086Y-106830359D01*
X114256703Y-106830359D01*
X114228025Y-106807741D01*
X114204900Y-106740616D01*
X114221737Y-106671644D01*
X114273189Y-106622724D01*
X114330766Y-106608800D01*
X120519233Y-106608800D01*
X120530416Y-106609327D01*
X120537909Y-106611002D01*
X120545835Y-106610753D01*
X120545836Y-106610753D01*
X120605986Y-106608862D01*
X120609945Y-106608800D01*
X120637856Y-106608800D01*
X120641791Y-106608303D01*
X120641856Y-106608295D01*
X120653693Y-106607362D01*
X120685951Y-106606348D01*
X120689970Y-106606222D01*
X120697889Y-106605973D01*
X120717343Y-106600321D01*
X120736700Y-106596313D01*
X120748930Y-106594768D01*
X120748931Y-106594768D01*
X120756797Y-106593774D01*
X120764168Y-106590855D01*
X120764170Y-106590855D01*
X120797912Y-106577496D01*
X120809142Y-106573651D01*
X120843983Y-106563529D01*
X120843984Y-106563529D01*
X120851593Y-106561318D01*
X120858412Y-106557285D01*
X120858417Y-106557283D01*
X120869028Y-106551007D01*
X120886776Y-106542312D01*
X120905617Y-106534852D01*
X120925797Y-106520191D01*
X120941387Y-106508864D01*
X120951307Y-106502348D01*
X120982535Y-106483880D01*
X120982538Y-106483878D01*
X120989362Y-106479842D01*
X121003683Y-106465521D01*
X121018717Y-106452680D01*
X121020432Y-106451434D01*
X121035107Y-106440772D01*
X121063298Y-106406695D01*
X121071288Y-106397916D01*
X122052369Y-105416835D01*
X125495722Y-105416835D01*
X125507454Y-105661064D01*
X125508591Y-105670324D01*
X125556293Y-105910143D01*
X125558782Y-105919118D01*
X125641408Y-106149250D01*
X125645205Y-106157778D01*
X125760934Y-106373160D01*
X125765945Y-106381027D01*
X125822873Y-106457263D01*
X125834131Y-106465712D01*
X125846550Y-106458940D01*
X126835678Y-105469812D01*
X126842056Y-105458132D01*
X127572108Y-105458132D01*
X127572239Y-105459965D01*
X127576490Y-105466580D01*
X128571432Y-106461522D01*
X128583812Y-106468282D01*
X128592153Y-106462038D01*
X128710400Y-106278202D01*
X128714847Y-106270011D01*
X128815272Y-106047076D01*
X128818467Y-106038298D01*
X128884835Y-105802973D01*
X128886693Y-105793844D01*
X128917744Y-105549770D01*
X128918225Y-105543483D01*
X128918893Y-105517966D01*
X129958257Y-105517966D01*
X129988565Y-105652446D01*
X129991645Y-105662275D01*
X130071770Y-105859603D01*
X130076413Y-105868794D01*
X130187694Y-106050388D01*
X130193777Y-106058699D01*
X130333213Y-106219667D01*
X130340580Y-106226883D01*
X130504434Y-106362916D01*
X130512881Y-106368831D01*
X130696756Y-106476279D01*
X130706042Y-106480729D01*
X130905001Y-106556703D01*
X130914899Y-106559579D01*
X131018250Y-106580606D01*
X131032299Y-106579410D01*
X131036000Y-106569065D01*
X131036000Y-106568517D01*
X131544000Y-106568517D01*
X131548064Y-106582359D01*
X131561478Y-106584393D01*
X131568184Y-106583534D01*
X131578262Y-106581392D01*
X131782255Y-106520191D01*
X131791842Y-106516433D01*
X131983095Y-106422739D01*
X131991945Y-106417464D01*
X132165328Y-106293792D01*
X132173193Y-106287145D01*
X132277897Y-106182805D01*
X132340268Y-106148889D01*
X132411075Y-106154077D01*
X132467837Y-106196723D01*
X132484819Y-106227826D01*
X132529385Y-106346705D01*
X132616739Y-106463261D01*
X132733295Y-106550615D01*
X132869684Y-106601745D01*
X132931866Y-106608500D01*
X134728134Y-106608500D01*
X134790316Y-106601745D01*
X134926705Y-106550615D01*
X135043261Y-106463261D01*
X135130615Y-106346705D01*
X135181745Y-106210316D01*
X135188500Y-106148134D01*
X135188500Y-105596423D01*
X137438703Y-105596423D01*
X137446227Y-105606854D01*
X137585483Y-105719020D01*
X137591657Y-105723408D01*
X137862271Y-105892178D01*
X137868931Y-105895794D01*
X138157852Y-106030827D01*
X138164905Y-106033620D01*
X138467970Y-106132970D01*
X138475282Y-106134888D01*
X138788092Y-106197109D01*
X138795590Y-106198137D01*
X139113610Y-106222328D01*
X139121173Y-106222446D01*
X139439785Y-106208257D01*
X139447326Y-106207465D01*
X139761924Y-106155101D01*
X139769302Y-106153411D01*
X140075355Y-106063625D01*
X140082450Y-106061071D01*
X140375496Y-105935169D01*
X140382263Y-105931765D01*
X140658042Y-105771580D01*
X140664349Y-105767390D01*
X140874305Y-105608889D01*
X140882761Y-105597496D01*
X140876045Y-105585256D01*
X139172810Y-103882020D01*
X139158869Y-103874408D01*
X139157034Y-103874539D01*
X139150420Y-103878790D01*
X137445818Y-105583393D01*
X137438703Y-105596423D01*
X135188500Y-105596423D01*
X135188500Y-104351866D01*
X135181745Y-104289684D01*
X135130615Y-104153295D01*
X135043261Y-104036739D01*
X134926705Y-103949385D01*
X134790316Y-103898255D01*
X134728134Y-103891500D01*
X132931866Y-103891500D01*
X132869684Y-103898255D01*
X132733295Y-103949385D01*
X132616739Y-104036739D01*
X132529385Y-104153295D01*
X132526233Y-104161703D01*
X132526232Y-104161705D01*
X132484722Y-104272433D01*
X132442081Y-104329198D01*
X132375519Y-104353898D01*
X132306170Y-104338691D01*
X132273546Y-104313004D01*
X132222799Y-104257234D01*
X132215273Y-104250215D01*
X132048139Y-104118222D01*
X132039552Y-104112517D01*
X131853117Y-104009599D01*
X131843705Y-104005369D01*
X131642959Y-103934280D01*
X131632988Y-103931646D01*
X131561837Y-103918972D01*
X131548540Y-103920432D01*
X131544000Y-103934989D01*
X131544000Y-106568517D01*
X131036000Y-106568517D01*
X131036000Y-105522115D01*
X131031525Y-105506876D01*
X131030135Y-105505671D01*
X131022452Y-105504000D01*
X129973225Y-105504000D01*
X129959694Y-105507973D01*
X129958257Y-105517966D01*
X128918893Y-105517966D01*
X128920406Y-105460160D01*
X128920255Y-105453851D01*
X128902021Y-105208486D01*
X128900644Y-105199280D01*
X128851973Y-104984183D01*
X129954389Y-104984183D01*
X129955912Y-104992607D01*
X129968292Y-104996000D01*
X131017885Y-104996000D01*
X131033124Y-104991525D01*
X131034329Y-104990135D01*
X131036000Y-104982452D01*
X131036000Y-103933102D01*
X131032082Y-103919758D01*
X131017806Y-103917771D01*
X130979324Y-103923660D01*
X130969288Y-103926051D01*
X130766868Y-103992212D01*
X130757359Y-103996209D01*
X130568463Y-104094542D01*
X130559738Y-104100036D01*
X130389433Y-104227905D01*
X130381726Y-104234748D01*
X130234590Y-104388717D01*
X130228104Y-104396727D01*
X130108098Y-104572649D01*
X130103000Y-104581623D01*
X130013338Y-104774783D01*
X130009775Y-104784470D01*
X129954389Y-104984183D01*
X128851973Y-104984183D01*
X128846679Y-104960786D01*
X128843955Y-104951875D01*
X128755333Y-104723983D01*
X128751319Y-104715567D01*
X128629984Y-104503276D01*
X128624774Y-104495553D01*
X128593487Y-104455865D01*
X128581563Y-104447395D01*
X128570028Y-104453882D01*
X127579722Y-105444188D01*
X127572108Y-105458132D01*
X126842056Y-105458132D01*
X126843292Y-105455868D01*
X126843161Y-105454035D01*
X126838910Y-105447420D01*
X125844528Y-104453038D01*
X125831220Y-104445771D01*
X125821181Y-104452893D01*
X125816281Y-104458784D01*
X125810868Y-104466373D01*
X125684022Y-104675409D01*
X125679784Y-104683726D01*
X125585229Y-104909214D01*
X125582272Y-104918052D01*
X125522084Y-105155042D01*
X125520463Y-105164232D01*
X125495967Y-105407510D01*
X125495722Y-105416835D01*
X122052369Y-105416835D01*
X123387287Y-104081917D01*
X126197030Y-104081917D01*
X126201603Y-104091693D01*
X127194888Y-105084978D01*
X127208832Y-105092592D01*
X127210665Y-105092461D01*
X127217280Y-105088210D01*
X128210188Y-104095302D01*
X128216572Y-104083612D01*
X128207160Y-104071502D01*
X128080844Y-103983873D01*
X128072816Y-103979145D01*
X127853510Y-103870995D01*
X127844877Y-103867507D01*
X127611988Y-103792958D01*
X127602938Y-103790785D01*
X127361591Y-103751480D01*
X127352302Y-103750668D01*
X127107814Y-103747467D01*
X127098503Y-103748037D01*
X126856222Y-103781010D01*
X126847103Y-103782948D01*
X126612368Y-103851367D01*
X126603615Y-103854639D01*
X126381569Y-103957004D01*
X126373414Y-103961524D01*
X126206168Y-104071175D01*
X126197030Y-104081917D01*
X123387287Y-104081917D01*
X123983821Y-103485383D01*
X136447388Y-103485383D01*
X136463245Y-103803914D01*
X136464076Y-103811443D01*
X136518085Y-104125759D01*
X136519818Y-104133146D01*
X136611196Y-104438695D01*
X136613799Y-104445808D01*
X136741227Y-104738173D01*
X136744669Y-104744929D01*
X136906296Y-105019865D01*
X136910519Y-105026150D01*
X137061463Y-105223934D01*
X137072989Y-105232396D01*
X137085054Y-105225735D01*
X138787980Y-103522810D01*
X138795592Y-103508869D01*
X138795461Y-103507034D01*
X138791210Y-103500420D01*
X137086445Y-101795656D01*
X137073510Y-101788592D01*
X137062949Y-101796252D01*
X136942766Y-101947072D01*
X136938410Y-101953270D01*
X136771059Y-102224764D01*
X136767479Y-102231440D01*
X136633956Y-102521074D01*
X136631206Y-102528125D01*
X136533444Y-102831708D01*
X136531561Y-102839041D01*
X136470979Y-103152170D01*
X136469992Y-103159670D01*
X136447467Y-103477802D01*
X136447388Y-103485383D01*
X123983821Y-103485383D01*
X124949947Y-102519257D01*
X124958237Y-102511713D01*
X124964718Y-102507600D01*
X125011359Y-102457932D01*
X125014113Y-102455091D01*
X125033834Y-102435370D01*
X125036312Y-102432175D01*
X125044018Y-102423153D01*
X125068858Y-102396701D01*
X125074286Y-102390921D01*
X125084046Y-102373168D01*
X125094899Y-102356645D01*
X125102453Y-102346906D01*
X125107313Y-102340641D01*
X125124876Y-102300057D01*
X125130083Y-102289427D01*
X125151395Y-102250660D01*
X125153366Y-102242983D01*
X125153368Y-102242978D01*
X125156432Y-102231042D01*
X125162838Y-102212330D01*
X125167734Y-102201017D01*
X125170881Y-102193745D01*
X125177797Y-102150081D01*
X125180204Y-102138460D01*
X125189228Y-102103311D01*
X125189228Y-102103310D01*
X125191200Y-102095630D01*
X125191200Y-102075369D01*
X125192751Y-102055658D01*
X125194679Y-102043485D01*
X125195919Y-102035657D01*
X125191759Y-101991646D01*
X125191200Y-101979789D01*
X125191200Y-98421594D01*
X125211202Y-98353473D01*
X125228105Y-98332499D01*
X126474428Y-97086176D01*
X126536740Y-97052150D01*
X126605064Y-97056316D01*
X126759851Y-97110370D01*
X126759857Y-97110372D01*
X126764268Y-97111912D01*
X127013750Y-97159278D01*
X127134232Y-97164011D01*
X127262825Y-97169064D01*
X127262830Y-97169064D01*
X127267493Y-97169247D01*
X127366474Y-97158407D01*
X127515269Y-97142112D01*
X127515275Y-97142111D01*
X127519922Y-97141602D01*
X127565190Y-97129684D01*
X127760973Y-97078138D01*
X127765493Y-97076948D01*
X127968763Y-96989617D01*
X128039247Y-96981105D01*
X128103144Y-97012051D01*
X128140168Y-97072629D01*
X128144500Y-97105385D01*
X128144500Y-98572106D01*
X128124498Y-98640227D01*
X128107595Y-98661201D01*
X127942340Y-98826456D01*
X127880028Y-98860482D01*
X127814832Y-98857363D01*
X127612105Y-98792470D01*
X127612107Y-98792470D01*
X127607660Y-98791047D01*
X127603055Y-98790297D01*
X127361635Y-98750980D01*
X127361634Y-98750980D01*
X127357023Y-98750229D01*
X127230065Y-98748567D01*
X127107783Y-98746966D01*
X127107780Y-98746966D01*
X127103106Y-98746905D01*
X126851487Y-98781149D01*
X126847001Y-98782457D01*
X126846999Y-98782457D01*
X126812646Y-98792470D01*
X126607693Y-98852208D01*
X126603440Y-98854168D01*
X126603439Y-98854169D01*
X126597678Y-98856825D01*
X126377080Y-98958522D01*
X126364561Y-98966730D01*
X126168628Y-99095189D01*
X126168623Y-99095193D01*
X126164715Y-99097755D01*
X126146423Y-99114081D01*
X126029219Y-99218690D01*
X125975262Y-99266848D01*
X125812883Y-99462087D01*
X125681147Y-99679182D01*
X125679338Y-99683496D01*
X125679337Y-99683498D01*
X125587019Y-99903653D01*
X125582946Y-99913365D01*
X125520438Y-100159490D01*
X125494996Y-100412151D01*
X125495220Y-100416817D01*
X125495220Y-100416822D01*
X125497150Y-100457000D01*
X125507180Y-100665798D01*
X125520490Y-100732713D01*
X125549407Y-100878085D01*
X125556721Y-100914857D01*
X125558300Y-100919255D01*
X125558302Y-100919262D01*
X125628349Y-101114357D01*
X125642531Y-101153858D01*
X125644748Y-101157984D01*
X125756715Y-101366365D01*
X125762725Y-101377551D01*
X125765520Y-101381294D01*
X125765522Y-101381297D01*
X125911871Y-101577282D01*
X125911876Y-101577288D01*
X125914663Y-101581020D01*
X125917972Y-101584300D01*
X125917977Y-101584306D01*
X126072090Y-101737079D01*
X126095007Y-101759797D01*
X126098769Y-101762555D01*
X126098772Y-101762558D01*
X126259212Y-101880197D01*
X126299794Y-101909953D01*
X126303929Y-101912129D01*
X126303933Y-101912131D01*
X126408627Y-101967213D01*
X126524527Y-102028191D01*
X126591635Y-102051626D01*
X126734281Y-102101440D01*
X126764268Y-102111912D01*
X127013750Y-102159278D01*
X127134232Y-102164011D01*
X127262825Y-102169064D01*
X127262830Y-102169064D01*
X127267493Y-102169247D01*
X127366474Y-102158407D01*
X127515269Y-102142112D01*
X127515275Y-102142111D01*
X127519922Y-102141602D01*
X127541732Y-102135860D01*
X127760973Y-102078138D01*
X127765493Y-102076948D01*
X127902937Y-102017898D01*
X127994507Y-101978557D01*
X127994510Y-101978555D01*
X127998810Y-101976708D01*
X128002790Y-101974245D01*
X128002794Y-101974243D01*
X128210764Y-101845547D01*
X128210766Y-101845545D01*
X128214747Y-101843082D01*
X128218324Y-101840054D01*
X128404989Y-101682031D01*
X128404991Y-101682029D01*
X128408562Y-101679006D01*
X128575995Y-101488084D01*
X128617587Y-101423423D01*
X137437917Y-101423423D01*
X137444520Y-101435309D01*
X139147190Y-103137980D01*
X139161131Y-103145592D01*
X139162966Y-103145461D01*
X139169580Y-103141210D01*
X140874559Y-101436230D01*
X140881571Y-101423389D01*
X140873777Y-101412701D01*
X140711298Y-101284613D01*
X140705075Y-101280288D01*
X140432702Y-101114357D01*
X140426025Y-101110822D01*
X140135686Y-100978813D01*
X140128616Y-100976099D01*
X139824537Y-100879932D01*
X139817186Y-100878085D01*
X139503746Y-100819142D01*
X139496237Y-100818194D01*
X139177989Y-100797335D01*
X139170424Y-100797295D01*
X138851964Y-100814821D01*
X138844450Y-100815690D01*
X138530405Y-100871348D01*
X138523044Y-100873115D01*
X138217980Y-100966092D01*
X138210860Y-100968740D01*
X137919182Y-101097690D01*
X137912445Y-101101167D01*
X137638355Y-101264233D01*
X137632091Y-101268490D01*
X137446385Y-101411762D01*
X137437917Y-101423423D01*
X128617587Y-101423423D01*
X128710841Y-101278442D01*
X128713369Y-101274512D01*
X128817667Y-101042980D01*
X128886596Y-100798575D01*
X128900957Y-100685690D01*
X128918245Y-100549798D01*
X128918245Y-100549792D01*
X128918643Y-100546667D01*
X128920991Y-100457000D01*
X128920178Y-100446062D01*
X130818493Y-100446062D01*
X130827789Y-100458077D01*
X130878994Y-100493931D01*
X130888489Y-100499414D01*
X131085947Y-100591490D01*
X131096239Y-100595236D01*
X131306688Y-100651625D01*
X131317481Y-100653528D01*
X131534525Y-100672517D01*
X131545475Y-100672517D01*
X131762519Y-100653528D01*
X131773312Y-100651625D01*
X131983761Y-100595236D01*
X131994053Y-100591490D01*
X132191511Y-100499414D01*
X132201006Y-100493931D01*
X132253048Y-100457491D01*
X132261424Y-100447012D01*
X132254356Y-100433566D01*
X131552812Y-99732022D01*
X131538868Y-99724408D01*
X131537035Y-99724539D01*
X131530420Y-99728790D01*
X130824923Y-100434287D01*
X130818493Y-100446062D01*
X128920178Y-100446062D01*
X128917934Y-100415860D01*
X128902518Y-100208411D01*
X128902517Y-100208407D01*
X128902172Y-100203759D01*
X128846128Y-99956082D01*
X128829517Y-99913365D01*
X128808278Y-99858750D01*
X128802231Y-99788011D01*
X128836616Y-99723988D01*
X129170247Y-99390357D01*
X129178537Y-99382813D01*
X129185018Y-99378700D01*
X129197437Y-99365475D01*
X130227483Y-99365475D01*
X130246472Y-99582519D01*
X130248375Y-99593312D01*
X130304764Y-99803761D01*
X130308510Y-99814053D01*
X130400586Y-100011511D01*
X130406069Y-100021006D01*
X130442509Y-100073048D01*
X130452988Y-100081424D01*
X130466434Y-100074356D01*
X131167978Y-99372812D01*
X131174356Y-99361132D01*
X131904408Y-99361132D01*
X131904539Y-99362965D01*
X131908790Y-99369580D01*
X132614287Y-100075077D01*
X132656029Y-100097871D01*
X132666029Y-100100047D01*
X132716227Y-100150253D01*
X132731451Y-100203814D01*
X132731500Y-100204717D01*
X132731500Y-100208134D01*
X132738255Y-100270316D01*
X132789385Y-100406705D01*
X132876739Y-100523261D01*
X132993295Y-100610615D01*
X133129684Y-100661745D01*
X133191866Y-100668500D01*
X134888134Y-100668500D01*
X134950316Y-100661745D01*
X135086705Y-100610615D01*
X135203261Y-100523261D01*
X135290615Y-100406705D01*
X135341745Y-100270316D01*
X135348500Y-100208134D01*
X135348500Y-98511866D01*
X135341745Y-98449684D01*
X135290615Y-98313295D01*
X135203261Y-98196739D01*
X135086705Y-98109385D01*
X134950316Y-98058255D01*
X134888134Y-98051500D01*
X133191866Y-98051500D01*
X133129684Y-98058255D01*
X132993295Y-98109385D01*
X132876739Y-98196739D01*
X132789385Y-98313295D01*
X132738255Y-98449684D01*
X132731500Y-98511866D01*
X132731500Y-98515185D01*
X132707847Y-98582110D01*
X132661844Y-98617804D01*
X132662859Y-98619734D01*
X132652000Y-98625442D01*
X132651755Y-98625632D01*
X132651597Y-98625653D01*
X132613566Y-98645644D01*
X131912022Y-99347188D01*
X131904408Y-99361132D01*
X131174356Y-99361132D01*
X131175592Y-99358868D01*
X131175461Y-99357035D01*
X131171210Y-99350420D01*
X130465713Y-98644923D01*
X130453938Y-98638493D01*
X130441923Y-98647789D01*
X130406069Y-98698994D01*
X130400586Y-98708489D01*
X130308510Y-98905947D01*
X130304764Y-98916239D01*
X130248375Y-99126688D01*
X130246472Y-99137481D01*
X130227483Y-99354525D01*
X130227483Y-99365475D01*
X129197437Y-99365475D01*
X129214610Y-99347188D01*
X129231658Y-99329033D01*
X129234413Y-99326191D01*
X129254135Y-99306469D01*
X129256612Y-99303276D01*
X129264317Y-99294255D01*
X129267180Y-99291206D01*
X129294586Y-99262021D01*
X129298407Y-99255071D01*
X129304346Y-99244268D01*
X129315202Y-99227741D01*
X129322757Y-99218002D01*
X129322758Y-99218000D01*
X129327614Y-99211740D01*
X129345174Y-99171160D01*
X129350391Y-99160512D01*
X129367875Y-99128709D01*
X129367876Y-99128707D01*
X129371695Y-99121760D01*
X129376733Y-99102137D01*
X129383137Y-99083434D01*
X129388033Y-99072120D01*
X129388033Y-99072119D01*
X129391181Y-99064845D01*
X129392420Y-99057022D01*
X129392423Y-99057012D01*
X129398099Y-99021176D01*
X129400505Y-99009556D01*
X129409528Y-98974411D01*
X129409528Y-98974410D01*
X129411500Y-98966730D01*
X129411500Y-98946476D01*
X129413051Y-98926765D01*
X129414980Y-98914586D01*
X129416220Y-98906757D01*
X129412059Y-98862738D01*
X129411500Y-98850881D01*
X129411500Y-98272988D01*
X130818576Y-98272988D01*
X130825644Y-98286434D01*
X131527188Y-98987978D01*
X131541132Y-98995592D01*
X131542965Y-98995461D01*
X131549580Y-98991210D01*
X132255077Y-98285713D01*
X132261507Y-98273938D01*
X132252211Y-98261923D01*
X132201006Y-98226069D01*
X132191511Y-98220586D01*
X131994053Y-98128510D01*
X131983761Y-98124764D01*
X131773312Y-98068375D01*
X131762519Y-98066472D01*
X131545475Y-98047483D01*
X131534525Y-98047483D01*
X131317481Y-98066472D01*
X131306688Y-98068375D01*
X131096239Y-98124764D01*
X131085947Y-98128510D01*
X130888489Y-98220586D01*
X130878994Y-98226069D01*
X130826952Y-98262509D01*
X130818576Y-98272988D01*
X129411500Y-98272988D01*
X129411500Y-95196062D01*
X136018493Y-95196062D01*
X136027789Y-95208077D01*
X136078994Y-95243931D01*
X136088489Y-95249414D01*
X136285947Y-95341490D01*
X136296239Y-95345236D01*
X136506688Y-95401625D01*
X136517481Y-95403528D01*
X136734525Y-95422517D01*
X136745475Y-95422517D01*
X136962519Y-95403528D01*
X136973312Y-95401625D01*
X137183761Y-95345236D01*
X137194053Y-95341490D01*
X137391511Y-95249414D01*
X137401006Y-95243931D01*
X137453048Y-95207491D01*
X137461424Y-95197012D01*
X137454356Y-95183566D01*
X136752812Y-94482022D01*
X136738868Y-94474408D01*
X136737035Y-94474539D01*
X136730420Y-94478790D01*
X136024923Y-95184287D01*
X136018493Y-95196062D01*
X129411500Y-95196062D01*
X129411500Y-94115475D01*
X135427483Y-94115475D01*
X135446472Y-94332519D01*
X135448375Y-94343312D01*
X135504764Y-94553761D01*
X135508510Y-94564053D01*
X135600586Y-94761511D01*
X135606069Y-94771006D01*
X135642509Y-94823048D01*
X135652988Y-94831424D01*
X135666434Y-94824356D01*
X136367978Y-94122812D01*
X136374356Y-94111132D01*
X137104408Y-94111132D01*
X137104539Y-94112965D01*
X137108790Y-94119580D01*
X137814287Y-94825077D01*
X137856029Y-94847871D01*
X137866029Y-94850047D01*
X137916227Y-94900253D01*
X137931451Y-94953814D01*
X137931500Y-94954717D01*
X137931500Y-94958134D01*
X137938255Y-95020316D01*
X137989385Y-95156705D01*
X138076739Y-95273261D01*
X138193295Y-95360615D01*
X138329684Y-95411745D01*
X138391866Y-95418500D01*
X140088134Y-95418500D01*
X140150316Y-95411745D01*
X140286705Y-95360615D01*
X140403261Y-95273261D01*
X140490615Y-95156705D01*
X140541745Y-95020316D01*
X140548500Y-94958134D01*
X140548500Y-93261866D01*
X140541745Y-93199684D01*
X140490615Y-93063295D01*
X140403261Y-92946739D01*
X140286705Y-92859385D01*
X140150316Y-92808255D01*
X140088134Y-92801500D01*
X138391866Y-92801500D01*
X138329684Y-92808255D01*
X138193295Y-92859385D01*
X138076739Y-92946739D01*
X137989385Y-93063295D01*
X137938255Y-93199684D01*
X137931500Y-93261866D01*
X137931500Y-93265185D01*
X137907847Y-93332110D01*
X137861844Y-93367804D01*
X137862859Y-93369734D01*
X137852000Y-93375442D01*
X137851755Y-93375632D01*
X137851597Y-93375653D01*
X137813566Y-93395644D01*
X137112022Y-94097188D01*
X137104408Y-94111132D01*
X136374356Y-94111132D01*
X136375592Y-94108868D01*
X136375461Y-94107035D01*
X136371210Y-94100420D01*
X135665713Y-93394923D01*
X135653938Y-93388493D01*
X135641923Y-93397789D01*
X135606069Y-93448994D01*
X135600586Y-93458489D01*
X135508510Y-93655947D01*
X135504764Y-93666239D01*
X135448375Y-93876688D01*
X135446472Y-93887481D01*
X135427483Y-94104525D01*
X135427483Y-94115475D01*
X129411500Y-94115475D01*
X129411500Y-93022988D01*
X136018576Y-93022988D01*
X136025644Y-93036434D01*
X136727188Y-93737978D01*
X136741132Y-93745592D01*
X136742965Y-93745461D01*
X136749580Y-93741210D01*
X137455077Y-93035713D01*
X137461507Y-93023938D01*
X137452211Y-93011923D01*
X137401006Y-92976069D01*
X137391511Y-92970586D01*
X137194053Y-92878510D01*
X137183761Y-92874764D01*
X136973312Y-92818375D01*
X136962519Y-92816472D01*
X136745475Y-92797483D01*
X136734525Y-92797483D01*
X136517481Y-92816472D01*
X136506688Y-92818375D01*
X136296239Y-92874764D01*
X136285947Y-92878510D01*
X136088489Y-92970586D01*
X136078994Y-92976069D01*
X136026952Y-93012509D01*
X136018576Y-93022988D01*
X129411500Y-93022988D01*
X129411500Y-88013151D01*
X131307996Y-88013151D01*
X131308220Y-88017817D01*
X131308220Y-88017822D01*
X131309299Y-88040276D01*
X131320180Y-88266798D01*
X131321093Y-88271386D01*
X131353296Y-88433281D01*
X131369721Y-88515857D01*
X131371300Y-88520255D01*
X131371302Y-88520262D01*
X131437001Y-88703248D01*
X131455531Y-88754858D01*
X131457748Y-88758984D01*
X131523589Y-88881520D01*
X131575725Y-88978551D01*
X131578520Y-88982294D01*
X131578522Y-88982297D01*
X131724871Y-89178282D01*
X131724876Y-89178288D01*
X131727663Y-89182020D01*
X131730972Y-89185300D01*
X131730977Y-89185306D01*
X131904690Y-89357509D01*
X131908007Y-89360797D01*
X131911769Y-89363555D01*
X131911772Y-89363558D01*
X132059918Y-89472183D01*
X132112794Y-89510953D01*
X132116929Y-89513129D01*
X132116933Y-89513131D01*
X132129898Y-89519952D01*
X132337527Y-89629191D01*
X132452700Y-89669411D01*
X132556052Y-89705503D01*
X132577268Y-89712912D01*
X132826750Y-89760278D01*
X132947232Y-89765011D01*
X133075825Y-89770064D01*
X133075830Y-89770064D01*
X133080493Y-89770247D01*
X133181072Y-89759232D01*
X133328269Y-89743112D01*
X133328275Y-89743111D01*
X133332922Y-89742602D01*
X133345529Y-89739283D01*
X133573973Y-89679138D01*
X133578493Y-89677948D01*
X133746335Y-89605838D01*
X133807507Y-89579557D01*
X133807510Y-89579555D01*
X133811810Y-89577708D01*
X133815790Y-89575245D01*
X133815794Y-89575243D01*
X134023764Y-89446547D01*
X134023766Y-89446545D01*
X134027747Y-89444082D01*
X134058219Y-89418286D01*
X134217989Y-89283031D01*
X134217991Y-89283029D01*
X134221562Y-89280006D01*
X134310771Y-89178282D01*
X134350821Y-89132614D01*
X134410775Y-89094586D01*
X134481770Y-89095008D01*
X134541267Y-89133746D01*
X134546511Y-89140303D01*
X134574866Y-89178276D01*
X134574875Y-89178286D01*
X134577663Y-89182020D01*
X134580972Y-89185300D01*
X134580977Y-89185306D01*
X134754690Y-89357509D01*
X134758007Y-89360797D01*
X134761769Y-89363555D01*
X134761772Y-89363558D01*
X134909918Y-89472183D01*
X134962794Y-89510953D01*
X134966929Y-89513129D01*
X134966933Y-89513131D01*
X134979898Y-89519952D01*
X135187527Y-89629191D01*
X135302700Y-89669411D01*
X135406052Y-89705503D01*
X135427268Y-89712912D01*
X135676750Y-89760278D01*
X135797232Y-89765011D01*
X135925825Y-89770064D01*
X135925830Y-89770064D01*
X135930493Y-89770247D01*
X136031072Y-89759232D01*
X136178269Y-89743112D01*
X136178275Y-89743111D01*
X136182922Y-89742602D01*
X136195529Y-89739283D01*
X136423973Y-89679138D01*
X136428493Y-89677948D01*
X136596335Y-89605838D01*
X136657507Y-89579557D01*
X136657510Y-89579555D01*
X136661810Y-89577708D01*
X136665790Y-89575245D01*
X136665794Y-89575243D01*
X136873764Y-89446547D01*
X136873766Y-89446545D01*
X136877747Y-89444082D01*
X136908219Y-89418286D01*
X137067989Y-89283031D01*
X137067991Y-89283029D01*
X137071562Y-89280006D01*
X137238995Y-89089084D01*
X137376369Y-88875512D01*
X137480667Y-88643980D01*
X137549596Y-88399575D01*
X137581643Y-88147667D01*
X137583991Y-88058000D01*
X137583757Y-88054851D01*
X137565518Y-87809411D01*
X137565517Y-87809407D01*
X137565172Y-87804759D01*
X137555002Y-87759811D01*
X137523262Y-87619543D01*
X137509128Y-87557082D01*
X137507435Y-87552728D01*
X137418784Y-87324762D01*
X137418783Y-87324760D01*
X137417091Y-87320409D01*
X137406618Y-87302085D01*
X137293402Y-87103997D01*
X137293400Y-87103995D01*
X137291083Y-87099940D01*
X137133871Y-86900517D01*
X137041507Y-86813630D01*
X136952310Y-86729722D01*
X136952308Y-86729720D01*
X136948909Y-86726523D01*
X136872291Y-86673371D01*
X136744093Y-86584437D01*
X136744090Y-86584435D01*
X136740261Y-86581779D01*
X136736084Y-86579719D01*
X136736077Y-86579715D01*
X136516696Y-86471528D01*
X136516692Y-86471527D01*
X136512510Y-86469464D01*
X136270660Y-86392047D01*
X136227573Y-86385030D01*
X136024635Y-86351980D01*
X136024634Y-86351980D01*
X136020023Y-86351229D01*
X135893064Y-86349567D01*
X135770783Y-86347966D01*
X135770780Y-86347966D01*
X135766106Y-86347905D01*
X135514487Y-86382149D01*
X135510001Y-86383457D01*
X135509999Y-86383457D01*
X135483101Y-86391297D01*
X135270693Y-86453208D01*
X135040080Y-86559522D01*
X135036171Y-86562085D01*
X134831628Y-86696189D01*
X134831623Y-86696193D01*
X134827715Y-86698755D01*
X134776472Y-86744491D01*
X134652942Y-86854746D01*
X134638262Y-86867848D01*
X134542596Y-86982873D01*
X134483661Y-87022456D01*
X134412679Y-87023893D01*
X134352188Y-86986725D01*
X134346774Y-86980309D01*
X134298251Y-86918758D01*
X134283871Y-86900517D01*
X134191507Y-86813630D01*
X134102310Y-86729722D01*
X134102308Y-86729720D01*
X134098909Y-86726523D01*
X134022291Y-86673371D01*
X133894093Y-86584437D01*
X133894090Y-86584435D01*
X133890261Y-86581779D01*
X133886084Y-86579719D01*
X133886077Y-86579715D01*
X133666696Y-86471528D01*
X133666692Y-86471527D01*
X133662510Y-86469464D01*
X133420660Y-86392047D01*
X133377573Y-86385030D01*
X133174635Y-86351980D01*
X133174634Y-86351980D01*
X133170023Y-86351229D01*
X133043064Y-86349567D01*
X132920783Y-86347966D01*
X132920780Y-86347966D01*
X132916106Y-86347905D01*
X132664487Y-86382149D01*
X132660001Y-86383457D01*
X132659999Y-86383457D01*
X132633101Y-86391297D01*
X132420693Y-86453208D01*
X132190080Y-86559522D01*
X132186171Y-86562085D01*
X131981628Y-86696189D01*
X131981623Y-86696193D01*
X131977715Y-86698755D01*
X131926472Y-86744491D01*
X131802942Y-86854746D01*
X131788262Y-86867848D01*
X131625883Y-87063087D01*
X131494147Y-87280182D01*
X131492338Y-87284496D01*
X131492337Y-87284498D01*
X131402182Y-87499495D01*
X131395946Y-87514365D01*
X131394795Y-87518897D01*
X131394794Y-87518900D01*
X131386831Y-87550256D01*
X131333438Y-87760490D01*
X131307996Y-88013151D01*
X129411500Y-88013151D01*
X129411500Y-85284524D01*
X129431502Y-85216403D01*
X129443858Y-85200221D01*
X129517040Y-85118944D01*
X129612527Y-84953556D01*
X129671542Y-84771928D01*
X129672911Y-84758908D01*
X129690814Y-84588565D01*
X129691504Y-84582000D01*
X129677224Y-84446135D01*
X129675671Y-84431359D01*
X132012086Y-84431359D01*
X132020799Y-84442879D01*
X132109286Y-84507760D01*
X132117205Y-84512708D01*
X132333577Y-84626547D01*
X132342151Y-84630275D01*
X132572982Y-84710885D01*
X132581991Y-84713299D01*
X132822218Y-84758908D01*
X132831475Y-84759962D01*
X133075807Y-84769563D01*
X133085120Y-84769237D01*
X133328178Y-84742618D01*
X133337355Y-84740917D01*
X133573807Y-84678665D01*
X133582626Y-84675628D01*
X133807284Y-84579107D01*
X133815556Y-84574800D01*
X134023477Y-84446135D01*
X134025320Y-84444796D01*
X134032738Y-84433541D01*
X134031460Y-84431359D01*
X134862086Y-84431359D01*
X134870799Y-84442879D01*
X134959286Y-84507760D01*
X134967205Y-84512708D01*
X135183577Y-84626547D01*
X135192151Y-84630275D01*
X135422982Y-84710885D01*
X135431991Y-84713299D01*
X135672218Y-84758908D01*
X135681475Y-84759962D01*
X135925807Y-84769563D01*
X135935120Y-84769237D01*
X136178178Y-84742618D01*
X136187355Y-84740917D01*
X136423807Y-84678665D01*
X136432626Y-84675628D01*
X136657284Y-84579107D01*
X136665556Y-84574800D01*
X136873477Y-84446135D01*
X136875320Y-84444796D01*
X136882738Y-84433541D01*
X136876674Y-84423184D01*
X135883512Y-83430022D01*
X135869568Y-83422408D01*
X135867735Y-83422539D01*
X135861120Y-83426790D01*
X134868744Y-84419166D01*
X134862086Y-84431359D01*
X134031460Y-84431359D01*
X134026674Y-84423184D01*
X133033512Y-83430022D01*
X133019568Y-83422408D01*
X133017735Y-83422539D01*
X133011120Y-83426790D01*
X132018744Y-84419166D01*
X132012086Y-84431359D01*
X129675671Y-84431359D01*
X129672232Y-84398635D01*
X129672232Y-84398633D01*
X129671542Y-84392072D01*
X129612527Y-84210444D01*
X129517040Y-84045056D01*
X129460289Y-83982027D01*
X129393675Y-83908045D01*
X129393674Y-83908044D01*
X129389253Y-83903134D01*
X129234752Y-83790882D01*
X129228724Y-83788198D01*
X129228722Y-83788197D01*
X129066319Y-83715891D01*
X129066318Y-83715891D01*
X129060288Y-83713206D01*
X128966888Y-83693353D01*
X128879944Y-83674872D01*
X128879939Y-83674872D01*
X128873487Y-83673500D01*
X128682513Y-83673500D01*
X128676061Y-83674872D01*
X128676056Y-83674872D01*
X128589112Y-83693353D01*
X128495712Y-83713206D01*
X128489682Y-83715891D01*
X128489681Y-83715891D01*
X128327278Y-83788197D01*
X128327276Y-83788198D01*
X128321248Y-83790882D01*
X128166747Y-83903134D01*
X128162326Y-83908044D01*
X128162325Y-83908045D01*
X128095712Y-83982027D01*
X128038960Y-84045056D01*
X127943473Y-84210444D01*
X127884458Y-84392072D01*
X127883768Y-84398633D01*
X127883768Y-84398635D01*
X127878776Y-84446135D01*
X127864496Y-84582000D01*
X127865186Y-84588565D01*
X127883090Y-84758908D01*
X127884458Y-84771928D01*
X127943473Y-84953556D01*
X128038960Y-85118944D01*
X128112137Y-85200215D01*
X128142853Y-85264221D01*
X128144500Y-85284524D01*
X128144500Y-93811312D01*
X128124498Y-93879433D01*
X128070842Y-93925926D01*
X128000568Y-93936030D01*
X127962772Y-93924318D01*
X127853702Y-93870531D01*
X127853699Y-93870530D01*
X127849510Y-93868464D01*
X127607660Y-93791047D01*
X127560416Y-93783353D01*
X127361635Y-93750980D01*
X127361634Y-93750980D01*
X127357023Y-93750229D01*
X127230065Y-93748567D01*
X127107783Y-93746966D01*
X127107780Y-93746966D01*
X127103106Y-93746905D01*
X126851487Y-93781149D01*
X126607693Y-93852208D01*
X126377080Y-93958522D01*
X126373171Y-93961085D01*
X126168628Y-94095189D01*
X126168623Y-94095193D01*
X126164715Y-94097755D01*
X125975262Y-94266848D01*
X125812883Y-94462087D01*
X125681147Y-94679182D01*
X125679338Y-94683496D01*
X125679337Y-94683498D01*
X125617307Y-94831424D01*
X125582946Y-94913365D01*
X125520438Y-95159490D01*
X125494996Y-95412151D01*
X125495220Y-95416817D01*
X125495220Y-95416822D01*
X125500118Y-95518786D01*
X125507180Y-95665798D01*
X125556721Y-95914857D01*
X125558300Y-95919255D01*
X125558302Y-95919262D01*
X125594709Y-96020663D01*
X125606672Y-96053981D01*
X125608247Y-96058369D01*
X125612441Y-96129241D01*
X125578754Y-96190041D01*
X124165447Y-97603348D01*
X124157161Y-97610888D01*
X124150682Y-97615000D01*
X124145257Y-97620777D01*
X124104057Y-97664651D01*
X124101302Y-97667493D01*
X124081565Y-97687230D01*
X124079085Y-97690427D01*
X124071382Y-97699447D01*
X124041114Y-97731679D01*
X124037295Y-97738625D01*
X124037293Y-97738628D01*
X124031352Y-97749434D01*
X124020501Y-97765953D01*
X124008086Y-97781959D01*
X124004941Y-97789228D01*
X124004938Y-97789232D01*
X123990526Y-97822537D01*
X123985309Y-97833187D01*
X123964005Y-97871940D01*
X123962034Y-97879615D01*
X123962034Y-97879616D01*
X123958967Y-97891562D01*
X123952563Y-97910266D01*
X123944519Y-97928855D01*
X123943280Y-97936678D01*
X123943277Y-97936688D01*
X123937601Y-97972524D01*
X123935195Y-97984144D01*
X123924200Y-98026970D01*
X123924200Y-98047224D01*
X123922649Y-98066934D01*
X123919480Y-98086943D01*
X123920226Y-98094835D01*
X123923641Y-98130961D01*
X123924200Y-98142819D01*
X123924200Y-101701005D01*
X123904198Y-101769126D01*
X123887295Y-101790100D01*
X123069695Y-102607700D01*
X123007383Y-102641726D01*
X122936568Y-102636661D01*
X122879732Y-102594114D01*
X122854921Y-102527594D01*
X122854600Y-102518605D01*
X122854600Y-94438994D01*
X122874602Y-94370873D01*
X122891505Y-94349899D01*
X127347353Y-89894052D01*
X127355639Y-89886512D01*
X127362118Y-89882400D01*
X127408744Y-89832748D01*
X127411498Y-89829907D01*
X127431235Y-89810170D01*
X127433715Y-89806973D01*
X127441420Y-89797951D01*
X127466259Y-89771500D01*
X127471686Y-89765721D01*
X127475505Y-89758775D01*
X127475507Y-89758772D01*
X127481448Y-89747966D01*
X127492299Y-89731447D01*
X127499858Y-89721701D01*
X127504714Y-89715441D01*
X127507859Y-89708172D01*
X127507862Y-89708168D01*
X127522274Y-89674863D01*
X127527491Y-89664213D01*
X127548795Y-89625460D01*
X127553833Y-89605837D01*
X127560237Y-89587134D01*
X127565133Y-89575820D01*
X127565133Y-89575819D01*
X127568281Y-89568545D01*
X127569520Y-89560722D01*
X127569523Y-89560712D01*
X127575199Y-89524876D01*
X127577605Y-89513256D01*
X127586628Y-89478111D01*
X127586628Y-89478110D01*
X127588600Y-89470430D01*
X127588600Y-89450176D01*
X127590151Y-89430465D01*
X127592080Y-89418286D01*
X127593320Y-89410457D01*
X127589159Y-89366438D01*
X127588600Y-89354581D01*
X127588600Y-83017835D01*
X131308722Y-83017835D01*
X131320454Y-83262064D01*
X131321591Y-83271324D01*
X131369293Y-83511143D01*
X131371782Y-83520118D01*
X131454408Y-83750250D01*
X131458205Y-83758778D01*
X131573934Y-83974160D01*
X131578945Y-83982027D01*
X131635873Y-84058263D01*
X131647131Y-84066712D01*
X131659550Y-84059940D01*
X132648678Y-83070812D01*
X132655056Y-83059132D01*
X133385108Y-83059132D01*
X133385239Y-83060965D01*
X133389490Y-83067580D01*
X134384432Y-84062522D01*
X134398376Y-84070136D01*
X134423092Y-84068369D01*
X134439665Y-84062187D01*
X134461544Y-84066946D01*
X134461677Y-84065113D01*
X134495546Y-84067576D01*
X134509550Y-84059940D01*
X135498678Y-83070812D01*
X135505056Y-83059132D01*
X136235108Y-83059132D01*
X136235239Y-83060965D01*
X136239490Y-83067580D01*
X137234432Y-84062522D01*
X137246812Y-84069282D01*
X137255153Y-84063038D01*
X137373400Y-83879202D01*
X137377847Y-83871011D01*
X137478272Y-83648076D01*
X137481467Y-83639298D01*
X137547835Y-83403973D01*
X137549693Y-83394844D01*
X137580744Y-83150770D01*
X137581225Y-83144483D01*
X137583406Y-83061160D01*
X137583255Y-83054851D01*
X137565021Y-82809486D01*
X137563644Y-82800280D01*
X137509679Y-82561786D01*
X137506955Y-82552875D01*
X137418333Y-82324983D01*
X137414319Y-82316567D01*
X137320909Y-82153134D01*
X138391500Y-82153134D01*
X138398255Y-82215316D01*
X138449385Y-82351705D01*
X138536739Y-82468261D01*
X138653295Y-82555615D01*
X138789684Y-82606745D01*
X138851866Y-82613500D01*
X140648134Y-82613500D01*
X140710316Y-82606745D01*
X140846705Y-82555615D01*
X140963261Y-82468261D01*
X141050615Y-82351705D01*
X141101745Y-82215316D01*
X141108500Y-82153134D01*
X141108500Y-80356866D01*
X141101745Y-80294684D01*
X141050615Y-80158295D01*
X140963261Y-80041739D01*
X140846705Y-79954385D01*
X140793833Y-79934564D01*
X140727687Y-79909767D01*
X140670923Y-79867125D01*
X140646223Y-79800564D01*
X140661430Y-79731215D01*
X140682977Y-79702535D01*
X140784052Y-79601812D01*
X140790730Y-79593965D01*
X140915003Y-79421020D01*
X140920313Y-79412183D01*
X141014670Y-79221267D01*
X141018469Y-79211672D01*
X141080377Y-79007910D01*
X141082555Y-78997837D01*
X141083986Y-78986962D01*
X141081775Y-78972778D01*
X141068617Y-78969000D01*
X138433225Y-78969000D01*
X138419694Y-78972973D01*
X138418257Y-78982966D01*
X138448565Y-79117446D01*
X138451645Y-79127275D01*
X138531770Y-79324603D01*
X138536413Y-79333794D01*
X138647694Y-79515388D01*
X138653777Y-79523699D01*
X138793213Y-79684667D01*
X138800577Y-79691879D01*
X138805522Y-79695985D01*
X138845156Y-79754889D01*
X138846653Y-79825870D01*
X138809537Y-79886392D01*
X138769264Y-79910910D01*
X138661705Y-79951232D01*
X138661704Y-79951233D01*
X138653295Y-79954385D01*
X138536739Y-80041739D01*
X138449385Y-80158295D01*
X138398255Y-80294684D01*
X138391500Y-80356866D01*
X138391500Y-82153134D01*
X137320909Y-82153134D01*
X137292984Y-82104276D01*
X137287774Y-82096553D01*
X137256487Y-82056865D01*
X137244563Y-82048395D01*
X137233028Y-82054882D01*
X136242722Y-83045188D01*
X136235108Y-83059132D01*
X135505056Y-83059132D01*
X135506292Y-83056868D01*
X135506161Y-83055035D01*
X135501910Y-83048420D01*
X134507528Y-82054038D01*
X134493584Y-82046424D01*
X134466254Y-82048378D01*
X134449039Y-82054303D01*
X134428541Y-82049292D01*
X134395681Y-82047766D01*
X134383028Y-82054882D01*
X133392722Y-83045188D01*
X133385108Y-83059132D01*
X132655056Y-83059132D01*
X132656292Y-83056868D01*
X132656161Y-83055035D01*
X132651910Y-83048420D01*
X131657528Y-82054038D01*
X131644220Y-82046771D01*
X131634181Y-82053893D01*
X131629281Y-82059784D01*
X131623868Y-82067373D01*
X131497022Y-82276409D01*
X131492784Y-82284726D01*
X131398229Y-82510214D01*
X131395272Y-82519052D01*
X131335084Y-82756042D01*
X131333463Y-82765232D01*
X131308967Y-83008510D01*
X131308722Y-83017835D01*
X127588600Y-83017835D01*
X127588600Y-81682917D01*
X132010030Y-81682917D01*
X132014603Y-81692693D01*
X133007888Y-82685978D01*
X133021832Y-82693592D01*
X133023665Y-82693461D01*
X133030280Y-82689210D01*
X134023188Y-81696302D01*
X134029572Y-81684612D01*
X134028255Y-81682917D01*
X134860030Y-81682917D01*
X134864603Y-81692693D01*
X135857888Y-82685978D01*
X135871832Y-82693592D01*
X135873665Y-82693461D01*
X135880280Y-82689210D01*
X136873188Y-81696302D01*
X136879572Y-81684612D01*
X136870160Y-81672502D01*
X136743844Y-81584873D01*
X136735816Y-81580145D01*
X136516510Y-81471995D01*
X136507877Y-81468507D01*
X136274988Y-81393958D01*
X136265938Y-81391785D01*
X136024591Y-81352480D01*
X136015302Y-81351668D01*
X135770814Y-81348467D01*
X135761503Y-81349037D01*
X135519222Y-81382010D01*
X135510103Y-81383948D01*
X135275368Y-81452367D01*
X135266615Y-81455639D01*
X135044569Y-81558004D01*
X135036414Y-81562524D01*
X134869168Y-81672175D01*
X134860030Y-81682917D01*
X134028255Y-81682917D01*
X134020160Y-81672502D01*
X133893844Y-81584873D01*
X133885816Y-81580145D01*
X133666510Y-81471995D01*
X133657877Y-81468507D01*
X133424988Y-81393958D01*
X133415938Y-81391785D01*
X133174591Y-81352480D01*
X133165302Y-81351668D01*
X132920814Y-81348467D01*
X132911503Y-81349037D01*
X132669222Y-81382010D01*
X132660103Y-81383948D01*
X132425368Y-81452367D01*
X132416615Y-81455639D01*
X132194569Y-81558004D01*
X132186414Y-81562524D01*
X132019168Y-81672175D01*
X132010030Y-81682917D01*
X127588600Y-81682917D01*
X127588600Y-79431359D01*
X132012086Y-79431359D01*
X132020799Y-79442879D01*
X132109286Y-79507760D01*
X132117205Y-79512708D01*
X132333577Y-79626547D01*
X132342151Y-79630275D01*
X132572982Y-79710885D01*
X132581991Y-79713299D01*
X132822218Y-79758908D01*
X132831475Y-79759962D01*
X133075807Y-79769563D01*
X133085120Y-79769237D01*
X133328178Y-79742618D01*
X133337355Y-79740917D01*
X133573807Y-79678665D01*
X133582626Y-79675628D01*
X133807284Y-79579107D01*
X133815556Y-79574800D01*
X134023477Y-79446135D01*
X134025320Y-79444796D01*
X134032738Y-79433541D01*
X134031460Y-79431359D01*
X134862086Y-79431359D01*
X134870799Y-79442879D01*
X134959286Y-79507760D01*
X134967205Y-79512708D01*
X135183577Y-79626547D01*
X135192151Y-79630275D01*
X135422982Y-79710885D01*
X135431991Y-79713299D01*
X135672218Y-79758908D01*
X135681475Y-79759962D01*
X135925807Y-79769563D01*
X135935120Y-79769237D01*
X136178178Y-79742618D01*
X136187355Y-79740917D01*
X136423807Y-79678665D01*
X136432626Y-79675628D01*
X136657284Y-79579107D01*
X136665556Y-79574800D01*
X136873477Y-79446135D01*
X136875320Y-79444796D01*
X136882738Y-79433541D01*
X136876674Y-79423184D01*
X135883512Y-78430022D01*
X135869568Y-78422408D01*
X135867735Y-78422539D01*
X135861120Y-78426790D01*
X134868744Y-79419166D01*
X134862086Y-79431359D01*
X134031460Y-79431359D01*
X134026674Y-79423184D01*
X133033512Y-78430022D01*
X133019568Y-78422408D01*
X133017735Y-78422539D01*
X133011120Y-78426790D01*
X132018744Y-79419166D01*
X132012086Y-79431359D01*
X127588600Y-79431359D01*
X127588600Y-78017835D01*
X131308722Y-78017835D01*
X131320454Y-78262064D01*
X131321591Y-78271324D01*
X131369293Y-78511143D01*
X131371782Y-78520118D01*
X131454408Y-78750250D01*
X131458205Y-78758778D01*
X131573934Y-78974160D01*
X131578945Y-78982027D01*
X131635873Y-79058263D01*
X131647131Y-79066712D01*
X131659550Y-79059940D01*
X132648678Y-78070812D01*
X132655056Y-78059132D01*
X133385108Y-78059132D01*
X133385239Y-78060965D01*
X133389490Y-78067580D01*
X134384432Y-79062522D01*
X134398376Y-79070136D01*
X134423092Y-79068369D01*
X134439665Y-79062187D01*
X134461544Y-79066946D01*
X134461677Y-79065113D01*
X134495546Y-79067576D01*
X134509550Y-79059940D01*
X135498678Y-78070812D01*
X135505056Y-78059132D01*
X136235108Y-78059132D01*
X136235239Y-78060965D01*
X136239490Y-78067580D01*
X137234432Y-79062522D01*
X137246812Y-79069282D01*
X137255153Y-79063038D01*
X137373400Y-78879202D01*
X137377847Y-78871011D01*
X137478272Y-78648076D01*
X137481467Y-78639298D01*
X137535085Y-78449183D01*
X138414389Y-78449183D01*
X138415912Y-78457607D01*
X138428292Y-78461000D01*
X139477885Y-78461000D01*
X139493124Y-78456525D01*
X139494329Y-78455135D01*
X139496000Y-78447452D01*
X139496000Y-78442885D01*
X140004000Y-78442885D01*
X140008475Y-78458124D01*
X140009865Y-78459329D01*
X140017548Y-78461000D01*
X141068344Y-78461000D01*
X141081875Y-78457027D01*
X141083180Y-78447947D01*
X141041214Y-78280875D01*
X141037894Y-78271124D01*
X140952972Y-78075814D01*
X140948105Y-78066739D01*
X140832426Y-77887926D01*
X140826136Y-77879757D01*
X140682806Y-77722240D01*
X140675273Y-77715215D01*
X140508139Y-77583222D01*
X140499552Y-77577517D01*
X140313117Y-77474599D01*
X140303705Y-77470369D01*
X140102959Y-77399280D01*
X140092988Y-77396646D01*
X140021837Y-77383972D01*
X140008540Y-77385432D01*
X140004000Y-77399989D01*
X140004000Y-78442885D01*
X139496000Y-78442885D01*
X139496000Y-77398102D01*
X139492082Y-77384758D01*
X139477806Y-77382771D01*
X139439324Y-77388660D01*
X139429288Y-77391051D01*
X139226868Y-77457212D01*
X139217359Y-77461209D01*
X139028463Y-77559542D01*
X139019738Y-77565036D01*
X138849433Y-77692905D01*
X138841726Y-77699748D01*
X138694590Y-77853717D01*
X138688104Y-77861727D01*
X138568098Y-78037649D01*
X138563000Y-78046623D01*
X138473338Y-78239783D01*
X138469775Y-78249470D01*
X138414389Y-78449183D01*
X137535085Y-78449183D01*
X137547835Y-78403973D01*
X137549693Y-78394844D01*
X137580744Y-78150770D01*
X137581225Y-78144483D01*
X137583406Y-78061160D01*
X137583255Y-78054851D01*
X137565021Y-77809486D01*
X137563644Y-77800280D01*
X137509679Y-77561786D01*
X137506955Y-77552875D01*
X137418333Y-77324983D01*
X137414319Y-77316567D01*
X137292984Y-77104276D01*
X137287774Y-77096553D01*
X137256487Y-77056865D01*
X137244563Y-77048395D01*
X137233028Y-77054882D01*
X136242722Y-78045188D01*
X136235108Y-78059132D01*
X135505056Y-78059132D01*
X135506292Y-78056868D01*
X135506161Y-78055035D01*
X135501910Y-78048420D01*
X134507528Y-77054038D01*
X134493584Y-77046424D01*
X134466254Y-77048378D01*
X134449039Y-77054303D01*
X134428541Y-77049292D01*
X134395681Y-77047766D01*
X134383028Y-77054882D01*
X133392722Y-78045188D01*
X133385108Y-78059132D01*
X132655056Y-78059132D01*
X132656292Y-78056868D01*
X132656161Y-78055035D01*
X132651910Y-78048420D01*
X131657528Y-77054038D01*
X131644220Y-77046771D01*
X131634181Y-77053893D01*
X131629281Y-77059784D01*
X131623868Y-77067373D01*
X131497022Y-77276409D01*
X131492784Y-77284726D01*
X131398229Y-77510214D01*
X131395272Y-77519052D01*
X131335084Y-77756042D01*
X131333463Y-77765232D01*
X131308967Y-78008510D01*
X131308722Y-78017835D01*
X127588600Y-78017835D01*
X127588600Y-76682917D01*
X132010030Y-76682917D01*
X132014603Y-76692693D01*
X133007888Y-77685978D01*
X133021832Y-77693592D01*
X133023665Y-77693461D01*
X133030280Y-77689210D01*
X134023188Y-76696302D01*
X134029572Y-76684612D01*
X134028255Y-76682917D01*
X134860030Y-76682917D01*
X134864603Y-76692693D01*
X135857888Y-77685978D01*
X135871832Y-77693592D01*
X135873665Y-77693461D01*
X135880280Y-77689210D01*
X136873188Y-76696302D01*
X136879572Y-76684612D01*
X136870160Y-76672502D01*
X136743844Y-76584873D01*
X136735816Y-76580145D01*
X136516510Y-76471995D01*
X136507877Y-76468507D01*
X136274988Y-76393958D01*
X136265938Y-76391785D01*
X136024591Y-76352480D01*
X136015302Y-76351668D01*
X135770814Y-76348467D01*
X135761503Y-76349037D01*
X135519222Y-76382010D01*
X135510103Y-76383948D01*
X135275368Y-76452367D01*
X135266615Y-76455639D01*
X135044569Y-76558004D01*
X135036414Y-76562524D01*
X134869168Y-76672175D01*
X134860030Y-76682917D01*
X134028255Y-76682917D01*
X134020160Y-76672502D01*
X133893844Y-76584873D01*
X133885816Y-76580145D01*
X133666510Y-76471995D01*
X133657877Y-76468507D01*
X133424988Y-76393958D01*
X133415938Y-76391785D01*
X133174591Y-76352480D01*
X133165302Y-76351668D01*
X132920814Y-76348467D01*
X132911503Y-76349037D01*
X132669222Y-76382010D01*
X132660103Y-76383948D01*
X132425368Y-76452367D01*
X132416615Y-76455639D01*
X132194569Y-76558004D01*
X132186414Y-76562524D01*
X132019168Y-76672175D01*
X132010030Y-76682917D01*
X127588600Y-76682917D01*
X127588600Y-72549378D01*
X127608602Y-72481257D01*
X127662258Y-72434764D01*
X127682520Y-72427530D01*
X127714330Y-72419155D01*
X127764493Y-72405948D01*
X127934984Y-72332700D01*
X127993507Y-72307557D01*
X127993510Y-72307555D01*
X127997810Y-72305708D01*
X128001790Y-72303245D01*
X128001794Y-72303243D01*
X128209764Y-72174547D01*
X128209766Y-72174545D01*
X128213747Y-72172082D01*
X128217324Y-72169054D01*
X128403989Y-72011031D01*
X128403991Y-72011029D01*
X128407562Y-72008006D01*
X128574995Y-71817084D01*
X128602815Y-71773834D01*
X128709841Y-71607442D01*
X128712369Y-71603512D01*
X128714286Y-71599257D01*
X128714289Y-71599251D01*
X128765012Y-71486650D01*
X128811228Y-71432755D01*
X128879245Y-71412403D01*
X128947468Y-71432053D01*
X128995531Y-71488361D01*
X128997270Y-71492380D01*
X128999482Y-71499993D01*
X129003518Y-71506817D01*
X129009793Y-71517428D01*
X129018488Y-71535176D01*
X129025948Y-71554017D01*
X129030610Y-71560433D01*
X129030610Y-71560434D01*
X129051936Y-71589787D01*
X129058452Y-71599707D01*
X129072769Y-71623915D01*
X129080958Y-71637762D01*
X129095279Y-71652083D01*
X129108119Y-71667116D01*
X129120028Y-71683507D01*
X129154105Y-71711698D01*
X129162884Y-71719688D01*
X132373148Y-74929953D01*
X132380688Y-74938239D01*
X132384800Y-74944718D01*
X132390577Y-74950143D01*
X132434451Y-74991343D01*
X132437293Y-74994098D01*
X132457030Y-75013835D01*
X132460227Y-75016315D01*
X132469247Y-75024018D01*
X132501479Y-75054286D01*
X132508425Y-75058105D01*
X132508428Y-75058107D01*
X132519234Y-75064048D01*
X132535753Y-75074899D01*
X132551759Y-75087314D01*
X132559028Y-75090459D01*
X132559032Y-75090462D01*
X132592337Y-75104874D01*
X132602987Y-75110091D01*
X132641740Y-75131395D01*
X132649415Y-75133366D01*
X132649416Y-75133366D01*
X132661362Y-75136433D01*
X132680067Y-75142837D01*
X132698655Y-75150881D01*
X132706478Y-75152120D01*
X132706488Y-75152123D01*
X132742324Y-75157799D01*
X132753944Y-75160205D01*
X132785759Y-75168373D01*
X132796770Y-75171200D01*
X132817024Y-75171200D01*
X132836734Y-75172751D01*
X132856743Y-75175920D01*
X132864635Y-75175174D01*
X132883380Y-75173402D01*
X132900762Y-75171759D01*
X132912619Y-75171200D01*
X133662833Y-75171200D01*
X133674016Y-75171727D01*
X133681509Y-75173402D01*
X133689435Y-75173153D01*
X133689436Y-75173153D01*
X133749586Y-75171262D01*
X133753545Y-75171200D01*
X133781456Y-75171200D01*
X133785391Y-75170703D01*
X133785456Y-75170695D01*
X133797293Y-75169762D01*
X133829551Y-75168748D01*
X133833570Y-75168622D01*
X133841489Y-75168373D01*
X133860943Y-75162721D01*
X133880300Y-75158713D01*
X133892530Y-75157168D01*
X133892531Y-75157168D01*
X133900397Y-75156174D01*
X133907768Y-75153255D01*
X133907770Y-75153255D01*
X133941512Y-75139896D01*
X133952742Y-75136051D01*
X133987583Y-75125929D01*
X133987584Y-75125929D01*
X133995193Y-75123718D01*
X134002012Y-75119685D01*
X134002017Y-75119683D01*
X134012628Y-75113407D01*
X134030376Y-75104712D01*
X134049217Y-75097252D01*
X134084987Y-75071264D01*
X134092357Y-75066423D01*
X137508703Y-75066423D01*
X137516227Y-75076854D01*
X137655483Y-75189020D01*
X137661657Y-75193408D01*
X137932271Y-75362178D01*
X137938931Y-75365794D01*
X138227852Y-75500827D01*
X138234905Y-75503620D01*
X138537970Y-75602970D01*
X138545282Y-75604888D01*
X138858092Y-75667109D01*
X138865590Y-75668137D01*
X139183610Y-75692328D01*
X139191173Y-75692446D01*
X139509785Y-75678257D01*
X139517326Y-75677465D01*
X139831924Y-75625101D01*
X139839302Y-75623411D01*
X140145355Y-75533625D01*
X140152450Y-75531071D01*
X140445496Y-75405169D01*
X140452263Y-75401765D01*
X140728042Y-75241580D01*
X140734349Y-75237390D01*
X140944305Y-75078889D01*
X140952761Y-75067496D01*
X140946045Y-75055256D01*
X139242810Y-73352020D01*
X139228869Y-73344408D01*
X139227034Y-73344539D01*
X139220420Y-73348790D01*
X137515818Y-75053393D01*
X137508703Y-75066423D01*
X134092357Y-75066423D01*
X134094907Y-75064748D01*
X134126135Y-75046280D01*
X134126138Y-75046278D01*
X134132962Y-75042242D01*
X134147283Y-75027921D01*
X134162317Y-75015080D01*
X134172293Y-75007832D01*
X134178707Y-75003172D01*
X134206888Y-74969107D01*
X134214878Y-74960326D01*
X134835658Y-74339547D01*
X134843937Y-74332013D01*
X134850418Y-74327900D01*
X134897044Y-74278248D01*
X134899798Y-74275407D01*
X134919535Y-74255670D01*
X134922015Y-74252473D01*
X134929720Y-74243451D01*
X134959986Y-74211221D01*
X134963805Y-74204275D01*
X134963807Y-74204272D01*
X134969748Y-74193466D01*
X134980599Y-74176947D01*
X134988158Y-74167201D01*
X134993014Y-74160941D01*
X134996159Y-74153672D01*
X134996162Y-74153668D01*
X135010574Y-74120363D01*
X135015791Y-74109713D01*
X135037095Y-74070960D01*
X135042133Y-74051337D01*
X135048537Y-74032634D01*
X135053433Y-74021320D01*
X135053433Y-74021319D01*
X135056581Y-74014045D01*
X135057820Y-74006222D01*
X135057823Y-74006212D01*
X135063499Y-73970376D01*
X135065905Y-73958756D01*
X135074928Y-73923611D01*
X135074928Y-73923610D01*
X135076900Y-73915930D01*
X135076900Y-73895676D01*
X135078451Y-73875965D01*
X135080380Y-73863786D01*
X135081620Y-73855957D01*
X135077459Y-73811938D01*
X135076900Y-73800081D01*
X135076900Y-72955383D01*
X136517388Y-72955383D01*
X136533245Y-73273914D01*
X136534076Y-73281443D01*
X136588085Y-73595759D01*
X136589818Y-73603146D01*
X136681196Y-73908695D01*
X136683799Y-73915808D01*
X136811227Y-74208173D01*
X136814669Y-74214929D01*
X136976296Y-74489865D01*
X136980519Y-74496150D01*
X137131463Y-74693934D01*
X137142989Y-74702396D01*
X137155054Y-74695735D01*
X138857980Y-72992810D01*
X138865592Y-72978869D01*
X138865461Y-72977034D01*
X138861210Y-72970420D01*
X137156445Y-71265656D01*
X137143510Y-71258592D01*
X137132949Y-71266252D01*
X137012766Y-71417072D01*
X137008410Y-71423270D01*
X136841059Y-71694764D01*
X136837479Y-71701440D01*
X136703956Y-71991074D01*
X136701206Y-71998125D01*
X136603444Y-72301708D01*
X136601561Y-72309041D01*
X136540979Y-72622170D01*
X136539992Y-72629670D01*
X136517467Y-72947802D01*
X136517388Y-72955383D01*
X135076900Y-72955383D01*
X135076900Y-70893423D01*
X137507917Y-70893423D01*
X137514520Y-70905309D01*
X139217190Y-72607980D01*
X139231131Y-72615592D01*
X139232966Y-72615461D01*
X139239580Y-72611210D01*
X140944559Y-70906230D01*
X140951571Y-70893389D01*
X140943777Y-70882701D01*
X140781298Y-70754613D01*
X140775075Y-70750288D01*
X140502702Y-70584357D01*
X140496025Y-70580822D01*
X140205686Y-70448813D01*
X140198616Y-70446099D01*
X139894537Y-70349932D01*
X139887186Y-70348085D01*
X139573746Y-70289142D01*
X139566237Y-70288194D01*
X139247989Y-70267335D01*
X139240424Y-70267295D01*
X138921964Y-70284821D01*
X138914450Y-70285690D01*
X138600405Y-70341348D01*
X138593044Y-70343115D01*
X138287980Y-70436092D01*
X138280860Y-70438740D01*
X137989182Y-70567690D01*
X137982445Y-70571167D01*
X137708355Y-70734233D01*
X137702091Y-70738490D01*
X137516385Y-70881762D01*
X137507917Y-70893423D01*
X135076900Y-70893423D01*
X135076900Y-68705367D01*
X135077427Y-68694184D01*
X135079102Y-68686691D01*
X135078006Y-68651807D01*
X135076962Y-68618614D01*
X135076900Y-68614655D01*
X135076900Y-68586744D01*
X135076395Y-68582744D01*
X135075462Y-68570901D01*
X135075435Y-68570025D01*
X135074073Y-68526711D01*
X135068421Y-68507257D01*
X135064413Y-68487900D01*
X135062868Y-68475670D01*
X135062868Y-68475669D01*
X135061874Y-68467803D01*
X135055159Y-68450843D01*
X135045596Y-68426688D01*
X135041751Y-68415458D01*
X135031629Y-68380617D01*
X135031629Y-68380616D01*
X135029418Y-68373007D01*
X135025385Y-68366188D01*
X135025383Y-68366183D01*
X135019107Y-68355572D01*
X135010412Y-68337824D01*
X135002952Y-68318983D01*
X134976964Y-68283213D01*
X134970448Y-68273293D01*
X134951980Y-68242065D01*
X134951978Y-68242062D01*
X134947942Y-68235238D01*
X134933621Y-68220917D01*
X134920780Y-68205883D01*
X134913531Y-68195906D01*
X134908872Y-68189493D01*
X134874795Y-68161302D01*
X134866016Y-68153312D01*
X134823873Y-68111169D01*
X135350001Y-68111169D01*
X135350371Y-68117990D01*
X135355895Y-68168852D01*
X135359521Y-68184104D01*
X135404676Y-68304554D01*
X135413214Y-68320149D01*
X135489715Y-68422224D01*
X135502276Y-68434785D01*
X135604351Y-68511286D01*
X135619946Y-68519824D01*
X135740394Y-68564978D01*
X135755649Y-68568605D01*
X135806514Y-68574131D01*
X135813328Y-68574500D01*
X136835885Y-68574500D01*
X136851124Y-68570025D01*
X136852329Y-68568635D01*
X136854000Y-68560952D01*
X136854000Y-68556384D01*
X137362000Y-68556384D01*
X137366475Y-68571623D01*
X137367865Y-68572828D01*
X137375548Y-68574499D01*
X138402669Y-68574499D01*
X138409490Y-68574129D01*
X138460352Y-68568605D01*
X138475604Y-68564979D01*
X138596054Y-68519824D01*
X138611649Y-68511286D01*
X138713724Y-68434785D01*
X138726285Y-68422224D01*
X138802786Y-68320149D01*
X138811324Y-68304554D01*
X138856478Y-68184106D01*
X138860105Y-68168851D01*
X138865631Y-68117986D01*
X138866000Y-68111172D01*
X138866000Y-67738615D01*
X138861525Y-67723376D01*
X138860135Y-67722171D01*
X138852452Y-67720500D01*
X137380115Y-67720500D01*
X137364876Y-67724975D01*
X137363671Y-67726365D01*
X137362000Y-67734048D01*
X137362000Y-68556384D01*
X136854000Y-68556384D01*
X136854000Y-67738615D01*
X136849525Y-67723376D01*
X136848135Y-67722171D01*
X136840452Y-67720500D01*
X135368116Y-67720500D01*
X135352877Y-67724975D01*
X135351672Y-67726365D01*
X135350001Y-67734048D01*
X135350001Y-68111169D01*
X134823873Y-68111169D01*
X133907089Y-67194385D01*
X135350000Y-67194385D01*
X135354475Y-67209624D01*
X135355865Y-67210829D01*
X135363548Y-67212500D01*
X136835885Y-67212500D01*
X136851124Y-67208025D01*
X136852329Y-67206635D01*
X136854000Y-67198952D01*
X136854000Y-67194385D01*
X137362000Y-67194385D01*
X137366475Y-67209624D01*
X137367865Y-67210829D01*
X137375548Y-67212500D01*
X138847884Y-67212500D01*
X138863123Y-67208025D01*
X138864328Y-67206635D01*
X138865999Y-67198952D01*
X138865999Y-66821831D01*
X138865629Y-66815010D01*
X138860105Y-66764148D01*
X138856479Y-66748896D01*
X138811324Y-66628446D01*
X138802786Y-66612851D01*
X138726285Y-66510776D01*
X138713724Y-66498215D01*
X138611649Y-66421714D01*
X138596054Y-66413176D01*
X138475606Y-66368022D01*
X138460351Y-66364395D01*
X138409486Y-66358869D01*
X138402672Y-66358500D01*
X137380115Y-66358500D01*
X137364876Y-66362975D01*
X137363671Y-66364365D01*
X137362000Y-66372048D01*
X137362000Y-67194385D01*
X136854000Y-67194385D01*
X136854000Y-66376616D01*
X136849525Y-66361377D01*
X136848135Y-66360172D01*
X136840452Y-66358501D01*
X135813331Y-66358501D01*
X135806510Y-66358871D01*
X135755648Y-66364395D01*
X135740396Y-66368021D01*
X135619946Y-66413176D01*
X135604351Y-66421714D01*
X135502276Y-66498215D01*
X135489715Y-66510776D01*
X135413214Y-66612851D01*
X135404676Y-66628446D01*
X135359522Y-66748894D01*
X135355895Y-66764149D01*
X135350369Y-66815014D01*
X135350000Y-66821828D01*
X135350000Y-67194385D01*
X133907089Y-67194385D01*
X132758090Y-66045385D01*
X132724064Y-65983073D01*
X132729129Y-65912257D01*
X132733068Y-65904008D01*
X132732913Y-65903941D01*
X132732914Y-65903940D01*
X132750474Y-65863360D01*
X132755691Y-65852712D01*
X132773175Y-65820909D01*
X132773176Y-65820907D01*
X132776995Y-65813960D01*
X132782033Y-65794337D01*
X132788437Y-65775634D01*
X132793332Y-65764322D01*
X132796481Y-65757045D01*
X132797721Y-65749217D01*
X132797850Y-65748773D01*
X132836065Y-65688939D01*
X132900562Y-65659264D01*
X132970865Y-65669169D01*
X133003646Y-65690737D01*
X133089883Y-65769207D01*
X133089889Y-65769212D01*
X133094036Y-65772985D01*
X133098783Y-65775963D01*
X133098786Y-65775965D01*
X133238131Y-65863375D01*
X133284344Y-65892364D01*
X133492783Y-65976156D01*
X133712767Y-66021713D01*
X133717378Y-66021979D01*
X133717379Y-66021979D01*
X133767952Y-66024895D01*
X133767956Y-66024895D01*
X133769775Y-66025000D01*
X133914999Y-66025000D01*
X133917786Y-66024751D01*
X133917792Y-66024751D01*
X133987929Y-66018491D01*
X134081762Y-66010117D01*
X134087176Y-66008636D01*
X134087181Y-66008635D01*
X134235707Y-65968002D01*
X134298451Y-65950837D01*
X134303509Y-65948425D01*
X134303513Y-65948423D01*
X134425233Y-65890365D01*
X134501218Y-65854122D01*
X134683654Y-65723029D01*
X134786067Y-65617347D01*
X134836089Y-65565729D01*
X134836091Y-65565726D01*
X134839992Y-65561701D01*
X134965290Y-65375238D01*
X135055588Y-65169533D01*
X135083623Y-65052762D01*
X135106722Y-64956546D01*
X135106722Y-64956545D01*
X135108032Y-64951089D01*
X135115719Y-64817765D01*
X135120640Y-64732417D01*
X135120640Y-64732414D01*
X135120963Y-64726810D01*
X135093975Y-64503785D01*
X135027918Y-64289065D01*
X135024490Y-64282422D01*
X134927454Y-64094419D01*
X134927454Y-64094418D01*
X134924882Y-64089436D01*
X134788123Y-63911208D01*
X134621964Y-63760015D01*
X134617217Y-63757037D01*
X134617214Y-63757035D01*
X134436405Y-63643615D01*
X134431656Y-63640636D01*
X134223217Y-63556844D01*
X134003233Y-63511287D01*
X133998622Y-63511021D01*
X133998621Y-63511021D01*
X133948048Y-63508105D01*
X133948044Y-63508105D01*
X133946225Y-63508000D01*
X133801001Y-63508000D01*
X133798214Y-63508249D01*
X133798208Y-63508249D01*
X133728071Y-63514509D01*
X133634238Y-63522883D01*
X133628824Y-63524364D01*
X133628819Y-63524365D01*
X133540021Y-63548658D01*
X133417549Y-63582163D01*
X133412491Y-63584575D01*
X133412487Y-63584577D01*
X133378056Y-63601000D01*
X133214782Y-63678878D01*
X133032346Y-63809971D01*
X133028439Y-63814002D01*
X133025131Y-63816858D01*
X132960494Y-63846227D01*
X132890239Y-63835990D01*
X132836672Y-63789394D01*
X132816800Y-63721476D01*
X132816800Y-62438293D01*
X132819032Y-62414684D01*
X132819090Y-62414381D01*
X132819090Y-62414377D01*
X132820575Y-62406594D01*
X132817049Y-62350549D01*
X132816800Y-62342638D01*
X132816800Y-62326644D01*
X132814794Y-62310770D01*
X132814051Y-62302902D01*
X132813018Y-62286470D01*
X132810525Y-62246850D01*
X132807979Y-62239013D01*
X132802806Y-62215869D01*
X132802768Y-62215565D01*
X132802767Y-62215560D01*
X132801774Y-62207703D01*
X132798858Y-62200338D01*
X132798857Y-62200334D01*
X132781101Y-62155489D01*
X132778429Y-62148070D01*
X132761064Y-62094625D01*
X132756814Y-62087928D01*
X132756650Y-62087669D01*
X132745885Y-62066542D01*
X132745771Y-62066254D01*
X132745768Y-62066249D01*
X132742852Y-62058883D01*
X132738196Y-62052475D01*
X132738193Y-62052469D01*
X132709842Y-62013448D01*
X132705392Y-62006901D01*
X132703861Y-62004488D01*
X132675300Y-61959482D01*
X132669293Y-61953841D01*
X132653612Y-61936054D01*
X132653434Y-61935809D01*
X132653432Y-61935807D01*
X132648772Y-61929393D01*
X132625355Y-61910020D01*
X132605504Y-61893597D01*
X132599570Y-61888366D01*
X132564402Y-61855342D01*
X132564399Y-61855340D01*
X132558621Y-61849914D01*
X132551397Y-61845942D01*
X132531794Y-61832619D01*
X132531554Y-61832420D01*
X132531547Y-61832416D01*
X132525444Y-61827367D01*
X132474624Y-61803453D01*
X132467580Y-61799864D01*
X132426973Y-61777540D01*
X132376916Y-61727197D01*
X132362412Y-61680734D01*
X132360599Y-61664041D01*
X132360598Y-61664037D01*
X132359745Y-61656184D01*
X132308615Y-61519795D01*
X132221261Y-61403239D01*
X132104705Y-61315885D01*
X131968316Y-61264755D01*
X131906134Y-61258000D01*
X129309866Y-61258000D01*
X129247684Y-61264755D01*
X129111295Y-61315885D01*
X129065916Y-61349895D01*
X129055639Y-61357597D01*
X128989133Y-61382445D01*
X128919750Y-61367392D01*
X128869520Y-61317218D01*
X128854390Y-61247852D01*
X128858805Y-61222570D01*
X128884327Y-61132074D01*
X128885596Y-61127575D01*
X128899834Y-61015656D01*
X128917245Y-60878798D01*
X128917245Y-60878792D01*
X128917643Y-60875667D01*
X128919991Y-60786000D01*
X128917736Y-60755660D01*
X128901518Y-60537409D01*
X128901517Y-60537403D01*
X128901172Y-60532759D01*
X128900142Y-60528208D01*
X128900060Y-60527658D01*
X128909771Y-60457329D01*
X128955964Y-60403415D01*
X129023972Y-60383033D01*
X129092203Y-60402655D01*
X129100238Y-60408203D01*
X129104353Y-60411287D01*
X129119946Y-60419824D01*
X129240394Y-60464978D01*
X129255649Y-60468605D01*
X129306514Y-60474131D01*
X129313328Y-60474500D01*
X130335885Y-60474500D01*
X130351124Y-60470025D01*
X130352329Y-60468635D01*
X130354000Y-60460952D01*
X130354000Y-60456384D01*
X130862000Y-60456384D01*
X130866475Y-60471623D01*
X130867865Y-60472828D01*
X130875548Y-60474499D01*
X131902669Y-60474499D01*
X131909490Y-60474129D01*
X131960352Y-60468605D01*
X131975604Y-60464979D01*
X132096054Y-60419824D01*
X132111649Y-60411286D01*
X132213724Y-60334785D01*
X132226285Y-60322224D01*
X132302786Y-60220149D01*
X132311324Y-60204554D01*
X132356478Y-60084106D01*
X132360105Y-60068851D01*
X132365631Y-60017986D01*
X132366000Y-60011172D01*
X132366000Y-59638615D01*
X132361525Y-59623376D01*
X132360135Y-59622171D01*
X132352452Y-59620500D01*
X130880115Y-59620500D01*
X130864876Y-59624975D01*
X130863671Y-59626365D01*
X130862000Y-59634048D01*
X130862000Y-60456384D01*
X130354000Y-60456384D01*
X130354000Y-59638615D01*
X130349525Y-59623376D01*
X130348135Y-59622171D01*
X130340452Y-59620500D01*
X128868116Y-59620500D01*
X128852877Y-59624975D01*
X128851672Y-59626365D01*
X128850001Y-59634048D01*
X128850001Y-59747356D01*
X128829999Y-59815477D01*
X128776343Y-59861970D01*
X128706069Y-59872074D01*
X128641489Y-59842580D01*
X128625051Y-59825362D01*
X128478625Y-59639622D01*
X128469871Y-59628517D01*
X128284909Y-59454523D01*
X128092840Y-59321280D01*
X128080093Y-59312437D01*
X128080090Y-59312435D01*
X128076261Y-59309779D01*
X128072084Y-59307719D01*
X128072077Y-59307715D01*
X127852696Y-59199528D01*
X127852692Y-59199527D01*
X127848510Y-59197464D01*
X127606660Y-59120047D01*
X127560319Y-59112500D01*
X127449087Y-59094385D01*
X128850000Y-59094385D01*
X128854475Y-59109624D01*
X128855865Y-59110829D01*
X128863548Y-59112500D01*
X130335885Y-59112500D01*
X130351124Y-59108025D01*
X130352329Y-59106635D01*
X130354000Y-59098952D01*
X130354000Y-59094385D01*
X130862000Y-59094385D01*
X130866475Y-59109624D01*
X130867865Y-59110829D01*
X130875548Y-59112500D01*
X132347884Y-59112500D01*
X132363123Y-59108025D01*
X132364328Y-59106635D01*
X132365999Y-59098952D01*
X132365999Y-58721831D01*
X132365629Y-58715010D01*
X132360105Y-58664148D01*
X132356479Y-58648896D01*
X132311324Y-58528446D01*
X132302786Y-58512851D01*
X132226285Y-58410776D01*
X132213724Y-58398215D01*
X132111649Y-58321714D01*
X132096054Y-58313176D01*
X131975606Y-58268022D01*
X131960351Y-58264395D01*
X131909486Y-58258869D01*
X131902672Y-58258500D01*
X130880115Y-58258500D01*
X130864876Y-58262975D01*
X130863671Y-58264365D01*
X130862000Y-58272048D01*
X130862000Y-59094385D01*
X130354000Y-59094385D01*
X130354000Y-58276616D01*
X130349525Y-58261377D01*
X130348135Y-58260172D01*
X130340452Y-58258501D01*
X129313331Y-58258501D01*
X129306510Y-58258871D01*
X129255648Y-58264395D01*
X129240396Y-58268021D01*
X129119946Y-58313176D01*
X129104351Y-58321714D01*
X129002276Y-58398215D01*
X128989715Y-58410776D01*
X128913214Y-58512851D01*
X128904676Y-58528446D01*
X128859522Y-58648894D01*
X128855895Y-58664149D01*
X128850369Y-58715014D01*
X128850000Y-58721828D01*
X128850000Y-59094385D01*
X127449087Y-59094385D01*
X127360635Y-59079980D01*
X127360634Y-59079980D01*
X127356023Y-59079229D01*
X127229065Y-59077567D01*
X127106783Y-59075966D01*
X127106780Y-59075966D01*
X127102106Y-59075905D01*
X126850487Y-59110149D01*
X126606693Y-59181208D01*
X126376080Y-59287522D01*
X126372171Y-59290085D01*
X126167628Y-59424189D01*
X126167623Y-59424193D01*
X126163715Y-59426755D01*
X126068988Y-59511302D01*
X126026070Y-59549608D01*
X125974262Y-59595848D01*
X125811883Y-59791087D01*
X125680147Y-60008182D01*
X125678338Y-60012496D01*
X125678337Y-60012498D01*
X125591547Y-60219470D01*
X125581946Y-60242365D01*
X125580795Y-60246897D01*
X125580794Y-60246900D01*
X125558583Y-60334357D01*
X125519438Y-60488490D01*
X125493996Y-60741151D01*
X125506180Y-60994798D01*
X125510526Y-61016647D01*
X125551487Y-61222570D01*
X125555721Y-61243857D01*
X125557300Y-61248255D01*
X125557302Y-61248262D01*
X125612945Y-61403239D01*
X125641531Y-61482858D01*
X125643748Y-61486984D01*
X125738884Y-61664041D01*
X125761725Y-61706551D01*
X125764520Y-61710294D01*
X125764522Y-61710297D01*
X125910871Y-61906282D01*
X125910876Y-61906288D01*
X125913663Y-61910020D01*
X125916972Y-61913300D01*
X125916977Y-61913306D01*
X126082724Y-62077612D01*
X126094007Y-62088797D01*
X126097769Y-62091555D01*
X126097772Y-62091558D01*
X126184963Y-62155489D01*
X126298794Y-62238953D01*
X126302931Y-62241129D01*
X126302938Y-62241134D01*
X126505867Y-62347900D01*
X126556840Y-62397319D01*
X126573200Y-62459408D01*
X126573200Y-64115990D01*
X126553198Y-64184111D01*
X126499952Y-64230416D01*
X126376080Y-64287522D01*
X126372171Y-64290085D01*
X126167628Y-64424189D01*
X126167623Y-64424193D01*
X126163715Y-64426755D01*
X126083418Y-64498423D01*
X126028219Y-64547690D01*
X125974262Y-64595848D01*
X125811883Y-64791087D01*
X125680147Y-65008182D01*
X125678338Y-65012496D01*
X125678337Y-65012498D01*
X125586019Y-65232653D01*
X125581946Y-65242365D01*
X125580795Y-65246897D01*
X125580794Y-65246900D01*
X125549963Y-65368298D01*
X125519438Y-65488490D01*
X125493996Y-65741151D01*
X125494220Y-65745817D01*
X125494220Y-65745822D01*
X125505617Y-65983073D01*
X125506180Y-65994798D01*
X125555721Y-66243857D01*
X125557300Y-66248255D01*
X125557302Y-66248262D01*
X125619578Y-66421714D01*
X125641531Y-66482858D01*
X125643748Y-66486984D01*
X125717285Y-66623843D01*
X125761725Y-66706551D01*
X125764520Y-66710294D01*
X125764522Y-66710297D01*
X125910871Y-66906282D01*
X125910876Y-66906288D01*
X125913663Y-66910020D01*
X125916972Y-66913300D01*
X125916977Y-66913306D01*
X126056583Y-67051698D01*
X126094007Y-67088797D01*
X126097769Y-67091555D01*
X126097772Y-67091558D01*
X126258794Y-67209624D01*
X126298794Y-67238953D01*
X126302929Y-67241129D01*
X126302933Y-67241131D01*
X126420989Y-67303243D01*
X126523527Y-67357191D01*
X126628142Y-67393724D01*
X126738736Y-67432345D01*
X126763268Y-67440912D01*
X127012750Y-67488278D01*
X127133232Y-67493011D01*
X127261825Y-67498064D01*
X127261830Y-67498064D01*
X127266493Y-67498247D01*
X127365474Y-67487407D01*
X127514269Y-67471112D01*
X127514275Y-67471111D01*
X127518922Y-67470602D01*
X127527875Y-67468245D01*
X127759973Y-67407138D01*
X127764493Y-67405948D01*
X127958537Y-67322581D01*
X127993507Y-67307557D01*
X127993510Y-67307555D01*
X127997810Y-67305708D01*
X128001790Y-67303245D01*
X128001794Y-67303243D01*
X128209764Y-67174547D01*
X128209766Y-67174545D01*
X128213747Y-67172082D01*
X128312128Y-67088797D01*
X128403989Y-67011031D01*
X128403991Y-67011029D01*
X128407562Y-67008006D01*
X128574995Y-66817084D01*
X128577522Y-66813155D01*
X128577526Y-66813150D01*
X128617529Y-66750958D01*
X128671203Y-66704486D01*
X128741481Y-66694410D01*
X128806050Y-66723928D01*
X128844410Y-66783669D01*
X128849500Y-66819120D01*
X128849500Y-67014634D01*
X128856255Y-67076816D01*
X128907385Y-67213205D01*
X128994739Y-67329761D01*
X129111295Y-67417115D01*
X129247684Y-67468245D01*
X129309866Y-67475000D01*
X131906134Y-67475000D01*
X131968316Y-67468245D01*
X132104705Y-67417115D01*
X132118018Y-67407138D01*
X132150649Y-67382682D01*
X132217156Y-67357834D01*
X132286538Y-67372887D01*
X132315309Y-67394413D01*
X133045784Y-68124889D01*
X133772995Y-68852100D01*
X133807021Y-68914412D01*
X133809900Y-68941195D01*
X133809900Y-69423100D01*
X133789898Y-69491221D01*
X133736242Y-69537714D01*
X133683900Y-69549100D01*
X132461866Y-69549100D01*
X132399684Y-69555855D01*
X132263295Y-69606985D01*
X132146739Y-69694339D01*
X132059385Y-69810895D01*
X132008255Y-69947284D01*
X132001500Y-70009466D01*
X132001500Y-70849006D01*
X131981498Y-70917127D01*
X131927842Y-70963620D01*
X131857568Y-70973724D01*
X131792988Y-70944230D01*
X131786405Y-70938101D01*
X130590286Y-69741981D01*
X129191952Y-68343647D01*
X129184412Y-68335361D01*
X129180300Y-68328882D01*
X129130648Y-68282256D01*
X129127807Y-68279502D01*
X129108070Y-68259765D01*
X129104873Y-68257285D01*
X129095851Y-68249580D01*
X129087848Y-68242065D01*
X129063621Y-68219314D01*
X129056675Y-68215495D01*
X129056672Y-68215493D01*
X129045866Y-68209552D01*
X129029347Y-68198701D01*
X129028883Y-68198341D01*
X129013341Y-68186286D01*
X129006072Y-68183141D01*
X129006068Y-68183138D01*
X128972763Y-68168726D01*
X128962113Y-68163509D01*
X128923360Y-68142205D01*
X128903737Y-68137167D01*
X128885034Y-68130763D01*
X128873720Y-68125867D01*
X128873719Y-68125867D01*
X128866445Y-68122719D01*
X128858622Y-68121480D01*
X128858612Y-68121477D01*
X128822776Y-68115801D01*
X128811156Y-68113395D01*
X128776011Y-68104372D01*
X128776010Y-68104372D01*
X128768330Y-68102400D01*
X128748076Y-68102400D01*
X128728365Y-68100849D01*
X128716186Y-68098920D01*
X128708357Y-68097680D01*
X128679086Y-68100447D01*
X128664339Y-68101841D01*
X128652481Y-68102400D01*
X124422868Y-68102400D01*
X124411685Y-68101873D01*
X124404192Y-68100198D01*
X124396266Y-68100447D01*
X124396265Y-68100447D01*
X124336102Y-68102338D01*
X124332144Y-68102400D01*
X124304244Y-68102400D01*
X124300254Y-68102904D01*
X124288420Y-68103836D01*
X124244211Y-68105226D01*
X124236595Y-68107439D01*
X124236593Y-68107439D01*
X124224752Y-68110879D01*
X124205393Y-68114888D01*
X124204083Y-68115054D01*
X124185303Y-68117426D01*
X124177937Y-68120342D01*
X124177931Y-68120344D01*
X124144198Y-68133700D01*
X124132968Y-68137545D01*
X124116928Y-68142205D01*
X124090507Y-68149881D01*
X124083684Y-68153916D01*
X124073066Y-68160195D01*
X124055313Y-68168892D01*
X124047668Y-68171919D01*
X124036483Y-68176348D01*
X124016121Y-68191142D01*
X124000712Y-68202337D01*
X123990795Y-68208851D01*
X123952738Y-68231358D01*
X123938417Y-68245679D01*
X123923384Y-68258519D01*
X123906993Y-68270428D01*
X123889728Y-68291298D01*
X123878802Y-68304505D01*
X123870812Y-68313284D01*
X110054447Y-82129648D01*
X110046161Y-82137188D01*
X110039682Y-82141300D01*
X110034257Y-82147077D01*
X109993057Y-82190951D01*
X109990302Y-82193793D01*
X109970565Y-82213530D01*
X109968085Y-82216727D01*
X109960382Y-82225747D01*
X109930114Y-82257979D01*
X109926295Y-82264925D01*
X109926293Y-82264928D01*
X109920352Y-82275734D01*
X109909501Y-82292253D01*
X109897086Y-82308259D01*
X109893941Y-82315528D01*
X109893938Y-82315532D01*
X109879526Y-82348837D01*
X109874309Y-82359487D01*
X109853005Y-82398240D01*
X109851034Y-82405915D01*
X109851034Y-82405916D01*
X109847967Y-82417862D01*
X109841563Y-82436566D01*
X109833519Y-82455155D01*
X109832280Y-82462978D01*
X109832277Y-82462988D01*
X109826601Y-82498824D01*
X109824195Y-82510444D01*
X109813200Y-82553270D01*
X109813200Y-82573524D01*
X109811649Y-82593234D01*
X109808480Y-82613243D01*
X109809226Y-82621135D01*
X109812641Y-82657261D01*
X109813200Y-82669119D01*
X109813200Y-85307214D01*
X109793198Y-85375335D01*
X109739542Y-85421828D01*
X109669268Y-85431932D01*
X109606419Y-85403828D01*
X109603048Y-85400457D01*
X109470529Y-85307666D01*
X109426201Y-85252209D01*
X109416800Y-85204453D01*
X109416800Y-78174267D01*
X109417327Y-78163084D01*
X109419002Y-78155591D01*
X109416862Y-78087500D01*
X109416800Y-78083543D01*
X109416800Y-78055644D01*
X109416296Y-78051653D01*
X109415363Y-78039811D01*
X109414673Y-78017835D01*
X109413974Y-77995611D01*
X109411762Y-77987997D01*
X109411761Y-77987992D01*
X109408323Y-77976159D01*
X109404312Y-77956795D01*
X109402767Y-77944564D01*
X109401774Y-77936703D01*
X109398857Y-77929336D01*
X109398856Y-77929331D01*
X109385498Y-77895592D01*
X109381654Y-77884365D01*
X109379532Y-77877061D01*
X109369318Y-77841907D01*
X109359007Y-77824472D01*
X109350312Y-77806724D01*
X109342852Y-77787883D01*
X109316864Y-77752113D01*
X109310348Y-77742193D01*
X109291880Y-77710965D01*
X109291878Y-77710962D01*
X109287842Y-77704138D01*
X109273521Y-77689817D01*
X109260680Y-77674783D01*
X109253431Y-77664806D01*
X109248772Y-77658393D01*
X109214695Y-77630202D01*
X109205916Y-77622212D01*
X105009394Y-73425690D01*
X111143737Y-73425690D01*
X111170725Y-73648715D01*
X111236782Y-73863435D01*
X111239352Y-73868415D01*
X111239354Y-73868419D01*
X111319972Y-74024613D01*
X111339818Y-74063064D01*
X111476577Y-74241292D01*
X111642736Y-74392485D01*
X111647483Y-74395463D01*
X111647486Y-74395465D01*
X111827517Y-74508397D01*
X111833044Y-74511864D01*
X112041483Y-74595656D01*
X112261467Y-74641213D01*
X112266078Y-74641479D01*
X112266079Y-74641479D01*
X112316652Y-74644395D01*
X112316656Y-74644395D01*
X112318475Y-74644500D01*
X113963699Y-74644500D01*
X113966486Y-74644251D01*
X113966492Y-74644251D01*
X114044285Y-74637308D01*
X114130462Y-74629617D01*
X114135876Y-74628136D01*
X114135881Y-74628135D01*
X114263612Y-74593191D01*
X114347151Y-74570337D01*
X114352209Y-74567925D01*
X114352213Y-74567923D01*
X114469742Y-74511864D01*
X114549918Y-74473622D01*
X114732354Y-74342529D01*
X114826807Y-74245061D01*
X114884789Y-74185229D01*
X114884791Y-74185226D01*
X114888692Y-74181201D01*
X115013990Y-73994738D01*
X115104288Y-73789033D01*
X115149215Y-73601902D01*
X115155422Y-73576046D01*
X115155422Y-73576045D01*
X115156732Y-73570589D01*
X115164765Y-73431268D01*
X115169340Y-73351917D01*
X115169340Y-73351914D01*
X115169663Y-73346310D01*
X115142675Y-73123285D01*
X115076618Y-72908565D01*
X115041336Y-72840206D01*
X114976154Y-72713919D01*
X114976154Y-72713918D01*
X114973582Y-72708936D01*
X114836823Y-72530708D01*
X114670664Y-72379515D01*
X114665917Y-72376537D01*
X114665914Y-72376535D01*
X114485105Y-72263115D01*
X114480356Y-72260136D01*
X114271917Y-72176344D01*
X114051933Y-72130787D01*
X114047322Y-72130521D01*
X114047321Y-72130521D01*
X113996748Y-72127605D01*
X113996744Y-72127605D01*
X113994925Y-72127500D01*
X112349701Y-72127500D01*
X112346914Y-72127749D01*
X112346908Y-72127749D01*
X112276771Y-72134009D01*
X112182938Y-72142383D01*
X112177524Y-72143864D01*
X112177519Y-72143865D01*
X112065367Y-72174547D01*
X111966249Y-72201663D01*
X111961191Y-72204075D01*
X111961187Y-72204077D01*
X111888069Y-72238953D01*
X111763482Y-72298378D01*
X111581046Y-72429471D01*
X111424708Y-72590799D01*
X111299410Y-72777262D01*
X111209112Y-72982967D01*
X111156668Y-73201411D01*
X111156345Y-73207016D01*
X111147985Y-73352020D01*
X111143737Y-73425690D01*
X105009394Y-73425690D01*
X100207797Y-68624092D01*
X100196759Y-68603878D01*
X100185050Y-68599518D01*
X100171408Y-68587703D01*
X99694874Y-68111169D01*
X100221001Y-68111169D01*
X100221371Y-68117990D01*
X100226895Y-68168852D01*
X100230521Y-68184104D01*
X100275676Y-68304554D01*
X100284214Y-68320148D01*
X100361329Y-68423043D01*
X100363282Y-68428271D01*
X100372457Y-68434171D01*
X100475352Y-68511286D01*
X100490946Y-68519824D01*
X100611394Y-68564978D01*
X100626649Y-68568605D01*
X100677514Y-68574131D01*
X100684328Y-68574500D01*
X101706885Y-68574500D01*
X101722124Y-68570025D01*
X101723329Y-68568635D01*
X101725000Y-68560952D01*
X101725000Y-68556384D01*
X102233000Y-68556384D01*
X102237475Y-68571623D01*
X102238865Y-68572828D01*
X102246548Y-68574499D01*
X103273669Y-68574499D01*
X103280490Y-68574129D01*
X103331352Y-68568605D01*
X103346604Y-68564979D01*
X103467054Y-68519824D01*
X103482649Y-68511286D01*
X103584724Y-68434785D01*
X103597285Y-68422224D01*
X103673786Y-68320149D01*
X103682324Y-68304554D01*
X103727478Y-68184106D01*
X103731105Y-68168851D01*
X103736631Y-68117986D01*
X103737000Y-68111172D01*
X103737000Y-67738615D01*
X103732525Y-67723376D01*
X103731135Y-67722171D01*
X103723452Y-67720500D01*
X102251115Y-67720500D01*
X102235876Y-67724975D01*
X102234671Y-67726365D01*
X102233000Y-67734048D01*
X102233000Y-68556384D01*
X101725000Y-68556384D01*
X101725000Y-67738615D01*
X101720525Y-67723376D01*
X101719135Y-67722171D01*
X101711452Y-67720500D01*
X100239116Y-67720500D01*
X100223877Y-67724975D01*
X100222672Y-67726365D01*
X100221001Y-67734048D01*
X100221001Y-68111169D01*
X99694874Y-68111169D01*
X98778090Y-67194385D01*
X100221000Y-67194385D01*
X100225475Y-67209624D01*
X100226865Y-67210829D01*
X100234548Y-67212500D01*
X101706885Y-67212500D01*
X101722124Y-67208025D01*
X101723329Y-67206635D01*
X101725000Y-67198952D01*
X101725000Y-67194385D01*
X102233000Y-67194385D01*
X102237475Y-67209624D01*
X102238865Y-67210829D01*
X102246548Y-67212500D01*
X103718884Y-67212500D01*
X103734123Y-67208025D01*
X103735328Y-67206635D01*
X103736999Y-67198952D01*
X103736999Y-66821831D01*
X103736629Y-66815010D01*
X103731105Y-66764148D01*
X103727479Y-66748896D01*
X103682324Y-66628446D01*
X103673786Y-66612851D01*
X103597285Y-66510776D01*
X103584724Y-66498215D01*
X103482649Y-66421714D01*
X103467054Y-66413176D01*
X103346606Y-66368022D01*
X103331351Y-66364395D01*
X103280486Y-66358869D01*
X103273672Y-66358500D01*
X102251115Y-66358500D01*
X102235876Y-66362975D01*
X102234671Y-66364365D01*
X102233000Y-66372048D01*
X102233000Y-67194385D01*
X101725000Y-67194385D01*
X101725000Y-66376616D01*
X101720525Y-66361377D01*
X101719135Y-66360172D01*
X101711452Y-66358501D01*
X100684331Y-66358501D01*
X100677510Y-66358871D01*
X100626648Y-66364395D01*
X100611396Y-66368021D01*
X100490946Y-66413176D01*
X100475351Y-66421714D01*
X100373276Y-66498215D01*
X100360715Y-66510776D01*
X100284214Y-66612851D01*
X100275676Y-66628446D01*
X100230522Y-66748894D01*
X100226895Y-66764149D01*
X100221369Y-66815014D01*
X100221000Y-66821828D01*
X100221000Y-67194385D01*
X98778090Y-67194385D01*
X97557952Y-65974247D01*
X97550412Y-65965961D01*
X97546300Y-65959482D01*
X97496648Y-65912856D01*
X97493807Y-65910102D01*
X97474070Y-65890365D01*
X97470873Y-65887885D01*
X97461851Y-65880180D01*
X97429621Y-65849914D01*
X97422675Y-65846095D01*
X97422672Y-65846093D01*
X97411866Y-65840152D01*
X97395347Y-65829301D01*
X97394883Y-65828941D01*
X97379341Y-65816886D01*
X97372072Y-65813741D01*
X97372068Y-65813738D01*
X97338763Y-65799326D01*
X97328113Y-65794109D01*
X97297973Y-65777540D01*
X97247915Y-65727195D01*
X97233412Y-65680734D01*
X97233163Y-65678442D01*
X97230745Y-65656184D01*
X97179615Y-65519795D01*
X97092261Y-65403239D01*
X96975705Y-65315885D01*
X96839316Y-65264755D01*
X96777134Y-65258000D01*
X94663200Y-65258000D01*
X94595079Y-65237998D01*
X94548586Y-65184342D01*
X94537200Y-65132000D01*
X94537200Y-64806190D01*
X97466037Y-64806190D01*
X97493025Y-65029215D01*
X97559082Y-65243935D01*
X97561652Y-65248915D01*
X97561654Y-65248919D01*
X97648994Y-65418137D01*
X97662118Y-65443564D01*
X97798877Y-65621792D01*
X97965036Y-65772985D01*
X97969783Y-65775963D01*
X97969786Y-65775965D01*
X98109131Y-65863375D01*
X98155344Y-65892364D01*
X98363783Y-65976156D01*
X98583767Y-66021713D01*
X98588378Y-66021979D01*
X98588379Y-66021979D01*
X98638952Y-66024895D01*
X98638956Y-66024895D01*
X98640775Y-66025000D01*
X98785999Y-66025000D01*
X98788786Y-66024751D01*
X98788792Y-66024751D01*
X98858929Y-66018491D01*
X98952762Y-66010117D01*
X98958176Y-66008636D01*
X98958181Y-66008635D01*
X99106707Y-65968002D01*
X99169451Y-65950837D01*
X99174509Y-65948425D01*
X99174513Y-65948423D01*
X99296233Y-65890365D01*
X99372218Y-65854122D01*
X99554654Y-65723029D01*
X99628736Y-65646582D01*
X108726531Y-65646582D01*
X108727668Y-65718997D01*
X108728536Y-65774249D01*
X108732859Y-66049393D01*
X108733099Y-66064697D01*
X108778987Y-66480339D01*
X108779589Y-66483248D01*
X108779591Y-66483258D01*
X108863182Y-66886907D01*
X108863785Y-66889817D01*
X108864658Y-66892653D01*
X108864658Y-66892655D01*
X108971864Y-67241131D01*
X108986743Y-67289497D01*
X109146769Y-67675833D01*
X109170419Y-67720500D01*
X109267878Y-67904568D01*
X109342441Y-68045394D01*
X109344063Y-68047863D01*
X109344067Y-68047870D01*
X109512645Y-68304505D01*
X109572024Y-68394901D01*
X109833480Y-68721251D01*
X110124487Y-69021547D01*
X110190001Y-69077501D01*
X110413082Y-69268030D01*
X110442463Y-69293124D01*
X110444889Y-69294829D01*
X110782162Y-69531869D01*
X110782171Y-69531875D01*
X110784586Y-69533572D01*
X111147819Y-69740757D01*
X111150522Y-69741978D01*
X111150529Y-69741981D01*
X111321779Y-69819303D01*
X111528937Y-69912838D01*
X111924558Y-70048289D01*
X111927432Y-70048979D01*
X111927439Y-70048981D01*
X112161939Y-70105279D01*
X112331171Y-70145908D01*
X112334103Y-70146325D01*
X112334112Y-70146327D01*
X112742228Y-70204411D01*
X112742231Y-70204411D01*
X112745166Y-70204829D01*
X112748131Y-70204969D01*
X112748133Y-70204969D01*
X113159899Y-70224387D01*
X113162868Y-70224527D01*
X113165837Y-70224387D01*
X113577603Y-70204969D01*
X113577605Y-70204969D01*
X113580570Y-70204829D01*
X113583505Y-70204411D01*
X113583508Y-70204411D01*
X113991624Y-70146327D01*
X113991633Y-70146325D01*
X113994565Y-70145908D01*
X114163797Y-70105279D01*
X114398297Y-70048981D01*
X114398304Y-70048979D01*
X114401178Y-70048289D01*
X114796799Y-69912838D01*
X115003957Y-69819303D01*
X115175207Y-69741981D01*
X115175214Y-69741978D01*
X115177917Y-69740757D01*
X115541150Y-69533572D01*
X115543565Y-69531875D01*
X115543574Y-69531869D01*
X115880847Y-69294829D01*
X115883273Y-69293124D01*
X115912655Y-69268030D01*
X116135735Y-69077501D01*
X116201249Y-69021547D01*
X116492256Y-68721251D01*
X116753712Y-68394901D01*
X116813091Y-68304505D01*
X116981669Y-68047870D01*
X116981673Y-68047863D01*
X116983295Y-68045394D01*
X117057859Y-67904568D01*
X117155317Y-67720500D01*
X117178967Y-67675833D01*
X117338993Y-67289497D01*
X117353873Y-67241131D01*
X117461078Y-66892655D01*
X117461078Y-66892653D01*
X117461951Y-66889817D01*
X117462554Y-66886907D01*
X117546145Y-66483258D01*
X117546147Y-66483248D01*
X117546749Y-66480339D01*
X117592637Y-66064697D01*
X117601395Y-65786000D01*
X117581697Y-65368298D01*
X117581279Y-65365360D01*
X117523195Y-64957244D01*
X117523193Y-64957235D01*
X117522776Y-64954303D01*
X117466821Y-64721232D01*
X117425849Y-64550571D01*
X117425847Y-64550564D01*
X117425157Y-64547690D01*
X117289706Y-64152069D01*
X117182960Y-63915653D01*
X117118849Y-63773661D01*
X117118846Y-63773654D01*
X117117625Y-63770951D01*
X116910440Y-63407718D01*
X116908743Y-63405303D01*
X116908737Y-63405294D01*
X116671697Y-63068021D01*
X116669992Y-63065595D01*
X116640824Y-63031443D01*
X116400340Y-62749873D01*
X116398415Y-62747619D01*
X116098119Y-62456612D01*
X115771769Y-62195156D01*
X115732227Y-62169182D01*
X115424738Y-61967199D01*
X115424731Y-61967195D01*
X115422262Y-61965573D01*
X115419651Y-61964191D01*
X115419645Y-61964187D01*
X115078704Y-61783669D01*
X115052701Y-61769901D01*
X114666365Y-61609875D01*
X114663542Y-61609007D01*
X114663535Y-61609004D01*
X114269523Y-61487790D01*
X114269521Y-61487790D01*
X114266685Y-61486917D01*
X114263783Y-61486316D01*
X114263775Y-61486314D01*
X113860126Y-61402723D01*
X113860116Y-61402721D01*
X113857207Y-61402119D01*
X113649386Y-61379175D01*
X113444527Y-61356558D01*
X113441565Y-61356231D01*
X113438584Y-61356184D01*
X113438581Y-61356184D01*
X113320870Y-61354335D01*
X113023450Y-61349663D01*
X113020506Y-61349895D01*
X113020496Y-61349895D01*
X112620336Y-61381389D01*
X112606573Y-61382472D01*
X112194633Y-61454367D01*
X112191762Y-61455153D01*
X112191755Y-61455154D01*
X111794152Y-61563926D01*
X111794142Y-61563929D01*
X111791288Y-61564710D01*
X111788524Y-61565754D01*
X111788513Y-61565758D01*
X111402889Y-61711473D01*
X111400116Y-61712521D01*
X111397449Y-61713828D01*
X111397448Y-61713828D01*
X111172574Y-61823993D01*
X111024591Y-61896489D01*
X111022056Y-61898042D01*
X111022055Y-61898043D01*
X110909203Y-61967199D01*
X110668046Y-62114981D01*
X110665661Y-62116771D01*
X110665662Y-62116771D01*
X110336018Y-62364273D01*
X110336011Y-62364279D01*
X110333644Y-62366056D01*
X110331463Y-62368041D01*
X110331454Y-62368048D01*
X110028683Y-62643549D01*
X110024355Y-62647487D01*
X110022375Y-62649663D01*
X109744916Y-62954586D01*
X109744909Y-62954595D01*
X109742924Y-62956776D01*
X109741147Y-62959143D01*
X109741141Y-62959150D01*
X109544997Y-63220391D01*
X109491849Y-63291178D01*
X109490295Y-63293714D01*
X109278983Y-63638543D01*
X109273357Y-63647723D01*
X109272045Y-63650402D01*
X109272044Y-63650403D01*
X109181126Y-63835990D01*
X109089389Y-64023248D01*
X109088342Y-64026018D01*
X109088341Y-64026021D01*
X108942626Y-64411645D01*
X108942622Y-64411656D01*
X108941578Y-64414420D01*
X108940797Y-64417274D01*
X108940794Y-64417284D01*
X108832022Y-64814887D01*
X108831235Y-64817765D01*
X108759340Y-65229705D01*
X108759108Y-65232653D01*
X108727934Y-65628758D01*
X108726531Y-65646582D01*
X99628736Y-65646582D01*
X99657067Y-65617347D01*
X99707089Y-65565729D01*
X99707091Y-65565726D01*
X99710992Y-65561701D01*
X99836290Y-65375238D01*
X99926588Y-65169533D01*
X99954623Y-65052762D01*
X99977722Y-64956546D01*
X99977722Y-64956545D01*
X99979032Y-64951089D01*
X99986719Y-64817765D01*
X99991640Y-64732417D01*
X99991640Y-64732414D01*
X99991963Y-64726810D01*
X99964975Y-64503785D01*
X99898918Y-64289065D01*
X99895490Y-64282422D01*
X99798454Y-64094419D01*
X99798454Y-64094418D01*
X99795882Y-64089436D01*
X99659123Y-63911208D01*
X99492964Y-63760015D01*
X99488217Y-63757037D01*
X99488214Y-63757035D01*
X99307405Y-63643615D01*
X99302656Y-63640636D01*
X99094217Y-63556844D01*
X98874233Y-63511287D01*
X98869622Y-63511021D01*
X98869621Y-63511021D01*
X98819048Y-63508105D01*
X98819044Y-63508105D01*
X98817225Y-63508000D01*
X98672001Y-63508000D01*
X98669214Y-63508249D01*
X98669208Y-63508249D01*
X98599071Y-63514509D01*
X98505238Y-63522883D01*
X98499824Y-63524364D01*
X98499819Y-63524365D01*
X98411021Y-63548658D01*
X98288549Y-63582163D01*
X98283491Y-63584575D01*
X98283487Y-63584577D01*
X98249056Y-63601000D01*
X98085782Y-63678878D01*
X97903346Y-63809971D01*
X97747008Y-63971299D01*
X97649780Y-64115990D01*
X97627347Y-64149374D01*
X97621710Y-64157762D01*
X97531412Y-64363467D01*
X97530103Y-64368918D01*
X97530102Y-64368922D01*
X97510062Y-64452396D01*
X97478968Y-64581911D01*
X97466037Y-64806190D01*
X94537200Y-64806190D01*
X94537200Y-63601000D01*
X94557202Y-63532879D01*
X94610858Y-63486386D01*
X94663200Y-63475000D01*
X96777134Y-63475000D01*
X96839316Y-63468245D01*
X96975705Y-63417115D01*
X97092261Y-63329761D01*
X97179615Y-63213205D01*
X97230745Y-63076816D01*
X97237500Y-63014634D01*
X97237500Y-61718366D01*
X97230745Y-61656184D01*
X97179615Y-61519795D01*
X97092261Y-61403239D01*
X96975705Y-61315885D01*
X96839316Y-61264755D01*
X96777134Y-61258000D01*
X94180866Y-61258000D01*
X94118684Y-61264755D01*
X93982295Y-61315885D01*
X93865739Y-61403239D01*
X93778385Y-61519795D01*
X93727255Y-61656184D01*
X93725441Y-61672886D01*
X93724623Y-61680410D01*
X93697380Y-61745972D01*
X93645844Y-61781442D01*
X93646536Y-61782912D01*
X93639367Y-61786285D01*
X93631825Y-61788736D01*
X93625129Y-61792986D01*
X93625128Y-61792986D01*
X93624869Y-61793150D01*
X93603742Y-61803915D01*
X93603454Y-61804029D01*
X93603449Y-61804032D01*
X93596083Y-61806948D01*
X93589675Y-61811604D01*
X93589669Y-61811607D01*
X93550648Y-61839958D01*
X93544111Y-61844401D01*
X93496682Y-61874500D01*
X93491256Y-61880278D01*
X93491255Y-61880279D01*
X93491041Y-61880507D01*
X93473254Y-61896188D01*
X93473009Y-61896366D01*
X93473007Y-61896368D01*
X93466593Y-61901028D01*
X93461539Y-61907137D01*
X93461538Y-61907138D01*
X93430797Y-61944296D01*
X93425566Y-61950230D01*
X93392542Y-61985398D01*
X93392540Y-61985401D01*
X93387114Y-61991179D01*
X93383145Y-61998399D01*
X93369819Y-62018006D01*
X93369620Y-62018246D01*
X93369616Y-62018253D01*
X93364567Y-62024356D01*
X93361193Y-62031527D01*
X93340653Y-62075176D01*
X93337071Y-62082208D01*
X93310005Y-62131440D01*
X93308035Y-62139115D01*
X93308032Y-62139121D01*
X93307956Y-62139419D01*
X93299924Y-62161728D01*
X93299794Y-62162003D01*
X93299791Y-62162011D01*
X93296417Y-62169182D01*
X93291108Y-62197015D01*
X93285895Y-62224343D01*
X93284171Y-62232058D01*
X93270200Y-62286470D01*
X93270200Y-62294707D01*
X93267968Y-62318316D01*
X93266425Y-62326406D01*
X93268615Y-62361210D01*
X93269951Y-62382451D01*
X93270200Y-62390362D01*
X93270200Y-65264206D01*
X93250198Y-65332327D01*
X93233295Y-65353301D01*
X91971900Y-66614695D01*
X91909588Y-66648721D01*
X91882805Y-66651600D01*
X86309394Y-66651600D01*
X86241273Y-66631598D01*
X86206181Y-66597871D01*
X86099357Y-66445311D01*
X86099355Y-66445308D01*
X86096198Y-66440800D01*
X85934300Y-66278902D01*
X85929792Y-66275745D01*
X85929789Y-66275743D01*
X85851611Y-66221002D01*
X85746749Y-66147577D01*
X85741767Y-66145254D01*
X85741762Y-66145251D01*
X85544225Y-66053139D01*
X85544224Y-66053139D01*
X85539243Y-66050816D01*
X85533935Y-66049394D01*
X85533933Y-66049393D01*
X85323402Y-65992981D01*
X85323400Y-65992981D01*
X85318087Y-65991557D01*
X85090000Y-65971602D01*
X84861913Y-65991557D01*
X84856600Y-65992981D01*
X84856598Y-65992981D01*
X84646067Y-66049393D01*
X84646065Y-66049394D01*
X84640757Y-66050816D01*
X84635776Y-66053139D01*
X84635775Y-66053139D01*
X84438238Y-66145251D01*
X84438233Y-66145254D01*
X84433251Y-66147577D01*
X84328389Y-66221002D01*
X84250211Y-66275743D01*
X84250208Y-66275745D01*
X84245700Y-66278902D01*
X84083802Y-66440800D01*
X84080645Y-66445308D01*
X84080643Y-66445311D01*
X84043599Y-66498215D01*
X83952477Y-66628351D01*
X83950154Y-66633333D01*
X83950151Y-66633338D01*
X83862832Y-66820597D01*
X83855716Y-66835857D01*
X83854294Y-66841165D01*
X83854293Y-66841167D01*
X83806902Y-67018031D01*
X83796457Y-67057013D01*
X83776502Y-67285100D01*
X83796457Y-67513187D01*
X83797881Y-67518500D01*
X83797881Y-67518502D01*
X83850934Y-67716495D01*
X83855716Y-67734343D01*
X83858039Y-67739324D01*
X83858039Y-67739325D01*
X83950151Y-67936862D01*
X83950154Y-67936867D01*
X83952477Y-67941849D01*
X84023148Y-68042777D01*
X84075813Y-68117990D01*
X84083802Y-68129400D01*
X84229502Y-68275100D01*
X84263528Y-68337412D01*
X84258463Y-68408227D01*
X84215916Y-68465063D01*
X84179263Y-68482232D01*
X84179684Y-68483355D01*
X84043295Y-68534485D01*
X83926739Y-68621839D01*
X83839385Y-68738395D01*
X83788255Y-68874784D01*
X83781500Y-68936966D01*
X83781500Y-70633234D01*
X83788255Y-70695416D01*
X83839385Y-70831805D01*
X83926739Y-70948361D01*
X84043295Y-71035715D01*
X84179684Y-71086845D01*
X84241866Y-71093600D01*
X85938134Y-71093600D01*
X86000316Y-71086845D01*
X86136705Y-71035715D01*
X86253261Y-70948361D01*
X86340615Y-70831805D01*
X86391745Y-70695416D01*
X86398500Y-70633234D01*
X86398500Y-68936966D01*
X86391745Y-68874784D01*
X86340615Y-68738395D01*
X86253261Y-68621839D01*
X86136705Y-68534485D01*
X86000316Y-68483355D01*
X86001046Y-68481409D01*
X85948795Y-68451555D01*
X85915979Y-68388597D01*
X85922409Y-68317893D01*
X85950498Y-68275100D01*
X86096198Y-68129400D01*
X86102539Y-68120344D01*
X86206181Y-67972329D01*
X86261638Y-67928001D01*
X86309394Y-67918600D01*
X92118633Y-67918600D01*
X92129816Y-67919127D01*
X92137309Y-67920802D01*
X92145235Y-67920553D01*
X92145236Y-67920553D01*
X92205386Y-67918662D01*
X92209345Y-67918600D01*
X92237256Y-67918600D01*
X92241191Y-67918103D01*
X92241256Y-67918095D01*
X92253093Y-67917162D01*
X92285351Y-67916148D01*
X92289370Y-67916022D01*
X92297289Y-67915773D01*
X92316743Y-67910121D01*
X92336100Y-67906113D01*
X92348330Y-67904568D01*
X92348331Y-67904568D01*
X92356197Y-67903574D01*
X92363568Y-67900655D01*
X92363570Y-67900655D01*
X92397312Y-67887296D01*
X92408542Y-67883451D01*
X92443383Y-67873329D01*
X92443384Y-67873329D01*
X92450993Y-67871118D01*
X92457812Y-67867085D01*
X92457817Y-67867083D01*
X92468428Y-67860807D01*
X92486176Y-67852112D01*
X92505017Y-67844652D01*
X92540787Y-67818664D01*
X92550707Y-67812148D01*
X92581935Y-67793680D01*
X92581938Y-67793678D01*
X92588762Y-67789642D01*
X92603083Y-67775321D01*
X92618117Y-67762480D01*
X92628094Y-67755231D01*
X92634507Y-67750572D01*
X92662698Y-67716495D01*
X92670688Y-67707716D01*
X93505405Y-66872999D01*
X93567717Y-66838973D01*
X93638532Y-66844038D01*
X93695368Y-66886585D01*
X93720179Y-66953105D01*
X93720500Y-66962094D01*
X93720500Y-67014634D01*
X93727255Y-67076816D01*
X93778385Y-67213205D01*
X93865739Y-67329761D01*
X93982295Y-67417115D01*
X94118684Y-67468245D01*
X94180866Y-67475000D01*
X96777134Y-67475000D01*
X96839316Y-67468245D01*
X96975705Y-67417115D01*
X96989018Y-67407138D01*
X97021649Y-67382682D01*
X97088156Y-67357834D01*
X97157538Y-67372887D01*
X97186309Y-67394413D01*
X98807288Y-69015392D01*
X98841314Y-69077704D01*
X98836249Y-69148519D01*
X98793702Y-69205355D01*
X98771445Y-69218681D01*
X98757377Y-69225241D01*
X98677373Y-69262547D01*
X98677368Y-69262550D01*
X98672386Y-69264873D01*
X98667879Y-69268029D01*
X98667877Y-69268030D01*
X98510094Y-69378511D01*
X98442820Y-69401199D01*
X98373959Y-69383914D01*
X98323629Y-69328549D01*
X98278909Y-69232647D01*
X98275352Y-69227567D01*
X98154557Y-69055053D01*
X98154555Y-69055050D01*
X98151398Y-69050542D01*
X97994202Y-68893346D01*
X97989694Y-68890189D01*
X97989691Y-68890187D01*
X97913926Y-68837136D01*
X97812098Y-68765835D01*
X97807116Y-68763512D01*
X97807111Y-68763509D01*
X97615599Y-68674206D01*
X97615598Y-68674205D01*
X97610617Y-68671883D01*
X97605309Y-68670461D01*
X97605307Y-68670460D01*
X97535693Y-68651807D01*
X97395884Y-68614345D01*
X97174421Y-68594970D01*
X96952958Y-68614345D01*
X96813149Y-68651807D01*
X96743535Y-68670460D01*
X96743533Y-68670461D01*
X96738225Y-68671883D01*
X96733244Y-68674205D01*
X96733243Y-68674206D01*
X96541732Y-68763509D01*
X96541727Y-68763512D01*
X96536745Y-68765835D01*
X96532238Y-68768991D01*
X96532236Y-68768992D01*
X96359151Y-68890187D01*
X96359148Y-68890189D01*
X96354640Y-68893346D01*
X96264613Y-68983373D01*
X96202301Y-69017399D01*
X96131486Y-69012334D01*
X96072305Y-68966549D01*
X96033022Y-68910447D01*
X96033020Y-68910444D01*
X96029863Y-68905936D01*
X95872667Y-68748740D01*
X95868159Y-68745583D01*
X95868156Y-68745581D01*
X95760872Y-68670460D01*
X95690563Y-68621229D01*
X95685581Y-68618906D01*
X95685576Y-68618903D01*
X95494064Y-68529600D01*
X95494063Y-68529599D01*
X95489082Y-68527277D01*
X95483774Y-68525855D01*
X95483772Y-68525854D01*
X95414382Y-68507261D01*
X95274349Y-68469739D01*
X95052886Y-68450364D01*
X94831423Y-68469739D01*
X94691390Y-68507261D01*
X94622000Y-68525854D01*
X94621998Y-68525855D01*
X94616690Y-68527277D01*
X94611709Y-68529599D01*
X94611708Y-68529600D01*
X94420197Y-68618903D01*
X94420192Y-68618906D01*
X94415210Y-68621229D01*
X94410703Y-68624385D01*
X94410701Y-68624386D01*
X94237616Y-68745581D01*
X94237613Y-68745583D01*
X94233105Y-68748740D01*
X94075909Y-68905936D01*
X94072752Y-68910444D01*
X94072750Y-68910447D01*
X94072193Y-68911243D01*
X94071857Y-68911512D01*
X94069215Y-68914660D01*
X94068582Y-68914129D01*
X94016736Y-68955571D01*
X93946117Y-68962880D01*
X93879885Y-68928067D01*
X93826511Y-68874693D01*
X93822003Y-68871536D01*
X93822000Y-68871534D01*
X93746235Y-68818483D01*
X93644407Y-68747182D01*
X93639425Y-68744859D01*
X93639420Y-68744856D01*
X93447908Y-68655553D01*
X93447907Y-68655552D01*
X93442926Y-68653230D01*
X93437618Y-68651808D01*
X93437616Y-68651807D01*
X93352570Y-68629019D01*
X93228193Y-68595692D01*
X93006730Y-68576317D01*
X92785267Y-68595692D01*
X92660890Y-68629019D01*
X92575844Y-68651807D01*
X92575842Y-68651808D01*
X92570534Y-68653230D01*
X92565553Y-68655552D01*
X92565552Y-68655553D01*
X92374041Y-68744856D01*
X92374036Y-68744859D01*
X92369054Y-68747182D01*
X92364547Y-68750338D01*
X92364545Y-68750339D01*
X92191460Y-68871534D01*
X92191457Y-68871536D01*
X92186949Y-68874693D01*
X92029753Y-69031889D01*
X92026596Y-69036397D01*
X92026594Y-69036400D01*
X91998812Y-69076077D01*
X91902242Y-69213994D01*
X91899919Y-69218976D01*
X91899916Y-69218981D01*
X91889578Y-69241152D01*
X91842661Y-69294437D01*
X91774383Y-69313898D01*
X91703112Y-69291115D01*
X91616865Y-69230724D01*
X91616863Y-69230723D01*
X91612356Y-69227567D01*
X91607374Y-69225244D01*
X91607369Y-69225241D01*
X91415857Y-69135938D01*
X91415856Y-69135937D01*
X91410875Y-69133615D01*
X91405567Y-69132193D01*
X91405565Y-69132192D01*
X91339730Y-69114552D01*
X91196142Y-69076077D01*
X90974679Y-69056702D01*
X90753216Y-69076077D01*
X90609628Y-69114552D01*
X90543793Y-69132192D01*
X90543791Y-69132193D01*
X90538483Y-69133615D01*
X90533502Y-69135937D01*
X90533501Y-69135938D01*
X90341990Y-69225241D01*
X90341985Y-69225244D01*
X90337003Y-69227567D01*
X90332496Y-69230723D01*
X90332494Y-69230724D01*
X90159409Y-69351919D01*
X90159406Y-69351921D01*
X90154898Y-69355078D01*
X89997702Y-69512274D01*
X89994545Y-69516782D01*
X89994543Y-69516785D01*
X89927613Y-69612371D01*
X89870191Y-69694379D01*
X89867868Y-69699361D01*
X89867865Y-69699366D01*
X89797064Y-69851200D01*
X89776239Y-69895859D01*
X89774817Y-69901167D01*
X89774816Y-69901169D01*
X89771689Y-69912838D01*
X89718701Y-70110592D01*
X89699326Y-70332055D01*
X89718701Y-70553518D01*
X89740061Y-70633234D01*
X89768978Y-70741151D01*
X89776239Y-70768251D01*
X89778561Y-70773232D01*
X89778562Y-70773233D01*
X89867865Y-70964744D01*
X89867868Y-70964749D01*
X89870191Y-70969731D01*
X89873347Y-70974238D01*
X89873348Y-70974240D01*
X89993389Y-71145676D01*
X89997702Y-71151836D01*
X90154898Y-71309032D01*
X90159406Y-71312189D01*
X90159409Y-71312191D01*
X90193963Y-71336386D01*
X90337002Y-71436543D01*
X90341984Y-71438866D01*
X90341989Y-71438869D01*
X90528764Y-71525963D01*
X90538483Y-71530495D01*
X90543791Y-71531917D01*
X90543793Y-71531918D01*
X90598759Y-71546646D01*
X90753216Y-71588033D01*
X90974679Y-71607408D01*
X91196142Y-71588033D01*
X91350599Y-71546646D01*
X91405565Y-71531918D01*
X91405567Y-71531917D01*
X91410875Y-71530495D01*
X91420594Y-71525963D01*
X91607369Y-71438869D01*
X91607374Y-71438866D01*
X91612356Y-71436543D01*
X91755395Y-71336386D01*
X91789949Y-71312191D01*
X91789952Y-71312189D01*
X91794460Y-71309032D01*
X91951656Y-71151836D01*
X91955970Y-71145676D01*
X92076010Y-70974240D01*
X92076011Y-70974238D01*
X92079167Y-70969731D01*
X92081490Y-70964749D01*
X92081493Y-70964744D01*
X92091831Y-70942573D01*
X92138748Y-70889288D01*
X92207026Y-70869827D01*
X92278297Y-70892610D01*
X92357918Y-70948361D01*
X92369053Y-70956158D01*
X92374035Y-70958481D01*
X92374040Y-70958484D01*
X92565545Y-71047784D01*
X92565549Y-71047785D01*
X92570534Y-71050110D01*
X92575852Y-71051535D01*
X92577182Y-71052019D01*
X92634353Y-71094113D01*
X92659692Y-71160434D01*
X92645152Y-71229926D01*
X92623183Y-71259516D01*
X88381871Y-75500827D01*
X84287747Y-79594951D01*
X84279461Y-79602491D01*
X84272982Y-79606603D01*
X84267557Y-79612380D01*
X84226357Y-79656254D01*
X84223602Y-79659096D01*
X84203865Y-79678833D01*
X84201385Y-79682030D01*
X84193682Y-79691050D01*
X84163414Y-79723282D01*
X84159595Y-79730228D01*
X84159593Y-79730231D01*
X84153652Y-79741037D01*
X84142801Y-79757556D01*
X84130386Y-79773562D01*
X84127241Y-79780831D01*
X84127238Y-79780835D01*
X84112826Y-79814140D01*
X84107609Y-79824790D01*
X84086305Y-79863543D01*
X84084334Y-79871218D01*
X84084334Y-79871219D01*
X84081267Y-79883165D01*
X84074863Y-79901869D01*
X84066819Y-79920458D01*
X84065580Y-79928281D01*
X84065577Y-79928291D01*
X84059901Y-79964127D01*
X84057495Y-79975747D01*
X84046500Y-80018573D01*
X84046500Y-80038827D01*
X84044949Y-80058537D01*
X84041780Y-80078546D01*
X84042526Y-80086438D01*
X84045941Y-80122564D01*
X84046500Y-80134422D01*
X84046500Y-86305905D01*
X84026498Y-86374026D01*
X83972842Y-86420519D01*
X83902568Y-86430623D01*
X83837988Y-86401129D01*
X83831405Y-86395000D01*
X83493652Y-86057247D01*
X83486112Y-86048961D01*
X83482000Y-86042482D01*
X83432348Y-85995856D01*
X83429507Y-85993102D01*
X83409770Y-85973365D01*
X83406573Y-85970885D01*
X83397551Y-85963180D01*
X83371100Y-85938341D01*
X83365321Y-85932914D01*
X83358375Y-85929095D01*
X83358372Y-85929093D01*
X83347566Y-85923152D01*
X83331047Y-85912301D01*
X83330583Y-85911941D01*
X83315041Y-85899886D01*
X83307772Y-85896741D01*
X83307768Y-85896738D01*
X83274463Y-85882326D01*
X83263813Y-85877109D01*
X83225060Y-85855805D01*
X83205437Y-85850767D01*
X83186734Y-85844363D01*
X83175420Y-85839467D01*
X83175419Y-85839467D01*
X83168145Y-85836319D01*
X83160322Y-85835080D01*
X83160312Y-85835077D01*
X83124476Y-85829401D01*
X83112856Y-85826995D01*
X83077711Y-85817972D01*
X83077710Y-85817972D01*
X83070030Y-85816000D01*
X83049776Y-85816000D01*
X83030065Y-85814449D01*
X83017886Y-85812520D01*
X83010057Y-85811280D01*
X83002165Y-85812026D01*
X82966039Y-85815441D01*
X82954181Y-85816000D01*
X82631477Y-85816000D01*
X82563356Y-85795998D01*
X82528264Y-85762270D01*
X82438605Y-85634223D01*
X82438600Y-85634217D01*
X82435442Y-85629707D01*
X82278246Y-85472511D01*
X82273738Y-85469354D01*
X82273735Y-85469352D01*
X82180021Y-85403733D01*
X82096142Y-85345000D01*
X82091160Y-85342677D01*
X82091155Y-85342674D01*
X81899643Y-85253371D01*
X81899642Y-85253370D01*
X81894661Y-85251048D01*
X81889353Y-85249626D01*
X81889351Y-85249625D01*
X81765365Y-85216403D01*
X81679928Y-85193510D01*
X81458465Y-85174135D01*
X81237002Y-85193510D01*
X81151565Y-85216403D01*
X81027579Y-85249625D01*
X81027577Y-85249626D01*
X81022269Y-85251048D01*
X81017288Y-85253370D01*
X81017287Y-85253371D01*
X80825776Y-85342674D01*
X80825771Y-85342677D01*
X80820789Y-85345000D01*
X80816282Y-85348156D01*
X80816280Y-85348157D01*
X80643195Y-85469352D01*
X80643192Y-85469354D01*
X80638684Y-85472511D01*
X80623595Y-85487600D01*
X80561283Y-85521626D01*
X80490468Y-85516561D01*
X80433632Y-85474014D01*
X80408821Y-85407494D01*
X80408500Y-85398505D01*
X80408500Y-67453250D01*
X80410246Y-67432345D01*
X80412770Y-67417344D01*
X80412770Y-67417341D01*
X80413576Y-67412552D01*
X80413652Y-67406313D01*
X80413670Y-67404860D01*
X80413670Y-67404857D01*
X80413729Y-67400000D01*
X80410955Y-67380628D01*
X80409740Y-67358968D01*
X80424004Y-66886907D01*
X80427526Y-66770331D01*
X80427986Y-66762740D01*
X80433467Y-66702431D01*
X80463489Y-66372048D01*
X80484650Y-66139188D01*
X80485567Y-66131632D01*
X80579780Y-65512615D01*
X80581152Y-65505129D01*
X80712567Y-64892934D01*
X80714389Y-64885544D01*
X80733658Y-64816423D01*
X84508703Y-64816423D01*
X84516227Y-64826854D01*
X84655483Y-64939020D01*
X84661657Y-64943408D01*
X84932271Y-65112178D01*
X84938931Y-65115794D01*
X85227852Y-65250827D01*
X85234905Y-65253620D01*
X85537970Y-65352970D01*
X85545282Y-65354888D01*
X85858092Y-65417109D01*
X85865590Y-65418137D01*
X86183610Y-65442328D01*
X86191173Y-65442446D01*
X86509785Y-65428257D01*
X86517326Y-65427465D01*
X86831924Y-65375101D01*
X86839302Y-65373411D01*
X87145355Y-65283625D01*
X87152450Y-65281071D01*
X87445496Y-65155169D01*
X87452263Y-65151765D01*
X87728042Y-64991580D01*
X87734349Y-64987390D01*
X87944305Y-64828889D01*
X87952761Y-64817496D01*
X87946045Y-64805256D01*
X86242810Y-63102020D01*
X86228869Y-63094408D01*
X86227034Y-63094539D01*
X86220420Y-63098790D01*
X84515818Y-64803393D01*
X84508703Y-64816423D01*
X80733658Y-64816423D01*
X80794144Y-64599447D01*
X80882526Y-64282406D01*
X80884780Y-64275171D01*
X81089041Y-63683245D01*
X81091735Y-63676142D01*
X81102397Y-63650403D01*
X81238185Y-63322581D01*
X81331347Y-63097670D01*
X81334471Y-63090729D01*
X81522096Y-62705383D01*
X83517388Y-62705383D01*
X83533245Y-63023914D01*
X83534076Y-63031443D01*
X83588085Y-63345759D01*
X83589818Y-63353146D01*
X83681196Y-63658695D01*
X83683799Y-63665808D01*
X83811227Y-63958173D01*
X83814669Y-63964929D01*
X83976296Y-64239865D01*
X83980519Y-64246150D01*
X84131463Y-64443934D01*
X84142989Y-64452396D01*
X84155054Y-64445735D01*
X85857980Y-62742810D01*
X85864357Y-62731131D01*
X86594408Y-62731131D01*
X86594539Y-62732966D01*
X86598790Y-62739580D01*
X88303285Y-64444074D01*
X88316408Y-64451240D01*
X88326709Y-64443851D01*
X88430751Y-64316055D01*
X88435164Y-64309914D01*
X88605349Y-64040187D01*
X88609005Y-64033536D01*
X88745544Y-63745335D01*
X88748375Y-63738295D01*
X88849306Y-63435767D01*
X88851270Y-63428433D01*
X88915122Y-63115989D01*
X88916194Y-63108465D01*
X88942173Y-62789051D01*
X88942378Y-62784576D01*
X88942927Y-62732221D01*
X88942817Y-62727789D01*
X88923529Y-62407853D01*
X88922621Y-62400351D01*
X88865319Y-62086593D01*
X88863518Y-62079260D01*
X88768935Y-61774655D01*
X88766263Y-61767583D01*
X88635781Y-61476570D01*
X88632264Y-61469843D01*
X88467771Y-61196621D01*
X88463481Y-61190377D01*
X88327991Y-61016647D01*
X88316199Y-61008178D01*
X88304486Y-61014725D01*
X86602020Y-62717190D01*
X86594408Y-62731131D01*
X85864357Y-62731131D01*
X85865592Y-62728869D01*
X85865461Y-62727034D01*
X85861210Y-62720420D01*
X84156445Y-61015656D01*
X84143510Y-61008592D01*
X84132949Y-61016252D01*
X84012766Y-61167072D01*
X84008410Y-61173270D01*
X83841059Y-61444764D01*
X83837479Y-61451440D01*
X83703956Y-61741074D01*
X83701206Y-61748125D01*
X83603444Y-62051708D01*
X83601561Y-62059041D01*
X83540979Y-62372170D01*
X83539992Y-62379670D01*
X83517467Y-62697802D01*
X83517388Y-62705383D01*
X81522096Y-62705383D01*
X81608572Y-62527779D01*
X81612109Y-62521040D01*
X81748737Y-62278793D01*
X81919706Y-61975657D01*
X81923639Y-61969151D01*
X81925565Y-61966173D01*
X82263598Y-61443346D01*
X82267921Y-61437083D01*
X82499069Y-61122944D01*
X82639010Y-60932758D01*
X82643699Y-60926773D01*
X82658835Y-60908612D01*
X82843234Y-60687349D01*
X82879842Y-60643423D01*
X84507917Y-60643423D01*
X84514520Y-60655309D01*
X86217190Y-62357980D01*
X86231131Y-62365592D01*
X86232966Y-62365461D01*
X86239580Y-62361210D01*
X87944559Y-60656230D01*
X87951571Y-60643389D01*
X87943777Y-60632701D01*
X87781298Y-60504613D01*
X87775075Y-60500288D01*
X87502702Y-60334357D01*
X87496025Y-60330822D01*
X87205686Y-60198813D01*
X87198616Y-60196099D01*
X86894537Y-60099932D01*
X86887186Y-60098085D01*
X86573746Y-60039142D01*
X86566237Y-60038194D01*
X86247989Y-60017335D01*
X86240424Y-60017295D01*
X85921964Y-60034821D01*
X85914450Y-60035690D01*
X85600405Y-60091348D01*
X85593044Y-60093115D01*
X85287980Y-60186092D01*
X85280860Y-60188740D01*
X84989182Y-60317690D01*
X84982445Y-60321167D01*
X84708355Y-60484233D01*
X84702091Y-60488490D01*
X84516385Y-60631762D01*
X84507917Y-60643423D01*
X82879842Y-60643423D01*
X83044561Y-60445775D01*
X83049608Y-60440078D01*
X83271315Y-60204554D01*
X83478789Y-59984151D01*
X83484151Y-59978789D01*
X83845524Y-59638615D01*
X83940078Y-59549608D01*
X83945775Y-59544561D01*
X84251123Y-59290085D01*
X84426780Y-59143694D01*
X84432765Y-59139005D01*
X84468787Y-59112500D01*
X84937083Y-58767921D01*
X84939187Y-58766469D01*
X88122095Y-58766469D01*
X88122392Y-58771622D01*
X88122392Y-58771625D01*
X88134064Y-58974060D01*
X88135427Y-58997697D01*
X88136564Y-59002743D01*
X88136565Y-59002749D01*
X88168330Y-59143699D01*
X88186346Y-59223642D01*
X88188288Y-59228424D01*
X88188289Y-59228428D01*
X88270087Y-59429872D01*
X88273484Y-59438237D01*
X88329053Y-59528917D01*
X88372274Y-59599447D01*
X88394501Y-59635719D01*
X88546147Y-59810784D01*
X88724349Y-59958730D01*
X88924322Y-60075584D01*
X88929147Y-60077426D01*
X88929148Y-60077427D01*
X88970231Y-60093115D01*
X89140694Y-60158209D01*
X89145760Y-60159240D01*
X89145761Y-60159240D01*
X89198846Y-60170040D01*
X89367656Y-60204385D01*
X89498324Y-60209176D01*
X89593949Y-60212683D01*
X89593953Y-60212683D01*
X89599113Y-60212872D01*
X89604233Y-60212216D01*
X89604235Y-60212216D01*
X89708859Y-60198813D01*
X89828847Y-60183442D01*
X89833795Y-60181957D01*
X89833802Y-60181956D01*
X90045747Y-60118369D01*
X90050690Y-60116886D01*
X90055324Y-60114616D01*
X90254049Y-60017262D01*
X90254052Y-60017260D01*
X90258684Y-60014991D01*
X90447243Y-59880494D01*
X90450898Y-59876852D01*
X90450906Y-59876845D01*
X90492697Y-59835199D01*
X90555068Y-59801282D01*
X90625875Y-59806470D01*
X90682637Y-59849116D01*
X90699619Y-59880218D01*
X90721677Y-59939056D01*
X90730214Y-59954649D01*
X90806715Y-60056724D01*
X90819276Y-60069285D01*
X90921351Y-60145786D01*
X90936946Y-60154324D01*
X91057394Y-60199478D01*
X91072649Y-60203105D01*
X91123514Y-60208631D01*
X91130328Y-60209000D01*
X91802885Y-60209000D01*
X91818124Y-60204525D01*
X91819329Y-60203135D01*
X91821000Y-60195452D01*
X91821000Y-60190884D01*
X92329000Y-60190884D01*
X92333475Y-60206123D01*
X92334865Y-60207328D01*
X92342548Y-60208999D01*
X93019669Y-60208999D01*
X93026490Y-60208629D01*
X93077352Y-60203105D01*
X93092604Y-60199479D01*
X93213054Y-60154324D01*
X93228649Y-60145786D01*
X93330724Y-60069285D01*
X93343285Y-60056724D01*
X93419786Y-59954649D01*
X93428324Y-59939054D01*
X93476252Y-59811207D01*
X93478673Y-59812115D01*
X93507641Y-59761414D01*
X93570598Y-59728598D01*
X93641303Y-59735028D01*
X93697307Y-59778663D01*
X93721001Y-59852212D01*
X93721001Y-60011169D01*
X93721371Y-60017990D01*
X93726895Y-60068852D01*
X93730521Y-60084104D01*
X93775676Y-60204554D01*
X93784214Y-60220149D01*
X93860715Y-60322224D01*
X93873276Y-60334785D01*
X93975351Y-60411286D01*
X93990946Y-60419824D01*
X94111394Y-60464978D01*
X94126649Y-60468605D01*
X94177514Y-60474131D01*
X94184328Y-60474500D01*
X95206885Y-60474500D01*
X95222124Y-60470025D01*
X95223329Y-60468635D01*
X95225000Y-60460952D01*
X95225000Y-60456384D01*
X95733000Y-60456384D01*
X95737475Y-60471623D01*
X95738865Y-60472828D01*
X95746548Y-60474499D01*
X96773669Y-60474499D01*
X96780490Y-60474129D01*
X96831352Y-60468605D01*
X96846604Y-60464979D01*
X96967054Y-60419824D01*
X96982649Y-60411286D01*
X97084724Y-60334785D01*
X97097285Y-60322224D01*
X97173786Y-60220149D01*
X97182324Y-60204554D01*
X97227478Y-60084106D01*
X97231105Y-60068851D01*
X97236631Y-60017986D01*
X97237000Y-60011172D01*
X97237000Y-59638615D01*
X97232525Y-59623376D01*
X97231135Y-59622171D01*
X97223452Y-59620500D01*
X95751115Y-59620500D01*
X95735876Y-59624975D01*
X95734671Y-59626365D01*
X95733000Y-59634048D01*
X95733000Y-60456384D01*
X95225000Y-60456384D01*
X95225000Y-59094385D01*
X95733000Y-59094385D01*
X95737475Y-59109624D01*
X95738865Y-59110829D01*
X95746548Y-59112500D01*
X97218884Y-59112500D01*
X97234123Y-59108025D01*
X97235328Y-59106635D01*
X97236999Y-59098952D01*
X97236999Y-58721831D01*
X97236629Y-58715010D01*
X97231105Y-58664148D01*
X97227479Y-58648896D01*
X97182324Y-58528446D01*
X97173786Y-58512851D01*
X97097285Y-58410776D01*
X97084724Y-58398215D01*
X96982649Y-58321714D01*
X96967054Y-58313176D01*
X96846606Y-58268022D01*
X96831351Y-58264395D01*
X96780486Y-58258869D01*
X96773672Y-58258500D01*
X95751115Y-58258500D01*
X95735876Y-58262975D01*
X95734671Y-58264365D01*
X95733000Y-58272048D01*
X95733000Y-59094385D01*
X95225000Y-59094385D01*
X95225000Y-58276616D01*
X95220525Y-58261377D01*
X95219135Y-58260172D01*
X95211452Y-58258501D01*
X94184331Y-58258501D01*
X94177510Y-58258871D01*
X94126648Y-58264395D01*
X94111396Y-58268021D01*
X93990946Y-58313176D01*
X93975351Y-58321714D01*
X93873276Y-58398215D01*
X93860715Y-58410776D01*
X93784214Y-58512851D01*
X93775676Y-58528446D01*
X93727748Y-58656293D01*
X93725328Y-58655386D01*
X93696353Y-58706091D01*
X93633394Y-58738903D01*
X93562689Y-58732468D01*
X93506688Y-58688829D01*
X93482999Y-58615287D01*
X93482999Y-57856331D01*
X93482629Y-57849510D01*
X93477105Y-57798648D01*
X93473479Y-57783396D01*
X93428324Y-57662946D01*
X93419786Y-57647351D01*
X93343285Y-57545276D01*
X93330724Y-57532715D01*
X93228649Y-57456214D01*
X93213054Y-57447676D01*
X93092606Y-57402522D01*
X93077351Y-57398895D01*
X93026486Y-57393369D01*
X93019672Y-57393000D01*
X92347115Y-57393000D01*
X92331876Y-57397475D01*
X92330671Y-57398865D01*
X92329000Y-57406548D01*
X92329000Y-60190884D01*
X91821000Y-60190884D01*
X91821000Y-57411116D01*
X91816525Y-57395877D01*
X91815135Y-57394672D01*
X91807452Y-57393001D01*
X91130331Y-57393001D01*
X91123510Y-57393371D01*
X91072648Y-57398895D01*
X91057396Y-57402521D01*
X90936946Y-57447676D01*
X90921351Y-57456214D01*
X90819276Y-57532715D01*
X90806715Y-57545276D01*
X90730214Y-57647351D01*
X90721675Y-57662948D01*
X90700934Y-57718275D01*
X90658293Y-57775040D01*
X90591731Y-57799740D01*
X90522383Y-57784533D01*
X90499388Y-57767909D01*
X90498887Y-57767358D01*
X90436737Y-57718275D01*
X90321177Y-57627011D01*
X90321172Y-57627008D01*
X90317123Y-57623810D01*
X90312607Y-57621317D01*
X90312604Y-57621315D01*
X90118879Y-57514373D01*
X90118875Y-57514371D01*
X90114355Y-57511876D01*
X90109486Y-57510152D01*
X90109482Y-57510150D01*
X89900903Y-57436288D01*
X89900899Y-57436287D01*
X89896028Y-57434562D01*
X89890935Y-57433655D01*
X89890932Y-57433654D01*
X89673095Y-57394851D01*
X89673089Y-57394850D01*
X89668006Y-57393945D01*
X89590644Y-57393000D01*
X89441581Y-57391179D01*
X89441579Y-57391179D01*
X89436411Y-57391116D01*
X89207464Y-57426150D01*
X88987314Y-57498106D01*
X88982726Y-57500494D01*
X88982722Y-57500496D01*
X88807429Y-57591748D01*
X88781872Y-57605052D01*
X88777739Y-57608155D01*
X88777736Y-57608157D01*
X88600790Y-57741012D01*
X88596655Y-57744117D01*
X88436639Y-57911564D01*
X88306119Y-58102899D01*
X88208602Y-58312981D01*
X88146707Y-58536169D01*
X88122095Y-58766469D01*
X84939187Y-58766469D01*
X84943346Y-58763598D01*
X85007946Y-58721831D01*
X85469158Y-58423635D01*
X85475657Y-58419706D01*
X85910116Y-58174670D01*
X86021040Y-58112109D01*
X86027779Y-58108572D01*
X86590729Y-57834471D01*
X86597670Y-57831347D01*
X86870649Y-57718275D01*
X87176155Y-57591730D01*
X87183245Y-57589041D01*
X87775171Y-57384780D01*
X87782406Y-57382526D01*
X88195122Y-57267473D01*
X88385544Y-57214389D01*
X88392934Y-57212567D01*
X89005129Y-57081152D01*
X89012615Y-57079780D01*
X89631632Y-56985567D01*
X89639188Y-56984650D01*
X89950964Y-56956318D01*
X90262747Y-56927986D01*
X90270329Y-56927526D01*
X90855168Y-56909854D01*
X90878355Y-56911298D01*
X90893724Y-56913691D01*
X90925286Y-56909564D01*
X90941621Y-56908500D01*
X97552733Y-56908500D01*
X97620854Y-56928502D01*
G37*
G04 #@! TD.AperFunction*
G04 #@! TA.AperFunction,Conductor*
G36*
X80617012Y-87405247D02*
G01*
X80623595Y-87411376D01*
X80638684Y-87426465D01*
X80643192Y-87429622D01*
X80643195Y-87429624D01*
X80681298Y-87456304D01*
X80820788Y-87553976D01*
X80825770Y-87556299D01*
X80825775Y-87556302D01*
X81015166Y-87644616D01*
X81068451Y-87691533D01*
X81087912Y-87759811D01*
X81067370Y-87827771D01*
X81062486Y-87834349D01*
X81061872Y-87834963D01*
X80934361Y-88017068D01*
X80932038Y-88022050D01*
X80932035Y-88022055D01*
X80842732Y-88213566D01*
X80840409Y-88218548D01*
X80838987Y-88223856D01*
X80838986Y-88223858D01*
X80832966Y-88246326D01*
X80782871Y-88433281D01*
X80763496Y-88654744D01*
X80782871Y-88876207D01*
X80840409Y-89090940D01*
X80842731Y-89095921D01*
X80842732Y-89095922D01*
X80932035Y-89287433D01*
X80932038Y-89287438D01*
X80934361Y-89292420D01*
X80937517Y-89296927D01*
X80937518Y-89296929D01*
X81053453Y-89462501D01*
X81061872Y-89474525D01*
X81219068Y-89631721D01*
X81223576Y-89634878D01*
X81223579Y-89634880D01*
X81270177Y-89667508D01*
X81401172Y-89759232D01*
X81406154Y-89761555D01*
X81406159Y-89761558D01*
X81597671Y-89850861D01*
X81602653Y-89853184D01*
X81607961Y-89854606D01*
X81607963Y-89854607D01*
X81638536Y-89862799D01*
X81817386Y-89910722D01*
X81817290Y-89911080D01*
X81878203Y-89941273D01*
X81914670Y-90002189D01*
X81912414Y-90073150D01*
X81906904Y-90087073D01*
X81860807Y-90185928D01*
X81803269Y-90400661D01*
X81783894Y-90622124D01*
X81803269Y-90843587D01*
X81860807Y-91058320D01*
X81863129Y-91063301D01*
X81863130Y-91063302D01*
X81952433Y-91254813D01*
X81952436Y-91254818D01*
X81954759Y-91259800D01*
X81957915Y-91264307D01*
X81957916Y-91264309D01*
X82070072Y-91424484D01*
X82082270Y-91441905D01*
X82239466Y-91599101D01*
X82243974Y-91602258D01*
X82243977Y-91602260D01*
X82255741Y-91610497D01*
X82421570Y-91726612D01*
X82426552Y-91728935D01*
X82426557Y-91728938D01*
X82618069Y-91818241D01*
X82623051Y-91820564D01*
X82628359Y-91821986D01*
X82628361Y-91821987D01*
X82694196Y-91839627D01*
X82837784Y-91878102D01*
X83007679Y-91892966D01*
X83073796Y-91918828D01*
X83115436Y-91976332D01*
X83119377Y-92047219D01*
X83110892Y-92071736D01*
X83090409Y-92115662D01*
X83032871Y-92330395D01*
X83013496Y-92551858D01*
X83032871Y-92773321D01*
X83068101Y-92904800D01*
X83088310Y-92980219D01*
X83090409Y-92988054D01*
X83092731Y-92993035D01*
X83092732Y-92993036D01*
X83182035Y-93184547D01*
X83182038Y-93184552D01*
X83184361Y-93189534D01*
X83187517Y-93194041D01*
X83187518Y-93194043D01*
X83304088Y-93360522D01*
X83311872Y-93371639D01*
X83469068Y-93528835D01*
X83473576Y-93531992D01*
X83473579Y-93531994D01*
X83482635Y-93538335D01*
X83651172Y-93656346D01*
X83656154Y-93658669D01*
X83656159Y-93658672D01*
X83845507Y-93746966D01*
X83852653Y-93750298D01*
X83857961Y-93751720D01*
X83857963Y-93751721D01*
X83898747Y-93762649D01*
X84067386Y-93807836D01*
X84288849Y-93827211D01*
X84294324Y-93826732D01*
X84510312Y-93807836D01*
X84510419Y-93809063D01*
X84574960Y-93816259D01*
X84630064Y-93861025D01*
X84652219Y-93928476D01*
X84651804Y-93943458D01*
X84633112Y-94157114D01*
X84652487Y-94378577D01*
X84674047Y-94459039D01*
X84702186Y-94564053D01*
X84710025Y-94593310D01*
X84712347Y-94598291D01*
X84712348Y-94598292D01*
X84801651Y-94789803D01*
X84801654Y-94789808D01*
X84803977Y-94794790D01*
X84807133Y-94799297D01*
X84807134Y-94799299D01*
X84920731Y-94961532D01*
X84931488Y-94976895D01*
X85088684Y-95134091D01*
X85093192Y-95137248D01*
X85093195Y-95137250D01*
X85159341Y-95183566D01*
X85270788Y-95261602D01*
X85275770Y-95263925D01*
X85275775Y-95263928D01*
X85450142Y-95345236D01*
X85472269Y-95355554D01*
X85477577Y-95356976D01*
X85477579Y-95356977D01*
X85502920Y-95363767D01*
X85687002Y-95413092D01*
X85908465Y-95432467D01*
X86129928Y-95413092D01*
X86314010Y-95363767D01*
X86339351Y-95356977D01*
X86339353Y-95356976D01*
X86344661Y-95355554D01*
X86366788Y-95345236D01*
X86541155Y-95263928D01*
X86541160Y-95263925D01*
X86546142Y-95261602D01*
X86657589Y-95183566D01*
X86723735Y-95137250D01*
X86723738Y-95137248D01*
X86728246Y-95134091D01*
X86885442Y-94976895D01*
X86896200Y-94961532D01*
X87009796Y-94799299D01*
X87009797Y-94799297D01*
X87012953Y-94794790D01*
X87015276Y-94789808D01*
X87015279Y-94789803D01*
X87104582Y-94598292D01*
X87104583Y-94598291D01*
X87106905Y-94593310D01*
X87114745Y-94564053D01*
X87142883Y-94459039D01*
X87164443Y-94378577D01*
X87164922Y-94373101D01*
X87164923Y-94373096D01*
X87165947Y-94361384D01*
X87191808Y-94295265D01*
X87249311Y-94253624D01*
X87320198Y-94249681D01*
X87380563Y-94283267D01*
X91897818Y-98800523D01*
X96414799Y-103317504D01*
X96448825Y-103379816D01*
X96450710Y-103390806D01*
X96450893Y-103392251D01*
X96452326Y-103403597D01*
X96455245Y-103410968D01*
X96455245Y-103410970D01*
X96468604Y-103444712D01*
X96472449Y-103455942D01*
X96484782Y-103498393D01*
X96488815Y-103505212D01*
X96488817Y-103505217D01*
X96495093Y-103515828D01*
X96503788Y-103533576D01*
X96511248Y-103552417D01*
X96515910Y-103558833D01*
X96515910Y-103558834D01*
X96537236Y-103588187D01*
X96543752Y-103598107D01*
X96557955Y-103622122D01*
X96566258Y-103636162D01*
X96580579Y-103650483D01*
X96593419Y-103665516D01*
X96605328Y-103681907D01*
X96639405Y-103710098D01*
X96648184Y-103718088D01*
X98056800Y-105126705D01*
X98090826Y-105189017D01*
X98085761Y-105259833D01*
X98043214Y-105316668D01*
X97976694Y-105341479D01*
X97967705Y-105341800D01*
X93995795Y-105341800D01*
X93927674Y-105321798D01*
X93906700Y-105304895D01*
X86678052Y-98076247D01*
X86644026Y-98013935D01*
X86645440Y-97954541D01*
X86650224Y-97936688D01*
X86662443Y-97891087D01*
X86682398Y-97663000D01*
X86662443Y-97434913D01*
X86658681Y-97420873D01*
X86604607Y-97219067D01*
X86604606Y-97219065D01*
X86603184Y-97213757D01*
X86582429Y-97169247D01*
X86508749Y-97011238D01*
X86508746Y-97011233D01*
X86506423Y-97006251D01*
X86407185Y-96864525D01*
X86378257Y-96823211D01*
X86378255Y-96823208D01*
X86375098Y-96818700D01*
X86213200Y-96656802D01*
X86208692Y-96653645D01*
X86208689Y-96653643D01*
X86085648Y-96567489D01*
X86025649Y-96525477D01*
X86020667Y-96523154D01*
X86020662Y-96523151D01*
X85823125Y-96431039D01*
X85823124Y-96431039D01*
X85818143Y-96428716D01*
X85812835Y-96427294D01*
X85812833Y-96427293D01*
X85602302Y-96370881D01*
X85602300Y-96370881D01*
X85596987Y-96369457D01*
X85368900Y-96349502D01*
X85140813Y-96369457D01*
X85135500Y-96370881D01*
X85135498Y-96370881D01*
X84924967Y-96427293D01*
X84924965Y-96427294D01*
X84919657Y-96428716D01*
X84914676Y-96431039D01*
X84914675Y-96431039D01*
X84717138Y-96523151D01*
X84717133Y-96523154D01*
X84712151Y-96525477D01*
X84652152Y-96567489D01*
X84529111Y-96653643D01*
X84529108Y-96653645D01*
X84524600Y-96656802D01*
X84378900Y-96802502D01*
X84316588Y-96836528D01*
X84245773Y-96831463D01*
X84188937Y-96788916D01*
X84171768Y-96752263D01*
X84170645Y-96752684D01*
X84122667Y-96624703D01*
X84119515Y-96616295D01*
X84032161Y-96499739D01*
X83915605Y-96412385D01*
X83779216Y-96361255D01*
X83717034Y-96354500D01*
X82020766Y-96354500D01*
X81958584Y-96361255D01*
X81822195Y-96412385D01*
X81705639Y-96499739D01*
X81618285Y-96616295D01*
X81567155Y-96752684D01*
X81560400Y-96814866D01*
X81560400Y-98511134D01*
X81567155Y-98573316D01*
X81618285Y-98709705D01*
X81705639Y-98826261D01*
X81822195Y-98913615D01*
X81958584Y-98964745D01*
X82020766Y-98971500D01*
X83717034Y-98971500D01*
X83779216Y-98964745D01*
X83915605Y-98913615D01*
X84032161Y-98826261D01*
X84119515Y-98709705D01*
X84170645Y-98573316D01*
X84172591Y-98574046D01*
X84202445Y-98521795D01*
X84265403Y-98488979D01*
X84336107Y-98495409D01*
X84378900Y-98523498D01*
X84524600Y-98669198D01*
X84529108Y-98672355D01*
X84529111Y-98672357D01*
X84580713Y-98708489D01*
X84712151Y-98800523D01*
X84717133Y-98802846D01*
X84717138Y-98802849D01*
X84914675Y-98894961D01*
X84919657Y-98897284D01*
X84924965Y-98898706D01*
X84924967Y-98898707D01*
X85135498Y-98955119D01*
X85135500Y-98955119D01*
X85140813Y-98956543D01*
X85368900Y-98976498D01*
X85596987Y-98956543D01*
X85602298Y-98955120D01*
X85602309Y-98955118D01*
X85660441Y-98939541D01*
X85731417Y-98941230D01*
X85782148Y-98972152D01*
X87545126Y-100735130D01*
X87579152Y-100797442D01*
X87574087Y-100868257D01*
X87531540Y-100925093D01*
X87465020Y-100949904D01*
X87403880Y-100938926D01*
X87205686Y-100848812D01*
X87198616Y-100846099D01*
X86894537Y-100749932D01*
X86887186Y-100748085D01*
X86573746Y-100689142D01*
X86566237Y-100688194D01*
X86247989Y-100667335D01*
X86240424Y-100667295D01*
X85921964Y-100684821D01*
X85914450Y-100685690D01*
X85600405Y-100741348D01*
X85593044Y-100743115D01*
X85287980Y-100836092D01*
X85280860Y-100838740D01*
X84989182Y-100967690D01*
X84982445Y-100971167D01*
X84708355Y-101134233D01*
X84702091Y-101138490D01*
X84516385Y-101281762D01*
X84507917Y-101293423D01*
X84514520Y-101305309D01*
X86230000Y-103020790D01*
X88303287Y-105094076D01*
X88316407Y-105101240D01*
X88326710Y-105093850D01*
X88430751Y-104966055D01*
X88435164Y-104959914D01*
X88605349Y-104690187D01*
X88609005Y-104683536D01*
X88745544Y-104395335D01*
X88748375Y-104388295D01*
X88849306Y-104085767D01*
X88851270Y-104078433D01*
X88915122Y-103765989D01*
X88916194Y-103758465D01*
X88942173Y-103439051D01*
X88942378Y-103434576D01*
X88942927Y-103382221D01*
X88942817Y-103377789D01*
X88923529Y-103057853D01*
X88922621Y-103050351D01*
X88865319Y-102736593D01*
X88863518Y-102729260D01*
X88768935Y-102424655D01*
X88766263Y-102417583D01*
X88671486Y-102206202D01*
X88661867Y-102135860D01*
X88691805Y-102071484D01*
X88751795Y-102033514D01*
X88822790Y-102034004D01*
X88875553Y-102065557D01*
X93177543Y-106367547D01*
X93185087Y-106375837D01*
X93189200Y-106382318D01*
X93194977Y-106387743D01*
X93238867Y-106428958D01*
X93241709Y-106431713D01*
X93261430Y-106451434D01*
X93264625Y-106453912D01*
X93273647Y-106461618D01*
X93305879Y-106491886D01*
X93312828Y-106495706D01*
X93323632Y-106501646D01*
X93340156Y-106512499D01*
X93356159Y-106524913D01*
X93396743Y-106542476D01*
X93407373Y-106547683D01*
X93446140Y-106568995D01*
X93453817Y-106570966D01*
X93453822Y-106570968D01*
X93465758Y-106574032D01*
X93484466Y-106580437D01*
X93503055Y-106588481D01*
X93510880Y-106589720D01*
X93510882Y-106589721D01*
X93546719Y-106595397D01*
X93558340Y-106597804D01*
X93590159Y-106605973D01*
X93601170Y-106608800D01*
X93621431Y-106608800D01*
X93641140Y-106610351D01*
X93661143Y-106613519D01*
X93669035Y-106612773D01*
X93674262Y-106612279D01*
X93705154Y-106609359D01*
X93717011Y-106608800D01*
X111993689Y-106608800D01*
X112061810Y-106628802D01*
X112108303Y-106682458D01*
X112118407Y-106752732D01*
X112088913Y-106817312D01*
X112026937Y-106856334D01*
X111967249Y-106872663D01*
X111962191Y-106875075D01*
X111962187Y-106875077D01*
X111865866Y-106921020D01*
X111764482Y-106969378D01*
X111582046Y-107100471D01*
X111578139Y-107104503D01*
X111435866Y-107251317D01*
X111425708Y-107261799D01*
X111300410Y-107448262D01*
X111210112Y-107653967D01*
X111208803Y-107659418D01*
X111208802Y-107659422D01*
X111188247Y-107745039D01*
X111157668Y-107872411D01*
X111144737Y-108096690D01*
X111171725Y-108319715D01*
X111237782Y-108534435D01*
X111240352Y-108539415D01*
X111240354Y-108539419D01*
X111305552Y-108665738D01*
X111340818Y-108734064D01*
X111477577Y-108912292D01*
X111481716Y-108916058D01*
X111481725Y-108916068D01*
X111544575Y-108973257D01*
X111581497Y-109033897D01*
X111579774Y-109104873D01*
X111539951Y-109163650D01*
X111474674Y-109191566D01*
X111459776Y-109192450D01*
X101977717Y-109192012D01*
X90949375Y-109191502D01*
X90929996Y-109190002D01*
X90915150Y-109187690D01*
X90915144Y-109187690D01*
X90906276Y-109186309D01*
X90882881Y-109189369D01*
X90862749Y-109190375D01*
X90270329Y-109172474D01*
X90262747Y-109172014D01*
X89950964Y-109143682D01*
X89639188Y-109115350D01*
X89631632Y-109114433D01*
X89012615Y-109020220D01*
X89005129Y-109018848D01*
X88392934Y-108887433D01*
X88385544Y-108885611D01*
X88195122Y-108832527D01*
X87782406Y-108717474D01*
X87775171Y-108715220D01*
X87183245Y-108510959D01*
X87176155Y-108508270D01*
X86707492Y-108314143D01*
X86597670Y-108268653D01*
X86590729Y-108265529D01*
X86027779Y-107991428D01*
X86021040Y-107987891D01*
X85677768Y-107794285D01*
X85475657Y-107680294D01*
X85469151Y-107676361D01*
X85463098Y-107672447D01*
X84943346Y-107336402D01*
X84937083Y-107332079D01*
X84926178Y-107324055D01*
X84432758Y-106960990D01*
X84426773Y-106956301D01*
X84397983Y-106932307D01*
X84182509Y-106752732D01*
X83945775Y-106555439D01*
X83940078Y-106550392D01*
X83667487Y-106293792D01*
X83484151Y-106121211D01*
X83478789Y-106115849D01*
X83201744Y-105821539D01*
X83049608Y-105659922D01*
X83044561Y-105654225D01*
X82888048Y-105466423D01*
X84508703Y-105466423D01*
X84516227Y-105476854D01*
X84655483Y-105589020D01*
X84661657Y-105593408D01*
X84932271Y-105762178D01*
X84938931Y-105765794D01*
X85227852Y-105900827D01*
X85234905Y-105903620D01*
X85537970Y-106002970D01*
X85545282Y-106004888D01*
X85858092Y-106067109D01*
X85865590Y-106068137D01*
X86183610Y-106092328D01*
X86191173Y-106092446D01*
X86509785Y-106078257D01*
X86517326Y-106077465D01*
X86831924Y-106025101D01*
X86839302Y-106023411D01*
X87145355Y-105933625D01*
X87152450Y-105931071D01*
X87445496Y-105805169D01*
X87452263Y-105801765D01*
X87728042Y-105641580D01*
X87734349Y-105637390D01*
X87944305Y-105478889D01*
X87952761Y-105467496D01*
X87946045Y-105455256D01*
X86242810Y-103752020D01*
X86228869Y-103744408D01*
X86227034Y-103744539D01*
X86220420Y-103748790D01*
X84515818Y-105453393D01*
X84508703Y-105466423D01*
X82888048Y-105466423D01*
X82673084Y-105208486D01*
X82643694Y-105173220D01*
X82639005Y-105167235D01*
X82636796Y-105164232D01*
X82267921Y-104662917D01*
X82263598Y-104656654D01*
X82159438Y-104495553D01*
X81923635Y-104130842D01*
X81919701Y-104124335D01*
X81916254Y-104118222D01*
X81670171Y-103681907D01*
X81612109Y-103578960D01*
X81608572Y-103572221D01*
X81502993Y-103355383D01*
X83517388Y-103355383D01*
X83533245Y-103673914D01*
X83534076Y-103681443D01*
X83588085Y-103995759D01*
X83589818Y-104003146D01*
X83681196Y-104308695D01*
X83683799Y-104315808D01*
X83811227Y-104608173D01*
X83814669Y-104614929D01*
X83976296Y-104889865D01*
X83980519Y-104896150D01*
X84131463Y-105093934D01*
X84142989Y-105102396D01*
X84155054Y-105095735D01*
X85857980Y-103392810D01*
X85865592Y-103378869D01*
X85865461Y-103377034D01*
X85861210Y-103370420D01*
X84156445Y-101665656D01*
X84143510Y-101658592D01*
X84132949Y-101666252D01*
X84012766Y-101817072D01*
X84008410Y-101823270D01*
X83841059Y-102094764D01*
X83837479Y-102101440D01*
X83703956Y-102391074D01*
X83701206Y-102398125D01*
X83603444Y-102701708D01*
X83601561Y-102709041D01*
X83540979Y-103022170D01*
X83539992Y-103029670D01*
X83517467Y-103347802D01*
X83517388Y-103355383D01*
X81502993Y-103355383D01*
X81334471Y-103009271D01*
X81331347Y-103002330D01*
X81134704Y-102527594D01*
X81091730Y-102423845D01*
X81089036Y-102416742D01*
X80884780Y-101824829D01*
X80882526Y-101817594D01*
X80739716Y-101305309D01*
X80714389Y-101214456D01*
X80712567Y-101207066D01*
X80581152Y-100594871D01*
X80579780Y-100587385D01*
X80485567Y-99968368D01*
X80484650Y-99960812D01*
X80450996Y-99590467D01*
X80427986Y-99337253D01*
X80427526Y-99329663D01*
X80409970Y-98748654D01*
X80411659Y-98723944D01*
X80412768Y-98717353D01*
X80413576Y-98712552D01*
X80413729Y-98700000D01*
X80409773Y-98672376D01*
X80408500Y-98654514D01*
X80408500Y-87500471D01*
X80428502Y-87432350D01*
X80482158Y-87385857D01*
X80552432Y-87375753D01*
X80617012Y-87405247D01*
G37*
G04 #@! TD.AperFunction*
G04 #@! TA.AperFunction,Conductor*
G36*
X109010930Y-98546540D02*
G01*
X109067766Y-98589087D01*
X109092577Y-98655607D01*
X109084764Y-98709134D01*
X108943626Y-99082645D01*
X108943622Y-99082656D01*
X108942578Y-99085420D01*
X108941797Y-99088274D01*
X108941794Y-99088284D01*
X108833022Y-99485887D01*
X108832235Y-99488765D01*
X108760340Y-99900705D01*
X108760108Y-99903653D01*
X108728442Y-100306009D01*
X108727531Y-100317582D01*
X108729090Y-100416822D01*
X108729536Y-100445249D01*
X108733038Y-100668131D01*
X108734099Y-100735697D01*
X108734426Y-100738659D01*
X108742930Y-100815690D01*
X108779987Y-101151339D01*
X108780589Y-101154248D01*
X108780591Y-101154258D01*
X108864182Y-101557907D01*
X108864785Y-101560817D01*
X108865658Y-101563653D01*
X108865658Y-101563655D01*
X108985520Y-101953270D01*
X108987743Y-101960497D01*
X109147769Y-102346833D01*
X109190588Y-102427705D01*
X109339548Y-102709041D01*
X109343441Y-102716394D01*
X109345063Y-102718863D01*
X109345067Y-102718870D01*
X109457639Y-102890244D01*
X109573024Y-103065901D01*
X109574883Y-103068221D01*
X109819587Y-103373661D01*
X109834480Y-103392251D01*
X110125487Y-103692547D01*
X110191339Y-103748790D01*
X110435127Y-103957004D01*
X110443463Y-103964124D01*
X110445889Y-103965829D01*
X110783162Y-104202869D01*
X110783171Y-104202875D01*
X110785586Y-104204572D01*
X110906349Y-104273454D01*
X110955608Y-104324578D01*
X110969409Y-104394220D01*
X110943368Y-104460268D01*
X110885752Y-104501753D01*
X110843919Y-104508900D01*
X104956514Y-104508900D01*
X104888393Y-104488898D01*
X104841900Y-104435242D01*
X104831064Y-104385430D01*
X104831204Y-104384100D01*
X104819575Y-104273452D01*
X104811932Y-104200735D01*
X104811932Y-104200733D01*
X104811242Y-104194172D01*
X104752227Y-104012544D01*
X104656740Y-103847156D01*
X104605984Y-103790785D01*
X104533375Y-103710145D01*
X104533374Y-103710144D01*
X104528953Y-103705234D01*
X104433884Y-103636162D01*
X104414560Y-103622122D01*
X104371206Y-103565899D01*
X104365131Y-103495163D01*
X104398263Y-103432372D01*
X104414560Y-103418250D01*
X104434728Y-103403597D01*
X104504553Y-103352866D01*
X104586549Y-103261800D01*
X104627921Y-103215852D01*
X104627922Y-103215851D01*
X104632340Y-103210944D01*
X104708844Y-103078435D01*
X104724523Y-103051279D01*
X104724524Y-103051278D01*
X104727827Y-103045556D01*
X104786842Y-102863928D01*
X104790229Y-102831708D01*
X104805370Y-102687644D01*
X104832383Y-102621987D01*
X104841585Y-102611719D01*
X108877803Y-98575501D01*
X108940115Y-98541475D01*
X109010930Y-98546540D01*
G37*
G04 #@! TD.AperFunction*
G04 #@! TA.AperFunction,Conductor*
G36*
X125624630Y-69871202D02*
G01*
X125671123Y-69924858D01*
X125681227Y-69995132D01*
X125672706Y-70025925D01*
X125583757Y-70238045D01*
X125583755Y-70238051D01*
X125581946Y-70242365D01*
X125580795Y-70246897D01*
X125580794Y-70246900D01*
X125557777Y-70337530D01*
X125519438Y-70488490D01*
X125493996Y-70741151D01*
X125494220Y-70745817D01*
X125494220Y-70745822D01*
X125498385Y-70832531D01*
X125506180Y-70994798D01*
X125513248Y-71030329D01*
X125545613Y-71193039D01*
X125555721Y-71243857D01*
X125557300Y-71248255D01*
X125557302Y-71248262D01*
X125601722Y-71371980D01*
X125641531Y-71482858D01*
X125643748Y-71486984D01*
X125755392Y-71694764D01*
X125761725Y-71706551D01*
X125764520Y-71710294D01*
X125764522Y-71710297D01*
X125910871Y-71906282D01*
X125910876Y-71906288D01*
X125913663Y-71910020D01*
X125916972Y-71913300D01*
X125916977Y-71913306D01*
X126015559Y-72011031D01*
X126094007Y-72088797D01*
X126097769Y-72091555D01*
X126097772Y-72091558D01*
X126167089Y-72142383D01*
X126251230Y-72204077D01*
X126270105Y-72217917D01*
X126313213Y-72274328D01*
X126321600Y-72319529D01*
X126321600Y-89075806D01*
X126301598Y-89143927D01*
X126284695Y-89164901D01*
X121828847Y-93620748D01*
X121820561Y-93628288D01*
X121814082Y-93632400D01*
X121808657Y-93638177D01*
X121767457Y-93682051D01*
X121764702Y-93684893D01*
X121744965Y-93704630D01*
X121742485Y-93707827D01*
X121734782Y-93716847D01*
X121704514Y-93749079D01*
X121700695Y-93756025D01*
X121700693Y-93756028D01*
X121694752Y-93766834D01*
X121683901Y-93783353D01*
X121671486Y-93799359D01*
X121668341Y-93806628D01*
X121668338Y-93806632D01*
X121653926Y-93839937D01*
X121648709Y-93850587D01*
X121627405Y-93889340D01*
X121623368Y-93905065D01*
X121622367Y-93908962D01*
X121615963Y-93927666D01*
X121615613Y-93928476D01*
X121607919Y-93946255D01*
X121606680Y-93954078D01*
X121606677Y-93954088D01*
X121601001Y-93989924D01*
X121598595Y-94001544D01*
X121587600Y-94044370D01*
X121587600Y-94064624D01*
X121586049Y-94084334D01*
X121582880Y-94104343D01*
X121583626Y-94112235D01*
X121587041Y-94148361D01*
X121587600Y-94160219D01*
X121587600Y-102559276D01*
X121567598Y-102627397D01*
X121555242Y-102643579D01*
X121482060Y-102724856D01*
X121478759Y-102730574D01*
X121401767Y-102863928D01*
X121386573Y-102890244D01*
X121327558Y-103071872D01*
X121326868Y-103078433D01*
X121326868Y-103078435D01*
X121310193Y-103237093D01*
X121283180Y-103302750D01*
X121273978Y-103313018D01*
X120115000Y-104471995D01*
X120052688Y-104506021D01*
X120025905Y-104508900D01*
X115483817Y-104508900D01*
X115415696Y-104488898D01*
X115369203Y-104435242D01*
X115359099Y-104364968D01*
X115388593Y-104300388D01*
X115421385Y-104273455D01*
X115542150Y-104204572D01*
X115544565Y-104202875D01*
X115544574Y-104202869D01*
X115881847Y-103965829D01*
X115884273Y-103964124D01*
X115892610Y-103957004D01*
X116136397Y-103748790D01*
X116202249Y-103692547D01*
X116493256Y-103392251D01*
X116508150Y-103373661D01*
X116752853Y-103068221D01*
X116754712Y-103065901D01*
X116870097Y-102890244D01*
X116982669Y-102718870D01*
X116982673Y-102718863D01*
X116984295Y-102716394D01*
X116988189Y-102709041D01*
X117137148Y-102427705D01*
X117179967Y-102346833D01*
X117339993Y-101960497D01*
X117342217Y-101953270D01*
X117462078Y-101563655D01*
X117462078Y-101563653D01*
X117462951Y-101560817D01*
X117463554Y-101557907D01*
X117547145Y-101154258D01*
X117547147Y-101154248D01*
X117547749Y-101151339D01*
X117583181Y-100830405D01*
X117593366Y-100738152D01*
X117593366Y-100738151D01*
X117593637Y-100735697D01*
X117602395Y-100457000D01*
X117582697Y-100039298D01*
X117572602Y-99968368D01*
X117524195Y-99628244D01*
X117524193Y-99628235D01*
X117523776Y-99625303D01*
X117463185Y-99372923D01*
X117426849Y-99221571D01*
X117426847Y-99221564D01*
X117426157Y-99218690D01*
X117290706Y-98823069D01*
X117202077Y-98626777D01*
X117119849Y-98444661D01*
X117119846Y-98444654D01*
X117118625Y-98441951D01*
X116911440Y-98078718D01*
X116909743Y-98076303D01*
X116909737Y-98076294D01*
X116672697Y-97739021D01*
X116670992Y-97736595D01*
X116666794Y-97731679D01*
X116401340Y-97420873D01*
X116399415Y-97418619D01*
X116099119Y-97127612D01*
X116091181Y-97121252D01*
X115932821Y-96994382D01*
X115772769Y-96866156D01*
X115719954Y-96831463D01*
X115425738Y-96638199D01*
X115425731Y-96638195D01*
X115423262Y-96636573D01*
X115420651Y-96635191D01*
X115420645Y-96635187D01*
X115056324Y-96442290D01*
X115053701Y-96440901D01*
X114667365Y-96280875D01*
X114664542Y-96280007D01*
X114664535Y-96280004D01*
X114270523Y-96158790D01*
X114270521Y-96158790D01*
X114267685Y-96157917D01*
X114264783Y-96157316D01*
X114264775Y-96157314D01*
X113861126Y-96073723D01*
X113861116Y-96073721D01*
X113858207Y-96073119D01*
X113442565Y-96027231D01*
X113439584Y-96027184D01*
X113439581Y-96027184D01*
X113321870Y-96025335D01*
X113024450Y-96020663D01*
X113021506Y-96020895D01*
X113021496Y-96020895D01*
X112621336Y-96052389D01*
X112607573Y-96053472D01*
X112195633Y-96125367D01*
X112192762Y-96126153D01*
X112192755Y-96126154D01*
X111795152Y-96234926D01*
X111795142Y-96234929D01*
X111792288Y-96235710D01*
X111789524Y-96236754D01*
X111789513Y-96236758D01*
X111416002Y-96377896D01*
X111345208Y-96383264D01*
X111282751Y-96349506D01*
X111248459Y-96287340D01*
X111253221Y-96216503D01*
X111282369Y-96170935D01*
X112786199Y-94667105D01*
X112848511Y-94633079D01*
X112875294Y-94630200D01*
X112931187Y-94630200D01*
X112937639Y-94628828D01*
X112937644Y-94628828D01*
X113024587Y-94610347D01*
X113117988Y-94590494D01*
X113177376Y-94564053D01*
X113286422Y-94515503D01*
X113286424Y-94515502D01*
X113292452Y-94512818D01*
X113446953Y-94400566D01*
X113451375Y-94395655D01*
X113570321Y-94263552D01*
X113570322Y-94263551D01*
X113574740Y-94258644D01*
X113634998Y-94154275D01*
X113666923Y-94098979D01*
X113666924Y-94098978D01*
X113670227Y-94093256D01*
X113729242Y-93911628D01*
X113733562Y-93870531D01*
X113748514Y-93728265D01*
X113749204Y-93721700D01*
X113746607Y-93696992D01*
X113729932Y-93538335D01*
X113729932Y-93538333D01*
X113729242Y-93531772D01*
X113670227Y-93350144D01*
X113650959Y-93316770D01*
X113619524Y-93262324D01*
X113574740Y-93184756D01*
X113537987Y-93143937D01*
X113451375Y-93047745D01*
X113451374Y-93047744D01*
X113446953Y-93042834D01*
X113325305Y-92954451D01*
X113297794Y-92934463D01*
X113297793Y-92934462D01*
X113292452Y-92930582D01*
X113286424Y-92927898D01*
X113286422Y-92927897D01*
X113124019Y-92855591D01*
X113124018Y-92855591D01*
X113117988Y-92852906D01*
X113024587Y-92833053D01*
X112937644Y-92814572D01*
X112937639Y-92814572D01*
X112931187Y-92813200D01*
X112740213Y-92813200D01*
X112733761Y-92814572D01*
X112733756Y-92814572D01*
X112646813Y-92833053D01*
X112553412Y-92852906D01*
X112547382Y-92855591D01*
X112547381Y-92855591D01*
X112384978Y-92927897D01*
X112384976Y-92927898D01*
X112378948Y-92930582D01*
X112373607Y-92934462D01*
X112373606Y-92934463D01*
X112346095Y-92954451D01*
X112224447Y-93042834D01*
X112220026Y-93047744D01*
X112220025Y-93047745D01*
X112133414Y-93143937D01*
X112096660Y-93184756D01*
X112051876Y-93262324D01*
X112020442Y-93316770D01*
X112001173Y-93350144D01*
X111942158Y-93531772D01*
X111941468Y-93538333D01*
X111941468Y-93538335D01*
X111924793Y-93696992D01*
X111897780Y-93762649D01*
X111888578Y-93772917D01*
X103932900Y-101728595D01*
X103870588Y-101762621D01*
X103843805Y-101765500D01*
X103797813Y-101765500D01*
X103791361Y-101766872D01*
X103791356Y-101766872D01*
X103704413Y-101785353D01*
X103611012Y-101805206D01*
X103604982Y-101807891D01*
X103604981Y-101807891D01*
X103442578Y-101880197D01*
X103442576Y-101880198D01*
X103436548Y-101882882D01*
X103431207Y-101886762D01*
X103431206Y-101886763D01*
X103403094Y-101907188D01*
X103282047Y-101995134D01*
X103277626Y-102000044D01*
X103277625Y-102000045D01*
X103176115Y-102112784D01*
X103154260Y-102137056D01*
X103105545Y-102221433D01*
X103074874Y-102274557D01*
X103058773Y-102302444D01*
X103048726Y-102333365D01*
X103042161Y-102353570D01*
X103002087Y-102412176D01*
X102936690Y-102439812D01*
X102866733Y-102427705D01*
X102833233Y-102403728D01*
X100197252Y-99767747D01*
X100189712Y-99759461D01*
X100185600Y-99752982D01*
X100135948Y-99706356D01*
X100133107Y-99703602D01*
X100113370Y-99683865D01*
X100110173Y-99681385D01*
X100101151Y-99673680D01*
X100074700Y-99648841D01*
X100068921Y-99643414D01*
X100061975Y-99639595D01*
X100061972Y-99639593D01*
X100051166Y-99633652D01*
X100034647Y-99622801D01*
X100034152Y-99622417D01*
X100018641Y-99610386D01*
X100011372Y-99607241D01*
X100011368Y-99607238D01*
X99978063Y-99592826D01*
X99967413Y-99587609D01*
X99928660Y-99566305D01*
X99909037Y-99561267D01*
X99890334Y-99554863D01*
X99879020Y-99549967D01*
X99879019Y-99549967D01*
X99871745Y-99546819D01*
X99863922Y-99545580D01*
X99863912Y-99545577D01*
X99828076Y-99539901D01*
X99816456Y-99537495D01*
X99781311Y-99528472D01*
X99781310Y-99528472D01*
X99773630Y-99526500D01*
X99753376Y-99526500D01*
X99733665Y-99524949D01*
X99721486Y-99523020D01*
X99713657Y-99521780D01*
X99705765Y-99522526D01*
X99669639Y-99525941D01*
X99657781Y-99526500D01*
X98251400Y-99526500D01*
X98183279Y-99506498D01*
X98164053Y-99490157D01*
X98163780Y-99490460D01*
X98158868Y-99486037D01*
X98154453Y-99481134D01*
X98018514Y-99382368D01*
X98005294Y-99372763D01*
X98005293Y-99372762D01*
X97999952Y-99368882D01*
X97993924Y-99366198D01*
X97993922Y-99366197D01*
X97831519Y-99293891D01*
X97831518Y-99293891D01*
X97825488Y-99291206D01*
X97715372Y-99267800D01*
X97645144Y-99252872D01*
X97645139Y-99252872D01*
X97638687Y-99251500D01*
X97447713Y-99251500D01*
X97441261Y-99252872D01*
X97441256Y-99252872D01*
X97371028Y-99267800D01*
X97260912Y-99291206D01*
X97254882Y-99293891D01*
X97254881Y-99293891D01*
X97092478Y-99366197D01*
X97092476Y-99366198D01*
X97086448Y-99368882D01*
X97081107Y-99372762D01*
X97081106Y-99372763D01*
X96965361Y-99456857D01*
X96898493Y-99480716D01*
X96829342Y-99464635D01*
X96779861Y-99413721D01*
X96765300Y-99354921D01*
X96765300Y-98697691D01*
X96785302Y-98629570D01*
X96838958Y-98583077D01*
X96909232Y-98572973D01*
X96942546Y-98582583D01*
X97021654Y-98617804D01*
X97084184Y-98645644D01*
X97103612Y-98654294D01*
X97188591Y-98672357D01*
X97283956Y-98692628D01*
X97283961Y-98692628D01*
X97290413Y-98694000D01*
X97481387Y-98694000D01*
X97487839Y-98692628D01*
X97487844Y-98692628D01*
X97583209Y-98672357D01*
X97668188Y-98654294D01*
X97682799Y-98647789D01*
X97836622Y-98579303D01*
X97836624Y-98579302D01*
X97842652Y-98576618D01*
X97997153Y-98464366D01*
X98001568Y-98459463D01*
X98006480Y-98455040D01*
X98007605Y-98456289D01*
X98060914Y-98423449D01*
X98094100Y-98419000D01*
X102814433Y-98419000D01*
X102825616Y-98419527D01*
X102833109Y-98421202D01*
X102841035Y-98420953D01*
X102841036Y-98420953D01*
X102901186Y-98419062D01*
X102905145Y-98419000D01*
X102933056Y-98419000D01*
X102936991Y-98418503D01*
X102937056Y-98418495D01*
X102948893Y-98417562D01*
X102981151Y-98416548D01*
X102985170Y-98416422D01*
X102993089Y-98416173D01*
X103012543Y-98410521D01*
X103031900Y-98406513D01*
X103044130Y-98404968D01*
X103044131Y-98404968D01*
X103051997Y-98403974D01*
X103059368Y-98401055D01*
X103059370Y-98401055D01*
X103093112Y-98387696D01*
X103104342Y-98383851D01*
X103139183Y-98373729D01*
X103139184Y-98373729D01*
X103146793Y-98371518D01*
X103153612Y-98367485D01*
X103153617Y-98367483D01*
X103164228Y-98361207D01*
X103181976Y-98352512D01*
X103200817Y-98345052D01*
X103236587Y-98319064D01*
X103246507Y-98312548D01*
X103277735Y-98294080D01*
X103277738Y-98294078D01*
X103284562Y-98290042D01*
X103298883Y-98275721D01*
X103313917Y-98262880D01*
X103323894Y-98255631D01*
X103330307Y-98250972D01*
X103358498Y-98216895D01*
X103366488Y-98208116D01*
X110876914Y-90697690D01*
X116957737Y-90697690D01*
X116984725Y-90920715D01*
X117050782Y-91135435D01*
X117053352Y-91140415D01*
X117053354Y-91140419D01*
X117127797Y-91284650D01*
X117153818Y-91335064D01*
X117290577Y-91513292D01*
X117456736Y-91664485D01*
X117461483Y-91667463D01*
X117461486Y-91667465D01*
X117589929Y-91748036D01*
X117647044Y-91783864D01*
X117855483Y-91867656D01*
X118075467Y-91913213D01*
X118080078Y-91913479D01*
X118080079Y-91913479D01*
X118130652Y-91916395D01*
X118130656Y-91916395D01*
X118132475Y-91916500D01*
X119777699Y-91916500D01*
X119780486Y-91916251D01*
X119780492Y-91916251D01*
X119850629Y-91909991D01*
X119944462Y-91901617D01*
X119949876Y-91900136D01*
X119949881Y-91900135D01*
X120077612Y-91865191D01*
X120161151Y-91842337D01*
X120166209Y-91839925D01*
X120166213Y-91839923D01*
X120283893Y-91783792D01*
X120363918Y-91745622D01*
X120546354Y-91614529D01*
X120702692Y-91453201D01*
X120827990Y-91266738D01*
X120918288Y-91061033D01*
X120920215Y-91053010D01*
X120969422Y-90848046D01*
X120969422Y-90848045D01*
X120970732Y-90842589D01*
X120979410Y-90692083D01*
X120983340Y-90623917D01*
X120983340Y-90623914D01*
X120983663Y-90618310D01*
X120956675Y-90395285D01*
X120890618Y-90180565D01*
X120877223Y-90154611D01*
X120790154Y-89985919D01*
X120790154Y-89985918D01*
X120787582Y-89980936D01*
X120650823Y-89802708D01*
X120484664Y-89651515D01*
X120479917Y-89648537D01*
X120479914Y-89648535D01*
X120299105Y-89535115D01*
X120294356Y-89532136D01*
X120085917Y-89448344D01*
X119865933Y-89402787D01*
X119861322Y-89402521D01*
X119861321Y-89402521D01*
X119810748Y-89399605D01*
X119810744Y-89399605D01*
X119808925Y-89399500D01*
X118163701Y-89399500D01*
X118160914Y-89399749D01*
X118160908Y-89399749D01*
X118090771Y-89406009D01*
X117996938Y-89414383D01*
X117991524Y-89415864D01*
X117991519Y-89415865D01*
X117879367Y-89446547D01*
X117780249Y-89473663D01*
X117775191Y-89476075D01*
X117775187Y-89476077D01*
X117689825Y-89516793D01*
X117577482Y-89570378D01*
X117395046Y-89701471D01*
X117391139Y-89705503D01*
X117246647Y-89854607D01*
X117238708Y-89862799D01*
X117113410Y-90049262D01*
X117023112Y-90254967D01*
X117021803Y-90260418D01*
X117021802Y-90260422D01*
X116999750Y-90352275D01*
X116970668Y-90473411D01*
X116970345Y-90479016D01*
X116958539Y-90683785D01*
X116957737Y-90697690D01*
X110876914Y-90697690D01*
X114192247Y-87382357D01*
X114200537Y-87374813D01*
X114207018Y-87370700D01*
X114253659Y-87321032D01*
X114256413Y-87318191D01*
X114276134Y-87298470D01*
X114278612Y-87295275D01*
X114286318Y-87286253D01*
X114311158Y-87259801D01*
X114316586Y-87254021D01*
X114323795Y-87240907D01*
X114326346Y-87236268D01*
X114337199Y-87219745D01*
X114344753Y-87210006D01*
X114349613Y-87203741D01*
X114367176Y-87163157D01*
X114372383Y-87152527D01*
X114393695Y-87113760D01*
X114395666Y-87106083D01*
X114395668Y-87106078D01*
X114398732Y-87094142D01*
X114405138Y-87075430D01*
X114410034Y-87064117D01*
X114413181Y-87056845D01*
X114420097Y-87013181D01*
X114422504Y-87001560D01*
X114431528Y-86966411D01*
X114431528Y-86966410D01*
X114433500Y-86958730D01*
X114433500Y-86938469D01*
X114435051Y-86918758D01*
X114436979Y-86906585D01*
X114438219Y-86898757D01*
X114434059Y-86854746D01*
X114433500Y-86842889D01*
X114433500Y-84225888D01*
X114453502Y-84157767D01*
X114507158Y-84111274D01*
X114577432Y-84101170D01*
X114642012Y-84130664D01*
X114679930Y-84188839D01*
X114740522Y-84385794D01*
X114794575Y-84561497D01*
X114954601Y-84947833D01*
X115022496Y-85076064D01*
X115126518Y-85272528D01*
X115150273Y-85317394D01*
X115151895Y-85319863D01*
X115151899Y-85319870D01*
X115311057Y-85562164D01*
X115379856Y-85666901D01*
X115498859Y-85815441D01*
X115617221Y-85963180D01*
X115641312Y-85993251D01*
X115932319Y-86293547D01*
X116024128Y-86371959D01*
X116241445Y-86557565D01*
X116250295Y-86565124D01*
X116252721Y-86566829D01*
X116589994Y-86803869D01*
X116590003Y-86803875D01*
X116592418Y-86805572D01*
X116955651Y-87012757D01*
X116958354Y-87013978D01*
X116958361Y-87013981D01*
X117172117Y-87110495D01*
X117336769Y-87184838D01*
X117732390Y-87320289D01*
X117735264Y-87320979D01*
X117735271Y-87320981D01*
X117964897Y-87376109D01*
X118139003Y-87417908D01*
X118141935Y-87418325D01*
X118141944Y-87418327D01*
X118550060Y-87476411D01*
X118550063Y-87476411D01*
X118552998Y-87476829D01*
X118555963Y-87476969D01*
X118555965Y-87476969D01*
X118967731Y-87496387D01*
X118970700Y-87496527D01*
X118973669Y-87496387D01*
X119385435Y-87476969D01*
X119385437Y-87476969D01*
X119388402Y-87476829D01*
X119391337Y-87476411D01*
X119391340Y-87476411D01*
X119799456Y-87418327D01*
X119799465Y-87418325D01*
X119802397Y-87417908D01*
X119976503Y-87376109D01*
X120206129Y-87320981D01*
X120206136Y-87320979D01*
X120209010Y-87320289D01*
X120604631Y-87184838D01*
X120769283Y-87110495D01*
X120983039Y-87013981D01*
X120983046Y-87013978D01*
X120985749Y-87012757D01*
X121348982Y-86805572D01*
X121351397Y-86803875D01*
X121351406Y-86803869D01*
X121688679Y-86566829D01*
X121691105Y-86565124D01*
X121699956Y-86557565D01*
X121917272Y-86371959D01*
X122009081Y-86293547D01*
X122300088Y-85993251D01*
X122324180Y-85963180D01*
X122442541Y-85815441D01*
X122561544Y-85666901D01*
X122630343Y-85562164D01*
X122789501Y-85319870D01*
X122789505Y-85319863D01*
X122791127Y-85317394D01*
X122814883Y-85272528D01*
X122918904Y-85076064D01*
X122986799Y-84947833D01*
X123146825Y-84561497D01*
X123200879Y-84385794D01*
X123268910Y-84164655D01*
X123268910Y-84164653D01*
X123269783Y-84161817D01*
X123270622Y-84157767D01*
X123353977Y-83755258D01*
X123353979Y-83755248D01*
X123354581Y-83752339D01*
X123390166Y-83430022D01*
X123400198Y-83339152D01*
X123400198Y-83339151D01*
X123400469Y-83336697D01*
X123409227Y-83058000D01*
X123389529Y-82640298D01*
X123385715Y-82613500D01*
X123331027Y-82229244D01*
X123331025Y-82229235D01*
X123330608Y-82226303D01*
X123289216Y-82053893D01*
X123233681Y-81822571D01*
X123233679Y-81822564D01*
X123232989Y-81819690D01*
X123097538Y-81424069D01*
X122925457Y-81042951D01*
X122718272Y-80679718D01*
X122716575Y-80677303D01*
X122716569Y-80677294D01*
X122479529Y-80340021D01*
X122477824Y-80337595D01*
X122386912Y-80231150D01*
X122239487Y-80058538D01*
X122206247Y-80019619D01*
X121905951Y-79728612D01*
X121579601Y-79467156D01*
X121457546Y-79386981D01*
X121232570Y-79239199D01*
X121232563Y-79239195D01*
X121230094Y-79237573D01*
X121227483Y-79236191D01*
X121227477Y-79236187D01*
X120899479Y-79062522D01*
X120860533Y-79041901D01*
X120474197Y-78881875D01*
X120471374Y-78881007D01*
X120471367Y-78881004D01*
X120077355Y-78759790D01*
X120077353Y-78759790D01*
X120074517Y-78758917D01*
X120071615Y-78758316D01*
X120071607Y-78758314D01*
X119667958Y-78674723D01*
X119667948Y-78674721D01*
X119665039Y-78674119D01*
X119249397Y-78628231D01*
X119246416Y-78628184D01*
X119246413Y-78628184D01*
X119128702Y-78626335D01*
X118831282Y-78621663D01*
X118828338Y-78621895D01*
X118828328Y-78621895D01*
X118428168Y-78653389D01*
X118414405Y-78654472D01*
X118002465Y-78726367D01*
X117999594Y-78727153D01*
X117999587Y-78727154D01*
X117601984Y-78835926D01*
X117601974Y-78835929D01*
X117599120Y-78836710D01*
X117596356Y-78837754D01*
X117596345Y-78837758D01*
X117214548Y-78982027D01*
X117207948Y-78984521D01*
X117205281Y-78985828D01*
X117205280Y-78985828D01*
X116936615Y-79117446D01*
X116832423Y-79168489D01*
X116829888Y-79170042D01*
X116829887Y-79170043D01*
X116721950Y-79236187D01*
X116475878Y-79386981D01*
X116473493Y-79388771D01*
X116473494Y-79388771D01*
X116143850Y-79636273D01*
X116143843Y-79636279D01*
X116141476Y-79638056D01*
X116139295Y-79640041D01*
X116139286Y-79640048D01*
X115935481Y-79825497D01*
X115832187Y-79919487D01*
X115830207Y-79921663D01*
X115552748Y-80226586D01*
X115552741Y-80226595D01*
X115550756Y-80228776D01*
X115548979Y-80231143D01*
X115548973Y-80231150D01*
X115424636Y-80396753D01*
X115299681Y-80563178D01*
X115081189Y-80919723D01*
X115079877Y-80922402D01*
X115079876Y-80922403D01*
X114963974Y-81158989D01*
X114897221Y-81295248D01*
X114896174Y-81298018D01*
X114896173Y-81298021D01*
X114750458Y-81683645D01*
X114750454Y-81683656D01*
X114749410Y-81686420D01*
X114748629Y-81689274D01*
X114748626Y-81689284D01*
X114681034Y-81936360D01*
X114643766Y-81996788D01*
X114579744Y-82027475D01*
X114509294Y-82018677D01*
X114454785Y-81973189D01*
X114433500Y-81903112D01*
X114433500Y-80894594D01*
X114453502Y-80826473D01*
X114470405Y-80805499D01*
X121639299Y-73636605D01*
X121701611Y-73602579D01*
X121728394Y-73599700D01*
X123297033Y-73599700D01*
X123308216Y-73600227D01*
X123315709Y-73601902D01*
X123323635Y-73601653D01*
X123323636Y-73601653D01*
X123383786Y-73599762D01*
X123387745Y-73599700D01*
X123415656Y-73599700D01*
X123419591Y-73599203D01*
X123419656Y-73599195D01*
X123431493Y-73598262D01*
X123463751Y-73597248D01*
X123467770Y-73597122D01*
X123475689Y-73596873D01*
X123495143Y-73591221D01*
X123514500Y-73587213D01*
X123526730Y-73585668D01*
X123526731Y-73585668D01*
X123534597Y-73584674D01*
X123575716Y-73568394D01*
X123586926Y-73564555D01*
X123611206Y-73557502D01*
X123646353Y-73552500D01*
X123793487Y-73552500D01*
X123799939Y-73551128D01*
X123799944Y-73551128D01*
X123886888Y-73532647D01*
X123980288Y-73512794D01*
X123986319Y-73510109D01*
X124148722Y-73437803D01*
X124148724Y-73437802D01*
X124154752Y-73435118D01*
X124167729Y-73425690D01*
X124269268Y-73351917D01*
X124309253Y-73322866D01*
X124313675Y-73317955D01*
X124432621Y-73185852D01*
X124432622Y-73185851D01*
X124437040Y-73180944D01*
X124532527Y-73015556D01*
X124591542Y-72833928D01*
X124611504Y-72644000D01*
X124591542Y-72454072D01*
X124532527Y-72272444D01*
X124437040Y-72107056D01*
X124344688Y-72004488D01*
X124313675Y-71970045D01*
X124313674Y-71970044D01*
X124309253Y-71965134D01*
X124154752Y-71852882D01*
X124148724Y-71850198D01*
X124148722Y-71850197D01*
X123986319Y-71777891D01*
X123986318Y-71777891D01*
X123980288Y-71775206D01*
X123886887Y-71755353D01*
X123799944Y-71736872D01*
X123799939Y-71736872D01*
X123793487Y-71735500D01*
X123602513Y-71735500D01*
X123596061Y-71736872D01*
X123596056Y-71736872D01*
X123509113Y-71755353D01*
X123415712Y-71775206D01*
X123409682Y-71777891D01*
X123409681Y-71777891D01*
X123247278Y-71850197D01*
X123247276Y-71850198D01*
X123241248Y-71852882D01*
X123086747Y-71965134D01*
X123082326Y-71970044D01*
X123082325Y-71970045D01*
X123051313Y-72004488D01*
X122958960Y-72107056D01*
X122917746Y-72178440D01*
X122865057Y-72269700D01*
X122813674Y-72318693D01*
X122755938Y-72332700D01*
X122583112Y-72332700D01*
X122514991Y-72312698D01*
X122468498Y-72259042D01*
X122458394Y-72188768D01*
X122487888Y-72124188D01*
X122494017Y-72117605D01*
X124723517Y-69888105D01*
X124785829Y-69854079D01*
X124812612Y-69851200D01*
X125556509Y-69851200D01*
X125624630Y-69871202D01*
G37*
G04 #@! TD.AperFunction*
G04 #@! TA.AperFunction,Conductor*
G36*
X82743527Y-87103002D02*
G01*
X82764501Y-87119905D01*
X92172778Y-96528183D01*
X92206804Y-96590495D01*
X92208993Y-96604106D01*
X92212259Y-96635187D01*
X92224609Y-96752684D01*
X92226358Y-96769328D01*
X92285373Y-96950956D01*
X92288676Y-96956678D01*
X92288677Y-96956679D01*
X92307694Y-96989617D01*
X92380860Y-97116344D01*
X92385278Y-97121251D01*
X92385279Y-97121252D01*
X92419518Y-97159278D01*
X92508647Y-97258266D01*
X92663148Y-97370518D01*
X92669176Y-97373202D01*
X92669178Y-97373203D01*
X92831581Y-97445509D01*
X92837612Y-97448194D01*
X92931013Y-97468047D01*
X93017956Y-97486528D01*
X93017961Y-97486528D01*
X93024413Y-97487900D01*
X93215387Y-97487900D01*
X93221839Y-97486528D01*
X93221844Y-97486528D01*
X93308787Y-97468047D01*
X93402188Y-97448194D01*
X93408219Y-97445509D01*
X93570622Y-97373203D01*
X93570624Y-97373202D01*
X93576652Y-97370518D01*
X93731153Y-97258266D01*
X93735575Y-97253354D01*
X93740477Y-97248941D01*
X93741354Y-97249916D01*
X93795779Y-97216390D01*
X93866763Y-97217746D01*
X93918057Y-97248847D01*
X94694016Y-98024807D01*
X95461395Y-98792186D01*
X95495421Y-98854498D01*
X95498300Y-98881281D01*
X95498300Y-100287333D01*
X95497772Y-100298521D01*
X95496098Y-100306009D01*
X95496347Y-100313926D01*
X95496213Y-100315342D01*
X95469886Y-100381277D01*
X95412091Y-100422512D01*
X95341178Y-100425954D01*
X95281678Y-100392574D01*
X89439947Y-94550842D01*
X83308614Y-88419509D01*
X83276002Y-88363025D01*
X83238713Y-88223862D01*
X83238712Y-88223858D01*
X83237289Y-88218548D01*
X83160956Y-88054851D01*
X83145663Y-88022055D01*
X83145660Y-88022050D01*
X83143337Y-88017068D01*
X83015826Y-87834963D01*
X82858630Y-87677767D01*
X82854122Y-87674610D01*
X82854119Y-87674608D01*
X82778354Y-87621557D01*
X82676526Y-87550256D01*
X82671544Y-87547933D01*
X82671539Y-87547930D01*
X82482148Y-87459616D01*
X82428863Y-87412699D01*
X82409402Y-87344421D01*
X82429944Y-87276461D01*
X82434828Y-87269883D01*
X82435442Y-87269269D01*
X82438059Y-87265531D01*
X82438072Y-87265514D01*
X82528247Y-87136730D01*
X82583704Y-87092401D01*
X82631460Y-87083000D01*
X82675406Y-87083000D01*
X82743527Y-87103002D01*
G37*
G04 #@! TD.AperFunction*
G04 #@! TA.AperFunction,Conductor*
G36*
X96095821Y-70583706D02*
G01*
X96155002Y-70629491D01*
X96194285Y-70685593D01*
X96197444Y-70690104D01*
X96354640Y-70847300D01*
X96359148Y-70850457D01*
X96359151Y-70850459D01*
X96405198Y-70882701D01*
X96536744Y-70974811D01*
X96541726Y-70977134D01*
X96541731Y-70977137D01*
X96693235Y-71047784D01*
X96738225Y-71068763D01*
X96743533Y-71070185D01*
X96743535Y-71070186D01*
X96795355Y-71084071D01*
X96952958Y-71126301D01*
X97174421Y-71145676D01*
X97395884Y-71126301D01*
X97553487Y-71084071D01*
X97605307Y-71070186D01*
X97605309Y-71070185D01*
X97610617Y-71068763D01*
X97655607Y-71047784D01*
X97807111Y-70977137D01*
X97807116Y-70977134D01*
X97812098Y-70974811D01*
X97974390Y-70861173D01*
X98041663Y-70838485D01*
X98110523Y-70855770D01*
X98160854Y-70911135D01*
X98205574Y-71007037D01*
X98208730Y-71011544D01*
X98208731Y-71011546D01*
X98309692Y-71155733D01*
X98333085Y-71189142D01*
X98490281Y-71346338D01*
X98494789Y-71349495D01*
X98494792Y-71349497D01*
X98526901Y-71371980D01*
X98672385Y-71473849D01*
X98677367Y-71476172D01*
X98677372Y-71476175D01*
X98844306Y-71554017D01*
X98873866Y-71567801D01*
X98879174Y-71569223D01*
X98879176Y-71569224D01*
X98944058Y-71586609D01*
X99088599Y-71625339D01*
X99310062Y-71644714D01*
X99531525Y-71625339D01*
X99676066Y-71586609D01*
X99740948Y-71569224D01*
X99740950Y-71569223D01*
X99746258Y-71567801D01*
X99775818Y-71554017D01*
X99942752Y-71476175D01*
X99942757Y-71476172D01*
X99947739Y-71473849D01*
X100093223Y-71371980D01*
X100125332Y-71349497D01*
X100125335Y-71349495D01*
X100129843Y-71346338D01*
X100287039Y-71189142D01*
X100310433Y-71155733D01*
X100411393Y-71011546D01*
X100411394Y-71011544D01*
X100414550Y-71007037D01*
X100416873Y-71002055D01*
X100416876Y-71002050D01*
X100456476Y-70917127D01*
X100460741Y-70907980D01*
X100507658Y-70854695D01*
X100575936Y-70835234D01*
X100643895Y-70855776D01*
X100664031Y-70872135D01*
X104388690Y-74596795D01*
X108112895Y-78321000D01*
X108146921Y-78383312D01*
X108149800Y-78410095D01*
X108149800Y-85204407D01*
X108129798Y-85272528D01*
X108096071Y-85307620D01*
X107967997Y-85397298D01*
X107967994Y-85397300D01*
X107963486Y-85400457D01*
X107806290Y-85557653D01*
X107803133Y-85562161D01*
X107803131Y-85562164D01*
X107729794Y-85666901D01*
X107678779Y-85739758D01*
X107676456Y-85744740D01*
X107676453Y-85744745D01*
X107587150Y-85936256D01*
X107584827Y-85941238D01*
X107583405Y-85946546D01*
X107583404Y-85946548D01*
X107575467Y-85976169D01*
X107527289Y-86155971D01*
X107507914Y-86377434D01*
X107527289Y-86598897D01*
X107547574Y-86674602D01*
X107582212Y-86803869D01*
X107584827Y-86813630D01*
X107587149Y-86818611D01*
X107587150Y-86818612D01*
X107676453Y-87010123D01*
X107676456Y-87010128D01*
X107678779Y-87015110D01*
X107739473Y-87101790D01*
X107762160Y-87169062D01*
X107744875Y-87237922D01*
X107689509Y-87288254D01*
X107514937Y-87369658D01*
X107514932Y-87369661D01*
X107509950Y-87371984D01*
X107505443Y-87375140D01*
X107505441Y-87375141D01*
X107332356Y-87496336D01*
X107332353Y-87496338D01*
X107327845Y-87499495D01*
X107170649Y-87656691D01*
X107167492Y-87661199D01*
X107167490Y-87661202D01*
X107046295Y-87834287D01*
X107043138Y-87838796D01*
X107040815Y-87843778D01*
X107040812Y-87843783D01*
X106951509Y-88035294D01*
X106949186Y-88040276D01*
X106947764Y-88045584D01*
X106947763Y-88045586D01*
X106944437Y-88058000D01*
X106891648Y-88255009D01*
X106872273Y-88476472D01*
X106891648Y-88697935D01*
X106949186Y-88912668D01*
X106951508Y-88917649D01*
X106951509Y-88917650D01*
X107033515Y-89093512D01*
X107044176Y-89163704D01*
X107015196Y-89228516D01*
X106951932Y-89268469D01*
X106908874Y-89280006D01*
X106845205Y-89297066D01*
X106845203Y-89297067D01*
X106839895Y-89298489D01*
X106834914Y-89300811D01*
X106834913Y-89300812D01*
X106643402Y-89390115D01*
X106643397Y-89390118D01*
X106638415Y-89392441D01*
X106633908Y-89395597D01*
X106633906Y-89395598D01*
X106460821Y-89516793D01*
X106460818Y-89516795D01*
X106456310Y-89519952D01*
X106299114Y-89677148D01*
X106295957Y-89681656D01*
X106295955Y-89681659D01*
X106173146Y-89857049D01*
X106117689Y-89901377D01*
X106105100Y-89905771D01*
X106087507Y-89910882D01*
X106080681Y-89914919D01*
X106070072Y-89921193D01*
X106052324Y-89929888D01*
X106033483Y-89937348D01*
X106027067Y-89942010D01*
X106027066Y-89942010D01*
X105997713Y-89963336D01*
X105987793Y-89969852D01*
X105956565Y-89988320D01*
X105956562Y-89988322D01*
X105949738Y-89992358D01*
X105935417Y-90006679D01*
X105920384Y-90019519D01*
X105903993Y-90031428D01*
X105884992Y-90054396D01*
X105875802Y-90065505D01*
X105867812Y-90074284D01*
X103048947Y-92893148D01*
X103040661Y-92900688D01*
X103034182Y-92904800D01*
X103028757Y-92910577D01*
X102987557Y-92954451D01*
X102984802Y-92957293D01*
X102965065Y-92977030D01*
X102962585Y-92980227D01*
X102954882Y-92989247D01*
X102924614Y-93021479D01*
X102920795Y-93028425D01*
X102920793Y-93028428D01*
X102914852Y-93039234D01*
X102904001Y-93055753D01*
X102891586Y-93071759D01*
X102888441Y-93079028D01*
X102888438Y-93079032D01*
X102874026Y-93112337D01*
X102868809Y-93122987D01*
X102847505Y-93161740D01*
X102845534Y-93169415D01*
X102845534Y-93169416D01*
X102842467Y-93181362D01*
X102836063Y-93200066D01*
X102828019Y-93218655D01*
X102826780Y-93226478D01*
X102826777Y-93226488D01*
X102821101Y-93262324D01*
X102818695Y-93273944D01*
X102807700Y-93316770D01*
X102807700Y-93337024D01*
X102806149Y-93356734D01*
X102802980Y-93376743D01*
X102803726Y-93384635D01*
X102807141Y-93420761D01*
X102807700Y-93432619D01*
X102807700Y-94260933D01*
X102807173Y-94272116D01*
X102805498Y-94279609D01*
X102805747Y-94287535D01*
X102805747Y-94287536D01*
X102807638Y-94347686D01*
X102807700Y-94351645D01*
X102807700Y-94379556D01*
X102808197Y-94383490D01*
X102808197Y-94383491D01*
X102808205Y-94383556D01*
X102809138Y-94395393D01*
X102810527Y-94439589D01*
X102816019Y-94458492D01*
X102816178Y-94459039D01*
X102820187Y-94478400D01*
X102822726Y-94498497D01*
X102825645Y-94505868D01*
X102825645Y-94505870D01*
X102839004Y-94539612D01*
X102842849Y-94550842D01*
X102855182Y-94593293D01*
X102859215Y-94600112D01*
X102859217Y-94600117D01*
X102865493Y-94610728D01*
X102874188Y-94628476D01*
X102881648Y-94647317D01*
X102886310Y-94653733D01*
X102886310Y-94653734D01*
X102907636Y-94683087D01*
X102914152Y-94693007D01*
X102936658Y-94731062D01*
X102950979Y-94745383D01*
X102963819Y-94760416D01*
X102975728Y-94776807D01*
X102997466Y-94794790D01*
X103009805Y-94804998D01*
X103018584Y-94812988D01*
X103600043Y-95394447D01*
X103607587Y-95402737D01*
X103611700Y-95409218D01*
X103617477Y-95414643D01*
X103661367Y-95455858D01*
X103664209Y-95458613D01*
X103683930Y-95478334D01*
X103687125Y-95480812D01*
X103696147Y-95488518D01*
X103728379Y-95518786D01*
X103735328Y-95522606D01*
X103746132Y-95528546D01*
X103762656Y-95539399D01*
X103778659Y-95551813D01*
X103819243Y-95569376D01*
X103829873Y-95574583D01*
X103868640Y-95595895D01*
X103876317Y-95597866D01*
X103876322Y-95597868D01*
X103888258Y-95600932D01*
X103906968Y-95607338D01*
X103924211Y-95614800D01*
X103978785Y-95660211D01*
X104000144Y-95727919D01*
X103981507Y-95796426D01*
X103963264Y-95819531D01*
X102667700Y-97115095D01*
X102605388Y-97149121D01*
X102578605Y-97152000D01*
X98094100Y-97152000D01*
X98025979Y-97131998D01*
X98006753Y-97115657D01*
X98006480Y-97115960D01*
X98001568Y-97111537D01*
X97997153Y-97106634D01*
X97950349Y-97072629D01*
X97847994Y-96998263D01*
X97847993Y-96998262D01*
X97842652Y-96994382D01*
X97836624Y-96991698D01*
X97836622Y-96991697D01*
X97674219Y-96919391D01*
X97674218Y-96919391D01*
X97668188Y-96916706D01*
X97574787Y-96896853D01*
X97487844Y-96878372D01*
X97487839Y-96878372D01*
X97481387Y-96877000D01*
X97290413Y-96877000D01*
X97283961Y-96878372D01*
X97283956Y-96878372D01*
X97197012Y-96896853D01*
X97103612Y-96916706D01*
X97097582Y-96919391D01*
X97097581Y-96919391D01*
X96935178Y-96991697D01*
X96935176Y-96991698D01*
X96929148Y-96994382D01*
X96774647Y-97106634D01*
X96770226Y-97111544D01*
X96770225Y-97111545D01*
X96736392Y-97149121D01*
X96646860Y-97248556D01*
X96551373Y-97413944D01*
X96492358Y-97595572D01*
X96491668Y-97602133D01*
X96491668Y-97602135D01*
X96484799Y-97667493D01*
X96482725Y-97687230D01*
X96478526Y-97727178D01*
X96451513Y-97792835D01*
X96393291Y-97833465D01*
X96322346Y-97836168D01*
X96264121Y-97803103D01*
X91437062Y-92976043D01*
X91403036Y-92913731D01*
X91408101Y-92842916D01*
X91450648Y-92786080D01*
X91517168Y-92761269D01*
X91575010Y-92770804D01*
X91579357Y-92772633D01*
X91579375Y-92772640D01*
X91581194Y-92773405D01*
X92167765Y-92977308D01*
X92169703Y-92977846D01*
X92169705Y-92977847D01*
X92764177Y-93142989D01*
X92764189Y-93142992D01*
X92766108Y-93143525D01*
X92768057Y-93143935D01*
X92768065Y-93143937D01*
X93371850Y-93270970D01*
X93371853Y-93270971D01*
X93373804Y-93271381D01*
X93375785Y-93271668D01*
X93375786Y-93271668D01*
X93634254Y-93309089D01*
X93988397Y-93360362D01*
X94398602Y-93393327D01*
X94605411Y-93409947D01*
X94605414Y-93409947D01*
X94607403Y-93410107D01*
X95228318Y-93420414D01*
X95230293Y-93420321D01*
X95230302Y-93420321D01*
X95846617Y-93391338D01*
X95846622Y-93391338D01*
X95848634Y-93391243D01*
X96465841Y-93322712D01*
X96467813Y-93322365D01*
X96467820Y-93322364D01*
X97075483Y-93215442D01*
X97075496Y-93215439D01*
X97077447Y-93215096D01*
X97680977Y-93068832D01*
X97682886Y-93068239D01*
X97682892Y-93068237D01*
X97973701Y-92977847D01*
X98273993Y-92884510D01*
X98854097Y-92662877D01*
X98855919Y-92662045D01*
X98855930Y-92662040D01*
X99417114Y-92405662D01*
X99417113Y-92405662D01*
X99418944Y-92404826D01*
X99557777Y-92330395D01*
X99964507Y-92112338D01*
X99966251Y-92111403D01*
X100276356Y-91918828D01*
X100492110Y-91784845D01*
X100492119Y-91784839D01*
X100493805Y-91783792D01*
X100543964Y-91748036D01*
X100997840Y-91424484D01*
X100997844Y-91424481D01*
X100999474Y-91423319D01*
X101191961Y-91266738D01*
X101479664Y-91032701D01*
X101479666Y-91032699D01*
X101481214Y-91031440D01*
X101937077Y-90609740D01*
X101967313Y-90577973D01*
X102028766Y-90542421D01*
X102099685Y-90545736D01*
X102120304Y-90555302D01*
X102120333Y-90555246D01*
X102121709Y-90555954D01*
X102122973Y-90556540D01*
X102127092Y-90558989D01*
X102130629Y-90560542D01*
X102130633Y-90560544D01*
X102270888Y-90622124D01*
X102414867Y-90685339D01*
X102474720Y-90703268D01*
X102712239Y-90774418D01*
X102712244Y-90774419D01*
X102715939Y-90775526D01*
X103025785Y-90828197D01*
X103029645Y-90828374D01*
X103029649Y-90828374D01*
X103335875Y-90842382D01*
X103335877Y-90842382D01*
X103339747Y-90842559D01*
X103455754Y-90833614D01*
X103649260Y-90818694D01*
X103649266Y-90818693D01*
X103653107Y-90818397D01*
X103865006Y-90775526D01*
X103957376Y-90756838D01*
X103957380Y-90756837D01*
X103961156Y-90756073D01*
X103964810Y-90754853D01*
X103964813Y-90754852D01*
X104255605Y-90657747D01*
X104255607Y-90657746D01*
X104259264Y-90656525D01*
X104262746Y-90654865D01*
X104262750Y-90654863D01*
X104539462Y-90522912D01*
X104539465Y-90522910D01*
X104542951Y-90521248D01*
X104546200Y-90519176D01*
X104546206Y-90519173D01*
X104804696Y-90354353D01*
X104807955Y-90352275D01*
X105002956Y-90191238D01*
X105047308Y-90154611D01*
X105047313Y-90154606D01*
X105050291Y-90152147D01*
X105052945Y-90149342D01*
X105052953Y-90149335D01*
X105263657Y-89926681D01*
X105263658Y-89926680D01*
X105266318Y-89923869D01*
X105452790Y-89670874D01*
X105461560Y-89655288D01*
X105605014Y-89400324D01*
X105605014Y-89400323D01*
X105606905Y-89396963D01*
X105726345Y-89106253D01*
X105729539Y-89094586D01*
X105808296Y-88806840D01*
X105808296Y-88806838D01*
X105809316Y-88803113D01*
X105851115Y-88515857D01*
X105854015Y-88495929D01*
X105854016Y-88495922D01*
X105854572Y-88492098D01*
X105854914Y-88476472D01*
X105861348Y-88181750D01*
X105861348Y-88181743D01*
X105861432Y-88177882D01*
X105858056Y-88144510D01*
X105830181Y-87869037D01*
X105829792Y-87865188D01*
X105781514Y-87652794D01*
X105760986Y-87562485D01*
X105760985Y-87562481D01*
X105760129Y-87558716D01*
X105653489Y-87263070D01*
X105631544Y-87219745D01*
X105513226Y-86986150D01*
X105513222Y-86986144D01*
X105511475Y-86982694D01*
X105495378Y-86958730D01*
X105338379Y-86725014D01*
X105336222Y-86721803D01*
X105318946Y-86701872D01*
X105132888Y-86487228D01*
X105130363Y-86484315D01*
X104962492Y-86332886D01*
X104899868Y-86276396D01*
X104899866Y-86276394D01*
X104896991Y-86273801D01*
X104893823Y-86271581D01*
X104893817Y-86271576D01*
X104642775Y-86095640D01*
X104642772Y-86095638D01*
X104639614Y-86093425D01*
X104636211Y-86091616D01*
X104636203Y-86091611D01*
X104635390Y-86091179D01*
X104635208Y-86091001D01*
X104632903Y-86089588D01*
X104633225Y-86089062D01*
X104584628Y-86041543D01*
X104568760Y-85972342D01*
X104572907Y-85947009D01*
X104583838Y-85906617D01*
X104583841Y-85906605D01*
X104584365Y-85904668D01*
X104697577Y-85348157D01*
X104707763Y-85298088D01*
X104707764Y-85298084D01*
X104708161Y-85296131D01*
X104793035Y-84680958D01*
X104805790Y-84507760D01*
X104838500Y-84063609D01*
X104838501Y-84063595D01*
X104838645Y-84061634D01*
X104838679Y-84058263D01*
X104844785Y-83442661D01*
X104844805Y-83440664D01*
X104811492Y-82820557D01*
X104775975Y-82519052D01*
X104739074Y-82205802D01*
X104739072Y-82205786D01*
X104738840Y-82203820D01*
X104720639Y-82104276D01*
X104627503Y-81594913D01*
X104627500Y-81594897D01*
X104627143Y-81592947D01*
X104476851Y-80990407D01*
X104340924Y-80563178D01*
X104289187Y-80400564D01*
X104289184Y-80400556D01*
X104288573Y-80398635D01*
X104273909Y-80361007D01*
X104152277Y-80048919D01*
X104063070Y-79820025D01*
X103862561Y-79388771D01*
X103802107Y-79258747D01*
X103802103Y-79258740D01*
X103801254Y-79256913D01*
X103789964Y-79236187D01*
X103597569Y-78883008D01*
X103504182Y-78711578D01*
X103173055Y-78186224D01*
X103150908Y-78155591D01*
X102810382Y-77684589D01*
X102810372Y-77684576D01*
X102809213Y-77682973D01*
X102788944Y-77658393D01*
X102415400Y-77205408D01*
X102415398Y-77205406D01*
X102414125Y-77203862D01*
X101989390Y-76750825D01*
X101536724Y-76325695D01*
X101057956Y-75930191D01*
X100710132Y-75678257D01*
X100556662Y-75567097D01*
X100556659Y-75567095D01*
X100555023Y-75565910D01*
X100029957Y-75234326D01*
X99917894Y-75173153D01*
X99486648Y-74937744D01*
X99486634Y-74937737D01*
X99484881Y-74936780D01*
X99483070Y-74935936D01*
X99483058Y-74935930D01*
X98923823Y-74675322D01*
X98923811Y-74675317D01*
X98921998Y-74674472D01*
X98343583Y-74448466D01*
X98341686Y-74447861D01*
X98341673Y-74447856D01*
X97753879Y-74260279D01*
X97753871Y-74260277D01*
X97751976Y-74259672D01*
X97149567Y-74108856D01*
X96784274Y-74041734D01*
X96540752Y-73996987D01*
X96540742Y-73996985D01*
X96538791Y-73996627D01*
X95922118Y-73923438D01*
X95920143Y-73923330D01*
X95920141Y-73923330D01*
X95652082Y-73908695D01*
X95302041Y-73889584D01*
X94681065Y-73895204D01*
X94505209Y-73908001D01*
X94063702Y-73940129D01*
X94063688Y-73940131D01*
X94061702Y-73940275D01*
X94059720Y-73940547D01*
X94059717Y-73940547D01*
X93448436Y-74024341D01*
X93448422Y-74024343D01*
X93446455Y-74024613D01*
X92837811Y-74147878D01*
X92835895Y-74148395D01*
X92835881Y-74148398D01*
X92240168Y-74309050D01*
X92240158Y-74309053D01*
X92238230Y-74309573D01*
X91650136Y-74509042D01*
X91648286Y-74509804D01*
X91648280Y-74509806D01*
X91408747Y-74608434D01*
X91338141Y-74615875D01*
X91274721Y-74583962D01*
X91238623Y-74522828D01*
X91241306Y-74451882D01*
X91271679Y-74402829D01*
X94670665Y-71003843D01*
X94732977Y-70969817D01*
X94792372Y-70971232D01*
X94826103Y-70980270D01*
X94826109Y-70980271D01*
X94831423Y-70981695D01*
X95052886Y-71001070D01*
X95274349Y-70981695D01*
X95437043Y-70938101D01*
X95483772Y-70925580D01*
X95483774Y-70925579D01*
X95489082Y-70924157D01*
X95529502Y-70905309D01*
X95685576Y-70832531D01*
X95685581Y-70832528D01*
X95690563Y-70830205D01*
X95821545Y-70738490D01*
X95868156Y-70705853D01*
X95868159Y-70705851D01*
X95872667Y-70702694D01*
X95962694Y-70612667D01*
X96025006Y-70578641D01*
X96095821Y-70583706D01*
G37*
G04 #@! TD.AperFunction*
M02*
